<svg width="20" height="28" viewBox="0 0 20 28" fill="none" xmlns="http://www.w3.org/2000/svg">
<path d="M4.53438 2.75C4.72833 2.20142 5.08765 1.72649 5.56283 1.39068C6.03801 1.05486 6.60564 0.874695 7.1875 0.875H12.8125C13.3944 0.874695 13.962 1.05486 14.4372 1.39068C14.9123 1.72649 15.2717 2.20142 15.4656 2.75H16.5625C17.3084 2.75 18.0238 3.04632 18.5512 3.57376C19.0787 4.10121 19.375 4.81658 19.375 5.5625V24.3125C19.375 25.0584 19.0787 25.7738 18.5512 26.3012C18.0238 26.8287 17.3084 27.125 16.5625 27.125H3.4375C2.69158 27.125 1.97621 26.8287 1.44876 26.3012C0.921316 25.7738 0.625 25.0584 0.625 24.3125V5.5625C0.625 4.81658 0.921316 4.10121 1.44876 3.57376C1.97621 3.04632 2.69158 2.75 3.4375 2.75H4.53438ZM7.1875 2.75C6.93886 2.75 6.7004 2.84877 6.52459 3.02459C6.34877 3.2004 6.25 3.43886 6.25 3.6875C6.25 3.93614 6.34877 4.1746 6.52459 4.35041C6.7004 4.52623 6.93886 4.625 7.1875 4.625H12.8125C13.0611 4.625 13.2996 4.52623 13.4754 4.35041C13.6512 4.1746 13.75 3.93614 13.75 3.6875C13.75 3.43886 13.6512 3.2004 13.4754 3.02459C13.2996 2.84877 13.0611 2.75 12.8125 2.75H7.1875ZM8.125 13.0625C8.125 13.3111 8.22377 13.5496 8.39959 13.7254C8.5754 13.9012 8.81386 14 9.0625 14H14.6875C14.9361 14 15.1746 13.9012 15.3504 13.7254C15.5262 13.5496 15.625 13.3111 15.625 13.0625C15.625 12.8139 15.5262 12.5754 15.3504 12.3996C15.1746 12.2238 14.9361 12.125 14.6875 12.125H9.0625C8.81386 12.125 8.5754 12.2238 8.39959 12.3996C8.22377 12.5754 8.125 12.8139 8.125 13.0625ZM8.125 18.6875C8.125 18.9361 8.22377 19.1746 8.39959 19.3504C8.5754 19.5262 8.81386 19.625 9.0625 19.625H14.6875C14.9361 19.625 15.1746 19.5262 15.3504 19.3504C15.5262 19.1746 15.625 18.9361 15.625 18.6875C15.625 18.4389 15.5262 18.2004 15.3504 18.0246C15.1746 17.8488 14.9361 17.75 14.6875 17.75H9.0625C8.81386 17.75 8.5754 17.8488 8.39959 18.0246C8.22377 18.2004 8.125 18.4389 8.125 18.6875ZM5.3125 14C5.56114 14 5.7996 13.9012 5.97541 13.7254C6.15123 13.5496 6.25 13.3111 6.25 13.0625C6.25 12.8139 6.15123 12.5754 5.97541 12.3996C5.7996 12.2238 5.56114 12.125 5.3125 12.125C5.06386 12.125 4.8254 12.2238 4.64959 12.3996C4.47377 12.5754 4.375 12.8139 4.375 13.0625C4.375 13.3111 4.47377 13.5496 4.64959 13.7254C4.8254 13.9012 5.06386 14 5.3125 14ZM5.3125 19.625C5.56114 19.625 5.7996 19.5262 5.97541 19.3504C6.15123 19.1746 6.25 18.9361 6.25 18.6875C6.25 18.4389 6.15123 18.2004 5.97541 18.0246C5.7996 17.8488 5.56114 17.75 5.3125 17.75C5.06386 17.75 4.8254 17.8488 4.64959 18.0246C4.47377 18.2004 4.375 18.4389 4.375 18.6875C4.375 18.9361 4.47377 19.1746 4.64959 19.3504C4.8254 19.5262 5.06386 19.625 5.3125 19.625Z" fill="#1C1C1C"/>
</svg>
