<svg width="24" height="25" viewBox="0 0 24 25" fill="none" xmlns="http://www.w3.org/2000/svg">
<path d="M7.55016 21.779C16.6045 21.779 21.5583 14.2758 21.5583 7.77091C21.5583 7.55998 21.5536 7.34435 21.5442 7.13341C22.5079 6.43651 23.3395 5.57331 24 4.58435C23.1025 4.98365 22.1496 5.24443 21.1739 5.35779C22.2013 4.74196 22.9705 3.77452 23.3391 2.63482C22.3726 3.20761 21.3156 3.61166 20.2134 3.82966C19.4708 3.04061 18.489 2.51817 17.4197 2.3431C16.3504 2.16804 15.2532 2.3501 14.2977 2.86115C13.3423 3.3722 12.5818 4.18376 12.1338 5.17036C11.6859 6.15697 11.5754 7.26367 11.8195 8.31935C9.86249 8.22114 7.94794 7.71276 6.19998 6.82715C4.45203 5.94155 2.90969 4.69849 1.67297 3.17857C1.0444 4.2623 0.852057 5.5447 1.13503 6.76514C1.418 7.98559 2.15506 9.0525 3.19641 9.74904C2.41463 9.72422 1.64998 9.51373 0.965625 9.13498V9.19591C0.964925 10.3332 1.3581 11.4356 2.07831 12.3158C2.79852 13.196 3.80132 13.7996 4.91625 14.024C4.19206 14.2222 3.43198 14.2511 2.69484 14.1084C3.00945 15.0865 3.62157 15.9419 4.44577 16.5554C5.26997 17.1688 6.26512 17.5096 7.29234 17.5303C5.54842 18.9002 3.39417 19.6432 1.17656 19.6397C0.783287 19.6391 0.390399 19.615 0 19.5675C2.25286 21.0128 4.87353 21.7804 7.55016 21.779Z" fill="#D2D2D2"/>
</svg>
