<svg width="24" height="25" viewBox="0 0 24 25" fill="none" xmlns="http://www.w3.org/2000/svg">
<g clip-path="url(#clip0_994_29137)">
<path d="M22.2234 0.0292969H1.77187C0.792187 0.0292969 0 0.802734 0 1.75898V22.2949C0 23.2512 0.792187 24.0293 1.77187 24.0293H22.2234C23.2031 24.0293 24 23.2512 24 22.2996V1.75898C24 0.802734 23.2031 0.0292969 22.2234 0.0292969ZM7.12031 20.4809H3.55781V9.02461H7.12031V20.4809ZM5.33906 7.46367C4.19531 7.46367 3.27188 6.54023 3.27188 5.40117C3.27188 4.26211 4.19531 3.33867 5.33906 3.33867C6.47813 3.33867 7.40156 4.26211 7.40156 5.40117C7.40156 6.53555 6.47813 7.46367 5.33906 7.46367ZM20.4516 20.4809H16.8937V14.9121C16.8937 13.5855 16.8703 11.8746 15.0422 11.8746C13.1906 11.8746 12.9094 13.323 12.9094 14.8184V20.4809H9.35625V9.02461H12.7687V10.5902H12.8156C13.2891 9.69024 14.4516 8.73867 16.1813 8.73867C19.7859 8.73867 20.4516 11.1105 20.4516 14.1949V20.4809Z" fill="#D2D2D2"/>
</g>
<defs>
<clipPath id="clip0_994_29137">
<rect width="24" height="24" fill="white" transform="translate(0 0.0292969)"/>
</clipPath>
</defs>
</svg>
