<svg width="11" height="12" viewBox="0 0 11 12" fill="none" xmlns="http://www.w3.org/2000/svg">
<path fill-rule="evenodd" clip-rule="evenodd" d="M1.35881 2.56982C1.53749 2.56982 1.68234 2.71467 1.68234 2.89335V5.67571H5.17646V2.89335C5.17646 2.71467 5.3213 2.56982 5.49998 2.56982C5.67866 2.56982 5.82351 2.71467 5.82351 2.89335V5.67571H9.31763V2.89335C9.31763 2.71467 9.46248 2.56982 9.64116 2.56982C9.81984 2.56982 9.96469 2.71467 9.96469 2.89335V5.99924C9.96469 6.17792 9.81984 6.32277 9.64116 6.32277H5.82351V9.10512C5.82351 9.2838 5.67866 9.42865 5.49998 9.42865C5.3213 9.42865 5.17646 9.2838 5.17646 9.10512V6.32277H1.68234V9.10512C1.68234 9.2838 1.53749 9.42865 1.35881 9.42865C1.18013 9.42865 1.03528 9.2838 1.03528 9.10512V2.89335C1.03528 2.71467 1.18013 2.56982 1.35881 2.56982Z" fill="#242424"/>
<path d="M10.6766 1.85951C10.6766 2.13409 10.5675 2.39742 10.3733 2.59158C10.1792 2.78573 9.91583 2.89481 9.64126 2.89481C9.36668 2.89481 9.10335 2.78573 8.90919 2.59158C8.71504 2.39742 8.60596 2.13409 8.60596 1.85951C8.60596 1.58494 8.71504 1.3216 8.90919 1.12745C9.10335 0.933294 9.36668 0.824219 9.64126 0.824219C9.91583 0.824219 10.1792 0.933294 10.3733 1.12745C10.5675 1.3216 10.6766 1.58494 10.6766 1.85951ZM6.53537 1.85951C6.53537 2.13409 6.4263 2.39742 6.23214 2.59158C6.03799 2.78573 5.77466 2.89481 5.50008 2.89481C5.2255 2.89481 4.96217 2.78573 4.76802 2.59158C4.57386 2.39742 4.46479 2.13409 4.46479 1.85951C4.46479 1.58494 4.57386 1.3216 4.76802 1.12745C4.96217 0.933294 5.2255 0.824219 5.50008 0.824219C5.77466 0.824219 6.03799 0.933294 6.23214 1.12745C6.4263 1.3216 6.53537 1.58494 6.53537 1.85951ZM2.3942 1.85951C2.3942 2.13409 2.28512 2.39742 2.09097 2.59158C1.89681 2.78573 1.63348 2.89481 1.3589 2.89481C1.08433 2.89481 0.820994 2.78573 0.626839 2.59158C0.432684 2.39742 0.323608 2.13409 0.323608 1.85951C0.323608 1.58494 0.432684 1.3216 0.626839 1.12745C0.820994 0.933294 1.08433 0.824219 1.3589 0.824219C1.63348 0.824219 1.89681 0.933294 2.09097 1.12745C2.28512 1.3216 2.3942 1.58494 2.3942 1.85951ZM6.53537 10.1419C6.53537 10.4164 6.4263 10.6798 6.23214 10.8739C6.03799 11.0681 5.77466 11.1772 5.50008 11.1772C5.2255 11.1772 4.96217 11.0681 4.76802 10.8739C4.57386 10.6798 4.46479 10.4164 4.46479 10.1419C4.46479 9.86729 4.57386 9.60396 4.76802 9.4098C4.96217 9.21565 5.2255 9.10657 5.50008 9.10657C5.77466 9.10657 6.03799 9.21565 6.23214 9.4098C6.4263 9.60396 6.53537 9.86729 6.53537 10.1419ZM2.3942 10.1419C2.3942 10.4164 2.28512 10.6798 2.09097 10.8739C1.89681 11.0681 1.63348 11.1772 1.3589 11.1772C1.08433 11.1772 0.820994 11.0681 0.626839 10.8739C0.432684 10.6798 0.323608 10.4164 0.323608 10.1419C0.323608 9.86729 0.432684 9.60396 0.626839 9.4098C0.820994 9.21565 1.08433 9.10657 1.3589 9.10657C1.63348 9.10657 1.89681 9.21565 2.09097 9.4098C2.28512 9.60396 2.3942 9.86729 2.3942 10.1419Z" fill="#FC9D17" fill-opacity="0.7"/>
<path fill-rule="evenodd" clip-rule="evenodd" d="M1.35882 1.14706C1.17005 1.14706 0.989012 1.22205 0.85553 1.35553C0.722048 1.48901 0.647059 1.67005 0.647059 1.85882C0.647059 2.0476 0.722048 2.22864 0.85553 2.36212C0.989012 2.4956 1.17005 2.57059 1.35882 2.57059C1.5476 2.57059 1.72864 2.4956 1.86212 2.36212C1.9956 2.22864 2.07059 2.0476 2.07059 1.85882C2.07059 1.67005 1.9956 1.48901 1.86212 1.35553C1.72864 1.22205 1.5476 1.14706 1.35882 1.14706ZM0.39799 0.89799C0.652819 0.643161 0.998441 0.5 1.35882 0.5C1.71921 0.5 2.06483 0.643161 2.31966 0.89799C2.57449 1.15282 2.71765 1.49844 2.71765 1.85882C2.71765 2.21921 2.57449 2.56483 2.31966 2.81966C2.06483 3.07449 1.71921 3.21765 1.35882 3.21765C0.998441 3.21765 0.652819 3.07449 0.39799 2.81966C0.143161 2.56483 0 2.21921 0 1.85882C0 1.49844 0.143161 1.15282 0.39799 0.89799ZM5.5 1.14706C5.31123 1.14706 5.13019 1.22205 4.99671 1.35553C4.86322 1.48901 4.78824 1.67005 4.78824 1.85882C4.78824 2.0476 4.86322 2.22864 4.99671 2.36212C5.13019 2.4956 5.31123 2.57059 5.5 2.57059C5.68877 2.57059 5.86981 2.4956 6.00329 2.36212C6.13678 2.22864 6.21176 2.0476 6.21176 1.85882C6.21176 1.67005 6.13678 1.48901 6.00329 1.35553C5.86981 1.22205 5.68877 1.14706 5.5 1.14706ZM4.53917 0.89799C4.794 0.643161 5.13962 0.5 5.5 0.5C5.86038 0.5 6.206 0.643161 6.46083 0.89799C6.71566 1.15282 6.85882 1.49844 6.85882 1.85882C6.85882 2.21921 6.71566 2.56483 6.46083 2.81966C6.206 3.07449 5.86038 3.21765 5.5 3.21765C5.13962 3.21765 4.794 3.07449 4.53917 2.81966C4.28434 2.56483 4.14118 2.21921 4.14118 1.85882C4.14118 1.49844 4.28434 1.15282 4.53917 0.89799ZM9.64118 1.14706C9.45241 1.14706 9.27137 1.22205 9.13788 1.35553C9.0044 1.48901 8.92941 1.67005 8.92941 1.85882C8.92941 2.0476 9.0044 2.22864 9.13788 2.36212C9.27137 2.4956 9.45241 2.57059 9.64118 2.57059C9.82995 2.57059 10.011 2.4956 10.1445 2.36212C10.278 2.22864 10.3529 2.0476 10.3529 1.85882C10.3529 1.67005 10.278 1.48901 10.1445 1.35553C10.011 1.22205 9.82995 1.14706 9.64118 1.14706ZM8.68034 0.89799C8.93517 0.643161 9.28079 0.5 9.64118 0.5C10.0016 0.5 10.3472 0.643161 10.602 0.89799C10.8568 1.15282 11 1.49844 11 1.85882C11 2.21921 10.8568 2.56483 10.602 2.81966C10.3472 3.07449 10.0016 3.21765 9.64118 3.21765C9.28079 3.21765 8.93517 3.07449 8.68034 2.81966C8.42552 2.56483 8.28235 2.21921 8.28235 1.85882C8.28235 1.49844 8.42552 1.15282 8.68034 0.89799ZM1.35882 9.42941C1.17005 9.42941 0.989012 9.5044 0.85553 9.63788C0.722048 9.77137 0.647059 9.95241 0.647059 10.1412C0.647059 10.3299 0.722048 10.511 0.85553 10.6445C0.989012 10.778 1.17005 10.8529 1.35882 10.8529C1.5476 10.8529 1.72864 10.778 1.86212 10.6445C1.9956 10.511 2.07059 10.3299 2.07059 10.1412C2.07059 9.95241 1.9956 9.77137 1.86212 9.63788C1.72864 9.5044 1.5476 9.42941 1.35882 9.42941ZM0.39799 9.18034C0.652819 8.92552 0.998441 8.78235 1.35882 8.78235C1.71921 8.78235 2.06483 8.92552 2.31966 9.18034C2.57449 9.43517 2.71765 9.78079 2.71765 10.1412C2.71765 10.5016 2.57449 10.8472 2.31966 11.102C2.06483 11.3568 1.71921 11.5 1.35882 11.5C0.998441 11.5 0.652819 11.3568 0.39799 11.102C0.143161 10.8472 0 10.5016 0 10.1412C0 9.78079 0.143161 9.43517 0.39799 9.18034ZM5.5 9.42941C5.31123 9.42941 5.13019 9.5044 4.99671 9.63788C4.86322 9.77137 4.78824 9.95241 4.78824 10.1412C4.78824 10.3299 4.86322 10.511 4.99671 10.6445C5.13019 10.778 5.31123 10.8529 5.5 10.8529C5.68877 10.8529 5.86981 10.778 6.00329 10.6445C6.13678 10.511 6.21176 10.3299 6.21176 10.1412C6.21176 9.95241 6.13678 9.77137 6.00329 9.63788C5.86981 9.5044 5.68877 9.42941 5.5 9.42941ZM4.53917 9.18034C4.794 8.92552 5.13962 8.78235 5.5 8.78235C5.86038 8.78235 6.20601 8.92552 6.46083 9.18034C6.71566 9.43517 6.85882 9.78079 6.85882 10.1412C6.85882 10.5016 6.71566 10.8472 6.46083 11.102C6.20601 11.3568 5.86038 11.5 5.5 11.5C5.13962 11.5 4.794 11.3568 4.53917 11.102C4.28434 10.8472 4.14118 10.5016 4.14118 10.1412C4.14118 9.78079 4.28434 9.43517 4.53917 9.18034Z" fill="#242424"/>
<path d="M9.64113 11.177C10.2129 11.177 10.6764 10.7135 10.6764 10.1417C10.6764 9.56996 10.2129 9.10645 9.64113 9.10645C9.06935 9.10645 8.60583 9.56996 8.60583 10.1417C8.60583 10.7135 9.06935 11.177 9.64113 11.177Z" fill="#FC9D17" fill-opacity="0.7"/>
<path fill-rule="evenodd" clip-rule="evenodd" d="M9.64129 9.42929C9.2482 9.42929 8.92953 9.74795 8.92953 10.141C8.92953 10.5341 9.2482 10.8528 9.64129 10.8528C10.0344 10.8528 10.3531 10.5341 10.3531 10.141C10.3531 9.74795 10.0344 9.42929 9.64129 9.42929ZM8.28247 10.141C8.28247 9.39059 8.89084 8.78223 9.64129 8.78223C10.3918 8.78223 11.0001 9.39059 11.0001 10.141C11.0001 10.8915 10.3918 11.4999 9.64129 11.4999C8.89084 11.4999 8.28247 10.8915 8.28247 10.141Z" fill="#242424"/>
</svg>
