<svg width="24" height="25" viewBox="0 0 24 25" fill="none" xmlns="http://www.w3.org/2000/svg">
<g clip-path="url(#clip0_994_29138)">
<path d="M24 12.0293C24 5.40188 18.6274 0.0292969 12 0.0292969C5.37258 0.0292969 0 5.40188 0 12.0293C0 18.0187 4.3882 22.9833 10.125 23.8835V15.498H7.07812V12.0293H10.125V9.38555C10.125 6.37805 11.9166 4.7168 14.6576 4.7168C15.9701 4.7168 17.3438 4.95117 17.3438 4.95117V7.9043H15.8306C14.34 7.9043 13.875 8.82938 13.875 9.7793V12.0293H17.2031L16.6711 15.498H13.875V23.8835C19.6118 22.9833 24 18.0187 24 12.0293Z" fill="#D2D2D2"/>
</g>
<defs>
<clipPath id="clip0_994_29138">
<rect width="24" height="24" fill="white" transform="translate(0 0.0292969)"/>
</clipPath>
</defs>
</svg>
