<svg width="22" height="22" viewBox="0 0 22 22" fill="none" xmlns="http://www.w3.org/2000/svg">
<path d="M-1.85446e-06 11C-2.3463e-06 13.9174 1.15892 16.7153 3.22182 18.7782C5.28472 20.8411 8.08261 22 11 22C13.9174 22 16.7153 20.8411 18.7782 18.7782C20.8411 16.7153 22 13.9174 22 11C22 8.08262 20.8411 5.28473 18.7782 3.22183C16.7153 1.15893 13.9174 0 11 0C8.08262 0 5.28473 1.15893 3.22182 3.22183C1.15892 5.28473 -1.36263e-06 8.08262 -1.85446e-06 11H-1.85446e-06ZM8.118 14.8541C8.05458 14.9198 7.97872 14.9722 7.89484 15.0082C7.81096 15.0442 7.72075 15.0632 7.62946 15.064C7.53818 15.0648 7.44765 15.0474 7.36315 15.0128C7.27866 14.9782 7.2019 14.9272 7.13735 14.8626C7.0728 14.7981 7.02175 14.7213 6.98718 14.6368C6.95261 14.5524 6.93522 14.4618 6.93601 14.3705C6.93681 14.2793 6.95577 14.189 6.9918 14.1052C7.02783 14.0213 7.08021 13.9454 7.14587 13.882L12.7779 8.25H8.97187C8.78954 8.25 8.61467 8.17757 8.48574 8.04864C8.35681 7.9197 8.28437 7.74484 8.28437 7.5625C8.28437 7.38016 8.35681 7.2053 8.48574 7.07636C8.61467 6.94743 8.78954 6.875 8.97187 6.875L14.4375 6.875C14.6198 6.875 14.7947 6.94743 14.9236 7.07636C15.0526 7.2053 15.125 7.38016 15.125 7.5625L15.125 13.0281C15.125 13.2105 15.0526 13.3853 14.9236 13.5143C14.7947 13.6432 14.6198 13.7156 14.4375 13.7156C14.2552 13.7156 14.0803 13.6432 13.9514 13.5143C13.8224 13.3853 13.75 13.2105 13.75 13.0281L13.75 9.22212L8.118 14.8541Z" fill="#1C1C1C"/>
</svg>
