<svg width="16" height="16" viewBox="0 0 16 16" fill="none" xmlns="http://www.w3.org/2000/svg">
<path d="M10.6893 1.50735L10.0672 0.870283C9.79801 0.594795 9.47647 0.375894 9.12147 0.226441C8.76647 0.0769884 8.38518 0 8 0C7.61482 0 7.23353 0.0769884 6.87853 0.226441C6.52354 0.375894 6.20199 0.594795 5.93279 0.870283L5.31073 1.50635L4.42064 1.49635C4.03535 1.49179 3.65304 1.56431 3.29619 1.70966C2.93934 1.855 2.61515 2.07023 2.34269 2.34269C2.07023 2.61515 1.855 2.93934 1.70966 3.29619C1.56431 3.65304 1.49179 4.03535 1.49635 4.42064L1.50735 5.31073L0.870283 5.93279C0.594795 6.20199 0.375894 6.52354 0.226441 6.87853C0.0769884 7.23353 0 7.61482 0 8C0 8.38518 0.0769884 8.76647 0.226441 9.12147C0.375894 9.47647 0.594795 9.79801 0.870283 10.0672L1.50635 10.6893L1.49635 11.5794C1.49179 11.9646 1.56431 12.347 1.70966 12.7038C1.855 13.0607 2.07023 13.3849 2.34269 13.6573C2.61515 13.9298 2.93934 14.145 3.29619 14.2903C3.65304 14.4357 4.03535 14.5082 4.42064 14.5037L5.31073 14.4927L5.93279 15.1297C6.20199 15.4052 6.52354 15.6241 6.87853 15.7736C7.23353 15.923 7.61482 16 8 16C8.38518 16 8.76647 15.923 9.12147 15.7736C9.47647 15.6241 9.79801 15.4052 10.0672 15.1297L10.6893 14.4937L11.5794 14.5037C11.9646 14.5082 12.347 14.4357 12.7038 14.2903C13.0607 14.145 13.3849 13.9298 13.6573 13.6573C13.9298 13.3849 14.145 13.0607 14.2903 12.7038C14.4357 12.347 14.5082 11.9646 14.5037 11.5794L14.4927 10.6893L15.1297 10.0672C15.4052 9.79801 15.6241 9.47647 15.7736 9.12147C15.923 8.76647 16 8.38518 16 8C16 7.61482 15.923 7.23353 15.7736 6.87853C15.6241 6.52354 15.4052 6.20199 15.1297 5.93279L14.4937 5.31073L14.5037 4.42064C14.5082 4.03535 14.4357 3.65304 14.2903 3.29619C14.145 2.93934 13.9298 2.61515 13.6573 2.34269C13.3849 2.07023 13.0607 1.855 12.7038 1.70966C12.347 1.56431 11.9646 1.49179 11.5794 1.49635L10.6893 1.50735Z" fill="white"/>
<path fill-rule="evenodd" clip-rule="evenodd" d="M10.6893 1.50735L10.0672 0.870283C9.79801 0.594795 9.47647 0.375894 9.12147 0.226441C8.76647 0.0769884 8.38518 0 8 0C7.61482 0 7.23353 0.0769884 6.87853 0.226441C6.52354 0.375894 6.20199 0.594795 5.93279 0.870283L5.31073 1.50635L4.42064 1.49635C4.03535 1.49179 3.65304 1.56431 3.29619 1.70966C2.93934 1.855 2.61515 2.07023 2.34269 2.34269C2.07023 2.61515 1.855 2.93934 1.70966 3.29619C1.56431 3.65304 1.49179 4.03535 1.49635 4.42064L1.50735 5.31073L0.870283 5.93279C0.594795 6.20199 0.375894 6.52354 0.226441 6.87853C0.0769884 7.23353 0 7.61482 0 8C0 8.38518 0.0769884 8.76647 0.226441 9.12147C0.375894 9.47647 0.594795 9.79801 0.870283 10.0672L1.50635 10.6893L1.49635 11.5794C1.49179 11.9646 1.56431 12.347 1.70966 12.7038C1.855 13.0607 2.07023 13.3849 2.34269 13.6573C2.61515 13.9298 2.93934 14.145 3.29619 14.2903C3.65304 14.4357 4.03535 14.5082 4.42064 14.5037L5.31073 14.4927L5.93279 15.1297C6.20199 15.4052 6.52354 15.6241 6.87853 15.7736C7.23353 15.923 7.61482 16 8 16C8.38518 16 8.76647 15.923 9.12147 15.7736C9.47647 15.6241 9.79801 15.4052 10.0672 15.1297L10.6893 14.4937L11.5794 14.5037C11.9646 14.5082 12.347 14.4357 12.7038 14.2903C13.0607 14.145 13.3849 13.9298 13.6573 13.6573C13.9298 13.3849 14.145 13.0607 14.2903 12.7038C14.4357 12.347 14.5082 11.9646 14.5037 11.5794L14.4927 10.6893L15.1297 10.0672C15.4052 9.79801 15.6241 9.47647 15.7736 9.12147C15.923 8.76647 16 8.38518 16 8C16 7.61482 15.923 7.23353 15.7736 6.87853C15.6241 6.52354 15.4052 6.20199 15.1297 5.93279L14.4937 5.31073L14.5037 4.42064C14.5082 4.03535 14.4357 3.65304 14.2903 3.29619C14.145 2.93934 13.9298 2.61515 13.6573 2.34269C13.3849 2.07023 13.0607 1.855 12.7038 1.70966C12.347 1.56431 11.9646 1.49179 11.5794 1.49635L10.6893 1.50735ZM11.5912 2.49628L10.2732 2.51257L9.35198 1.56918C9.17598 1.38913 8.96552 1.24579 8.73346 1.1481C8.50128 1.05035 8.25191 1 8 1C7.74809 1 7.49872 1.05035 7.26655 1.1481C7.03437 1.24584 6.82408 1.389 6.64802 1.56918L5.72684 2.51109L4.4094 2.49628C4.15742 2.4933 3.90678 2.54073 3.6734 2.63578C3.44001 2.73084 3.22799 2.8716 3.0498 3.0498C2.8716 3.22799 2.73084 3.44001 2.63578 3.6734C2.54079 3.90662 2.49336 4.15648 2.49627 4.40828L2.51257 5.72684L1.56918 6.64802C1.38913 6.82402 1.24579 7.03448 1.1481 7.26655C1.05035 7.49872 1 7.74809 1 8C1 8.25191 1.05035 8.50128 1.1481 8.73345C1.24584 8.96563 1.389 9.17592 1.56918 9.35198L2.51109 10.2732L2.49628 11.5906C2.4933 11.8426 2.54073 12.0932 2.63578 12.3266C2.73084 12.56 2.8716 12.772 3.0498 12.9502C3.22799 13.1284 3.44001 13.2692 3.6734 13.3642C3.90674 13.4593 4.15673 13.5067 4.40867 13.5037L5.72684 13.4874L6.64802 14.4308C6.82408 14.611 7.03437 14.7542 7.26654 14.8519C7.49872 14.9496 7.74809 15 8 15C8.25191 15 8.50128 14.9496 8.73346 14.8519C8.96563 14.7542 9.17592 14.611 9.35198 14.4308L10.2732 13.4889L11.5906 13.5037C11.8426 13.5067 12.0932 13.4593 12.3266 13.3642C12.56 13.2692 12.772 13.1284 12.9502 12.9502C13.1284 12.772 13.2692 12.56 13.3642 12.3266C13.4593 12.0933 13.5067 11.8433 13.5037 11.5914L13.4874 10.2732L14.4308 9.35198C14.6109 9.17598 14.7542 8.96552 14.8519 8.73346C14.9496 8.50128 15 8.25191 15 8C15 7.74809 14.9496 7.49872 14.8519 7.26655C14.7542 7.03437 14.611 6.82408 14.4308 6.64802L13.4889 5.72684L13.5037 4.40941C13.5067 4.15742 13.4593 3.90678 13.3642 3.6734C13.2692 3.44001 13.1284 3.22799 12.9502 3.0498C12.772 2.8716 12.56 2.73084 12.3266 2.63578C12.0934 2.54079 11.843 2.49337 11.5912 2.49628Z" fill="#242424"/>
<path fill-rule="evenodd" clip-rule="evenodd" d="M10.3552 6.14593C10.4017 6.19238 10.4387 6.24756 10.4639 6.30831C10.4891 6.36907 10.5021 6.43419 10.5021 6.49997C10.5021 6.56574 10.4891 6.63087 10.4639 6.69162C10.4387 6.75237 10.4017 6.80755 10.3552 6.854L7.35487 9.85431C7.30842 9.90087 7.25324 9.93782 7.19249 9.96303C7.13174 9.98824 7.06661 10.0012 7.00083 10.0012C6.93506 10.0012 6.86993 9.98824 6.80918 9.96303C6.74843 9.93782 6.69325 9.90087 6.6468 9.85431L5.14665 8.35415C5.10015 8.30766 5.06327 8.25247 5.03811 8.19172C5.01295 8.13098 5 8.06587 5 8.00012C5 7.93437 5.01295 7.86926 5.03811 7.80852C5.06327 7.74777 5.10015 7.69258 5.14665 7.64608C5.19314 7.59959 5.24833 7.56271 5.30908 7.53755C5.36982 7.51239 5.43493 7.49944 5.50068 7.49944C5.56643 7.49944 5.63154 7.51239 5.69229 7.53755C5.75303 7.56271 5.80823 7.59959 5.85472 7.64608L7.00083 8.7932L9.6471 6.14593C9.69355 6.09936 9.74873 6.06242 9.80948 6.03721C9.87023 6.012 9.93536 5.99902 10.0011 5.99902C10.0669 5.99902 10.132 6.012 10.1928 6.03721C10.2535 6.06242 10.3087 6.09936 10.3552 6.14593V6.14593Z" fill="#242424"/>
</svg>
