<svg width="20" height="20" viewBox="0 0 20 20" fill="none" xmlns="http://www.w3.org/2000/svg">
<path d="M13.3616 1.88418L12.584 1.08785C12.2475 0.743494 11.8456 0.469867 11.4018 0.283051C10.9581 0.0962355 10.4815 0 10 0C9.51853 0 9.04192 0.0962355 8.59817 0.283051C8.15442 0.469867 7.75249 0.743494 7.41599 1.08785L6.63841 1.88293L5.5258 1.87043C5.04419 1.86473 4.5663 1.95539 4.12024 2.13707C3.67417 2.31875 3.26894 2.58779 2.92836 2.92836C2.58779 3.26894 2.31875 3.67417 2.13707 4.12024C1.95539 4.5663 1.86473 5.04419 1.87043 5.5258L1.88418 6.63841L1.08785 7.41599C0.743494 7.75249 0.469867 8.15442 0.283051 8.59817C0.0962355 9.04192 0 9.51853 0 10C0 10.4815 0.0962355 10.9581 0.283051 11.4018C0.469867 11.8456 0.743494 12.2475 1.08785 12.584L1.88293 13.3616L1.87043 14.4742C1.86473 14.9558 1.95539 15.4337 2.13707 15.8798C2.31875 16.3258 2.58779 16.7311 2.92836 17.0716C3.26894 17.4122 3.67417 17.6813 4.12024 17.8629C4.5663 18.0446 5.04419 18.1353 5.5258 18.1296L6.63841 18.1158L7.41599 18.9121C7.75249 19.2565 8.15442 19.5301 8.59817 19.7169C9.04192 19.9038 9.51853 20 10 20C10.4815 20 10.9581 19.9038 11.4018 19.7169C11.8456 19.5301 12.2475 19.2565 12.584 18.9121L13.3616 18.1171L14.4742 18.1296C14.9558 18.1353 15.4337 18.0446 15.8798 17.8629C16.3258 17.6813 16.7311 17.4122 17.0716 17.0716C17.4122 16.7311 17.6813 16.3258 17.8629 15.8798C18.0446 15.4337 18.1353 14.9558 18.1296 14.4742L18.1158 13.3616L18.9121 12.584C19.2565 12.2475 19.5301 11.8456 19.7169 11.4018C19.9038 10.9581 20 10.4815 20 10C20 9.51853 19.9038 9.04192 19.7169 8.59817C19.5301 8.15442 19.2565 7.75249 18.9121 7.41599L18.1171 6.63841L18.1296 5.5258C18.1353 5.04419 18.0446 4.5663 17.8629 4.12024C17.6813 3.67417 17.4122 3.26894 17.0716 2.92836C16.7311 2.58779 16.3258 2.31875 15.8798 2.13707C15.4337 1.95539 14.9558 1.86473 14.4742 1.87043L13.3616 1.88418Z" fill="#FDBA5C"/>
<path fill-rule="evenodd" clip-rule="evenodd" d="M13.3616 1.88418L12.584 1.08785C12.2475 0.743494 11.8456 0.469867 11.4018 0.283051C10.9581 0.0962355 10.4815 0 10 0C9.51853 0 9.04192 0.0962355 8.59817 0.283051C8.15442 0.469867 7.75249 0.743494 7.41599 1.08785L6.63841 1.88293L5.5258 1.87043C5.04419 1.86473 4.5663 1.95539 4.12024 2.13707C3.67417 2.31875 3.26894 2.58779 2.92836 2.92836C2.58779 3.26894 2.31875 3.67417 2.13707 4.12024C1.95539 4.5663 1.86473 5.04419 1.87043 5.5258L1.88418 6.63841L1.08785 7.41599C0.743494 7.75249 0.469867 8.15442 0.283051 8.59817C0.0962355 9.04192 0 9.51853 0 10C0 10.4815 0.0962355 10.9581 0.283051 11.4018C0.469867 11.8456 0.743494 12.2475 1.08785 12.584L1.88293 13.3616L1.87043 14.4742C1.86473 14.9558 1.95539 15.4337 2.13707 15.8798C2.31875 16.3258 2.58779 16.7311 2.92836 17.0716C3.26894 17.4122 3.67417 17.6813 4.12024 17.8629C4.5663 18.0446 5.04419 18.1353 5.5258 18.1296L6.63841 18.1158L7.41599 18.9121C7.75249 19.2565 8.15442 19.5301 8.59817 19.7169C9.04192 19.9038 9.51853 20 10 20C10.4815 20 10.9581 19.9038 11.4018 19.7169C11.8456 19.5301 12.2475 19.2565 12.584 18.9121L13.3616 18.1171L14.4742 18.1296C14.9558 18.1353 15.4337 18.0446 15.8798 17.8629C16.3258 17.6813 16.7311 17.4122 17.0716 17.0716C17.4122 16.7311 17.6813 16.3258 17.8629 15.8798C18.0446 15.4337 18.1353 14.9558 18.1296 14.4742L18.1158 13.3616L18.9121 12.584C19.2565 12.2475 19.5301 11.8456 19.7169 11.4018C19.9038 10.9581 20 10.4815 20 10C20 9.51853 19.9038 9.04192 19.7169 8.59817C19.5301 8.15442 19.2565 7.75249 18.9121 7.41599L18.1171 6.63841L18.1296 5.5258C18.1353 5.04419 18.0446 4.5663 17.8629 4.12024C17.6813 3.67417 17.4122 3.26894 17.0716 2.92836C16.7311 2.58779 16.3258 2.31875 15.8798 2.13707C15.4337 1.95539 14.9558 1.86473 14.4742 1.87043L13.3616 1.88418ZM14.489 3.12034L12.8414 3.14071L11.69 1.96147C11.47 1.73641 11.2069 1.55724 10.9168 1.43512C10.6266 1.31294 10.3149 1.25 10 1.25C9.68511 1.25 9.3734 1.31294 9.08318 1.43512C8.79296 1.5573 8.53009 1.73626 8.31002 1.96147L7.15855 3.13886L5.51176 3.12035C5.19678 3.11663 4.88348 3.17591 4.59175 3.29473C4.30002 3.41355 4.03499 3.58951 3.81225 3.81225C3.58951 4.03499 3.41355 4.30002 3.29473 4.59175C3.17599 4.88328 3.1167 5.19559 3.12034 5.51035L3.14071 7.15855L1.96147 8.31002C1.73641 8.53003 1.55724 8.7931 1.43512 9.08318C1.31294 9.3734 1.25 9.68511 1.25 10C1.25 10.3149 1.31294 10.6266 1.43512 10.9168C1.5573 11.207 1.73626 11.4699 1.96147 11.69L3.13886 12.8414L3.12035 14.4882C3.11663 14.8032 3.17591 15.1165 3.29473 15.4083C3.41355 15.7 3.58951 15.965 3.81224 16.1878C4.03499 16.4105 4.30002 16.5864 4.59175 16.7053C4.88343 16.8241 5.19592 16.8834 5.51084 16.8797L7.15855 16.8593L8.31002 18.0385C8.53009 18.2637 8.79296 18.4427 9.08318 18.5649C9.3734 18.6871 9.68511 18.75 10 18.75C10.3149 18.75 10.6266 18.6871 10.9168 18.5649C11.207 18.4427 11.4699 18.2637 11.69 18.0385L12.8414 16.8611L14.4882 16.8796C14.8032 16.8834 15.1165 16.8241 15.4083 16.7053C15.7 16.5865 15.965 16.4105 16.1878 16.1878C16.4105 15.965 16.5865 15.7 16.7053 15.4083C16.8241 15.1166 16.8834 14.8041 16.8797 14.4892L16.8593 12.8414L18.0385 11.69C18.2636 11.47 18.4428 11.2069 18.5649 10.9168C18.6871 10.6266 18.75 10.3149 18.75 10C18.75 9.68511 18.6871 9.3734 18.5649 9.08318C18.4427 8.79296 18.2637 8.53009 18.0385 8.31002L16.8611 7.15855L16.8796 5.51176C16.8834 5.19678 16.8241 4.88348 16.7053 4.59175C16.5864 4.30002 16.4105 4.03499 16.1878 3.81225C15.965 3.58951 15.7 3.41355 15.4083 3.29473C15.1167 3.17599 14.8038 3.11671 14.489 3.12034Z" fill="#242424"/>
<path fill-rule="evenodd" clip-rule="evenodd" d="M12.944 7.68266C13.0022 7.74072 13.0484 7.8097 13.0799 7.88564C13.1114 7.96158 13.1276 8.04299 13.1276 8.1252C13.1276 8.20742 13.1114 8.28883 13.0799 8.36477C13.0484 8.44071 13.0022 8.50969 12.944 8.56775L9.19359 12.3181C9.13552 12.3763 9.06655 12.4225 8.99061 12.454C8.91467 12.4855 8.83326 12.5018 8.75104 12.5018C8.66882 12.5018 8.58741 12.4855 8.51148 12.454C8.43554 12.4225 8.36656 12.3763 8.3085 12.3181L6.43331 10.4429C6.37519 10.3848 6.32909 10.3158 6.29764 10.2399C6.26619 10.164 6.25 10.0826 6.25 10.0004C6.25 9.9182 6.26619 9.83682 6.29764 9.76089C6.32909 9.68496 6.37519 9.61596 6.43331 9.55785C6.49142 9.49973 6.56042 9.45363 6.63635 9.42218C6.71228 9.39073 6.79366 9.37454 6.87585 9.37454C6.95804 9.37454 7.03942 9.39073 7.11536 9.42218C7.19129 9.45363 7.26028 9.49973 7.3184 9.55785L8.75104 10.9917L12.0589 7.68266C12.1169 7.62445 12.1859 7.57827 12.2619 7.54675C12.3378 7.51524 12.4192 7.49902 12.5014 7.49902C12.5836 7.49902 12.665 7.51524 12.741 7.54675C12.8169 7.57827 12.8859 7.62445 12.944 7.68266V7.68266Z" fill="#242424"/>
</svg>
