<svg width="24" height="24" viewBox="0 0 24 24" fill="none" xmlns="http://www.w3.org/2000/svg">
<path d="M16.0339 2.26102L15.1008 1.30542C14.697 0.892193 14.2147 0.56384 13.6822 0.339662C13.1497 0.115483 12.5778 0 12 0C11.4222 0 10.8503 0.115483 10.3178 0.339662C9.7853 0.56384 9.30298 0.892193 8.89919 1.30542L7.96609 2.25952L6.63096 2.24452C6.05303 2.23768 5.47956 2.34647 4.94428 2.56448C4.40901 2.7825 3.92272 3.10535 3.51404 3.51404C3.10535 3.92272 2.7825 4.40901 2.56448 4.94428C2.34647 5.47956 2.23768 6.05303 2.24452 6.63096L2.26102 7.96609L1.30542 8.89919C0.892193 9.30298 0.56384 9.7853 0.339662 10.3178C0.115483 10.8503 0 11.4222 0 12C0 12.5778 0.115483 13.1497 0.339662 13.6822C0.56384 14.2147 0.892193 14.697 1.30542 15.1008L2.25952 16.0339L2.24452 17.369C2.23768 17.947 2.34647 18.5204 2.56448 19.0557C2.7825 19.591 3.10535 20.0773 3.51404 20.486C3.92272 20.8947 4.40901 21.2175 4.94428 21.4355C5.47956 21.6535 6.05303 21.7623 6.63096 21.7555L7.96609 21.739L8.89919 22.6946C9.30298 23.1078 9.7853 23.4362 10.3178 23.6603C10.8503 23.8845 11.4222 24 12 24C12.5778 24 13.1497 23.8845 13.6822 23.6603C14.2147 23.4362 14.697 23.1078 15.1008 22.6946L16.0339 21.7405L17.369 21.7555C17.947 21.7623 18.5204 21.6535 19.0557 21.4355C19.591 21.2175 20.0773 20.8947 20.486 20.486C20.8947 20.0773 21.2175 19.591 21.4355 19.0557C21.6535 18.5204 21.7623 17.947 21.7555 17.369L21.739 16.0339L22.6946 15.1008C23.1078 14.697 23.4362 14.2147 23.6603 13.6822C23.8845 13.1497 24 12.5778 24 12C24 11.4222 23.8845 10.8503 23.6603 10.3178C23.4362 9.7853 23.1078 9.30298 22.6946 8.89919L21.7405 7.96609L21.7555 6.63096C21.7623 6.05303 21.6535 5.47956 21.4355 4.94428C21.2175 4.40901 20.8947 3.92272 20.486 3.51404C20.0773 3.10535 19.591 2.7825 19.0557 2.56448C18.5204 2.34647 17.947 2.23768 17.369 2.24452L16.0339 2.26102Z" fill="#FC9D17"/>
<path fill-rule="evenodd" clip-rule="evenodd" d="M16.0339 2.26102L15.1008 1.30542C14.697 0.892193 14.2147 0.56384 13.6822 0.339662C13.1497 0.115483 12.5778 0 12 0C11.4222 0 10.8503 0.115483 10.3178 0.339662C9.7853 0.56384 9.30298 0.892193 8.89919 1.30542L7.96609 2.25952L6.63096 2.24452C6.05303 2.23768 5.47956 2.34647 4.94428 2.56448C4.40901 2.7825 3.92272 3.10535 3.51404 3.51404C3.10535 3.92272 2.7825 4.40901 2.56448 4.94428C2.34647 5.47956 2.23768 6.05303 2.24452 6.63096L2.26102 7.96609L1.30542 8.89919C0.892193 9.30298 0.56384 9.7853 0.339662 10.3178C0.115483 10.8503 0 11.4222 0 12C0 12.5778 0.115483 13.1497 0.339662 13.6822C0.56384 14.2147 0.892193 14.697 1.30542 15.1008L2.25952 16.0339L2.24452 17.369C2.23768 17.947 2.34647 18.5204 2.56448 19.0557C2.7825 19.591 3.10535 20.0773 3.51404 20.486C3.92272 20.8947 4.40901 21.2175 4.94428 21.4355C5.47956 21.6535 6.05303 21.7623 6.63096 21.7555L7.96609 21.739L8.89919 22.6946C9.30298 23.1078 9.7853 23.4362 10.3178 23.6603C10.8503 23.8845 11.4222 24 12 24C12.5778 24 13.1497 23.8845 13.6822 23.6603C14.2147 23.4362 14.697 23.1078 15.1008 22.6946L16.0339 21.7405L17.369 21.7555C17.947 21.7623 18.5204 21.6535 19.0557 21.4355C19.591 21.2175 20.0773 20.8947 20.486 20.486C20.8947 20.0773 21.2175 19.591 21.4355 19.0557C21.6535 18.5204 21.7623 17.947 21.7555 17.369L21.739 16.0339L22.6946 15.1008C23.1078 14.697 23.4362 14.2147 23.6603 13.6822C23.8845 13.1497 24 12.5778 24 12C24 11.4222 23.8845 10.8503 23.6603 10.3178C23.4362 9.7853 23.1078 9.30298 22.6946 8.89919L21.7405 7.96609L21.7555 6.63096C21.7623 6.05303 21.6535 5.47956 21.4355 4.94428C21.2175 4.40901 20.8947 3.92272 20.486 3.51404C20.0773 3.10535 19.591 2.7825 19.0557 2.56448C18.5204 2.34647 17.947 2.23768 17.369 2.24452L16.0339 2.26102ZM17.3868 3.74441L15.4097 3.76885L14.028 2.35377C13.764 2.08369 13.4483 1.86869 13.1002 1.72214C12.7519 1.57553 12.3779 1.5 12 1.5C11.6221 1.5 11.2481 1.57553 10.8998 1.72214C10.5516 1.86876 10.2361 2.08351 9.97203 2.35377L8.59026 3.76663L6.61411 3.74442C6.23613 3.73995 5.86018 3.81109 5.5101 3.95368C5.16002 4.09626 4.84198 4.30741 4.5747 4.5747C4.30741 4.84198 4.09626 5.16002 3.95368 5.5101C3.81119 5.85993 3.74004 6.23471 3.7444 6.61242L3.76885 8.59026L2.35377 9.97203C2.08369 10.236 1.86869 10.5517 1.72214 10.8998C1.57553 11.2481 1.5 11.6221 1.5 12C1.5 12.3779 1.57553 12.7519 1.72214 13.1002C1.86876 13.4484 2.08351 13.7639 2.35377 14.028L3.76663 15.4097L3.74442 17.3859C3.73995 17.7639 3.81109 18.1398 3.95367 18.4899C4.09626 18.84 4.30741 19.158 4.57469 19.4253C4.84198 19.6926 5.16002 19.9037 5.51009 20.0463C5.86011 20.1889 6.2351 20.26 6.61301 20.2556L8.59026 20.2312L9.97203 21.6462C10.2361 21.9165 10.5516 22.1312 10.8998 22.2779C11.2481 22.4245 11.6221 22.5 12 22.5C12.3779 22.5 12.7519 22.4245 13.1002 22.2779C13.4484 22.1312 13.7639 21.9165 14.028 21.6462L15.4097 20.2334L17.3859 20.2556C17.7639 20.26 18.1398 20.1889 18.4899 20.0463C18.84 19.9037 19.158 19.6926 19.4253 19.4253C19.6926 19.158 19.9037 18.84 20.0463 18.4899C20.1889 18.1399 20.26 17.7649 20.2556 17.387L20.2312 15.4097L21.6462 14.028C21.9163 13.764 22.1313 13.4483 22.2779 13.1002C22.4245 12.7519 22.5 12.3779 22.5 12C22.5 11.6221 22.4245 11.2481 22.2779 10.8998C22.1312 10.5516 21.9165 10.2361 21.6462 9.97203L20.2334 8.59026L20.2556 6.61411C20.26 6.23614 20.1889 5.86018 20.0463 5.5101C19.9037 5.16002 19.6926 4.84198 19.4253 4.5747C19.158 4.30741 18.84 4.09626 18.4899 3.95368C18.1401 3.81119 17.7645 3.74005 17.3868 3.74441Z" fill="white"/>
<path fill-rule="evenodd" clip-rule="evenodd" d="M15.5328 9.2189C15.6026 9.28857 15.658 9.37134 15.6958 9.46247C15.7337 9.5536 15.7531 9.65129 15.7531 9.74995C15.7531 9.84861 15.7337 9.9463 15.6958 10.0374C15.658 10.1286 15.6026 10.2113 15.5328 10.281L11.0323 14.7815C10.9626 14.8513 10.8799 14.9067 10.7887 14.9445C10.6976 14.9824 10.5999 15.0018 10.5013 15.0018C10.4026 15.0018 10.3049 14.9824 10.2138 14.9445C10.1226 14.9067 10.0399 14.8513 9.9702 14.7815L7.71997 12.5312C7.65023 12.4615 7.59491 12.3787 7.55717 12.2876C7.51943 12.1965 7.5 12.0988 7.5 12.0002C7.5 11.9016 7.51943 11.8039 7.55717 11.7128C7.59491 11.6217 7.65023 11.5389 7.71997 11.4691C7.78971 11.3994 7.8725 11.3441 7.96362 11.3063C8.05474 11.2686 8.1524 11.2492 8.25102 11.2492C8.34965 11.2492 8.44731 11.2686 8.53843 11.3063C8.62955 11.3441 8.71234 11.3994 8.78208 11.4691L10.5013 13.1898L14.4706 9.2189C14.5403 9.14905 14.6231 9.09363 14.7142 9.05581C14.8054 9.018 14.903 8.99854 15.0017 8.99854C15.1004 8.99854 15.1981 9.018 15.2892 9.05581C15.3803 9.09363 15.4631 9.14905 15.5328 9.2189V9.2189Z" fill="#242424"/>
</svg>
