<svg width="11" height="11" viewBox="0 0 11 11" fill="none" xmlns="http://www.w3.org/2000/svg">
<path d="M7.35505 1.53626L7.14082 1.53891L6.99113 1.38562L6.56359 0.947767C6.56355 0.947723 6.56351 0.947679 6.56347 0.947636C6.42499 0.805957 6.25959 0.693376 6.077 0.616506C5.89435 0.539611 5.69818 0.5 5.5 0.5C5.30182 0.5 5.10565 0.539611 4.923 0.616506C4.74035 0.6934 4.57491 0.806027 4.43641 0.947766L4.43626 0.947917L4.00859 1.38521L3.85918 1.53798L3.64551 1.53558L3.03357 1.52871L3.03327 1.5287C2.83504 1.52636 2.63834 1.56367 2.45473 1.63845C2.27113 1.71323 2.10434 1.82397 1.96415 1.96415C1.82397 2.10434 1.71323 2.27113 1.63845 2.45473C1.5637 2.63826 1.52639 2.83487 1.5287 3.03301C1.5287 3.03302 1.5287 3.03303 1.5287 3.03304C1.5287 3.03312 1.5287 3.0332 1.5287 3.03327L1.53626 3.64495L1.53891 3.85918L1.38562 4.00887L0.947766 4.43641C0.947723 4.43645 0.947679 4.43649 0.947636 4.43653C0.805957 4.57501 0.693376 4.7404 0.616506 4.923C0.539611 5.10565 0.5 5.30182 0.5 5.5C0.5 5.69818 0.539611 5.89435 0.616505 6.077C0.6934 6.25965 0.806026 6.42509 0.947767 6.56359L0.947917 6.56374L1.38521 6.99141L1.53798 7.14082L1.53558 7.35449L1.52871 7.96643L1.5287 7.96673C1.52636 8.16496 1.56367 8.36166 1.63845 8.54527C1.71323 8.72887 1.82397 8.89566 1.96415 9.03585C2.10434 9.17603 2.27113 9.28677 2.45473 9.36155C2.63825 9.4363 2.83486 9.47361 3.03301 9.4713L3.03327 9.4713M7.35505 1.53626L3.03919 9.97126L3.03327 9.4713M7.35505 1.53626L7.96673 1.5287L7.35505 1.53626ZM3.03327 9.4713L3.64495 9.46374L3.85918 9.46109L4.00887 9.61438L4.43641 10.0522M3.03327 9.4713L4.43641 10.0522M4.43641 10.0522L4.07896 10.4015L4.43653 10.0524C4.57501 10.194 4.7404 10.3066 4.923 10.3835C5.10565 10.4604 5.30182 10.5 5.5 10.5C5.69817 10.5 5.89435 10.4604 6.077 10.3835C6.25965 10.3066 6.42509 10.194 6.56359 10.0522L6.56374 10.0521L6.99141 9.61479L7.14082 9.46202L7.35449 9.46442L7.96643 9.47129L7.96673 9.4713C8.16496 9.47364 8.36166 9.43633 8.54527 9.36155C8.72887 9.28677 8.89566 9.17603 9.03585 9.03585C9.17603 8.89566 9.28677 8.72887 9.36155 8.54527C9.4363 8.36174 9.47361 8.16514 9.4713 7.96699M4.43641 10.0522L7.96081 9.97126C8.2257 9.9744 8.48853 9.92454 8.73387 9.82461C8.97921 9.72469 9.20208 9.57672 9.3894 9.3894C9.57672 9.20208 9.72469 8.97921 9.82461 8.73387C9.92454 8.48853 9.9744 8.2257 9.97126 7.96081M9.4713 7.96699L9.97126 7.96081M9.4713 7.96699L9.4713 7.96673M9.4713 7.96699C9.4713 7.9669 9.4713 7.96681 9.4713 7.96673M9.97126 7.96081L9.9637 7.34887L10.4017 6.92121M9.97126 7.96081L10.0522 6.56359M9.4713 7.96673L9.46374 7.35505L9.46109 7.14082L9.61438 6.99113L10.0522 6.56359M9.4713 7.96673L10.0522 6.56359M10.0522 6.56359L10.4017 6.92121M10.4017 6.92121L10.0524 6.56347M10.4017 6.92121C10.5911 6.73613 10.7416 6.51507 10.8443 6.27101C10.9471 6.02695 11 5.76481 11 5.5C11 5.23519 10.9471 4.97305 10.8443 4.72899C10.7416 4.48493 10.5911 4.26387 10.4017 4.07879L9.96439 3.65113L9.97126 3.03919C9.9744 2.7743 9.92454 2.51147 9.82461 2.26613C9.72469 2.02079 9.57672 1.79792 9.3894 1.6106C9.20208 1.42328 8.97921 1.27531 8.73387 1.17539C8.48853 1.07546 8.2257 1.0256 7.96081 1.02874L10.0524 6.56347M10.0524 6.56347C10.194 6.42499 10.3066 6.2596 10.3835 6.077C10.4604 5.89435 10.5 5.69817 10.5 5.5C10.5 5.30182 10.4604 5.10565 10.3835 4.923C10.3066 4.74035 10.194 4.57491 10.0522 4.43641L10.0521 4.43626L9.61479 4.00859L9.46202 3.85918L9.46442 3.64551L9.47129 3.03357L9.4713 3.03327C9.47364 2.83504 9.43633 2.63834 9.36155 2.45474C9.28677 2.27113 9.17603 2.10434 9.03585 1.96415C8.89566 1.82397 8.72887 1.71323 8.54527 1.63845C8.36174 1.5637 8.16514 1.52639 7.96699 1.5287L10.0524 6.56347Z" fill="#FC9D17" fill-opacity="0.7" stroke="#242424"/>
<path fill-rule="evenodd" clip-rule="evenodd" d="M7.11918 4.22502C7.1512 4.25696 7.1766 4.29489 7.19393 4.33666C7.21126 4.37843 7.22018 4.4232 7.22018 4.46842C7.22018 4.51364 7.21126 4.55842 7.19393 4.60018C7.1766 4.64195 7.1512 4.67989 7.11918 4.71182L5.05647 6.77453C5.02454 6.80655 4.9866 6.83195 4.94483 6.84928C4.90307 6.86661 4.85829 6.87553 4.81307 6.87553C4.76785 6.87553 4.72308 6.86661 4.68131 6.84928C4.63954 6.83195 4.60161 6.80655 4.56967 6.77453L3.53832 5.74318C3.50636 5.71121 3.481 5.67327 3.4637 5.6315C3.4464 5.58974 3.4375 5.54498 3.4375 5.49978C3.4375 5.45457 3.4464 5.40981 3.4637 5.36805C3.481 5.32629 3.50636 5.28834 3.53832 5.25638C3.57028 5.22441 3.60823 5.19906 3.64999 5.18176C3.69175 5.16446 3.73652 5.15556 3.78172 5.15556C3.82692 5.15556 3.87168 5.16446 3.91345 5.18176C3.95521 5.19906 3.99315 5.22441 4.02512 5.25638L4.81307 6.04502L6.63238 4.22502C6.66432 4.19301 6.70225 4.16761 6.74402 4.15028C6.78579 4.13294 6.83056 4.12402 6.87578 4.12402C6.921 4.12402 6.96578 4.13294 7.00754 4.15028C7.04931 4.16761 7.08725 4.19301 7.11918 4.22502V4.22502Z" fill="#242424"/>
</svg>
