<svg width="256" height="257" viewBox="0 0 256 257" fill="none" xmlns="http://www.w3.org/2000/svg">
<path d="M234.673 0.349609H21.3272C9.54849 0.349609 0 9.80494 0 21.4687V235.231C0 246.894 9.54849 256.35 21.3272 256.35H234.673C246.452 256.35 256 246.894 256 235.231V21.4687C256 9.80494 246.452 0.349609 234.673 0.349609Z" fill="#FC9D17"/>
<path d="M243.955 231.557V25.1412C243.955 18.0416 238.143 12.2861 230.973 12.2861L25.0457 12.2861C17.8761 12.2861 12.0639 18.0416 12.0639 25.1412V231.557C12.0639 238.657 17.8761 244.412 25.0457 244.412H230.973C238.143 244.412 243.955 238.657 243.955 231.557Z" stroke="#A77026" stroke-width="6" stroke-miterlimit="10"/>
<path d="M30.7211 38.5381C34.5313 38.5381 37.62 35.4795 37.62 31.7066C37.62 27.9336 34.5313 24.875 30.7211 24.875C26.911 24.875 23.8223 27.9336 23.8223 31.7066C23.8223 35.4795 26.911 38.5381 30.7211 38.5381Z" fill="#221F20"/>
<path d="M225.28 38.5381C229.09 38.5381 232.179 35.4795 232.179 31.7066C232.179 27.9336 229.09 24.875 225.28 24.875C221.47 24.875 218.381 27.9336 218.381 31.7066C218.381 35.4795 221.47 38.5381 225.28 38.5381Z" fill="#221F20"/>
<path d="M30.7211 233.651C34.5313 233.651 37.62 230.593 37.62 226.82C37.62 223.047 34.5313 219.988 30.7211 219.988C26.911 219.988 23.8223 223.047 23.8223 226.82C23.8223 230.593 26.911 233.651 30.7211 233.651Z" fill="#221F20"/>
<path d="M225.28 233.651C229.09 233.651 232.179 230.593 232.179 226.82C232.179 223.047 229.09 219.988 225.28 219.988C221.47 219.988 218.381 223.047 218.381 226.82C218.381 230.593 221.47 233.651 225.28 233.651Z" fill="#221F20"/>
<path d="M48.1987 65.7918C48.1987 65.0612 48.4918 64.3607 49.0135 63.8441C49.5352 63.3275 50.2428 63.0371 50.9805 63.0371H75.5717C76.499 63.0371 84.9927 63.9003 89.8516 68.8495C94.7105 73.7987 95.9623 82.8249 95.9623 84.7072V108.893C95.9623 110.729 95.1648 120.83 90.3987 125.733C85.6325 130.637 76.5546 130.701 75.5624 130.701H63.9994C63.6716 130.75 63.3585 130.87 63.0816 131.05C62.8047 131.231 62.5706 131.469 62.3952 131.748C61.9085 132.247 61.6048 132.894 61.5328 133.584V188.999C61.5329 189.486 61.4352 189.968 61.2453 190.417C61.0554 190.866 60.7772 191.274 60.4269 191.615C60.0766 191.957 59.661 192.227 59.2046 192.408C58.7482 192.589 58.2599 192.679 57.7681 192.672L50.9713 192.58C50.2335 192.58 49.5259 192.29 49.0042 191.773C48.4825 191.257 48.1895 190.556 48.1895 189.825L48.1987 65.7918ZM63.6378 115.982C63.6378 116.074 63.7675 116.12 64.0086 116.12C64.1059 116.128 64.1959 116.174 64.259 116.248H74.8299C75.7151 116.233 76.5836 116.006 77.3613 115.587C78.244 115.14 79.0562 114.567 79.7722 113.888C80.4969 113.202 81.1016 112.402 81.5618 111.519C81.9976 110.711 82.2299 109.81 82.2387 108.893V84.7072C82.2299 83.7906 81.9976 82.8899 81.5618 82.0812C81.1016 81.199 80.4969 80.3984 79.7722 79.7121C79.0562 79.0329 78.244 78.4605 77.3613 78.0133C76.5836 77.5944 75.7151 77.3678 74.8299 77.3525H64.259C63.8978 77.3719 63.5465 77.4769 63.235 77.6591C62.9235 77.8413 62.6609 78.095 62.4694 78.3989C61.9903 78.9523 61.707 79.6455 61.6627 80.373V113.227C61.6933 113.835 61.932 114.415 62.3396 114.871C62.6757 115.339 63.1211 115.72 63.6378 115.982Z" fill="#221F20"/>
<path d="M106.766 65.7918C106.766 65.0612 107.059 64.3607 107.58 63.8441C108.102 63.3275 108.81 63.0371 109.547 63.0371H134.148C135.075 63.0371 143.569 63.9003 148.428 68.8495C153.287 73.7987 154.529 82.8249 154.529 84.7072V108.893C154.529 110.729 153.741 120.83 148.966 125.733C144.19 130.637 135.121 130.701 134.129 130.701H122.566C122.238 130.75 121.925 130.87 121.648 131.05C121.372 131.231 121.137 131.469 120.962 131.748C120.47 132.245 120.163 132.892 120.09 133.584V188.999C120.091 189.485 119.993 189.967 119.804 190.415C119.614 190.864 119.337 191.271 118.988 191.612C118.638 191.954 118.224 192.224 117.769 192.405C117.313 192.587 116.826 192.678 116.335 192.672L109.529 192.58C108.791 192.58 108.084 192.29 107.562 191.773C107.04 191.257 106.747 190.556 106.747 189.825L106.766 65.7918ZM122.214 115.982C122.214 116.074 122.334 116.12 122.585 116.12C122.682 116.128 122.772 116.174 122.835 116.248H133.452C134.337 116.23 135.205 116.003 135.984 115.587C136.867 115.14 137.679 114.567 138.395 113.888C139.119 113.202 139.724 112.402 140.184 111.519C140.62 110.711 140.852 109.81 140.861 108.893V84.7072C140.852 83.7906 140.62 82.8899 140.184 82.0812C139.724 81.199 139.119 80.3984 138.395 79.7121C137.679 79.0329 136.867 78.4605 135.984 78.0133C135.205 77.5967 134.337 77.3703 133.452 77.3525H122.881C122.519 77.3712 122.166 77.4761 121.853 77.6583C121.54 77.8404 121.276 78.0943 121.083 78.3989C120.61 78.9552 120.33 79.6473 120.285 80.373V113.227C120.316 113.835 120.555 114.415 120.962 114.871C121.283 115.336 121.712 115.717 122.214 115.982Z" fill="#221F20"/>
<path d="M201.866 88.6923C201.383 88.6925 200.92 88.5066 200.574 88.174C200.227 87.8414 200.026 87.3884 200.011 86.911C199.965 83.8533 198.657 77.9493 189.023 78.5829C176.041 79.4368 177.979 87.6364 177.979 87.6364V168.44C177.979 168.44 179.704 176.814 189.885 176.64C200.067 176.465 199.891 169.129 199.891 169.129V166.695C199.891 166.208 200.086 165.741 200.434 165.397C200.782 165.052 201.253 164.859 201.745 164.859H211.491C211.983 164.859 212.454 165.052 212.802 165.397C213.15 165.741 213.345 166.208 213.345 166.695V174.767C213.345 174.767 213.002 192.534 187.122 192.534C170.904 192.534 164.182 180.404 164.182 171.856V82.5127C164.182 82.5127 165.563 62.1836 188.847 62.1836C212.131 62.1836 213.002 81.659 213.002 81.659V86.9756C213.002 87.4626 212.807 87.9296 212.459 88.274C212.111 88.6184 211.64 88.812 211.148 88.812L201.866 88.6923Z" fill="#221F20"/>
</svg>
