<svg width="17" height="15" viewBox="0 0 17 15" fill="none" xmlns="http://www.w3.org/2000/svg">
<path d="M15.5274 6.44883C15.6612 6.44651 15.794 6.47084 15.9183 6.52042C16.0425 6.57 16.1557 6.64382 16.2511 6.73759C16.3465 6.83136 16.4223 6.94319 16.474 7.06655C16.5257 7.18992 16.5524 7.32235 16.5524 7.45613C16.5524 7.5899 16.5257 7.72233 16.474 7.8457C16.4223 7.96907 16.3465 8.0809 16.2511 8.17466C16.1557 8.26843 16.0425 8.34225 15.9183 8.39183C15.794 8.44141 15.6612 8.46575 15.5274 8.46342L3.85588 8.46342L7.79958 12.4071C7.98851 12.5961 8.09465 12.8523 8.09465 13.1195C8.09465 13.3867 7.98851 13.6429 7.79958 13.8319C7.61065 14.0208 7.3544 14.1269 7.08721 14.1269C6.82001 14.1269 6.56377 14.0208 6.37483 13.8319L0.711467 8.1685C0.522534 7.97957 0.416392 7.72332 0.416392 7.45612C0.416392 7.18893 0.522534 6.93269 0.711467 6.74375L6.37484 1.08039C6.56377 0.891453 6.82002 0.785313 7.08721 0.785313C7.3544 0.785313 7.61065 0.891453 7.79958 1.08039C7.98852 1.26932 8.09466 1.52557 8.09466 1.79276C8.09466 2.05995 7.98851 2.3162 7.79958 2.50513L3.85588 6.44883L15.5274 6.44883Z" fill="#FC9D17"/>
</svg>
