<svg width="160" height="160" viewBox="0 0 160 160" fill="none" xmlns="http://www.w3.org/2000/svg">
<path d="M151.999 84.2712V85.0608C151.668 87.0182 151.097 88.9304 150.015 90.4561C148.078 93.1989 145.04 92.5903 142.467 93.3347C142.42 93.3347 142.316 93.1619 142.258 93.0591C142.161 92.8823 142.1 92.5615 141.985 92.5369C141.604 92.4629 141.108 92.2984 140.907 92.8124C140.335 94.1987 139.471 95.4001 138.391 96.3078C135.638 98.7053 131.202 98.1707 128.941 95.1194C128.097 93.9679 127.644 91.443 125.771 92.6315C124.913 93.1621 123.945 93.4139 122.971 93.3593C96.0712 93.3922 69.1724 93.3922 42.2747 93.3593C42.0394 93.3304 41.8174 93.22 41.6385 93.0427C41.5127 92.9358 41.4336 92.541 41.3905 92.5492C40.9592 92.6685 40.3984 92.1174 40.0929 92.7425C39.144 94.6835 37.9364 96.1845 36.0817 97.1508C33.1487 98.6683 28.7061 97.1221 27.1857 93.9227C26.7831 93.0797 26.9664 91.3772 25.3633 91.6363C24.8098 91.7268 24.9644 92.6849 24.224 92.541C22.3837 92.1791 20.5218 91.957 18.6707 91.6733C16.8196 91.3895 14.9326 91.1593 13.0815 90.7727C12.1449 90.5994 11.2429 90.236 10.4181 89.6994C9.28588 88.9222 8.98036 87.3965 8.62092 86.0683C8.31181 84.8839 7.5426 83.1074 8.41962 82.4125C9.8286 81.3104 9.54465 79.7724 9.99394 78.4235C10.5223 76.8362 10.835 75.0186 12.1074 73.9946C13.4337 72.9337 15.1195 73.5834 16.6363 73.2914C21.2586 72.469 26.1864 73.7479 30.3523 69.944C32.171 68.2991 34.4642 67.2793 36.5956 66.1073C38.9643 64.8037 41.2683 63.2287 44.0396 63.2698C55.3006 63.496 66.5653 63.0601 77.8263 63.6153C85.0438 63.9689 92.2899 63.5824 99.5182 63.7551C104.482 63.8784 109.701 62.6736 114.05 66.9174C115.628 68.4554 117.486 69.611 119.204 70.9639C120.462 71.9508 121.595 73.5341 122.96 73.863C125.678 74.5169 128.517 74.5539 131.31 74.7266C135.03 74.9569 138.761 75.0021 142.478 75.2653C144.893 75.438 147.51 75.1831 148.858 78.3989C149.71 80.4961 150.59 82.5811 151.999 84.2712ZM80.3927 68.7021L80.2129 68.332L80.1195 68.4184L80.4034 68.6898L80.7233 69.101C81.332 69.7864 81.9406 70.4718 82.5493 71.1572L82.7614 71.5191L82.88 71.3422L82.5205 71.1695C82.1725 70.2385 81.5196 69.5004 80.7018 69.1134C80.8168 68.7474 80.6802 68.6446 80.3927 68.7021ZM90.4964 69.1134L90.3167 68.7803L90.2555 68.8378L90.5107 69.101L90.8702 69.5123L91.0391 69.7467L91.0894 69.6767L90.8558 69.5246L90.4964 69.1134ZM38.7379 84.6783L38.3785 84.2671L38.249 83.9833L38.1484 84.0944L38.3928 84.2548L38.7522 84.666L38.8888 84.9785L38.9967 84.8716L38.7379 84.6783ZM141.245 85.4432L141.345 85.9079L141.496 85.7804L141.23 85.4555C141.123 85.1677 141.374 84.6084 140.785 84.6742C140.785 84.3946 140.785 84.1149 140.785 83.8518C141.222 84.2722 141.578 84.7913 141.831 85.3764C142.085 85.9616 142.23 86.6003 142.258 87.2526C142.149 87.383 142.046 87.5203 141.949 87.6638C141.995 87.7268 142.045 87.7846 142.1 87.8365C142.147 87.6392 142.197 87.4253 142.248 87.2362C142.916 87.6063 142.341 88.3999 142.672 88.8811C142.571 88.9035 142.471 88.9324 142.373 88.9674C142.371 89.0085 142.371 89.0497 142.373 89.0908L142.654 88.877C144.81 88.877 146.931 88.7659 149.063 88.877C150.141 88.9345 150.36 88.1655 150.45 87.3719C150.486 87.0511 151.392 86.5741 150.558 86.3726C149.339 86.1433 148.11 85.9882 146.877 85.9079C146.701 85.8709 146.527 85.8158 146.36 85.7434C146.534 85.6715 146.715 85.6205 146.899 85.5913C147.846 85.6169 148.794 85.5826 149.738 85.4884C150.22 85.4103 151.176 86.167 151.176 84.8634C151.19 84.6134 151.156 84.3629 151.078 84.1292C150.999 83.8955 150.876 83.6842 150.719 83.5098C150.562 83.3355 150.374 83.2022 150.167 83.1192C149.96 83.0363 149.741 83.0056 149.523 83.0293C146.906 83.0293 144.293 83.0293 141.68 83.0293C141.274 83.0293 140.371 82.5728 140.799 83.8518L140.109 83.4693C139.66 82.6798 139.232 81.8614 138.276 81.8038C138.305 81.0883 137.841 81.4954 137.593 81.4132C137.51 81.2775 137.456 81.0677 137.345 81.002C135.828 80.3111 134.232 80.5702 132.672 80.5044C132.542 80.4795 132.415 80.4353 132.295 80.3728C132.327 80.3275 132.352 80.2412 132.388 80.2371C133.27 80.1 134.158 80.0259 135.048 80.015C136.612 80.0849 137.963 80.8004 139.336 81.7134C140.986 82.8072 142.931 81.9848 144.753 82.1246C145.166 82.1575 145.026 81.7586 144.983 81.4008C144.814 80.0438 144.145 78.5222 145.702 77.6052C146.025 77.4202 146.421 77.3914 146.733 77.194C147.046 76.9966 146.791 76.9061 146.611 76.865C145.368 76.6059 144.138 76.2317 142.887 76.1166C139.2 75.7794 135.508 75.5326 131.817 75.2941C128.941 75.0967 126.095 74.9651 123.237 74.7595C122.73 74.7393 122.236 74.5739 121.799 74.2784C120.484 73.275 119.226 72.1688 117.936 71.1202C116.444 69.8865 114.974 68.6528 113.432 67.5096C112.145 66.572 110.847 65.4534 109.413 65.0422C107.544 64.5076 105.521 64.7502 103.576 64.6598C95.5931 64.2856 87.5957 64.7955 79.6091 64.2198C77.6646 64.0799 75.6913 64.4747 73.7324 64.4788C71.8813 64.4788 70.0302 64.2115 68.1755 64.2033C60.6597 64.1581 53.1404 64.2033 45.6246 64.1293C43.5788 64.0863 41.544 64.4824 39.6257 65.2972C35.9631 66.8681 32.7173 69.3066 29.3962 71.5931C29.1781 71.7026 28.9719 71.8406 28.7816 72.0043C28.5264 72.2922 28.7816 72.3374 28.9721 72.3662C30.1258 72.5348 31.2832 72.6952 32.4406 72.8679C32.5471 72.894 32.6517 72.9298 32.7533 72.9748C32.6591 73.0508 32.5529 73.1053 32.4406 73.1352C28.6522 73.3038 24.8673 73.4518 21.0897 73.9576C18.4011 74.3195 15.673 74.2784 12.9629 74.4634C12.2728 74.5087 12.1541 75.3435 11.7983 75.841C12.129 75.9233 12.5675 75.8781 12.7724 76.1083C13.3331 76.7375 15.5688 74.521 14.6702 77.597C14.0807 79.6285 13.4949 81.5119 11.1046 81.0595C10.986 81.0348 10.8422 81.1582 10.7128 81.2117C10.8222 81.2952 10.944 81.3551 11.0722 81.3885C16.9813 81.3885 22.8893 81.3885 28.7959 81.3885C28.9644 81.4102 29.1349 81.3833 29.292 81.3104C29.8563 80.9444 30.6003 80.1795 31.0352 80.6524C31.5528 81.2117 30.3631 80.6524 30.4242 81.2569C30.4296 81.3061 30.4296 81.3558 30.4242 81.4049C30.2013 81.5407 29.7053 81.0636 29.7521 81.8162C28.5479 82.1781 27.5954 82.8854 27.1605 84.2835C26.9716 84.3092 26.7972 84.4119 26.6691 84.5727C26.541 84.7336 26.468 84.9419 26.4632 85.1595L25.7444 86.2698L25.4748 87.0141L25.6581 87.0922L25.7444 86.2698C26.3087 86.1711 26.5064 85.7599 26.4632 85.1512C26.9053 85.0772 27.0779 84.7194 27.1821 84.2712L29.7736 81.8038C30 81.6846 30.4925 82.1657 30.4421 81.3926C30.9274 81.3926 31.4953 81.5283 31.8799 81.2939C33.4111 80.3481 38.0478 81.6723 39.1189 83.2144C39.6652 83.9998 39.8989 85.2006 40.934 85.5008L41.031 86.3232C41.0944 86.2882 41.1557 86.2484 41.2144 86.204C41.1281 85.9655 41.0275 85.7352 40.9268 85.5049L40.5422 84.2959C40.7435 84.1807 40.8441 84.189 40.9412 84.4933C41.0167 84.7318 41.2683 84.9045 41.4516 85.0854C41.5083 85.0613 41.5598 85.0234 41.6026 84.9744C41.519 84.7277 41.4242 84.4861 41.3186 84.2506C40.934 83.4282 40.5458 82.6057 40.1576 81.7627C41.1677 82.2973 41.4336 83.5146 41.9979 84.448C42.3981 85.1715 42.7652 85.9182 43.0978 86.6851L43.2524 87.9188C43.3063 87.8407 43.4213 87.7502 43.4069 87.6967C43.3315 87.3554 43.6549 86.8373 43.087 86.7098C42.8462 85.5625 43.2883 85.2952 44.2193 85.4514C45.3299 85.6406 46.4585 85.7434 47.58 85.8339C51.3289 86.1382 55.0777 86.4219 58.8266 86.7098C59.0531 86.7098 59.2975 86.7961 59.2903 86.3561C59.2831 85.9161 59.1106 85.9449 58.8266 85.912C56.4292 85.7599 54.0318 85.5871 51.6379 85.4144C51.5467 85.3924 51.4585 85.3564 51.3756 85.3075C51.4295 85.254 51.487 85.1471 51.5409 85.1471C53.1081 85.1677 54.7363 84.8839 56.2136 85.2869C58.6362 85.9531 59.2723 85.6241 59.2616 82.8854C59.2616 82.1781 59.2292 81.4666 59.2616 80.7634C59.2903 80.2494 59.125 80.1343 58.7008 80.1343C56.6592 80.1343 54.6177 80.1014 52.5905 80.0685C52.4497 80.0356 52.314 79.9788 52.1879 79.8999C52.311 79.8103 52.4474 79.7476 52.5905 79.7148C54.6177 79.7148 56.6449 79.6778 58.6721 79.7148C59.2292 79.7148 59.258 79.3612 59.2688 78.8924C59.2795 78.4236 59.24 78.1192 58.6793 78.1192C52.8313 78.1192 46.9797 78.0699 41.1281 78.037C40.8693 78.037 40.535 78.074 40.589 77.6258C40.6069 77.4901 40.9484 77.3091 41.1317 77.3091C46.685 77.4119 52.2418 77.4818 57.7914 77.6916C59.0746 77.7409 59.5204 77.3173 59.258 75.9438C59.1322 75.29 59.6857 74.118 58.9489 74.044C56.0446 73.7356 53.126 73.9576 50.2002 73.7109C46.3399 73.386 42.4436 73.5752 38.5617 73.567C38.134 73.567 37.7997 73.3408 37.7566 72.9583C37.7564 72.7663 37.7907 72.5763 37.8575 72.4001C37.9243 72.224 38.0221 72.0654 38.1448 71.9344C39.2722 70.7124 40.4552 69.5594 41.6888 68.4801C43.3135 67.1271 44.5859 65.1903 46.9977 65.2273C66.4071 65.4452 85.7949 65.5357 105.194 65.7331C106.969 65.7331 108.835 65.1245 110.52 66.535C111.908 67.6905 113.461 68.5911 114.888 69.6726C116.534 70.931 118.122 72.2839 119.733 73.6163C120.051 73.9203 120.352 74.2487 120.631 74.5991C120.276 74.6803 119.915 74.7243 119.553 74.7307C118.662 74.6649 117.777 74.4552 116.89 74.447C112.835 74.4018 108.781 74.4059 104.726 74.3935C100.32 74.3935 100.323 74.3935 100.154 69.3848C100.131 69.2054 100.089 69.03 100.029 68.8625C99.9662 69.035 99.9239 69.2161 99.9027 69.4012C99.874 75.2571 99.759 81.113 99.9027 86.9647C99.9423 88.914 99.0724 88.3465 98.2278 88.2519C97.7892 88.2067 97.3615 88.0339 96.9266 88.0257C91.3194 87.9023 85.7159 87.8201 80.1267 87.2033C77.1865 86.8825 74.2212 86.8619 71.2702 86.7262C67.755 86.57 64.2397 86.4466 60.728 86.2698C60.4836 86.2698 60.2536 85.8997 60.0092 85.7064C60.2323 85.6062 60.4674 85.5452 60.7065 85.5255C63.6754 85.7681 66.6407 86.0683 69.6096 86.2821C72.2874 86.4754 74.976 86.5535 77.6538 86.7345C80.0476 86.899 82.4378 86.7345 84.8424 86.9935C89.5654 87.4541 94.3279 87.4048 99.0725 87.5857C99.4067 87.5857 99.5218 87.4829 99.5182 87.0881C99.4966 85.0978 99.4858 83.1074 99.5182 81.1171C99.5182 80.6771 99.3852 80.5743 99.0185 80.5661C92.502 80.3892 85.9891 80.6647 79.4653 80.3029C73.2399 79.9533 66.993 80.1836 60.7532 80.1466C60.5398 80.116 60.3308 80.0538 60.1314 79.9615C60.3258 79.837 60.5373 79.7508 60.7568 79.7066C73.3837 79.8382 86.0178 79.501 98.6411 80.1178C99.076 80.1384 99.5469 80.2988 99.5325 79.4064C99.5325 78.5839 99.1372 78.5839 98.6196 78.5839C85.9771 78.4496 73.337 78.3043 60.6993 78.148C60.4751 78.1038 60.2581 78.0206 60.0559 77.9013C60.2677 77.7954 60.4916 77.7248 60.7208 77.6916C69.4263 77.7957 78.1318 77.904 86.8373 78.0164C90.5035 78.0617 94.1734 77.9835 97.8324 78.1398C99.2342 78.1974 99.8344 77.8149 99.493 76.2029C99.3672 75.6066 99.971 74.4963 99.1335 74.4552C93.4221 74.1591 87.7036 74.4552 81.9814 74.1016C75.9177 73.7191 69.8217 74.0111 63.7401 74.0029C60.1026 74.0029 60.1026 74.0029 59.9409 69.8906C59.9404 69.6596 59.9271 69.4288 59.9013 69.1997C59.8718 69.085 59.8283 68.9756 59.7719 68.8748C59.7213 68.9829 59.6862 69.0995 59.6677 69.2203C59.6677 75.438 59.6677 81.6544 59.6677 87.8694C59.69 87.9991 59.7326 88.1231 59.7935 88.2354C59.8367 88.1244 59.9265 88.001 59.9121 87.8982C59.7576 86.7797 60.2967 86.6193 61.0803 86.7591C61.7991 86.8866 62.518 87.047 63.2549 87.1046C67.1116 87.3883 70.9647 87.705 74.8214 87.9023C81.4134 88.2396 88.0127 88.4863 94.5903 88.7865C99.2629 89.0003 103.936 88.6837 108.637 89.0949C112.842 89.4609 117.087 89.1936 121.314 89.2059C121.595 89.2059 121.756 89.1401 121.807 88.7659C122.191 85.7722 122.166 82.762 122.127 79.7477C122.127 79.1226 121.929 78.9252 121.408 78.9252C114.665 78.9252 107.922 78.9102 101.179 78.88C100.884 78.88 100.593 78.514 100.298 78.3166C100.55 78.2132 100.812 78.1442 101.078 78.111C107.548 78.2385 114.018 78.3536 120.488 78.5469C121.515 78.5757 122.076 78.4112 121.846 77.0788C121.825 76.9596 121.911 76.8115 121.947 76.6676C121.99 76.7211 122.058 76.7663 122.069 76.8239C122.271 77.6811 122.41 78.5558 122.486 79.4393C122.54 81.8532 122.95 84.4234 122.389 86.6563C121.541 90.0078 123.349 89.1525 124.768 89.21C125.128 89.21 125.602 89.1072 125.128 89.831C125.002 90.0284 125.128 90.4355 125.128 90.748C125.193 90.711 125.308 90.6905 125.322 90.6329C125.764 89.0332 126.497 87.5857 127.119 86.0765C127.953 84.0204 131.188 81.1418 133.229 81.002C134.706 80.9007 136.187 81.0322 137.632 81.3926C137.6 82.1246 138.082 81.6722 138.319 81.8038C138.77 82.5507 139.408 83.1242 140.149 83.4487C140.037 84.0903 140.382 84.3987 140.81 84.6495C140.806 85.0155 140.814 85.3815 141.245 85.4432ZM78.6746 69.1093L78.5416 68.7926L78.4481 68.8625L78.6853 69.0969C79.0448 69.5945 79.4042 70.0921 79.7924 70.5856C79.9003 70.7254 80.0297 70.8446 80.1519 70.9968C80.5113 71.4286 80.8707 71.3875 80.7233 71.1777C80.1411 70.3347 79.7529 69.2532 78.6566 69.1093H78.6746ZM132.209 94.1078C132.431 94.2632 132.674 94.377 132.928 94.445C133.503 94.5294 134.087 94.5058 134.656 94.3751C135.192 94.2023 134.685 93.7089 134.7 93.3593C134.728 92.4341 135.638 92.6726 135.993 92.1503C136.04 92.0845 136.389 92.2531 136.576 92.36C136.763 92.467 137.086 92.8371 137.133 92.7918C137.451 92.5239 137.714 92.1805 137.905 91.7851C138.097 91.3898 138.211 90.9518 138.24 90.5013C138.24 89.9873 137.798 90.1888 137.521 90.0901C136.77 89.8433 137.341 88.8852 136.881 88.4452C136.882 88.3531 136.9 88.2622 136.933 88.1781C136.965 88.0939 137.013 88.0183 137.072 87.9558C137.661 87.705 138.19 87.3513 137.478 86.7221C137.029 86.3109 136.734 84.2959 135.706 86.2698C135.347 86.9524 134.7 86.1423 134.186 86.3232C134.135 86.3232 133.948 86.1382 133.959 86.0642C134.142 84.6701 133.388 84.5426 132.485 84.6125C132.579 84.152 132.974 84.3658 133.168 84.2013C133.458 83.9074 133.715 83.5747 133.934 83.2102C133.704 83.1053 133.462 83.0402 133.215 83.017C131.306 83.1486 128.834 85.8627 128.542 87.9764C127.996 92.175 130.404 96.2667 134.653 95.7362C134.83 95.6883 135 95.6136 135.16 95.5142C134.993 95.4195 134.813 95.3583 134.628 95.3332C133.6 95.399 132.705 95.1728 132.151 94.0502L132.209 94.1078ZM30.4889 94.63C31.3551 96.0775 32.6778 95.8637 33.9322 95.8637C34.1515 95.8637 34.4642 95.9583 34.4678 95.5059C34.4714 95.0536 34.1982 95.0947 33.9143 95.033C33.2565 94.8891 32.455 95.4442 31.9446 94.5395C32.2159 94.5662 32.4884 94.5744 32.7605 94.5642C33.4434 94.4861 34.5864 95.0947 34.1659 93.2935C34.1191 93.1003 34.8847 92.6273 35.2873 92.3642C35.3951 92.2943 35.6467 92.5204 35.8372 92.6109C36.0277 92.7014 36.4087 92.9851 36.4986 92.8988C37.1171 92.2477 37.5122 91.3655 37.6129 90.4108C37.6129 90.3368 37.2175 90.123 36.9874 90.0531C36.3512 89.868 36.5202 89.1525 36.2973 88.7001C36.2606 88.6378 36.2378 88.5661 36.2309 88.4914C36.2239 88.4166 36.2331 88.3411 36.2576 88.2713C36.282 88.2015 36.3211 88.1397 36.3712 88.0912C36.4214 88.0426 36.4811 88.0088 36.5453 87.9928C37.009 87.8283 37.5661 87.6227 36.9551 86.9154C36.4375 86.3191 35.8768 85.7598 35.3592 85.1841C35.1831 85.4062 34.9027 85.5954 34.856 85.8544C34.7733 86.315 34.5828 86.3685 34.2342 86.352C33.7418 86.3232 33.0912 86.2574 33.066 85.7023C32.9905 84.1931 32.3687 84.5632 31.6498 85.0114C31.4357 85.1785 31.2124 85.3296 30.9813 85.4638C30.8016 85.546 30.3523 85.4185 30.5895 85.2376C31.4881 84.5508 32.4406 83.7777 33.465 83.5269C35.3125 83.0786 36.1356 85.0608 37.3253 86.1382C37.4633 86.3108 37.5929 86.492 37.7135 86.681C37.922 86.9277 38.0729 87.3184 38.4791 87.121C38.551 87.084 38.648 86.9277 38.6301 86.8866C37.7638 84.9292 36.4375 83.3624 34.5433 83.1321C30.0683 82.5893 27.2432 86.1341 28.0735 91.2374C28.264 92.6479 28.99 94.1119 30.4601 94.63H30.4889ZM104.644 67.1559C102.196 66.2471 101.747 67.6617 102.009 70.0715C102.124 71.1407 103.314 71.0667 103.36 72.0536C103.436 73.6657 104.5 73.0776 105.204 73.0982C107.487 73.1681 109.773 73.1475 112.055 73.1681C112.447 73.1681 112.814 73.2503 112.875 72.58C112.875 72.3497 113.187 72.1688 113.36 71.9385C113.424 72.0714 113.48 72.2087 113.529 72.3497C113.597 72.6129 113.64 73.1105 113.705 73.1146C114.46 73.1393 115.215 73.0899 115.969 73.0612C115.941 72.9748 115.934 72.8514 115.876 72.8062C115.111 72.2301 114.372 71.6097 113.662 70.9474C111.07 68.3032 108.26 66.4651 104.615 67.1559H104.644ZM18.9259 82.2151C16.0216 82.2151 13.1174 82.1863 10.2168 82.248C9.78547 82.248 9.36136 82.7003 8.94082 82.9594C8.94082 82.9594 9.03066 83.2884 9.09536 83.2966C9.60935 83.3542 10.127 83.3788 10.6481 83.3994L23.0809 83.9134C23.2236 83.9198 23.3656 83.9404 23.5051 83.9751C24.7559 84.263 26.0211 84.8428 27.0994 83.4487C27.3834 83.0786 27.6781 82.725 27.9656 82.3631C27.5572 82.2896 27.1457 82.2402 26.7328 82.2151C24.1089 82.2041 21.497 82.2041 18.8971 82.2151H18.9259ZM148.132 81.5283C148.459 81.1541 149.21 81.7257 149.03 81.0431C148.699 79.8094 148.311 78.4441 147.107 77.8931C146.899 77.7985 146.514 78.2056 146.212 78.3824C146.866 79.3694 146.759 81.0348 148.103 81.5283H148.132ZM36.8724 93.713C36.9551 93.9063 36.991 94.0995 37.0485 94.1242C37.2103 94.1489 37.4727 94.1653 37.5302 94.0625C37.9615 93.3004 38.3677 92.5232 38.7487 91.7309C38.9157 91.4222 39.0167 91.0728 39.0434 90.711C39.0434 90.5465 38.7019 90.3862 38.515 90.2217C38.2351 91.533 37.6587 92.737 36.8437 93.713H36.8724ZM139.218 86.936C138.813 85.8453 138.135 84.9165 137.269 84.2671C137.039 84.0779 136.86 83.6708 136.551 84.045C136.497 84.1108 136.633 84.5632 136.755 84.6207C137.398 84.955 137.941 85.4985 138.315 86.1834C138.456 86.4096 138.578 86.6481 138.736 86.8578C138.829 86.9641 138.944 87.0419 139.07 87.084C139.088 87.084 139.178 86.9606 139.218 86.936ZM137.859 93.7377C137.923 93.8667 137.996 93.9891 138.078 94.1036C138.078 94.1036 138.211 94.0584 138.24 94.005C138.599 93.3593 138.959 92.7219 139.282 92.0598C139.437 91.7534 139.558 91.426 139.642 91.0852C139.685 90.8879 139.642 90.3039 139.52 90.5506C138.995 91.6157 138.646 92.8001 137.859 93.7212V93.7377ZM43.7843 89.0291L43.5687 88.5233C43.4984 88.6752 43.4499 88.8391 43.4249 89.0085C43.447 89.1817 43.4931 89.3496 43.5615 89.5061L43.7843 89.0291ZM41.6277 87.1662L41.4301 86.7838C41.3725 86.8907 41.2719 86.9935 41.2683 87.1004C41.2879 87.2336 41.3307 87.3608 41.3941 87.4747L41.6277 87.1662ZM141.755 86.2122C141.644 86.4343 141.565 86.5206 141.572 86.5987C141.597 86.7313 141.64 86.8587 141.698 86.9771C141.755 86.8825 141.845 86.792 141.863 86.6892C141.881 86.5864 141.82 86.4548 141.755 86.1958V86.2122ZM41.8002 88.7988C41.8495 88.6589 41.8833 88.5124 41.9009 88.3629C41.875 88.2688 41.8362 88.1799 41.7859 88.0997C41.7337 88.1796 41.6958 88.2704 41.6744 88.367C41.6994 88.5115 41.7418 88.6512 41.8002 88.7824V88.7988ZM35.3844 82.0012C35.3448 81.9601 35.3161 81.9108 35.2873 81.9108C35.2585 81.9108 35.2334 81.9601 35.2046 81.9848C35.1759 82.0095 35.2514 82.067 35.2766 82.0711C35.3017 82.0753 35.3376 82.0465 35.3844 82.0012ZM25.2124 87.5775C25.1729 87.6638 25.1225 87.7379 25.1333 87.7584C25.1766 87.8047 25.2264 87.8422 25.2807 87.8694C25.3022 87.8201 25.349 87.7666 25.3418 87.7173C25.3346 87.6679 25.2735 87.6556 25.2124 87.5898V87.5775ZM39.6329 86.204C39.6545 86.1834 39.6832 86.1711 39.6904 86.1505C39.6976 86.13 39.6688 86.1012 39.658 86.0765L39.579 86.1423L39.6329 86.204ZM9.49432 86.1546L9.46558 86.0765C9.44402 86.0765 9.40806 86.0971 9.40446 86.1135C9.40087 86.13 9.40449 86.1628 9.42965 86.1875L9.49432 86.1546ZM39.3022 85.291C39.2842 85.291 39.2626 85.2458 39.2447 85.2458C39.2267 85.2458 39.2123 85.2828 39.1979 85.3034C39.1836 85.3239 39.2375 85.3527 39.2555 85.3527C39.2734 85.3527 39.2878 85.3281 39.3022 85.291ZM37.9327 83.6955C37.8968 83.6461 37.8788 83.5968 37.8537 83.5886C37.8285 83.5803 37.789 83.6215 37.753 83.6379C37.753 83.6708 37.7854 83.7284 37.8105 83.7366C37.8357 83.7448 37.8752 83.7284 37.9327 83.7078V83.6955ZM24.8817 88.5356C24.8817 88.5562 24.8386 88.5768 24.8386 88.5973C24.8386 88.6179 24.8637 88.6426 24.8781 88.6631L24.9464 88.585L24.8817 88.5356ZM37.5482 83.2349C37.5177 83.1976 37.4826 83.1658 37.4439 83.1403C37.4439 83.1403 37.39 83.1815 37.3936 83.1979C37.4027 83.2386 37.4173 83.2774 37.4367 83.313L37.5482 83.2349ZM36.8041 82.8237C36.8041 82.799 36.7789 82.762 36.7646 82.7579C36.7502 82.7538 36.7215 82.7826 36.6999 82.7949C36.6783 82.8072 36.7215 82.8607 36.7394 82.8648C36.7574 82.8689 36.7826 82.8689 36.8041 82.8525V82.8237ZM145.774 81.1993C145.743 81.1611 145.706 81.1291 145.666 81.1048C145.666 81.1048 145.598 81.1377 145.598 81.1459C145.598 81.1541 145.623 81.2405 145.648 81.2487C145.673 81.2569 145.713 81.2528 145.774 81.2281V81.1993ZM83.0992 71.922C83.1639 71.7822 83.1999 71.7329 83.1999 71.6835C83.1999 71.6342 83.128 71.6013 83.1172 71.6054C83.0758 71.6354 83.0442 71.6802 83.0273 71.7329C83.0165 71.7987 83.0561 71.848 83.0992 71.9508V71.922ZM69.1029 70.5362C69.1244 70.5115 69.1532 70.491 69.1532 70.4704C69.1532 70.4499 69.1208 70.4252 69.1029 70.4046C69.0849 70.3841 69.0525 70.4457 69.0525 70.4663C69.0525 70.4869 69.0813 70.5403 69.1029 70.565V70.5362ZM68.8153 70.0592C68.8153 70.0592 68.7793 70.0098 68.7614 70.0098C68.7434 70.0098 68.7255 70.0427 68.7039 70.0592L68.7758 70.1332L68.8153 70.0592ZM68.3624 69.5739C68.3624 69.5986 68.3229 69.6233 68.3265 69.6439C68.3301 69.6644 68.3624 69.6726 68.384 69.6891C68.4056 69.7055 68.4235 69.6397 68.4199 69.6192C68.4163 69.5986 68.384 69.6151 68.3624 69.6027V69.5739ZM79.9578 68.0113L79.8931 67.929C79.8663 67.9565 79.8433 67.9884 79.8248 68.0236C79.8248 68.0236 79.8643 68.0894 79.8715 68.0853C79.9019 68.0746 79.9309 68.0594 79.9578 68.0401V68.0113ZM145.648 78.2385L145.626 78.2755L145.687 78.3207C145.687 78.3207 145.709 78.2837 145.705 78.2796L145.648 78.2385ZM89.9356 68.4348H89.968L89.932 68.3855C89.932 68.3855 89.932 68.4102 89.932 68.4184C89.932 68.4266 89.9213 68.4513 89.9284 68.4636L89.9356 68.4348Z" fill="#FC9D17"/>
<path d="M105.6 88.3832C103.936 88.3832 102.272 88.3832 100.608 88.3832C100.464 88.3832 100.324 88.1817 100.18 88.0748C100.317 87.9309 100.453 87.6636 100.583 87.6636C104.033 87.7828 107.48 87.9309 110.927 88.0748C111.017 88.0987 111.103 88.1375 111.182 88.1899C111.055 88.2785 110.915 88.3398 110.769 88.3709C109.047 88.3709 107.326 88.3709 105.6 88.3709V88.3832Z" fill="#FC9D17"/>
<path d="M113.127 80.5777H106.535C104.612 80.5777 102.685 80.5777 100.762 80.5777C100.59 80.5456 100.423 80.4803 100.27 80.3844C100.392 80.3063 100.518 80.1582 100.629 80.1582C104.552 80.1884 108.472 80.224 112.39 80.2651C112.642 80.3501 112.888 80.4545 113.127 80.5777Z" fill="#FC9D17"/>
<path d="M103.742 77.3293C103.178 76.8934 102.33 77.8228 101.985 76.8194C101.801 76.2971 102.369 76.4493 102.574 76.4863C103.57 76.6713 104.936 75.8242 105.45 76.8975C105.705 77.4403 104.31 76.8728 103.742 77.3293Z" fill="#FC9D17"/>
<path d="M125.226 78.5054L127.785 78.7398C126.958 78.7932 126.135 78.8878 125.308 78.8878C124.482 78.8878 123.659 78.7932 122.835 78.7357L125.226 78.5054Z" fill="#FC9D17"/>
<path d="M39.8856 76.001C40.6044 76.2888 41.3449 75.5897 41.8265 76.4698C42.0206 76.8193 41.4671 77.0208 40.6907 76.8399C40.494 76.759 40.305 76.6557 40.1264 76.5315C40.0653 76.5027 39.979 76.5315 39.9143 76.5109C39.4147 76.2929 38.8361 76.9221 38.376 76.3382L39.8856 76.001Z" fill="#FC9D17"/>
<path d="M27.4492 77.3618C28.6102 77.3618 29.7711 77.3618 30.9357 77.3618C30.9824 77.3618 31.0256 77.4523 31.0723 77.5016C31.0076 77.5469 30.9429 77.6332 30.8782 77.6332C29.7388 77.6332 28.5994 77.6332 27.46 77.6332L27.4492 77.3618Z" fill="#FC9D17"/>
<path d="M47.8936 84.7969C48.6699 84.7969 49.4463 84.7969 50.2191 84.7969C50.2694 84.7969 50.3197 84.8791 50.3701 84.9244C50.3126 84.9573 50.2515 85.0231 50.1939 85.0231C49.4283 85.0231 48.6628 85.0231 47.9008 85.0231L47.8936 84.7969Z" fill="#FC9D17"/>
<path d="M34.1848 80.2119C34.8138 80.2448 35.4392 80.2777 36.0682 80.3188V80.4422C35.4392 80.4422 34.8102 80.4422 34.1812 80.4422L34.1848 80.2119Z" fill="#FC9D17"/>
<path d="M32.5745 80.5737L31.6436 80.401C31.7755 80.3176 31.919 80.2606 32.0677 80.2324C32.5601 80.2324 33.049 80.3023 33.5414 80.3434L32.5745 80.5737Z" fill="#FC9D17"/>
<path d="M36.5963 77.6829L36.4238 78.3079C36.2686 78.0679 36.1473 77.8015 36.0643 77.5184C36.0428 77.3868 36.2836 77.1935 36.4022 77.0249L36.5963 77.6829Z" fill="#FC9D17"/>
<path d="M128.256 83.082L127.537 84.3157C127.426 83.6413 127.796 83.337 128.256 83.082Z" fill="#FC9D17"/>
<path d="M129.679 81.8077C129.679 81.1168 130.128 81.5486 130.369 81.4581L129.672 81.8077H129.679Z" fill="#FC9D17"/>
<path d="M39.0948 80.6026L38.376 80.1338C38.6491 80.2201 39.0517 80.0474 39.0948 80.6067V80.6026Z" fill="#FC9D17"/>
<path d="M37.1934 81.0588L36.6255 80.7257C36.7405 80.6928 36.8986 80.5941 36.9597 80.6434C37.0576 80.7634 37.1356 80.9027 37.1898 81.0547L37.1934 81.0588Z" fill="#FC9D17"/>
<path d="M130.369 81.4579C130.449 81.3112 130.54 81.1735 130.642 81.0467C130.668 81.022 130.811 81.1454 130.905 81.2029L130.358 81.4497L130.369 81.4579Z" fill="#FC9D17"/>
<path d="M37.1896 81.0632L37.9085 81.1537L37.8402 81.3634L37.186 81.0591L37.1896 81.0632Z" fill="#FC9D17"/>
<path d="M128.623 82.6789C128.709 82.1772 129.036 82.2225 129.341 82.2677L128.623 82.6789Z" fill="#FC9D17"/>
<path d="M131.422 80.5532L131.714 80.7917C131.624 80.8452 131.53 80.948 131.444 80.9439C131.358 80.9398 131.25 80.837 131.153 80.7794L131.422 80.5532Z" fill="#FC9D17"/>
<path d="M40.529 84.2994C40.4248 84.1349 40.3205 83.9746 40.2271 83.8019C40.2271 83.8019 40.3062 83.7073 40.3529 83.6538C40.4068 83.8718 40.4643 84.0938 40.5218 84.3118L40.529 84.2994Z" fill="#FC9D17"/>
<path d="M38.2607 81.355L38.5626 81.5894C38.4815 81.6656 38.3889 81.7241 38.2894 81.7621C38.2211 81.7621 38.1385 81.6757 38.063 81.6264L38.2607 81.355Z" fill="#FC9D17"/>
<path d="M37.2974 79.4798C37.435 79.4225 37.579 79.3879 37.7251 79.377C37.797 79.377 37.8581 79.4962 37.9228 79.562C37.8375 79.6232 37.744 79.6676 37.646 79.6936C37.5705 79.6977 37.4951 79.6072 37.2974 79.4798Z" fill="#FC9D17"/>
<path d="M127.102 84.6245L127.023 85.0357L126.851 84.9494L127.109 84.6245H127.102Z" fill="#FC9D17"/>
<path d="M39.0801 80.6192L39.4395 81.0099C39.1843 81.0386 39.0369 80.9482 39.1016 80.5986L39.0801 80.6192Z" fill="#FC9D17"/>
<path d="M39.1377 82.1528L39.3929 82.4982L39.2204 82.5845L39.1413 82.1445L39.1377 82.1528Z" fill="#FC9D17"/>
<path d="M38.3828 80.1336L38.063 79.9403L38.1996 79.7964L38.3721 80.1459L38.3828 80.1336Z" fill="#FC9D17"/>
<path d="M39.4219 81.0098L39.7813 81.421C39.4794 81.5074 39.4219 81.31 39.4219 81.0303V81.0098Z" fill="#FC9D17"/>
<path d="M127.548 84.3037L127.102 84.6286L127.548 84.3078V84.3037Z" fill="#FC9D17"/>
<path d="M129.665 81.791L129.341 82.2351C129.215 81.8609 129.384 81.7745 129.668 81.791H129.665Z" fill="#FC9D17"/>
<path d="M36.981 78.9041L37.2469 79.1961L37.0744 79.2989L36.9846 78.8877L36.981 78.9041Z" fill="#FC9D17"/>
<path d="M36.9849 78.9L36.6255 78.7931L36.701 78.5957L36.9849 78.9082V78.9Z" fill="#FC9D17"/>
<path d="M39.1415 82.1447L38.7568 82.0378L38.8467 81.8486L39.1343 82.1529L39.1415 82.1447Z" fill="#FC9D17"/>
<path d="M40.1334 81.7788C39.8063 81.8981 39.8063 81.6267 39.7739 81.3882L40.1334 81.7788Z" fill="#FC9D17"/>
<path d="M39.8099 82.8768C39.7164 82.9302 39.6589 82.9878 39.6086 82.9796C39.5583 82.9713 39.5187 82.8973 39.4756 82.8521C39.5331 82.8027 39.5834 82.7287 39.6481 82.7123C39.7128 82.6958 39.7344 82.7945 39.8099 82.8768Z" fill="#FC9D17"/>
<path d="M128.612 82.6626L128.252 83.0738L128.612 82.6626Z" fill="#FC9D17"/>
<path d="M126.336 85.6607C126.466 85.6155 126.527 85.5744 126.574 85.5867C126.62 85.599 126.664 85.6731 126.707 85.7183C126.674 85.7594 126.638 85.8211 126.599 85.8293C126.559 85.8375 126.509 85.78 126.336 85.6607Z" fill="#FC9D17"/>
<path d="M40.1372 83.2714C40.0617 83.3331 40.0186 83.3907 39.9647 83.403C39.9108 83.4154 39.8676 83.3043 39.8748 83.2797C39.9011 83.2166 39.9455 83.1658 40.0006 83.1357C40.0006 83.1357 40.0725 83.2015 40.1372 83.2714Z" fill="#FC9D17"/>
<path d="M126.354 86.5447C126.301 86.5776 126.265 86.6146 126.239 86.6064C126.214 86.5982 126.196 86.5488 126.182 86.5118C126.168 86.4748 126.225 86.4625 126.243 86.4666C126.283 86.4864 126.321 86.5127 126.354 86.5447V86.5447Z" fill="#FC9D17"/>
<path d="M125.92 87.3467C125.928 87.3576 125.934 87.3702 125.938 87.3837C125.938 87.3837 125.92 87.4084 125.913 87.4166L125.884 87.3549L125.92 87.3467Z" fill="#FC9D17"/>
<path d="M33.5845 91.7055C32.3984 91.6767 31.9922 90.5952 31.9742 89.6082C31.9563 88.6213 32.3337 87.4987 33.6204 87.5069C34.9072 87.5151 35.4176 88.3293 35.4751 89.6165C35.5398 90.809 34.688 91.6891 33.5845 91.7055ZM34.3681 88.9092C34.2561 88.7403 34.1079 88.6074 33.9379 88.5231C33.7679 88.4388 33.5818 88.4061 33.3976 88.428C33.128 88.428 32.8728 88.7858 32.614 88.9832C32.9972 89.5105 33.4313 89.9864 33.908 90.4019C34.0697 90.5212 34.4939 90.0318 34.3681 88.9092ZM34.6952 89.4931L34.9432 89.9701C34.9971 89.8262 35.1049 89.6864 35.1013 89.5589C35.0764 89.3618 35.028 89.1694 34.9576 88.9873L34.6952 89.4931Z" fill="#FC9D17"/>
<path d="M31.9274 94.5391L30.4501 94.6419C30.1934 94.3211 29.9533 93.9834 29.7312 93.6303C29.4976 93.2191 29.0771 92.4254 29.1633 92.335C29.5983 91.8785 30.1805 91.3316 30.6945 91.3521C31.0827 91.3521 31.7728 92.2116 31.744 92.6516C31.7189 93.326 30.9892 93.9758 31.9274 94.5391Z" fill="#FC9D17"/>
<path d="M28.5776 88.0497C29.0665 87.4329 28.7861 86.0759 29.7386 85.9648C30.1771 85.9114 30.9607 86.7503 31.108 87.3424C31.2194 87.7907 30.5761 88.4898 30.267 89.0778C29.8464 88.4815 28.8005 89.3246 28.5776 88.0497Z" fill="#FC9D17"/>
<path d="M132.795 89.6619C132.921 88.3501 133.475 87.2521 134.474 87.1945C135.624 87.1452 136.454 88.202 136.458 89.5632C136.463 89.8787 136.413 90.1921 136.31 90.485C136.208 90.7778 136.054 91.044 135.86 91.2676C135.665 91.4913 135.434 91.668 135.178 91.787C134.923 91.9061 134.649 91.9651 134.373 91.9607C133.338 91.9812 133.051 90.6365 132.795 89.6619ZM135.042 89.8922C135.125 88.8559 134.718 88.5598 134.168 88.4488C133.852 88.383 133.489 88.6832 133.626 88.9176C133.989 89.4458 134.398 89.932 134.844 90.3692L135.042 89.8922Z" fill="#FC9D17"/>
<path d="M132.202 94.0947C130.793 95.0035 130.556 93.338 130.211 92.6348C129.913 92.0303 131.02 91.8781 131.383 91.3682C131.408 91.3353 131.742 91.4587 131.742 91.5533C131.864 92.1825 133.004 92.2935 132.4 93.2887C132.293 93.5491 132.22 93.8263 132.184 94.1111L132.202 94.0947Z" fill="#FC9D17"/>
<path d="M130.578 88.7941C130.218 88.6913 129.532 88.6913 129.694 87.8812C129.834 87.2026 130.272 86.6022 130.578 85.9648C130.937 86.4994 131.883 86.5693 131.768 87.3754C131.692 87.9099 131.667 88.938 130.578 88.7941Z" fill="#FC9D17"/>
<path d="M132.501 84.6323C132.368 84.7639 132.141 85.0435 132.112 85.0024C131.753 84.7351 132.141 84.7927 132.227 84.7392C132.318 84.6956 132.414 84.6652 132.511 84.6488L132.501 84.6323Z" fill="#FC9D17"/>
</svg>
