<svg width="17" height="15" viewBox="0 0 17 15" fill="none" xmlns="http://www.w3.org/2000/svg">
<path d="M15.5274 6.47813C15.6612 6.4758 15.794 6.50014 15.9183 6.54972C16.0425 6.5993 16.1557 6.67312 16.2511 6.76689C16.3465 6.86065 16.4223 6.97248 16.474 7.09585C16.5257 7.21922 16.5524 7.35165 16.5524 7.48542C16.5524 7.6192 16.5257 7.75163 16.474 7.875C16.4223 7.99836 16.3465 8.11019 16.2511 8.20396C16.1557 8.29773 16.0425 8.37155 15.9183 8.42113C15.794 8.47071 15.6612 8.49504 15.5274 8.49272L3.85588 8.49272L7.79958 12.4364C7.98851 12.6253 8.09465 12.8816 8.09465 13.1488C8.09465 13.416 7.98851 13.6722 7.79958 13.8612C7.61065 14.0501 7.3544 14.1562 7.08721 14.1562C6.82001 14.1562 6.56377 14.0501 6.37483 13.8612L0.711467 8.1978C0.522534 8.00886 0.416392 7.75261 0.416392 7.48542C0.416392 7.21823 0.522534 6.96198 0.711467 6.77305L6.37484 1.10968C6.56377 0.92075 6.82002 0.814609 7.08721 0.814609C7.3544 0.81461 7.61065 0.92075 7.79958 1.10968C7.98852 1.29862 8.09466 1.55487 8.09466 1.82206C8.09466 2.08925 7.98851 2.3455 7.79958 2.53443L3.85588 6.47813L15.5274 6.47813Z" fill="#1C1C1C"/>
</svg>
