<svg width="160" height="160" viewBox="0 0 160 160" fill="none" xmlns="http://www.w3.org/2000/svg">
<path d="M113.819 86.8646C112.229 86.2844 110.525 86.0807 108.843 86.2695C107.16 86.4583 105.544 87.0345 104.122 87.9527C102.699 88.871 101.509 90.1065 100.644 91.5621C99.7794 93.0178 99.2638 94.654 99.1378 96.3424C99.0118 98.0309 99.2787 99.7255 99.9178 101.293C100.557 102.861 101.55 104.26 102.821 105.379C104.091 106.498 105.604 107.308 107.24 107.745C108.875 108.181 110.59 108.232 112.249 107.895C117.331 106.913 120.968 102.271 121.022 97.1577C121 94.9155 120.301 92.7324 119.015 90.8952C117.73 89.0581 115.918 87.653 113.819 86.8646V86.8646ZM113.115 105.285C111.384 105.934 109.49 106.014 107.71 105.512C105.93 105.011 104.357 103.953 103.22 102.495C102.083 101.036 101.442 99.2525 101.39 97.404C101.338 95.5554 101.878 93.7385 102.931 92.2183C103.984 90.698 105.495 89.5539 107.244 88.9526C108.992 88.3514 110.888 88.3245 112.653 88.8758C114.418 89.4272 115.961 90.5281 117.056 92.0178C118.152 93.5076 118.743 95.3084 118.744 97.1577C118.728 98.9204 118.183 100.638 117.179 102.087C116.175 103.536 114.76 104.65 113.115 105.285V105.285Z" fill="#FC9D17"/>
<path d="M112.056 92.1662C111.059 91.8052 109.973 91.7696 108.955 92.0646C107.936 92.3595 107.037 92.9699 106.387 93.8079C105.737 94.6459 105.37 95.6683 105.337 96.7284C105.305 97.7884 105.61 98.8313 106.207 99.7073C106.805 100.583 107.665 101.247 108.664 101.604C109.663 101.96 110.749 101.99 111.766 101.691C112.784 101.391 113.68 100.776 114.326 99.9354C114.972 99.0944 115.334 98.0702 115.362 97.0101C115.364 96.9682 115.364 96.9263 115.362 96.8845C115.362 96.8307 115.362 96.7768 115.362 96.7275C115.32 95.7264 114.985 94.7598 114.397 93.9485C113.809 93.1372 112.995 92.5173 112.056 92.1662V92.1662ZM110.343 100.203C109.688 100.203 109.048 100.009 108.504 99.6456C107.96 99.2819 107.536 98.7649 107.285 98.1601C107.035 97.5553 106.969 96.8898 107.097 96.2477C107.224 95.6056 107.54 95.0159 108.003 94.553C108.465 94.0901 109.055 93.7748 109.697 93.6471C110.339 93.5194 111.005 93.5849 111.61 93.8355C112.215 94.086 112.731 94.5102 113.095 95.0545C113.459 95.5989 113.653 96.2388 113.653 96.8934C113.645 97.7688 113.293 98.6059 112.674 99.2249C112.056 99.8438 111.218 100.195 110.343 100.203V100.203Z" fill="#FC9D17"/>
<path d="M41.9964 86.8648C40.4068 86.2876 38.7053 86.0863 37.0249 86.2767C35.3446 86.4671 33.7312 87.044 32.3111 87.9622C30.891 88.8804 29.7029 90.115 28.8397 91.5692C27.9766 93.0234 27.4619 94.6578 27.3361 96.3442C27.2102 98.0306 27.4765 99.7232 28.1142 101.289C28.7519 102.856 29.7436 104.253 31.0116 105.372C32.2796 106.491 33.7895 107.301 35.423 107.738C37.0564 108.176 38.769 108.23 40.4266 107.895C45.5126 106.913 49.1499 102.271 49.2038 97.1579C49.1812 94.9153 48.4807 92.732 47.1944 90.895C45.908 89.0579 44.096 87.6529 41.9964 86.8648V86.8648ZM41.3057 105.285C39.5746 105.936 37.6808 106.016 35.9005 105.515C34.1202 105.014 32.5465 103.958 31.4089 102.5C30.2713 101.042 29.6293 99.2581 29.5764 97.4094C29.5236 95.5608 30.0627 93.7435 31.1152 92.2228C32.1676 90.702 33.6783 89.5572 35.4271 88.9554C37.1758 88.3535 39.0712 88.326 40.8366 88.8769C42.6021 89.4279 44.1454 90.5284 45.2415 92.018C46.3376 93.5076 46.9291 95.3084 46.9299 97.1579C46.9151 98.9202 46.3709 100.637 45.368 102.086C44.3651 103.536 42.9498 104.65 41.3057 105.285V105.285Z" fill="#FC9D17"/>
<path d="M40.2336 92.1662C39.2364 91.8052 38.1505 91.7696 37.1318 92.0646C36.1131 92.3595 35.2142 92.9699 34.5643 93.8079C33.9143 94.6459 33.5468 95.6683 33.5145 96.7284C33.4823 97.7884 33.7869 98.8313 34.3847 99.7073C34.9825 100.583 35.8426 101.247 36.8414 101.604C37.8402 101.96 38.9263 101.99 39.9436 101.691C40.9609 101.391 41.8569 100.776 42.5029 99.9354C43.149 99.0944 43.5117 98.0702 43.539 97.0101C43.5435 96.9683 43.5435 96.9262 43.539 96.8845C43.5458 96.8324 43.5458 96.7796 43.539 96.7275C43.4976 95.7264 43.1619 94.7598 42.574 93.9485C41.9861 93.1372 41.172 92.5173 40.2336 92.1662V92.1662ZM38.5248 100.203C37.8701 100.203 37.2302 100.009 36.6859 99.6456C36.1416 99.2819 35.7173 98.7649 35.4668 98.1601C35.2163 97.5553 35.1507 96.8898 35.2784 96.2477C35.4062 95.6056 35.7214 95.0159 36.1843 94.553C36.6472 94.0901 37.237 93.7748 37.879 93.6471C38.5211 93.5194 39.1866 93.5849 39.7914 93.8355C40.3962 94.086 40.9132 94.5102 41.2769 95.0545C41.6406 95.5989 41.8347 96.2388 41.8347 96.8934C41.8277 97.7691 41.4767 98.6069 40.8575 99.2261C40.2383 99.8454 39.4004 100.196 38.5248 100.203V100.203Z" fill="#FC9D17"/>
<path d="M142.384 72.4771C141.999 72.476 141.621 72.5879 141.299 72.7989C140.976 73.01 140.722 73.3109 140.569 73.6646C140.415 74.0183 140.368 74.4092 140.435 74.789C140.501 75.1689 140.677 75.521 140.941 75.802C141.205 76.0829 141.545 76.2804 141.92 76.3699C142.295 76.4594 142.688 76.4372 143.051 76.3058C143.413 76.1744 143.729 75.9397 143.96 75.6307C144.191 75.3217 144.326 74.952 144.349 74.5671C144.354 74.5284 144.354 74.4892 144.349 74.4505C144.353 74.4132 144.353 74.3756 144.349 74.3383C144.315 73.838 144.094 73.3688 143.73 73.0239C143.366 72.679 142.886 72.4838 142.384 72.4771V72.4771ZM141.173 74.4505C141.173 72.8852 143.514 72.8986 143.6 74.4505C143.514 76.0067 141.173 76.0202 141.173 74.4505V74.4505Z" fill="#FC9D17"/>
<path d="M137.608 73.0508H132.513C131.819 73.0508 131.257 73.613 131.257 74.3066V74.5622C131.257 75.2558 131.819 75.818 132.513 75.818H137.608C138.301 75.818 138.863 75.2558 138.863 74.5622V74.3066C138.863 73.613 138.301 73.0508 137.608 73.0508Z" fill="#FC9D17"/>
<path d="M151.637 71.8688H147.295C146.765 71.0251 146.033 70.3263 145.165 69.8355C144.298 69.3446 143.322 69.077 142.326 69.0568H129.122H104.993L97.9332 63.8811L86.205 55.3147L83.514 53.3503C83.4265 53.3017 83.3238 53.2887 83.227 53.3137C83.1302 53.3387 83.0467 53.4 82.9937 53.4848L82.0429 54.7944C81.9933 54.8816 81.9795 54.9847 82.0047 55.0818C82.0298 55.179 82.0918 55.2625 82.1774 55.3147L89.488 60.6518L96.5967 65.8455C96.3132 65.8812 96.0514 66.016 95.8577 66.2262C95.664 66.4363 95.5508 66.7081 95.5382 66.9936V69.6443C91.134 73.0529 85.8013 74.6406 80.2578 74.6406H58.4294C57.7162 74.6406 57.0076 74.6406 56.2945 74.6406C56.0277 74.6342 55.7633 74.5889 55.5096 74.506L49.4997 63.4595C49.4475 63.3739 49.3643 63.3117 49.2674 63.2858C49.1706 63.2599 49.0674 63.2723 48.9795 63.3204L47.2931 64.0694C47.2065 64.1208 47.1438 64.2043 47.1186 64.3018C47.0934 64.3993 47.1077 64.5028 47.1585 64.5897L49.7285 69.2631C49.495 69.1235 49.229 69.0477 48.957 69.0433C48.0152 69.0119 47.0644 69.0433 46.118 69.0433H23.5136C22.3691 68.9977 21.2232 69.0896 20.1005 69.3169C18.6256 69.6873 17.2589 70.4007 16.1117 71.399C14.9645 72.3974 14.0692 73.6525 13.4986 75.0622C12.7676 76.8562 12.8169 78.7085 12.8169 80.6056V81.0541H9.25579C9.15581 81.0553 9.06018 81.0952 8.98906 81.1655C8.91794 81.2358 8.8769 81.3309 8.87458 81.4309V85.427C8.87575 85.5278 8.91628 85.6241 8.98753 85.6953C9.05877 85.7665 9.15505 85.8071 9.25579 85.8082H12.4581C12.4581 86.1581 12.4581 86.5079 12.503 86.8532H8V89.6205H13.1084C13.1757 89.7999 13.2519 89.9748 13.3327 90.1452C13.6327 91.1428 14.1064 92.0796 14.732 92.9125C15.628 94.0998 16.7856 95.0645 18.1149 95.7319C19.4442 96.3993 20.9095 96.7513 22.3969 96.7606H24.6394C24.8886 96.7584 25.1303 96.6755 25.3284 96.5243C25.5265 96.3731 25.6703 96.1617 25.7382 95.9219C26.0754 93.5898 27.0607 91.3992 28.5818 89.5994C30.1029 87.7997 32.0987 86.4632 34.3421 85.7421C36.5855 85.0209 38.9862 84.9441 41.2711 85.5204C43.5559 86.0966 45.6331 87.3028 47.2662 89.0016C48.3712 90.1684 49.2407 91.5374 49.8271 93.0336C50.0245 93.6598 50.1744 94.3 50.2756 94.9487C50.3104 95.1338 50.4049 95.3023 50.5447 95.4286C50.5806 95.6035 50.612 95.7784 50.6434 95.9533C50.7093 96.1942 50.8525 96.4068 51.0511 96.5584C51.2496 96.7099 51.4925 96.792 51.7422 96.792H96.525C96.7742 96.7898 97.0159 96.7069 97.214 96.5557C97.4121 96.4045 97.5559 96.1931 97.6238 95.9533C97.9642 93.6258 98.9502 91.4403 100.47 89.6447C101.989 87.8492 103.982 86.5155 106.221 85.7949C108.46 85.0743 110.857 84.9958 113.138 85.5681C115.42 86.1405 117.495 87.3408 119.129 89.033C120.245 90.1863 121.127 91.5448 121.726 93.0336C121.921 93.6604 122.071 94.3004 122.175 94.9487C122.208 95.1333 122.301 95.3019 122.439 95.4286C122.475 95.6035 122.507 95.7784 122.538 95.9533C122.604 96.1942 122.747 96.4068 122.946 96.5584C123.144 96.7099 123.387 96.792 123.637 96.792H129.584C132.136 96.792 134.594 96.8772 136.917 95.5811C138.716 94.5581 140.142 92.9866 140.985 91.0961C141.031 91.04 141.07 90.9782 141.101 90.9122C142.297 88.3796 143.507 85.8381 144.73 83.2877C145.277 82.1485 145.82 81.0048 146.367 79.8611H149.789C149.848 79.8619 149.906 79.8496 149.959 79.8252C150.009 79.8032 150.053 79.7698 150.087 79.7277C150.121 79.6857 150.145 79.6361 150.157 79.5831C150.755 77.1701 151.362 74.7542 151.978 72.3353C151.989 72.2819 151.989 72.2267 151.978 72.1733C151.967 72.1198 151.944 72.0694 151.912 72.0253C151.88 71.9812 151.839 71.9445 151.791 71.9175C151.744 71.8905 151.691 71.8739 151.637 71.8688ZM12.8348 84.4044C12.637 84.5729 12.5104 84.8101 12.4805 85.0682H9.65048V81.8211H12.8348V84.4044ZM85.2586 56.6198L82.8995 54.911C83.0655 54.6778 83.2359 54.4625 83.4063 54.2159L90.4388 59.3557L102.167 67.9176L103.719 69.0478H102.261L96.9779 65.1907L85.2586 56.6198ZM56.5546 83.032V76.9234C58.9137 76.9728 61.2729 76.9234 63.632 76.9234H75.7056C78.3562 76.9234 81.0876 77.067 83.7203 76.7665C87.7192 76.3303 91.5645 74.9815 94.9597 72.8242L95.7805 72.2904V73.9006C95.6 73.9506 95.4408 74.0583 95.3274 74.2074C95.214 74.3564 95.1526 74.5385 95.1525 74.7258V74.9411C95.1531 75.1288 95.2146 75.3112 95.3279 75.4608C95.4412 75.6105 95.6 75.7193 95.7805 75.7708V77.7307C95.5996 77.7816 95.4404 77.8903 95.327 78.0401C95.2136 78.1899 95.1524 78.3726 95.1525 78.5605V78.7713C95.1524 78.9591 95.2136 79.1419 95.327 79.2917C95.4404 79.4415 95.5996 79.5501 95.7805 79.601C95.7805 79.758 95.7805 79.9194 95.7805 80.0764C95.7401 81.2021 95.1481 81.9108 94.3228 82.597C92.7605 83.8065 91.4936 85.3555 90.6182 87.1268C90.0038 88.5037 89.1023 89.4232 87.5056 89.4366C86.2588 89.4366 85.0075 89.4366 83.7606 89.4366H68.3233H61.8559C60.7122 89.4366 59.2187 89.634 58.1692 89.1002C56.0254 87.9655 56.5546 85.0323 56.5546 83.032ZM48.0331 64.5762L49.0243 64.1277C50.7495 67.3091 52.4778 70.489 54.209 73.6673C54.1327 73.5956 54.061 73.5283 53.9892 73.4521L51.9127 71.3576L51.5897 71.0257L48.0331 64.5762ZM145.205 74.3087C144.538 75.711 143.869 77.1133 143.196 78.5156H121.529L123.489 80.6415H142.182L141.357 82.3772H124.606L126.565 84.5031H140.343L139.594 86.0639C139.33 86.62 139.065 87.1807 138.796 87.7368C138.745 87.8156 138.7 87.898 138.662 87.9835C138.246 88.9801 137.615 89.8729 136.815 90.5984C136.015 91.3239 135.065 91.8644 134.033 92.1814C132.891 92.4532 131.715 92.556 130.544 92.4864H124.233C123.492 89.1956 121.653 86.2549 119.018 84.148C116.384 82.041 113.111 80.8932 109.738 80.8932C106.364 80.8932 103.092 82.041 100.457 84.148C97.8227 86.2549 95.9836 89.1956 95.2422 92.4864H52.3118C51.5704 89.1956 49.7314 86.2549 47.097 84.148C44.4625 82.041 41.1896 80.8932 37.8163 80.8932C34.4429 80.8932 31.17 82.041 28.5356 84.148C25.9012 86.2549 24.0621 89.1956 23.3208 92.4864C21.7062 92.4864 20.1274 92.4461 18.6429 91.6522C17.7202 91.1557 16.9131 90.4694 16.2748 89.6384H17.5351V86.8712H15.1267C15.1267 86.7905 15.1267 86.7142 15.1267 86.6335V80.2199C15.1267 79.6728 15.1267 79.1211 15.1267 78.5694C15.1299 76.993 15.6445 75.4601 16.5933 74.2011C17.2962 73.2904 18.2017 72.556 19.2379 72.0562C20.2741 71.5564 21.4125 71.3049 22.5628 71.3217C23.7065 71.3217 24.8546 71.3217 25.9983 71.3217H48.6521L51.6346 74.3311C52.0203 74.7213 52.3925 75.125 52.7917 75.5017C53.6251 76.2798 54.6895 76.7648 55.8236 76.8831V85.2028C55.7679 85.9418 55.8071 86.6848 55.9402 87.4139C56.1743 88.204 56.6575 88.8974 57.3179 89.3904C57.9782 89.8835 58.7803 90.1498 59.6044 90.1497H60.5014H66.1436H82.4465H87.2455C87.9604 90.1811 88.6728 90.046 89.3265 89.755C90.1229 89.3601 90.7572 88.7005 91.1205 87.8893C91.59 86.8027 92.2221 85.794 92.9953 84.8978C94.2197 83.5164 96.2424 82.5118 96.525 80.5339C96.567 80.2112 96.5865 79.886 96.5833 79.5606C96.767 79.5114 96.9293 79.403 97.0453 79.2522C97.1612 79.1014 97.2242 78.9166 97.2246 78.7264V78.5156C97.2247 78.3215 97.1592 78.133 97.0387 77.9807C96.9182 77.8285 96.7498 77.7214 96.5608 77.6769V75.7349C96.7491 75.689 96.9166 75.5815 97.0368 75.4296C97.1571 75.2777 97.2231 75.09 97.2246 74.8962V74.6809C97.2237 74.4876 97.1578 74.3001 97.0373 74.1488C96.9169 73.9974 96.7491 73.8911 96.5608 73.8467V71.7164C96.8409 71.5103 97.1103 71.2903 97.3681 71.0571C97.8166 70.6444 97.8166 70.2094 97.8166 69.6712V69.1734L100.409 70.9674C100.51 71.0779 100.634 71.1661 100.771 71.2263C100.909 71.2865 101.057 71.3175 101.207 71.3172H117.434C122.574 71.3172 127.714 71.2634 132.853 71.3172C135.993 71.3575 139.155 71.3172 142.308 71.3172C142.957 71.3345 143.59 71.5243 144.142 71.8672C144.694 72.2101 145.144 72.6936 145.447 73.2682C145.406 73.6247 145.318 73.9744 145.187 74.3087H145.205ZM149.52 79.1166H146.752L146.968 78.6681C147.56 77.4303 148.174 76.2372 148.156 74.82C148.155 74.0678 148.002 73.3235 147.708 72.6313H151.17C150.599 74.7931 150.043 76.9593 149.502 79.1301L149.52 79.1166Z" fill="#FC9D17"/>
<path d="M63.6766 82.1421H60.0438C59.5409 82.1421 59.1333 82.5497 59.1333 83.0525V83.2454C59.1333 83.7482 59.5409 84.1558 60.0438 84.1558H63.6766C64.1795 84.1558 64.5871 83.7482 64.5871 83.2454V83.0525C64.5871 82.5497 64.1795 82.1421 63.6766 82.1421Z" fill="#FC9D17"/>
</svg>
