<svg width="160" height="160" viewBox="0 0 160 160" fill="none" xmlns="http://www.w3.org/2000/svg">
<path d="M38.2477 95.5186C37.0063 95.0799 35.6579 95.0452 34.3955 95.4196C33.1332 95.7939 32.0217 96.5582 31.2202 97.6028C30.4186 98.6474 29.9682 99.9188 29.9333 101.235C29.8985 102.551 30.281 103.845 31.0261 104.93C31.7712 106.016 32.8407 106.838 34.0815 107.278C35.3222 107.719 36.6706 107.756 37.9335 107.383C39.1964 107.011 40.3091 106.249 41.1123 105.205C41.9154 104.162 42.3678 102.891 42.4048 101.575C42.4098 101.518 42.4098 101.46 42.4048 101.403C42.4099 101.331 42.4099 101.259 42.4048 101.187C42.3469 99.9381 41.9216 98.7338 41.182 97.7253C40.4425 96.7169 39.4217 95.9492 38.2477 95.5186V95.5186ZM36.1716 105.143C35.4308 105.143 34.7066 104.923 34.0906 104.512C33.4747 104.1 32.9947 103.515 32.7114 102.83C32.4281 102.146 32.3543 101.393 32.4992 100.666C32.6441 99.9394 33.0012 99.2722 33.5254 98.7486C34.0496 98.2251 34.7173 97.8689 35.4441 97.7249C36.1708 97.581 36.9239 97.6558 37.6081 97.94C38.2923 98.2242 38.8768 98.7049 39.2877 99.3214C39.6986 99.9379 39.9174 100.662 39.9164 101.403C39.9087 102.394 39.5115 103.341 38.8108 104.041C38.11 104.741 37.162 105.137 36.1716 105.143Z" fill="#FC9D17"/>
<path d="M151.955 79.8962C151.829 77.1554 150.661 74.5661 148.69 72.6578C146.718 70.7494 144.093 69.6659 141.349 69.6287H110.959C110.767 69.4945 110.54 69.4179 110.306 69.4079L110.041 69.3833L109.727 69.3539H109.575H109.55C108.703 69.237 107.862 69.0732 107.033 68.8631C104.873 68.2986 102.689 67.3907 101.074 65.8201C100.054 64.8385 99.5431 63.6164 98.9149 62.3845C98.1546 60.8423 97.2904 59.3533 96.3284 57.9281C94.7442 55.5383 92.8402 53.3767 90.6695 51.5035C86.0707 47.5772 80.1959 45.187 74.1198 45.3833C71.0524 45.4815 67.9701 45.3833 64.9026 45.3833C61.9579 45.3833 59.0131 45.56 56.0683 45.6532C54.1419 45.662 52.2178 45.7865 50.3063 46.0262C46.7104 46.5093 43.2541 47.7344 40.1567 49.6238C36.299 52.1072 33.4573 56.0042 32.8536 60.6177C32.8536 60.7109 32.8536 60.7992 32.8143 60.8876C32.7603 61.2017 32.7014 61.5158 32.6376 61.825C32.4713 62.6199 32.2549 63.4034 31.9898 64.171C31.4155 65.825 30.4781 67.6606 28.9763 68.6962C28.1504 69.2684 27.1688 69.5733 26.164 69.5698C26.031 69.5707 25.8988 69.5906 25.7714 69.6287H19.1653C17.1827 69.5764 15.2201 70.0362 13.4671 70.9637C11.2275 72.2325 9.51352 74.258 8.63274 76.6766C8.15433 78.1453 7.94322 79.6879 8.00943 81.2312C8.00943 84.1072 8.00943 86.9833 8.00943 89.8594C8.0237 91.2174 8.29169 92.5607 8.79961 93.8201C9.16486 96.0104 10.2938 98.0007 11.9864 99.4381C13.6789 100.875 15.8257 101.667 18.0462 101.673H21.9972C21.9972 101.673 22.1002 100.804 22.2916 99.7097C22.3077 99.6669 22.3192 99.6224 22.326 99.5772C22.8182 96.2545 24.4816 93.2171 27.016 91.0129C29.5505 88.8086 32.7892 87.5826 36.148 87.5559C39.5068 87.5293 42.7646 88.7038 45.3337 90.8675C47.9029 93.0313 49.6142 96.0419 50.1591 99.3563L50.4094 101.658H51.8818L102.164 101.702L102.566 99.6852C102.569 99.6492 102.569 99.6131 102.566 99.5772C102.566 99.5085 102.596 99.4398 102.606 99.3662L102.728 98.7576C103.247 96.2544 104.437 93.9398 106.172 92.0625C107.907 90.1852 110.121 88.8162 112.576 88.1026C115.031 87.389 117.633 87.3578 120.104 88.0124C122.575 88.6669 124.821 89.9825 126.601 91.8177C128.646 93.9493 129.986 96.6583 130.439 99.5772C130.454 99.6718 130.486 99.7631 130.532 99.8471C130.611 100.436 130.694 101.045 130.787 101.658H141.55C143.511 101.653 145.42 101.035 147.012 99.8909C148.604 98.7469 149.799 97.134 150.429 95.2778C151.228 93.9149 151.718 92.3939 151.867 90.8214C151.97 89.7956 151.916 88.7453 151.916 87.7195C151.965 85.1379 152.058 82.5073 151.955 79.8962ZM86.1885 51.2876L86.2622 51.2483C86.537 51.4185 86.807 51.5952 87.072 51.7784C89.2104 53.278 91.1199 55.08 92.7407 57.1281C93.7151 58.357 94.6023 59.6526 95.3959 61.0054C95.7934 61.6876 96.1468 62.3943 96.4953 63.1011C96.138 63.1721 95.7695 63.1627 95.4164 63.0736C95.0632 62.9844 94.7343 62.8178 94.4536 62.5858C93.6487 61.8643 92.8732 61.1134 92.083 60.3772L85.8499 54.5759C85.4992 54.3038 85.2252 53.9453 85.0548 53.5354C84.9166 53.09 84.9547 52.6085 85.161 52.1903C85.3674 51.772 85.7264 51.4489 86.164 51.2876H86.1885ZM34.8021 63.4938C34.9689 62.8557 35.1113 62.203 35.2143 61.5306C35.2536 61.2803 35.283 61.0398 35.3223 60.7796C35.3199 60.7355 35.3199 60.6912 35.3223 60.6471C35.3223 60.6471 35.3223 60.5735 35.3223 60.6913C35.3223 60.8091 35.4156 60.2446 35.4352 60.1514C35.9085 57.896 36.9877 55.8124 38.5567 54.1244C41.2609 51.2336 44.9714 49.6532 48.7505 48.7747C49.4475 48.6127 50.1493 48.4753 50.856 48.3674L51.2879 48.2986H51.3812L52.0241 48.225C52.5542 48.1759 53.0843 48.1661 53.6192 48.1514C57.1628 48.0385 60.7014 47.9011 64.245 47.8078C67.2438 47.7293 70.2523 47.8078 73.2511 47.8078C74.6218 47.7645 75.9938 47.8071 77.3591 47.9355L77.575 47.9698L78.0658 48.0582C78.4536 48.1269 78.8413 48.2054 79.2241 48.2937C80.0342 48.4858 80.8336 48.7201 81.6192 48.9956C82.3499 49.2541 83.0659 49.5523 83.764 49.8888C83.0124 50.6332 82.5583 51.6264 82.4869 52.6818C82.4155 53.7373 82.7317 54.7825 83.3763 55.6213C84.0513 56.3807 84.7813 57.0893 85.5603 57.7416L92.5444 64.2643C93.1222 64.8601 93.8467 65.2934 94.645 65.5207C95.6266 65.7612 96.6082 65.56 97.5898 65.4569H97.6536L97.6977 65.5305C98.7688 67.2852 100.307 68.7075 102.139 69.6385H92.3726C92.0868 66.8684 90.9676 64.2501 89.1628 62.1293C87.6904 60.4508 85.7959 59.106 84.0928 57.7121L78.0953 52.7698C75.3616 50.4241 71.8814 49.1295 68.2793 49.1183C63.6757 49.1183 59.0769 49.2066 54.4781 49.2557C51.9554 49.2802 49.5701 49.4128 47.1162 50.2373C45.1072 50.8665 43.2726 51.9553 41.7578 53.4172C40.243 54.8792 39.0899 56.674 38.3898 58.6594C37.634 60.9072 37.7272 63.2091 37.7272 65.5305V69.6385H31.5971C33.1532 67.8855 34.2509 65.7744 34.7922 63.4938H34.8021ZM39.6659 72.1269H91.6904C91.6904 72.8631 91.6904 73.5993 91.6904 74.3208V82.5759C91.6904 84.6864 91.921 86.8901 90.7873 88.7796C89.364 91.1551 86.8609 92.0434 84.2303 92.0582L70.1247 92.1367C66.4094 92.1612 62.6843 92.2398 58.9689 92.2005C57.921 92.2063 56.8904 91.9323 55.9837 91.4069C55.0769 90.8815 54.3268 90.1236 53.8106 89.2115C52.2736 86.326 49.8705 83.995 46.9395 82.5465C46.0129 82.093 45.047 81.7251 44.0536 81.4471C42.9297 81.133 41.7076 81.0741 40.6916 80.4655C40.0366 80.0595 39.498 79.4908 39.1281 78.8148C38.7583 78.1387 38.5699 77.3784 38.5812 76.6079C38.5812 75.1355 38.5812 73.6287 38.5812 72.1416L39.6659 72.1269ZM38.5665 69.6287C38.5665 67.479 38.5665 65.3293 38.5665 63.1796C38.5292 61.5229 38.8225 59.8753 39.4292 58.3331C40.036 56.791 40.944 55.3853 42.1002 54.198C44.6867 51.5919 48.5738 50.1833 52.2155 50.1097C56.9468 50.0115 61.6879 50.0164 66.4192 49.9673C69.1382 49.9428 71.7591 50.0606 74.272 51.2533C76.3824 52.2349 78.1198 53.8839 79.9063 55.3563L85.9726 60.3526C88.4266 62.3747 90.4192 64.7011 91.2438 67.8668C91.3932 68.445 91.4965 69.0342 91.5529 69.6287H38.5468H38.5665ZM149.457 89.8839C149.451 91.1752 149.149 92.4479 148.574 93.6042H131.003C129.756 91.3576 128.001 89.4327 125.88 87.9823C123.759 86.5319 121.329 85.5959 118.782 85.2486C116.236 84.9014 113.644 85.1523 111.212 85.9817C108.779 86.811 106.574 88.1958 104.77 90.0263C103.717 91.0911 102.813 92.2949 102.085 93.6042H50.7333C49.4857 91.3576 47.7316 89.4327 45.6102 87.9823C43.4888 86.5319 41.0586 85.5959 38.5124 85.2486C35.9662 84.9014 33.374 85.1523 30.9417 85.9817C28.5094 86.811 26.3039 88.1958 24.5002 90.0263C23.4466 91.0911 22.5434 92.2949 21.8156 93.6042H11.3959L11.3567 93.5355C10.7263 92.1742 10.435 90.6805 10.5076 89.1821V84.4263C10.5076 81.2803 10.1346 78.0017 12.1665 75.3269C12.9639 74.3079 13.9874 73.4883 15.1561 72.9329C16.3247 72.3776 17.6066 72.1016 18.9002 72.1269H37.7567V74.0901C37.7567 76.3232 37.5211 78.6054 39.229 80.3576C40.8192 81.9821 43.1554 81.9526 45.1726 82.6986C47.0972 83.4141 48.8509 84.5242 50.3211 85.9576C51.4174 87.0428 52.3439 88.287 53.0695 89.6484C54.4536 92.1023 56.937 93.0839 59.6364 93.0447L65.6192 93.0103L82.1493 92.9171C83.5775 92.9171 85.0941 93.0202 86.5174 92.7257C88.1927 92.3752 89.6984 91.4641 90.7861 90.1426C91.8738 88.8212 92.4784 87.1684 92.5002 85.457C92.5395 81.0398 92.5002 76.5784 92.5002 72.1416H134.193C136.476 72.1416 138.763 72.176 141.065 72.1416H141.369C143.432 72.1689 145.41 72.9716 146.908 74.3902C148.407 75.8087 149.317 77.7393 149.457 79.798C149.575 82.1784 149.457 84.5833 149.457 86.9637C149.467 87.9207 149.477 88.9023 149.467 89.8839H149.457Z" fill="#FC9D17"/>
<path d="M40.3732 89.5115C38.4848 88.8259 36.4632 88.5872 34.4671 88.8142C32.471 89.0413 30.5546 89.7278 28.8685 90.8199C27.1823 91.912 25.7721 93.3801 24.7487 95.1088C23.7252 96.8376 23.1163 98.78 22.9697 100.784C22.8231 102.787 23.1429 104.798 23.9038 106.657C24.6648 108.516 25.8463 110.174 27.3556 111.5C28.8649 112.826 30.6609 113.784 32.6027 114.299C34.5446 114.814 36.5793 114.872 38.5474 114.469C44.5646 113.286 48.8541 107.794 48.9327 101.732C48.9074 99.0691 48.0761 96.4759 46.5482 94.2944C45.0203 92.1129 42.8674 90.4454 40.3732 89.5115V89.5115ZM39.6075 111.597C37.509 112.384 35.2141 112.479 33.0575 111.87C30.9009 111.261 28.9952 109.979 27.6183 108.211C26.2414 106.442 25.4652 104.281 25.403 102.041C25.3407 99.8005 25.9956 97.599 27.2722 95.7571C28.5487 93.9152 30.3802 92.5292 32.4997 91.8011C34.6192 91.0731 36.9158 91.041 39.0547 91.7096C41.1937 92.3782 43.0632 93.7126 44.3907 95.5181C45.7181 97.3237 46.4342 99.506 46.4345 101.747C46.4121 103.882 45.7494 105.96 44.5322 107.714C43.315 109.467 41.5994 110.815 39.6075 111.583V111.597Z" fill="#FC9D17"/>
<path d="M118.798 95.5189C117.593 95.097 116.288 95.0545 115.059 95.3971C113.829 95.7396 112.734 96.4509 111.921 97.4349C111.108 98.4189 110.616 99.6285 110.512 100.901C110.408 102.173 110.696 103.446 111.338 104.55C112.022 105.718 113.069 106.632 114.319 107.153C115.569 107.674 116.954 107.774 118.266 107.438C119.578 107.102 120.745 106.349 121.591 105.291C122.437 104.233 122.916 102.929 122.955 101.575C122.955 101.521 122.955 101.462 122.955 101.404C122.96 101.332 122.96 101.259 122.955 101.188C122.898 99.938 122.473 98.7331 121.734 97.7244C120.994 96.7158 119.972 95.9484 118.798 95.5189V95.5189ZM116.722 105.143C115.981 105.144 115.256 104.925 114.639 104.514C114.023 104.103 113.542 103.518 113.258 102.834C112.974 102.149 112.899 101.396 113.044 100.669C113.188 99.9424 113.545 99.2747 114.069 98.7506C114.593 98.2266 115.26 97.8699 115.987 97.7256C116.714 97.5812 117.468 97.6558 118.152 97.9398C118.836 98.2239 119.421 98.7046 119.832 99.3212C120.244 99.9378 120.462 100.662 120.461 101.404C120.454 102.393 120.057 103.34 119.358 104.039C118.658 104.739 117.711 105.136 116.722 105.143Z" fill="#FC9D17"/>
<path d="M120.928 89.5111C119.039 88.8253 117.018 88.5863 115.022 88.813C113.026 89.0397 111.109 89.7259 109.423 90.8177C107.737 91.9096 106.326 93.3773 105.303 95.1058C104.279 96.8343 103.67 98.7766 103.523 100.78C103.376 102.784 103.695 104.794 104.456 106.653C105.216 108.513 106.397 110.171 107.906 111.497C109.415 112.823 111.211 113.782 113.153 114.297C115.094 114.813 117.129 114.871 119.097 114.468C125.114 113.285 129.404 107.793 129.482 101.732C129.458 99.0691 128.628 96.4761 127.101 94.2946C125.574 92.113 123.421 90.4453 120.928 89.5111V89.5111ZM120.157 111.597C118.058 112.382 115.764 112.477 113.607 111.867C111.451 111.256 109.546 109.974 108.17 108.205C106.794 106.436 106.019 104.275 105.957 102.034C105.896 99.7945 106.552 97.5933 107.829 95.752C109.106 93.9106 110.938 92.5253 113.057 91.7979C115.177 91.0705 117.473 91.0391 119.612 91.7082C121.75 92.3774 123.619 93.7121 124.946 95.5178C126.273 97.3235 126.989 99.5058 126.989 101.747C126.966 103.882 126.303 105.961 125.085 107.715C123.867 109.468 122.15 110.816 120.157 111.582V111.597Z" fill="#FC9D17"/>
<path d="M22.9351 73.9284C22.9314 73.8189 22.8863 73.7149 22.8088 73.6375C22.7314 73.56 22.6274 73.5149 22.5179 73.5112C19.313 73.2854 12.8296 73.5849 12.7363 77.9873C12.7376 78.0976 12.782 78.2029 12.8599 78.2809C12.9379 78.3588 13.0433 78.4032 13.1535 78.4045H22.3952C22.449 78.4057 22.5024 78.3959 22.5522 78.3756C22.602 78.3554 22.6472 78.3251 22.6848 78.2867V78.2867C23.0921 77.9628 22.9106 76.6425 22.9155 76.2106C22.9351 75.445 22.94 74.6891 22.9351 73.9284ZM22.0222 77.7714C22.0222 77.7714 22.0222 77.7713 22.0222 77.7468V77.7714ZM22.0958 75.8082C22.0958 76.2548 22.0958 76.6965 22.0664 77.1382C22.0664 77.2855 22.0418 77.4376 22.0418 77.5849H13.605C13.9437 75.5284 16.4222 74.8364 18.2431 74.5468C19.5183 74.344 20.811 74.2733 22.1007 74.3358C22.1007 74.8119 22.1007 75.3026 22.0958 75.7934V75.8082Z" fill="#FC9D17"/>
<path d="M145.448 75.298C143.941 74.0366 141.782 73.109 139.779 73.3642C138.361 73.5507 137.252 74.6059 137.679 76.1029C138.169 77.8599 140.025 79.0869 141.605 79.7446C143.185 80.4022 145.836 80.9078 146.911 79.2096C146.936 79.1778 146.957 79.1432 146.974 79.1065C146.993 79.0707 147.008 79.0328 147.018 78.9937C147.539 77.5753 146.508 76.1863 145.448 75.298ZM146.258 78.6845C145.32 80.3532 142.331 79.2489 141.104 78.5863C140.088 78.0317 137.841 76.4415 138.498 74.979C139.259 73.2906 142.425 74.4391 143.539 75.0133C144.653 75.5875 146.906 77.1581 146.258 78.6845Z" fill="#FC9D17"/>
<path d="M53.1732 68.5346H83.7254C85.3646 68.5346 86.9057 68.0438 87.5094 66.326C87.72 65.7261 87.7519 65.0779 87.6012 64.4601C87.4504 63.8424 87.1236 63.2818 86.6603 62.8462C86.63 62.8127 86.5972 62.7815 86.5622 62.753C84.2407 60.9027 81.9094 59.0622 79.5977 57.202C77.4186 55.4499 75.2984 53.4278 72.7609 52.191C70.2235 50.9542 67.5683 50.7186 64.8198 50.7186H55.5634C54.05 50.6612 52.5345 50.7121 51.0284 50.8708C48.1203 51.301 45.4439 52.7041 43.4358 54.8511C41.4036 57.046 40.1737 59.8637 39.9462 62.8462C39.815 63.8569 39.8415 64.8818 40.0247 65.8843C40.2302 66.6418 40.6764 67.3119 41.2962 67.7936C41.9159 68.2752 42.6755 68.5422 43.4603 68.5542C46.6849 68.6671 49.9437 68.5346 53.1732 68.5346ZM42.41 64.9665C42.2164 62.6904 42.7178 60.4092 43.848 58.4241C45.1432 56.2113 47.1976 54.544 49.6296 53.7321C51.4554 53.1333 53.3057 53.1971 55.2002 53.1971H63.9757C65.7463 53.1187 67.5201 53.2455 69.2615 53.575C71.5977 54.1198 73.507 55.4597 75.3425 56.9419C78.1794 59.2323 81.0227 61.5113 83.8726 63.7788L84.8198 64.5199C85.3106 64.9518 85.4235 65.8009 84.6432 66.0217C84.4069 66.0513 84.1678 66.0513 83.9315 66.0217H45.0652C44.0836 66.0413 42.5131 66.3358 42.41 64.9665V64.9665Z" fill="#FC9D17"/>
<path d="M54.0074 76.7212H47.2688C46.7185 76.7212 46.2725 77.1673 46.2725 77.7175V78.8365C46.2725 79.3868 46.7185 79.8329 47.2688 79.8329H54.0074C54.5577 79.8329 55.0037 79.3868 55.0037 78.8365V77.7175C55.0037 77.1673 54.5577 76.7212 54.0074 76.7212Z" fill="#FC9D17"/>
</svg>
