<svg width="48" height="49" viewBox="0 0 48 49" fill="none" xmlns="http://www.w3.org/2000/svg">
<circle cx="30.0295" cy="24.1242" r="16.9411" fill="#383632"/>
<path d="M17.5277 24.2912C15.8459 23.9233 15.1101 23.1087 15.1101 21.7159C15.1101 20.6758 15.6183 19.8898 16.5106 19.4408C17.0626 19.163 17.6328 19.6506 17.6328 20.2685V24.2091C17.6328 24.2642 17.5811 24.3045 17.5277 24.2912Z" fill="#FC9D17"/>
<path d="M19.8402 27.9176C21.4169 28.2592 22.179 29.0739 22.179 30.4141C22.179 31.3859 21.6815 32.1367 20.8068 32.5962C20.2482 32.8897 19.6562 32.4006 19.6562 31.7695V28.0564C19.6562 27.9605 19.748 27.8913 19.8402 27.9176Z" fill="#FC9D17"/>
<path fill-rule="evenodd" clip-rule="evenodd" d="M4.33594 25.5C4.33594 17.7144 10.7144 11.3359 18.5 11.3359C26.2856 11.3359 32.6641 17.7144 32.6641 25.5C32.6641 33.2856 26.2856 39.6641 18.5 39.6641C10.7144 39.6641 4.33594 33.2856 4.33594 25.5ZM17.6328 37.1662C17.6328 37.7185 18.0805 38.1662 18.6328 38.1662H18.6562C19.2085 38.1662 19.6562 37.7185 19.6562 37.1662V36.8268C19.6562 36.3176 20.0413 35.8964 20.5394 35.7904C23.5509 35.1498 25.4375 33.0542 25.4375 30.125C25.4375 27.3395 23.9134 25.7102 20.5497 24.9744L20.4272 24.9456C19.9755 24.8393 19.6562 24.4362 19.6562 23.9722V20.348C19.6562 19.7124 20.2667 19.2208 20.7885 19.5835C21.2148 19.8799 21.5219 20.2878 21.6967 20.7964C21.8715 21.3051 22.2894 21.7422 22.8273 21.7422H24.0883C24.6536 21.7422 25.1156 21.2704 25.0128 20.7144C24.5871 18.4113 22.9846 16.8339 20.5471 16.311C20.046 16.2035 19.6562 15.7816 19.6562 15.269V14.9375C19.6562 14.3852 19.2085 13.9375 18.6562 13.9375H18.6328C18.0805 13.9375 17.6328 14.3852 17.6328 14.9375V15.2709C17.6328 15.7827 17.2442 16.2051 16.7431 16.3094C13.7507 16.9321 11.8253 19.0155 11.8253 21.821C11.8253 24.7116 13.4808 26.5511 16.7919 27.2607L16.8465 27.2726C17.3056 27.373 17.6328 27.7796 17.6328 28.2495V31.9113C17.6328 32.512 17.0948 32.996 16.5388 32.7683C15.8309 32.4784 15.3407 31.9969 15.0989 31.3505C14.9077 30.8397 14.489 30.3878 13.9435 30.3878H12.5874C12.0255 30.3878 11.5641 30.8546 11.6695 31.4066C12.1231 33.782 13.9659 35.4073 16.7086 35.8744C17.2256 35.9625 17.6328 36.3913 17.6328 36.9157V37.1662Z" fill="#FC9D17"/>
<path fill-rule="evenodd" clip-rule="evenodd" d="M18.5 7C8.325 7 0 15.325 0 25.5C0 35.675 8.325 44 18.5 44C28.675 44 37 35.675 37 25.5C37 15.325 28.675 7 18.5 7ZM18.5 9.3125C9.59687 9.3125 2.3125 16.5969 2.3125 25.5C2.3125 34.4031 9.59687 41.6875 18.5 41.6875C27.4031 41.6875 34.6875 34.4031 34.6875 25.5C34.6875 16.5969 27.4031 9.3125 18.5 9.3125Z" fill="#FC9D17"/>
<circle cx="5.50244" cy="40.2681" r="4.73193" transform="rotate(-180 5.50244 40.2681)" fill="#383632"/>
</svg>
