<svg width="160" height="160" viewBox="0 0 160 160" fill="none" xmlns="http://www.w3.org/2000/svg">
<path d="M90.476 90.9237C90.3002 90.8214 90.095 90.7813 89.8937 90.8099C89.6923 90.8386 89.5065 90.9343 89.3662 91.0816L85.7882 87.6375L89.3662 84.1887C89.5217 84.3403 89.7263 84.4312 89.943 84.445C90.1597 84.4588 90.3742 84.3946 90.5476 84.2639C90.721 84.1333 90.842 83.9449 90.8885 83.7328C90.935 83.5206 90.9041 83.2989 90.8012 83.1076C90.6879 82.92 90.5106 82.7797 90.3019 82.7125C90.0933 82.6453 89.8674 82.6557 89.6659 82.7419C89.4643 82.8281 89.3008 82.9843 89.2052 83.1816C89.1097 83.3789 89.0887 83.604 89.1462 83.8156L84.3627 85.1884L83.1717 80.3715C83.3854 80.3165 83.5719 80.1856 83.6962 80.0032C83.8205 79.8208 83.8742 79.5995 83.8472 79.3804C83.8203 79.1613 83.7145 78.9596 83.5497 78.8127C83.3849 78.6659 83.1723 78.5841 82.9516 78.5825C82.7313 78.5852 82.5195 78.6678 82.3555 78.815C82.1916 78.9622 82.0867 79.164 82.0604 79.3827C82.034 79.6015 82.0881 79.8224 82.2124 80.0042C82.3368 80.1861 82.523 80.3167 82.7364 80.3715L81.5405 85.1884L76.7571 83.8156C76.8145 83.604 76.7935 83.3789 76.698 83.1816C76.6025 82.9843 76.4389 82.8281 76.2374 82.7419C76.0359 82.6557 75.81 82.6453 75.6013 82.7125C75.3927 82.7797 75.2154 82.92 75.102 83.1076C74.9992 83.2989 74.9682 83.5206 75.0148 83.7328C75.0613 83.9449 75.1822 84.1333 75.3556 84.2639C75.5291 84.3946 75.7436 84.4588 75.9603 84.445C76.177 84.4312 76.3816 84.3403 76.5371 84.1887L80.115 87.6375L76.5658 91.0816C76.4103 90.93 76.2057 90.8391 75.989 90.8253C75.7723 90.8115 75.5578 90.8757 75.3843 91.0063C75.2109 91.137 75.09 91.3254 75.0435 91.5375C74.9969 91.7496 75.0279 91.9714 75.1307 92.1627C75.2441 92.3503 75.4214 92.4906 75.63 92.5578C75.8387 92.625 76.0646 92.6145 76.2661 92.5283C76.4676 92.4421 76.6312 92.286 76.7267 92.0887C76.8222 91.8914 76.8432 91.6662 76.7858 91.4547L81.5692 90.0819L82.7651 94.9036C82.5556 94.9617 82.3738 95.093 82.2528 95.2736C82.1318 95.4543 82.0796 95.6723 82.1057 95.8882C82.1317 96.1041 82.2343 96.3034 82.3948 96.4501C82.5552 96.5968 82.763 96.6811 82.9803 96.6878C83.198 96.6822 83.4065 96.5986 83.5677 96.4523C83.729 96.306 83.8324 96.1066 83.859 95.8905C83.8857 95.6743 83.8339 95.4558 83.713 95.2747C83.5921 95.0936 83.4102 94.9619 83.2004 94.9036L84.3914 90.0819L89.1749 91.4547C88.8687 93.5977 92.1645 92.2727 90.476 90.9237Z" fill="#FC9D17"/>
<path d="M40.0969 97.7497C38.9504 97.34 37.7063 97.2894 36.5304 97.6048C35.3544 97.9201 34.3025 98.5864 33.5149 99.5147C32.7156 100.468 32.2313 101.645 32.1285 102.884C32.0257 104.124 32.3095 105.365 32.9409 106.436C33.5875 107.484 34.5384 108.31 35.6667 108.803C36.7949 109.296 38.0467 109.433 39.255 109.196C40.5686 108.92 41.7525 108.214 42.619 107.189C43.4855 106.164 43.985 104.879 44.0384 103.538C44.0432 103.48 44.0432 103.423 44.0384 103.365C44.0458 103.295 44.0458 103.225 44.0384 103.155C43.9838 101.967 43.581 100.821 42.8802 99.8598C42.1794 98.8987 41.2115 98.1649 40.0969 97.7497V97.7497ZM38.0543 106.886C37.12 106.876 36.2269 106.499 35.5675 105.837C34.9082 105.175 34.5352 104.281 34.529 103.346C34.5377 102.412 34.9139 101.518 35.5763 100.858C36.2386 100.198 37.1339 99.8259 38.0687 99.8209C39.0023 99.8333 39.8939 100.211 40.5528 100.872C41.2116 101.534 41.5854 102.427 41.5941 103.361C41.5828 104.295 41.2058 105.187 40.544 105.846C39.8822 106.505 38.9884 106.879 38.0543 106.886Z" fill="#FC9D17"/>
<path d="M42.0769 92.0196C39.6752 91.1504 37.0641 91.0418 34.5985 91.7085C32.1329 92.3752 29.9323 93.7848 28.2959 95.7458C26.6628 97.7369 25.6832 100.183 25.4906 102.751C25.2981 105.319 25.9018 107.884 27.2196 110.096C28.5535 112.261 30.514 113.969 32.8411 114.994C35.1682 116.019 37.7519 116.313 40.2496 115.836C46.0136 114.741 50.1609 109.498 50.2278 103.696C50.2119 101.153 49.424 98.675 47.9685 96.59C46.5129 94.5049 44.4584 92.9111 42.0769 92.0196V92.0196ZM41.2876 113.023C39.3409 113.722 37.2267 113.807 35.2302 113.267C33.2337 112.726 31.4512 111.586 30.1231 110C28.8239 108.403 28.0469 106.445 27.8972 104.392C27.7474 102.339 28.2323 100.289 29.286 98.5202C30.3493 96.7765 31.9187 95.3983 33.7852 94.5694C35.6516 93.7404 37.7265 93.5 39.733 93.8803C41.9936 94.3476 44.0256 95.5761 45.4898 97.3607C46.954 99.1452 47.762 101.378 47.7787 103.686C47.767 105.716 47.1404 107.695 45.9817 109.362C44.8229 111.029 43.1864 112.305 41.2876 113.023V113.023Z" fill="#FC9D17"/>
<path d="M116.498 97.8935C115.35 97.4824 114.104 97.4311 112.926 97.7465C111.748 98.0618 110.695 98.7289 109.906 99.6586C109.114 100.611 108.636 101.784 108.535 103.019C108.435 104.253 108.718 105.489 109.346 106.556C109.989 107.607 110.936 108.437 112.063 108.934C113.19 109.432 114.442 109.574 115.651 109.34C116.965 109.065 118.149 108.359 119.016 107.334C119.883 106.308 120.382 105.023 120.434 103.681C120.434 103.624 120.434 103.567 120.434 103.509C120.439 103.439 120.439 103.369 120.434 103.299C120.381 102.111 119.98 100.965 119.28 100.004C118.58 99.0423 117.612 98.3085 116.498 97.8935V97.8935ZM114.455 107.03C113.521 107.02 112.629 106.643 111.97 105.981C111.311 105.319 110.939 104.424 110.934 103.49C110.942 102.556 111.317 101.662 111.979 101.002C112.64 100.342 113.535 99.9698 114.469 99.9648C115.403 99.976 116.296 100.353 116.955 101.015C117.614 101.677 117.987 102.57 117.995 103.504C117.983 104.438 117.607 105.331 116.945 105.99C116.283 106.649 115.389 107.022 114.455 107.03V107.03Z" fill="#FC9D17"/>
<path d="M118.478 92.1626C116.073 91.2997 113.462 91.1966 110.997 91.8674C108.532 92.5382 106.332 93.9504 104.697 95.9128C103.065 97.9045 102.086 100.35 101.894 102.918C101.701 105.486 102.304 108.05 103.62 110.263C104.954 112.428 106.915 114.136 109.242 115.161C111.569 116.187 114.153 116.48 116.65 116.003C122.419 114.908 126.562 109.665 126.633 103.863C126.621 101.316 125.835 98.8322 124.378 96.7424C122.921 94.6527 120.863 93.0554 118.478 92.1626ZM117.703 113.167C115.755 113.865 113.64 113.95 111.643 113.41C109.646 112.869 107.863 111.729 106.533 110.144C105.234 108.546 104.457 106.589 104.307 104.535C104.158 102.482 104.643 100.432 105.696 98.6633C106.759 96.9143 108.331 95.5319 110.202 94.7009C112.072 93.87 114.152 93.6303 116.162 94.0138C118.423 94.4811 120.455 95.7096 121.919 97.4941C123.383 99.2787 124.191 101.511 124.208 103.82C124.197 105.853 123.569 107.835 122.408 109.504C121.246 111.173 119.606 112.45 117.703 113.167V113.167Z" fill="#FC9D17"/>
<path d="M25.2826 77.1908C25.2802 77.0838 25.2365 76.9818 25.1608 76.906C25.0851 76.8303 24.9831 76.7867 24.876 76.7843C21.8194 76.5594 15.6488 76.8369 15.5483 81.0319C15.5496 81.1394 15.5928 81.2421 15.6688 81.318C15.7448 81.394 15.8475 81.4373 15.9549 81.4385H24.7468C24.7993 81.44 24.8514 81.4306 24.9 81.4108C24.9486 81.3911 24.9926 81.3614 25.0291 81.3237V81.3237C25.4213 81.008 25.2491 79.7691 25.2587 79.3482C25.2778 78.6354 25.2826 77.9131 25.2826 77.1908ZM24.3929 80.8358V80.8645C24.3915 80.8534 24.3915 80.8421 24.3929 80.831V80.8358ZM24.4598 78.9607C24.4598 79.3673 24.4598 79.7787 24.4311 80.19C24.4311 80.3383 24.4024 80.4962 24.4024 80.6445H16.3998C16.7298 78.6976 19.0881 78.0471 20.8149 77.7744C22.0236 77.5885 23.2479 77.5244 24.4694 77.5831C24.4646 78.0327 24.4646 78.4967 24.4598 78.9607Z" fill="#FC9D17"/>
<path d="M140.438 77.7359C138.922 76.9323 135.535 75.9134 134.517 78.0229C133.632 79.8645 135.909 81.7444 137.281 82.5002C138.865 83.3755 142.132 84.38 143.299 82.328C143.314 82.2969 143.327 82.265 143.337 82.2323C144.141 80.3476 141.869 78.5108 140.438 77.7359ZM142.586 81.9357C141.653 83.5286 138.759 82.4141 137.573 81.7348C136.617 81.1991 134.574 79.6732 135.272 78.3338C135.626 77.6498 136.626 77.5781 137.301 77.6211C138.348 77.7093 139.361 78.0366 140.261 78.5778C141.299 79.1709 143.093 80.5438 142.577 81.9501L142.586 81.9357Z" fill="#FC9D17"/>
<path d="M97.3446 64.8208C94.9529 62.5774 92.5325 60.3675 90.136 58.1241C88.8554 56.8486 87.2141 55.997 85.4339 55.6845C84.0886 55.4982 82.7305 55.4214 81.3728 55.4549H72.4661C70.7154 55.4549 69.089 56.1102 68.4911 57.9184C68.1658 58.9038 68.3141 60.1331 68.3141 61.1519C68.3141 62.8166 68.3141 64.5003 68.3141 66.1506C68.2558 67.1677 68.2718 68.1877 68.3619 69.2024C68.5064 70.0587 68.9542 70.8344 69.6235 71.3877C70.2927 71.941 71.1387 72.235 72.0069 72.216C72.6718 72.216 73.3319 72.216 73.9968 72.216H82.5208C87.95 72.216 93.3887 72.3356 98.8131 72.2447H99.1288C99.1988 72.2496 99.2692 72.2496 99.3392 72.2447C100.411 72.1203 101.296 71.465 101.339 70.2835C101.382 69.102 100.683 68.0592 99.9515 67.2652C99.1479 66.3659 98.2008 65.6005 97.3446 64.8208ZM86.5388 69.7956C81.7172 69.7956 76.8955 69.7669 72.0738 69.7669C71.9041 69.7866 71.7321 69.77 71.5694 69.7179C71.4066 69.6659 71.2568 69.5797 71.1301 69.4652C71.0033 69.3506 70.9024 69.2103 70.8342 69.0536C70.766 68.897 70.732 68.7275 70.7345 68.5567C70.6771 67.5139 70.7345 66.4472 70.7345 65.3996V60.8123C70.7345 60.1283 70.5097 58.8511 70.9928 58.2723C71.4759 57.6935 72.7387 57.8753 73.4515 57.8753H77.9574H81.8272C83.1114 57.8199 84.3975 57.9292 85.6539 58.2006C87.1224 58.5928 88.0887 59.5112 89.1602 60.5923C90.3178 61.7403 91.5519 62.7735 92.7573 63.8833C94.5367 65.5479 96.4405 67.136 98.1243 68.8963C98.3882 69.1631 98.6035 69.4739 98.7605 69.8147L86.5388 69.7956Z" fill="#FC9D17"/>
<path d="M63.6982 59.3965C63.6982 58.4398 63.6982 57.5405 63.1624 56.6939C62.4258 55.5267 61.1917 55.1249 59.881 55.1201H52.9594C50.3285 55.1201 47.8364 55.3067 45.4494 56.5551C43.8714 57.396 42.4921 58.5655 41.4045 59.9848C40.3169 61.4041 39.5464 63.0402 39.1449 64.7826C38.7888 66.2455 38.7012 67.7609 38.8866 69.2551C39.023 70.0564 39.4381 70.7839 40.0586 71.309C40.6791 71.8341 41.4651 72.1231 42.278 72.1251C43.7848 72.1778 45.3011 72.1251 46.8127 72.1251L60.125 72.1491H60.2732C60.3567 72.1487 60.44 72.1407 60.522 72.1251C61.3771 72.0495 62.1737 71.6593 62.7578 71.0302C63.3418 70.4011 63.6718 69.5777 63.6838 68.7194C63.7077 68.021 63.6838 67.313 63.6838 66.6099L63.6982 59.3965ZM60.3019 69.7191H50.0654H43.8948C43.4165 69.7191 42.8999 69.7191 42.412 69.7191C41.5749 69.6808 41.2878 69.1738 41.2878 68.3941C41.2878 65.3997 42.0628 62.654 44.2392 60.4919C45.1966 59.5497 46.3313 58.8066 47.5776 58.3058C48.824 57.805 50.1573 57.5562 51.5005 57.574C53.4664 57.574 55.4324 57.574 57.3984 57.574H60.0341C60.7085 57.574 61.2347 57.8132 61.2921 58.5785C61.4404 60.5971 61.2921 62.6779 61.2921 64.7013C61.2921 65.8015 61.2921 66.8969 61.2921 67.9971C61.2586 68.7242 61.3065 69.6713 60.3019 69.7191Z" fill="#FC9D17"/>
<path d="M150.761 91.4596C150.87 91.1097 150.925 90.7451 150.924 90.3785C150.924 89.2592 151.182 87.7381 150.622 86.7144C150.376 86.2758 150.005 85.9205 149.556 85.6939C149.107 85.4673 148.601 85.3796 148.102 85.442C148.102 84.6145 148.102 83.787 148.049 82.9642C147.904 80.3706 146.782 77.9283 144.908 76.1292C143.034 74.33 140.548 73.3078 137.951 73.2683H133.282H126.241C126.062 73.163 125.86 73.1039 125.653 73.096C124.331 73.0245 123.017 72.8518 121.721 72.5794C119.157 72.0772 116.541 71.331 114.345 69.8625C113.292 69.1252 112.416 68.1628 111.781 67.045C110.814 65.5131 109.736 64.0535 108.557 62.6778C106.406 60.1632 103.897 57.9793 101.109 56.1962C95.1395 52.3695 88.194 50.6331 81.148 50.7001C77.3835 50.7384 73.6142 50.7001 69.8496 50.7001C66.6352 50.7001 63.4111 50.8388 60.1967 50.9106C57.9293 50.9632 55.6429 50.9106 53.3851 51.145C49.2942 51.4835 45.2767 52.4298 41.4648 53.9528C36.8584 55.8662 32.4863 59.1572 31.2283 64.2324C30.439 67.4181 29.4919 70.5321 26.3205 72.2159C25.1655 72.7973 23.8872 73.091 22.5942 73.0721C22.5147 73.0648 22.4346 73.0648 22.3551 73.0721H21.6615C19.6485 73.016 17.6601 73.5247 15.9214 74.5406C13.8598 75.808 12.3077 77.7579 11.535 80.0511C11.1373 81.4237 10.966 82.852 11.0279 84.2797C11.0279 84.8154 11.0279 85.3512 11.0279 85.8869C10.593 85.7975 10.1421 85.8258 9.72166 85.9687C9.30125 86.1117 8.92656 86.3641 8.63622 86.7001C7.78955 87.695 8.02873 89.197 8.02873 90.4072C7.96075 91.0686 8.06625 91.7363 8.33486 92.3445C8.55303 92.738 8.87163 93.0666 9.25816 93.2968C9.64469 93.5271 10.0853 93.6507 10.5352 93.6552C10.724 93.6465 10.9115 93.6193 11.0949 93.5738C11.2871 95.0568 11.7961 96.481 12.5873 97.7498C12.5127 97.7776 12.4486 97.8281 12.404 97.8941C12.3594 97.9602 12.3366 98.0384 12.3386 98.1181C12.4869 100.682 12.9796 103.476 15.577 104.604C17.4186 105.408 19.2698 105.284 21.231 105.288C21.2691 105.293 21.3076 105.293 21.3458 105.288H24.455C24.31 102.549 24.9755 99.8267 26.3683 97.4628C27.7949 95.0599 29.9276 93.1552 32.4758 92.0082C35.0241 90.8612 37.8639 90.5276 40.6086 91.053C43.0024 91.5595 45.2178 92.6953 47.0265 94.3433C48.8351 95.9914 50.1714 98.0919 50.8977 100.428C51.0077 100.854 51.0986 101.285 51.1704 101.725C51.1909 101.847 51.2383 101.963 51.3091 102.064C51.4653 102.891 51.5469 103.73 51.553 104.571C51.553 104.829 51.553 105.083 51.5196 105.341L55.375 105.485C59.7757 105.609 64.186 105.537 68.5868 105.542L90.5905 105.585H95.7614H98.3923V105.556H100.741C100.674 104.42 100.741 103.28 100.942 102.16C101.019 102.056 101.07 101.934 101.09 101.806C101.203 101.131 101.363 100.464 101.568 99.8114C101.85 99.0425 102.199 98.2998 102.611 97.5919C105.481 92.7128 111.25 90.0437 116.737 91.1869C119.817 91.8643 122.573 93.5741 124.548 96.0328C126.522 98.4914 127.598 101.551 127.595 104.705C127.595 105.006 127.595 105.308 127.557 105.609H130.843V105.585L132.441 105.633H132.527H139.477C142.036 105.633 145.217 105.48 146.724 103.078C147.872 101.285 147.681 98.96 147.322 96.9557C147.329 96.9178 147.329 96.8788 147.322 96.8409C147.308 96.7676 147.271 96.7007 147.217 96.6496C147.385 96.2685 147.529 95.8771 147.647 95.4776H149.924C150.201 95.4783 150.475 95.4243 150.732 95.3189C150.988 95.2135 151.221 95.0586 151.417 94.8632C151.613 94.6677 151.769 94.4355 151.876 94.1798C151.982 93.9241 152.038 93.65 152.038 93.3729C152.032 92.965 151.908 92.5677 151.681 92.2284C151.455 91.8891 151.135 91.6222 150.761 91.4596V91.4596ZM10.5544 92.8229C8.78451 92.8229 8.85148 91.0339 8.85627 89.7854C8.86105 88.5369 8.7271 86.6092 10.5639 86.6044C10.7247 86.6012 10.8853 86.6173 11.0423 86.6523C11.0423 88.5656 11.0423 90.4503 11.0423 92.3493C11.0423 92.4832 11.0423 92.6172 11.0423 92.7463C10.8826 92.788 10.7192 92.8136 10.5544 92.8229ZM104.367 61.7641C105.586 62.9098 106.715 64.1476 107.744 65.4665C108.107 65.9448 108.442 66.4232 108.767 66.9015C103.911 65.1409 99.9169 61.5803 97.6126 56.9568C100.062 58.2534 102.329 59.87 104.352 61.7641H104.367ZM63.2963 99.6488H59.4265C58.1589 92.3206 51.9548 86.9632 45.0285 84.9493C37.2698 82.6916 28.4539 84.3275 22.3933 89.7949C19.7062 92.1719 17.7698 95.2802 16.8207 98.7399C15.7818 98.0245 14.9303 97.0696 14.3381 95.956C13.695 94.646 13.3939 93.1947 13.4627 91.737V87.298C13.4627 84.3132 13.0991 81.18 14.9742 78.6209C15.7231 77.6269 16.6973 76.825 17.8166 76.2811C18.936 75.7373 20.1685 75.467 21.4127 75.4925H27.7842L41.0917 75.5164L59.0391 75.5547H65.425V76.0618C65.4243 76.2629 65.49 76.4587 65.6119 76.6187C65.7339 76.7788 65.9052 76.894 66.0994 76.9467V84.2988C65.9242 84.3633 65.773 84.48 65.6661 84.6331C65.5591 84.7862 65.5017 84.9683 65.5015 85.155V88.3312C65.5024 88.5177 65.5595 88.6996 65.6653 88.8532C65.7711 89.0068 65.9207 89.125 66.0946 89.1922V97.3001C66.0946 97.8885 66.0659 98.4816 66.0946 99.07C66.1024 99.2633 66.128 99.4554 66.1712 99.644L63.2963 99.6488ZM103.764 76.4253V86.2696C101.816 87.1488 100.008 88.3092 98.397 89.7136C95.3899 92.2901 93.3474 95.8118 92.6043 99.7014H81.5259L67.0322 99.6727C66.9151 99.16 66.87 98.6336 66.8982 98.1085C66.8982 95.1428 66.8982 92.1787 66.8982 89.2162C67.0671 89.1465 67.2116 89.0285 67.3137 88.8771C67.4158 88.7256 67.471 88.5474 67.4722 88.3647V85.1885C67.4733 85.006 67.4196 84.8273 67.3181 84.6755C67.2167 84.5238 67.0721 84.4059 66.903 84.3371C66.903 81.8593 66.903 79.383 66.903 76.9084C67.0485 76.8284 67.1697 76.7107 67.2539 76.5675C67.3381 76.4244 67.3821 76.2613 67.3814 76.0953V75.5882H79.2969L99.6072 75.6217H103.735C103.75 75.8991 103.75 76.1622 103.75 76.4253H103.764ZM103.764 73.2013H103.286L82.827 73.163L67.4244 73.1343V72.8999C67.4257 72.7338 67.3819 72.5704 67.2977 72.4272C67.2134 72.284 67.0919 72.1664 66.9461 72.0867C66.9461 70.6996 66.9461 69.3172 66.9461 67.9347V67.509C66.9461 64.3966 66.9461 61.2826 66.9461 58.167C66.9144 57.6881 66.932 57.2073 66.9987 56.732C67.3096 55.297 68.7781 54.5651 70.1462 54.5268C71.4377 54.4934 72.7436 54.4694 74.0351 54.4742H83.5158C85.8597 54.4742 88.1414 54.8569 90.1504 56.1197C92.4704 57.5786 94.2929 59.7742 96.2014 61.702C98.5023 64.0267 100.827 66.3275 103.142 68.6379C103.711 69.2454 103.74 69.9342 103.74 70.7235C103.716 70.9349 103.716 71.1483 103.74 71.3597C103.724 71.6161 103.724 71.8733 103.74 72.1298L103.764 73.2013ZM104.453 71.0296C104.509 70.9058 104.543 70.773 104.553 70.6374C104.557 70.3031 104.536 69.969 104.491 69.6376C104.401 69.0564 104.132 68.5178 103.721 68.0974L97.3734 61.7689C95.46 59.8556 93.6662 57.7604 91.5137 56.1197C89.4329 54.588 86.9222 53.7511 84.3386 53.728C81.0237 53.6036 77.6896 53.728 74.3699 53.6945C73.0306 53.6945 71.6912 53.7471 70.3519 53.7519C68.2232 53.7519 66.1999 55.0195 66.1377 57.3156C66.0468 60.7118 66.1377 64.1176 66.1377 67.5138C66.1377 69.0158 66.1377 70.513 66.1377 72.015C65.943 72.0675 65.7711 72.1826 65.6483 72.3425C65.5255 72.5024 65.4588 72.6983 65.4584 72.8999V73.1343H62.0048L43.3016 73.1008L29.3293 73.0721C29.6247 72.81 29.9042 72.5304 30.1664 72.235C31.5613 70.6492 32.58 68.7687 33.1465 66.7341C33.51 65.4809 33.6248 64.2133 34.2179 63.0174C35.2682 60.9489 36.8731 59.2132 38.8531 58.0044C42.5985 55.6127 47.0758 54.436 51.4382 53.795C51.9883 53.7137 51.8735 53.728 52.3949 53.6658L53.4568 53.551C53.8873 53.5127 54.3131 53.4745 54.7436 53.4506C55.5328 53.4123 56.3269 53.4123 57.1353 53.3932C64.4587 53.2305 71.7677 53.1157 79.0959 53.1301C80.9232 53.1301 82.7648 53.0535 84.5873 53.1923C86.382 53.3215 88.1619 53.608 89.9065 54.0485C91.7914 54.5043 93.6335 55.1221 95.4122 55.8949C96.7994 60.1282 100.138 63.9215 103.769 66.2845C105.755 67.5564 107.927 68.5102 110.207 69.1115C110.384 69.365 110.561 69.5898 110.753 69.8481C112.046 71.3552 113.688 72.5229 115.536 73.2491H104.649C104.649 72.5603 104.615 71.8763 104.572 71.197C104.534 71.1061 104.472 71.0631 104.448 71.0392L104.453 71.0296ZM145.619 91.8662C145.416 92.0609 145.254 92.2949 145.144 92.5539C145.034 92.8129 144.977 93.0915 144.978 93.3729C144.976 93.8005 145.106 94.2181 145.351 94.5688C145.098 95.5454 144.654 96.4622 144.045 97.2666C143.169 98.4096 141.991 99.2859 140.644 99.7971H140.233H135.449C134.172 92.4306 127.911 87.0588 120.941 85.0642C115.528 83.5312 109.759 83.8374 104.539 85.9347V79.0179C104.539 77.9034 104.568 76.7793 104.587 75.6695L117.698 75.6982L131.092 75.7221C133.282 75.7221 135.473 75.7652 137.659 75.7221H137.942C141.878 75.7748 145.361 78.8696 145.595 82.8686C145.734 85.155 145.595 87.4798 145.595 89.7662L145.619 91.8662ZM149.962 91.273H148.049C148.049 91.0099 148.049 90.7421 148.049 90.4838C148.049 89.0727 148.087 87.6568 148.102 86.2409C148.207 86.233 148.312 86.233 148.417 86.2409C150.187 86.2409 150.12 88.0299 150.115 89.2783C150.155 89.9473 150.101 90.6185 149.957 91.273H149.962Z" fill="#FC9D17"/>
<path d="M78.2971 44.2905H75.7428C75.3314 44.2905 74.9966 47.1175 74.9966 47.6389C74.9755 47.8627 75.0405 48.0862 75.1782 48.2638C75.3159 48.4415 75.516 48.5601 75.738 48.5956H78.2923C78.5156 48.5612 78.7174 48.4433 78.8568 48.2656C78.9963 48.088 79.063 47.8639 79.0433 47.6389C79.0433 47.1223 78.7085 44.2905 78.2971 44.2905Z" fill="#FC9D17"/>
<path d="M75.3551 49.3609H78.6797C78.9762 49.3609 79.158 49.5284 79.158 49.6432C79.158 49.758 78.9571 49.9206 78.6797 49.9206H75.3551C75.0586 49.9206 74.8768 49.7532 74.8768 49.6384C74.8768 49.5236 75.0729 49.3609 75.3551 49.3609ZM75.3551 48.8826C75.1292 48.8619 74.9039 48.9288 74.7259 49.0694C74.5478 49.2101 74.4306 49.4138 74.3984 49.6384C74.4295 49.8639 74.5462 50.0687 74.7244 50.2103C74.9026 50.352 75.1285 50.4195 75.3551 50.3989H78.6797C78.9051 50.4173 79.1292 50.3495 79.3067 50.2093C79.4842 50.0691 79.602 49.8668 79.6363 49.6432C79.6031 49.4187 79.4858 49.2152 79.3082 49.074C79.1305 48.9328 78.9058 48.8644 78.6797 48.8826H75.3551Z" fill="#FC9D17"/>
</svg>
