<svg width="160" height="160" viewBox="0 0 160 160" fill="none" xmlns="http://www.w3.org/2000/svg">
<path d="M151.627 96.374C151.072 93.3448 149.758 90.4929 147.8 88.0672C146.552 86.5629 145.135 85.1975 143.574 83.9962C142.309 83.0244 140.784 82.407 139.38 81.6246C139.152 81.5024 138.931 81.3618 138.709 81.2334C138.924 81.1601 139.146 81.0806 139.342 81.0256C139.943 80.8789 140.55 80.7444 141.157 80.6038L139.791 79.4363C139.729 79.3903 139.661 79.3532 139.589 79.3263C137.058 78.1754 134.3 77.5685 131.504 77.5476C129.34 77.5476 127.183 77.9266 125.02 78.0977C124.729 78.0977 124.216 77.9388 124.166 77.7615C124.039 77.3031 123.913 76.6491 124.166 76.3373C124.758 75.6461 125.426 75.0189 126.158 74.4669C128.334 72.6332 130.738 71.264 133.655 70.8544C133.733 70.8098 133.799 70.7466 133.846 70.6707C133.892 70.5948 133.918 70.5086 133.92 70.4204C132.933 67.4559 132.098 64.4302 130.859 61.5696C129.865 59.1768 128.557 56.9171 126.968 54.8459C124.817 52.2284 122.458 49.776 119.914 47.5109C118.058 45.897 116.062 44.4389 113.949 43.1527C112.343 42.209 110.683 41.3539 108.977 40.5916C108.574 40.3683 108.111 40.2691 107.648 40.3073C107.186 40.3456 106.747 40.5194 106.389 40.8055C105.605 41.4168 104.783 41.9302 104.049 42.572C103.205 43.2597 102.449 44.0414 101.797 44.9009C101.61 45.1779 101.488 45.4911 101.44 45.8185C101.392 46.1459 101.418 46.4795 101.518 46.7958C102.783 49.094 104.156 51.3129 105.542 53.5195C105.771 53.777 106.091 53.9427 106.44 53.984C107.604 54.1857 108.793 54.2591 109.951 54.4852C112.532 54.9987 114.379 56.6002 116.075 58.4278C116.134 58.5301 116.171 58.6435 116.181 58.7605C116.192 58.8774 116.177 58.9953 116.138 59.1063C115.556 59.3569 114.873 60.017 114.499 58.8312C114.344 58.3314 114.132 57.8497 113.867 57.3948C113.788 57.3062 113.691 57.2341 113.582 57.1826C113.473 57.1311 113.355 57.1014 113.234 57.0953C112.658 57.0464 111.868 57.896 111.539 56.8813C111.096 55.5427 110.381 55.0843 109.008 55.7322C108.883 55.7676 108.753 55.7841 108.622 55.7811C107.768 55.8618 106.973 56.2388 106.385 56.8423C105.796 57.4458 105.454 58.2349 105.421 59.0635C105.421 59.4608 105.017 59.8398 104.789 60.2249C104.593 59.9865 104.397 59.742 104.194 59.5036C104.106 59.3997 104.023 59.253 103.91 59.2163C100.879 58.2505 97.8745 57.1686 94.8 56.3618C92.0708 55.6115 89.2852 55.0679 86.4686 54.7359C84.1257 54.5137 81.7636 54.5671 79.434 54.8948C76.6316 55.2738 74.1771 56.7285 72.0895 58.4706C69.7868 60.3654 67.87 62.7065 65.7634 64.8581C65.2636 65.3716 64.8904 66.1723 64.2895 66.3801C63.0685 66.808 61.7147 66.8508 60.4432 67.1686C58.8553 67.572 57.2801 68.3422 55.6164 67.7432C52.9594 66.7835 50.3468 65.7016 47.7468 64.6014C47.0003 64.345 46.3429 63.8919 45.849 63.2933C44.9514 61.8268 44.1486 60.308 43.4451 58.7456C42.7492 57.2848 41.7813 56.2701 39.9974 56.2395C39.9241 56.2267 39.8545 56.1988 39.7934 56.1576C39.7322 56.1165 39.681 56.0631 39.6431 56.0011C39.3837 55.4999 39.1371 54.9926 38.9093 54.4791C38.2767 53.0427 36.6636 51.7835 35.4363 51.8569C33.2855 51.9914 31.1472 52.187 28.9964 52.3214C26.466 52.4742 24.062 53.6173 21.462 52.9755C20.8542 52.859 20.2329 52.822 19.6149 52.8654C19.3493 52.924 19.0966 53.0275 18.8684 53.1711C18.9481 53.3886 19.0589 53.5943 19.1973 53.7823C20.2032 54.8092 21.228 55.8117 22.2402 56.8385C22.3037 56.923 22.3587 57.013 22.4046 57.1075C22.3332 57.1159 22.261 57.1159 22.1895 57.1075C21.1015 56.9547 20.8231 57.2236 21.2153 58.2505C21.83 60.0468 22.574 61.7992 23.4421 63.495C24.1822 64.8092 25.0299 66.1539 26.6937 66.7285C29.9073 67.841 33.0894 69.039 36.2903 70.1698C36.9736 70.4143 37.7959 70.8544 38.3779 70.665C39.4533 70.3227 39.9089 70.94 40.4972 71.4657C42.3001 73.0855 44.0713 74.7297 45.8932 76.3557C47.4115 77.6821 49.1765 78.8495 49.8534 80.8055C50.8402 83.6784 51.6437 86.6185 52.4977 89.5341C52.5546 89.7236 52.3965 89.9681 52.3395 90.1821C52.0296 90.0537 51.5614 90.0048 51.4349 89.7786C50.9984 88.9962 50.7644 88.0977 50.2962 87.3337C49.4612 85.9828 48.5186 84.7053 47.614 83.3911C46.3488 82.2297 45.2481 80.8422 43.8184 79.9559C41.6221 78.7184 39.3629 77.5883 37.0494 76.5696C37.0052 76.5696 36.9355 76.5696 36.8723 76.5696C36.8925 76.6228 36.918 76.6739 36.9483 76.7224C37.3468 77.2114 37.7579 77.6943 38.1438 78.1894C38.2122 78.3106 38.2633 78.4401 38.2957 78.5745C38.1633 78.5898 38.0296 78.5898 37.8972 78.5745C36.5541 78.1527 35.1876 77.8037 33.8042 77.5293C30.8589 77.0754 27.85 77.1834 24.9477 77.8471C21.8838 78.5373 19.014 79.8685 16.5404 81.7469V81.7469C16.3442 81.8403 16.1559 81.9486 15.9774 82.0708C12.788 84.6927 10.3849 88.0933 9.01873 91.918V91.918L8.98073 92.0341C8.98073 92.0953 8.93647 92.1503 8.91749 92.2114C8.91452 92.2296 8.91452 92.2482 8.91749 92.2664C8.26243 94.3876 7.9488 96.5935 7.98758 98.8068C7.99033 103.411 9.51763 107.893 12.3462 111.599C15.1747 115.304 19.156 118.038 23.7078 119.4L23.7774 119.436L24.3531 119.583C27.0349 120.258 29.8199 120.465 32.5769 120.194C36.5863 119.774 40.3998 118.301 43.6032 115.934C47.403 113.216 50.1744 109.368 51.4919 104.98C51.4919 104.901 51.6437 104.779 51.7006 104.785C52.7887 104.931 53.8704 105.06 54.9459 105.255C56.4451 105.53 57.9254 106.013 59.3741 105.2C60.5761 104.54 61.7211 104.271 62.594 105.689C62.594 105.689 62.6763 105.726 62.6826 105.757C62.7269 106.013 62.9041 106.368 62.7902 106.521C61.8476 107.603 60.8924 108.66 59.8612 109.687C59.5196 110.035 59.4816 110.219 59.9814 110.378C60.5539 110.605 61.1415 110.794 61.74 110.946C66.0418 111.722 70.3308 112.541 74.6515 113.202C77.1377 113.581 79.6744 113.764 82.1922 113.905C86.2071 114.137 90.2284 114.308 94.256 114.418C98.5704 114.546 102.885 114.589 107.205 114.638C107.313 114.638 107.547 114.332 107.522 114.222C107.003 112.309 106.377 110.42 105.921 108.489C104.593 102.878 106.364 97.9143 109.527 93.2811C109.62 93.1894 109.727 93.1112 109.843 93.0488C109.877 93.1787 109.891 93.3124 109.888 93.4461C109.748 94.1796 109.597 94.9131 109.432 95.6405C109.299 96.2029 109.476 96.4779 110.109 96.5207C110.311 96.5207 110.672 96.7774 110.666 96.8997C110.59 98.2811 110.33 99.6625 110.362 101.044C110.451 104.155 111.338 107.196 112.943 109.895C114.213 112.133 115.913 114.116 117.953 115.738C120.881 118.152 124.495 119.654 128.322 120.048C130.828 120.292 133.358 120.152 135.818 119.632C138.28 119.066 140.631 118.117 142.777 116.82C146.433 114.565 149.202 111.19 150.64 107.236C152.003 103.773 152.345 100.013 151.627 96.374ZM125.127 78.7273C126.243 78.4745 127.38 78.317 128.524 78.2566C130.763 78.234 133.001 78.3524 135.224 78.6112C136.59 78.7945 137.893 79.4547 139.228 79.9131C139.329 79.9131 139.399 80.072 139.487 80.1576C139.388 80.2304 139.284 80.2978 139.177 80.3593C137.52 81.1723 135.654 81.7346 134.243 82.841C131.788 84.7603 131.112 87.6026 130.96 90.5488C130.922 91.2701 130.96 91.9914 130.96 92.7126C130.943 92.8309 130.909 92.9462 130.859 93.0549C130.789 92.9449 130.675 92.841 130.656 92.7249C130.498 91.6552 130.359 90.5855 130.213 89.5097C130.252 87.3054 130.975 85.1631 132.288 83.3606C132.434 83.1527 132.56 82.9266 132.693 82.7065C132.694 82.6637 132.679 82.6221 132.649 82.5904C132.541 82.5904 132.389 82.5904 132.332 82.6576C131.914 83.0437 131.55 83.4815 131.251 83.9596C130.795 84.8948 130.175 85.3899 129.068 85.1821C128.796 85.1442 128.521 85.1278 128.246 85.1332C128.473 84.9543 128.714 84.7929 128.967 84.6503C129.41 84.448 129.785 84.1291 130.049 83.7301C130.313 83.3312 130.456 82.8683 130.46 82.3948C130.504 81.8752 131.15 81.4046 131.523 80.9095L131.725 80.6711C131.616 80.6444 131.503 80.6321 131.39 80.6344C129.739 80.9033 128.094 81.1845 126.443 81.429C126.335 81.4307 126.229 81.4078 126.132 81.3621C126.035 81.3164 125.951 81.2493 125.886 81.1662C125.501 80.521 125.152 79.8557 124.842 79.1735C124.804 79.094 125.007 78.7701 125.127 78.7517V78.7273ZM132.782 91.8569C132.782 92.0219 132.529 92.1931 132.389 92.3581C132.193 92.1992 131.852 92.0647 131.82 91.8813C131.685 91.1451 131.626 90.3978 131.643 89.6503C131.748 89.2428 131.926 88.8561 132.168 88.5073L132.801 89.6014L132.567 89.6992C132.674 90.4205 132.763 91.1478 132.782 91.8813V91.8569ZM132.023 101.777C132.081 101.784 132.141 101.784 132.2 101.777C132.2 101.82 132.2 101.894 132.155 101.9C131.795 102.01 131.225 102.297 131.099 102.175C130.454 101.583 129.907 100.899 129.479 100.145C129.125 99.4608 129.138 98.6112 128.847 97.8899C128.67 97.4681 128.214 97.1747 127.892 96.7774C127.79 96.6368 127.784 96.2273 127.892 96.1662C128.626 95.8039 129.383 95.4835 130.156 95.2065C130.277 95.1637 130.605 95.4082 130.688 95.5794C131.396 97.1931 132.073 98.819 132.769 100.469C132.82 100.585 132.959 100.671 133.035 100.781C133.092 100.89 133.142 101.003 133.186 101.117L133.446 101.405C133.226 101.515 132.992 101.597 132.75 101.649C132.661 101.649 132.548 101.435 132.434 101.325C132.32 101.215 132.269 101.191 132.187 101.123L131.732 101.649L132.023 101.777ZM128.334 103.037C127.716 104.235 127.027 105.398 126.272 106.521C126.222 106.606 125.994 106.588 125.848 106.618C125.848 106.398 125.779 106.136 125.848 105.958C126.481 104.84 127.189 103.758 127.784 102.621C127.973 102.136 128.102 101.631 128.17 101.117L128.024 101.081L128.189 100.555C128.303 100.708 128.518 100.861 128.512 101.007C128.59 101.696 128.529 102.394 128.334 103.061V103.037ZM127.12 88.2872C127.252 88.2762 127.385 88.2967 127.508 88.3467C127.63 88.3968 127.738 88.475 127.822 88.5745C128.619 90.2371 129.391 91.9119 130.112 93.6051C130.178 93.761 130.207 93.9291 130.197 94.0972C130.187 94.2652 130.138 94.4291 130.055 94.5769C129.65 95.0537 129.233 94.8275 128.935 94.363L128.714 95.2004C128.531 95.0231 128.271 94.8764 128.17 94.6686C127.537 93.4095 126.981 92.1258 126.367 90.8667C126.304 90.7383 126.076 90.6772 125.931 90.5855C125.917 90.7231 125.93 90.862 125.969 90.995C126.601 92.3581 127.234 93.7029 127.809 95.0659C127.866 95.2004 127.746 95.4082 127.708 95.5794C127.544 95.5183 127.272 95.506 127.215 95.3899C126.321 93.5113 125.45 91.6246 124.602 89.7297C124.551 89.6197 124.722 89.4119 124.792 89.2469C124.957 89.3091 125.114 89.389 125.26 89.4852C125.342 89.5586 125.33 89.7297 125.412 89.8214C125.565 89.9638 125.725 90.0985 125.893 90.2249C125.863 90.0551 125.846 89.8835 125.842 89.7114C125.842 89.3997 125.842 89.1002 125.886 88.7884L126.759 89.5586C126.671 89.1002 126.108 88.4706 127.12 88.3117V88.2872ZM123.419 96.4962C124.457 96.4962 124.849 97.1992 124.899 98.0549C124.916 98.2616 124.886 98.4692 124.81 98.6633C124.735 98.8574 124.617 99.0332 124.464 99.1783C124.31 99.3234 124.126 99.4343 123.924 99.5032C123.722 99.572 123.506 99.5972 123.293 99.5769C123.076 99.5843 122.861 99.5499 122.659 99.4758C122.457 99.4016 122.272 99.2893 122.115 99.1453C121.958 99.0012 121.833 98.8285 121.746 98.6371C121.659 98.4456 121.613 98.2394 121.61 98.0305C121.645 97.5975 121.854 97.1951 122.192 96.9086C122.53 96.6221 122.97 96.4742 123.419 96.4962V96.4962ZM122.287 95.885C122.192 95.6344 122.103 95.3777 122.008 95.1209L122.907 95.4388L122.287 95.885ZM122.919 95.4388C123.096 95.3471 123.318 95.1454 123.425 95.1882C123.716 95.3448 123.989 95.5291 124.242 95.7383C124.136 95.8811 124.022 96.0178 123.9 96.1478C123.533 95.9278 123.21 95.6772 122.888 95.4327L122.919 95.4388ZM124.627 96.2762H124.672L124.621 96.3129L124.627 96.2762ZM124.583 95.8911C125.127 95.4999 125.279 95.2799 125.437 95.2799C125.595 95.2799 125.684 95.4938 125.817 95.6161C125.652 95.7689 125.519 95.9889 125.323 96.0623C125.127 96.1356 124.931 95.995 124.551 95.885L124.583 95.8911ZM125.848 96.8324C126.361 97.0525 126.854 97.3092 127.601 97.676C127.177 97.8838 127.05 97.9938 127 97.9632C126.506 97.7249 126.013 97.4681 125.545 97.187C125.443 97.1258 125.412 96.9486 125.355 96.8202C125.516 96.7917 125.682 96.7938 125.842 96.8263L125.848 96.8324ZM126.633 102.945C126.829 102.334 127.031 101.722 127.265 101.074C127.33 100.889 127.406 100.707 127.493 100.53C127.563 100.714 127.632 100.897 127.702 101.093C127.592 101.772 127.444 102.446 127.259 103.11C127.208 103.287 126.81 103.354 126.569 103.477C126.574 103.288 126.593 103.1 126.626 102.914L126.633 102.945ZM125.874 88.2322C125.724 88.1948 125.593 88.1057 125.507 87.9816C124.874 86.6796 124.305 85.3716 123.704 84.0635C122.894 82.297 122.072 80.5305 121.281 78.7579C121.205 78.5867 121.312 78.3361 121.338 78.1466C121.477 78.2627 121.679 78.3605 121.755 78.5134C123.172 81.5451 124.583 84.581 125.988 87.6209C126.032 87.7187 126.057 87.8288 126.114 87.9938C126.032 88.0244 125.95 88.2139 125.867 88.2016L125.874 88.2322ZM124.311 88.2322C124.381 88.3911 124.419 88.5623 124.501 88.8007C124.387 88.8985 124.279 89.0696 124.147 89.094C124.067 89.099 123.987 89.0848 123.914 89.0528C123.841 89.0208 123.778 88.972 123.729 88.9107C122.401 86.0561 121.085 83.1955 119.813 80.3227C119.718 80.1087 119.946 79.7603 120.028 79.4791C120.212 79.6564 120.471 79.8031 120.572 80.017C121.829 82.7187 123.073 85.4408 124.305 88.1833L124.311 88.2322ZM124.223 89.5586L124.134 89.6381C124.129 89.6077 124.129 89.5767 124.134 89.5464C124.134 89.5464 124.134 89.5036 124.172 89.4852L124.223 89.5586ZM124.185 93.8373C124.109 93.8801 124.001 93.9718 123.957 93.9473C123.324 93.6478 122.641 93.3361 121.996 92.9999C121.954 92.9621 121.923 92.9151 121.904 92.8629C121.885 92.8108 121.88 92.755 121.888 92.7004C122.002 92.4681 122.16 92.2603 122.388 91.8997L124.185 93.8373ZM124.767 94.6136C124.855 94.6564 124.887 94.8092 124.944 94.9131L124.425 95.1332C123.394 94.7725 122.325 94.4058 121.262 94.0146C121.212 93.9646 121.173 93.9051 121.148 93.8399C121.123 93.7747 121.112 93.7051 121.116 93.6356C121.3 93.495 121.585 93.2628 121.749 93.3178C122.786 93.6723 123.754 94.1246 124.76 94.5708L124.767 94.6136ZM121.698 95.561C121.877 95.6993 122.067 95.822 122.268 95.9278C122.002 96.0011 121.698 96.1967 121.483 96.1234C121.099 95.9949 120.749 95.7862 120.458 95.5121C120.405 95.42 120.371 95.3183 120.359 95.2133C120.348 95.1083 120.358 95.0021 120.389 94.9009C120.458 94.8457 120.541 94.8075 120.629 94.7894C120.717 94.7714 120.808 94.7739 120.895 94.797C121.192 94.9376 121.414 95.2615 121.692 95.5183L121.698 95.561ZM120.433 95.8728C120.775 96.1723 121.363 96.6796 121.275 96.8813C120.825 97.9694 120.832 98.8984 121.717 99.7725C121.844 99.9009 121.793 100.225 121.768 100.457C121.692 101.215 121.591 101.967 121.509 102.725C121.509 102.957 121.61 103.336 121.509 103.416C121.027 103.776 120.52 104.103 119.99 104.394C119.881 104.323 119.796 104.223 119.744 104.106C119.446 102.884 119.162 101.661 118.839 100.323C119.149 98.984 119.472 97.5415 119.832 96.1173C119.864 95.9461 120.37 95.7628 120.446 95.83L120.433 95.8728ZM120.111 104.84C120.705 104.375 121.331 103.953 122.008 103.501C122.217 103.697 122.388 103.776 122.413 103.886C122.432 103.968 122.433 104.052 122.417 104.134C122.401 104.216 122.367 104.294 122.318 104.363C121.793 104.76 121.249 105.133 120.693 105.488C120.63 105.501 120.565 105.498 120.505 105.48C120.444 105.461 120.389 105.428 120.345 105.384C120.218 105.176 120.073 104.84 120.123 104.797L120.111 104.84ZM120.952 106.447C121.319 106.087 121.73 105.775 122.217 105.396L122.85 106.142C122.35 106.429 121.863 106.753 121.35 106.985C121.187 106.815 121.056 106.619 120.965 106.405L120.952 106.447ZM122.008 101.802C122.028 101.343 122.229 100.91 122.571 100.591C122.913 100.272 123.368 100.093 123.843 100.09C124.08 100.097 124.313 100.148 124.529 100.242C124.745 100.335 124.94 100.469 125.103 100.635C125.266 100.801 125.393 100.997 125.478 101.211C125.562 101.425 125.602 101.653 125.595 101.881C125.576 102.335 125.375 102.763 125.035 103.077C124.695 103.39 124.243 103.564 123.773 103.562C123.535 103.558 123.299 103.508 123.081 103.415C122.863 103.322 122.666 103.187 122.503 103.019C122.339 102.851 122.212 102.652 122.13 102.436C122.047 102.22 122.01 101.989 122.021 101.759L122.008 101.802ZM123.217 104.125C124.229 104.125 125.241 104.125 126.253 104.125C126.361 104.125 126.462 104.259 126.569 104.332C126.418 104.479 126.278 104.724 126.108 104.754C125.61 104.807 125.109 104.836 124.608 104.84V104.779C124.147 104.779 123.685 104.779 123.223 104.779C123.09 104.779 122.976 104.595 122.85 104.491C122.983 104.32 123.103 104.082 123.229 104.082L123.217 104.125ZM131.807 88.1527C131.807 88.1527 131.82 88.1038 131.82 88.1099L131.807 88.1527ZM125.007 81.0928C125.899 83.1222 126.848 85.1271 127.746 87.1564C127.757 87.2356 127.749 87.3161 127.724 87.3921C127.699 87.4682 127.657 87.5379 127.601 87.5965C127.202 87.6271 126.513 87.7249 126.437 87.5965C124.937 84.4791 123.482 81.3495 122.116 78.1772C121.945 77.7738 122.331 77.1442 122.521 76.4046C123.033 76.8752 123.362 77.0158 123.47 77.2909C124.052 78.4828 124.469 79.7909 125.02 81.05L125.007 81.0928ZM105.074 43.1955C105.755 42.4722 106.546 41.8538 107.42 41.3618C107.901 41.1601 108.755 41.6246 109.369 41.918C110.767 42.5843 112.152 43.2872 113.487 44.0574C117.506 46.3527 121.042 49.3572 123.913 52.9143C124.153 53.2796 124.364 53.6616 124.545 54.0574L122.869 54.4791C121.755 53.9963 120.553 53.5378 119.421 52.9571C118.447 52.4564 117.518 51.8778 116.644 51.2273C115.746 50.5549 115.012 49.6564 114.075 49.0452C112.298 47.8838 110.425 46.8569 108.591 45.7689C107.433 45.0782 106.269 44.3874 105.124 43.6723C105.078 43.602 105.05 43.5224 105.041 43.4396C105.032 43.3569 105.043 43.2734 105.074 43.1955V43.1955ZM119.623 64.3019C121.097 63.4278 121.332 62.9143 120.364 61.3495C119.978 60.7383 119.491 60.1271 119.054 59.5525C115.891 56.0134 112.14 53.5623 107.186 53.0427C106.636 52.9816 106.092 52.1747 105.687 51.6185C104.764 50.3654 103.916 49.0696 103.081 47.7615C102.929 47.5293 102.872 46.973 102.999 46.8997C103.156 46.7899 103.334 46.7113 103.523 46.6683C103.712 46.6253 103.908 46.6188 104.099 46.6491C107.61 47.8043 111.178 48.8312 114.31 50.8361C115.849 51.9228 117.452 52.9228 119.111 53.8312C120.971 54.7297 122.957 55.4205 125.146 54.742C125.386 54.6686 125.886 54.9926 126.089 55.2615C128.964 59.1362 131.198 63.4192 132.712 67.9571C132.892 68.5438 133.027 69.1424 133.117 69.7481C133.117 69.8275 133.073 69.9253 133.047 70.017C132.967 69.9681 132.895 69.9084 132.832 69.8398C130.118 66.484 127.43 63.116 124.684 59.7725C123.9 58.819 122.964 57.9816 122.084 57.1014C121.916 56.9595 121.736 56.8307 121.547 56.7163C121.654 56.9139 121.779 57.1021 121.92 57.2786C123.242 58.7334 124.577 60.1698 125.899 61.6185C126.015 61.7872 126.106 61.9701 126.171 62.1625C125.995 62.061 125.828 61.9466 125.671 61.8202C123.919 60.2249 122.179 58.6112 120.408 57.0464C120.186 56.8508 119.775 56.8813 119.434 56.7774C119.051 56.68 118.682 56.5405 118.333 56.3618C115.682 54.797 113.076 53.1466 110.375 51.6613C109.2 51.1208 107.978 50.6791 106.725 50.341C106.631 50.3227 106.534 50.3227 106.44 50.341C106.457 50.4215 106.484 50.4996 106.522 50.5733C106.701 50.9589 106.931 51.3205 107.205 51.6491C107.48 51.9499 107.862 52.1397 108.275 52.1808C110.64 51.9058 112.304 53.275 114.056 54.4119C115.923 55.6344 117.802 56.8202 119.579 58.1466C121.357 59.473 122.951 60.8116 124.539 62.2481C127.164 64.6319 129.72 67.0953 132.301 69.528C132.393 69.6347 132.468 69.7542 132.522 69.8826C132.388 69.8783 132.256 69.8536 132.13 69.8092C129.777 68.3605 127.442 66.8936 125.083 65.4571C124.608 65.1899 124.105 64.9707 123.584 64.8031C123.501 64.7725 123.318 64.9987 123.179 65.1026C123.287 65.2411 123.415 65.3645 123.558 65.4694C124.058 65.7322 124.577 65.9522 125.077 66.2151C125.209 66.2884 125.292 66.4596 125.405 66.5818C125.239 66.6281 125.066 66.6488 124.893 66.6429C124.4 66.5451 123.919 66.3923 123.432 66.2945C121.534 65.9278 120.149 67.0708 118.706 67.9877C118.436 68.1627 118.125 68.2698 117.802 68.2994C116.606 68.385 115.404 68.4217 114.202 68.4645C114.045 68.4436 113.891 68.4003 113.747 68.3361C113.835 68.2077 113.892 68.0366 114.012 67.9571C115.828 66.7224 117.65 65.4327 119.579 64.3019H119.623ZM110.482 60.6344C111.058 59.8826 112.911 59.7664 113.601 60.4266C113.677 60.4999 113.715 60.7566 113.677 60.7811C113.354 60.9706 113.006 61.1295 112.671 61.2945L112.608 61.1723C112.026 61.2579 111.45 61.3679 110.862 61.4168C110.766 61.4149 110.671 61.3919 110.586 61.3496C110.5 61.3072 110.426 61.2466 110.368 61.1723C110.337 61.0813 110.327 60.9848 110.339 60.8897C110.351 60.7945 110.385 60.7032 110.438 60.6222L110.482 60.6344ZM111.286 62.1136C111.517 61.9066 111.808 61.7742 112.121 61.7346C112.636 61.6317 113.158 61.5684 113.683 61.5451C113.835 61.5451 113.993 61.7224 114.151 61.8202C114.001 62.102 113.809 62.3614 113.582 62.5904C112.538 63.3972 111.463 64.1552 110.419 64.9437C110.381 64.9742 110.419 65.1698 110.476 65.2493C110.71 65.5672 111.229 65.9583 111.153 66.1723C111.033 66.5513 110.52 66.8141 110.109 67.2236C109.679 66.863 109.16 66.6124 109.166 66.3923C109.163 65.7259 109.31 65.0668 109.597 64.4608C110.069 63.6271 110.619 62.8372 111.241 62.1014L111.286 62.1136ZM107.87 56.4351C108.455 56.1741 109.086 56.0207 109.729 55.9828C109.824 55.9828 110.084 56.2334 110.058 56.3068C109.915 56.8447 109.586 57.3194 109.126 57.6527C108.666 57.986 108.103 58.1581 107.528 58.1405L106.2 58.0427C106.679 57.4473 107.224 56.9042 107.825 56.4229L107.87 56.4351ZM107.946 58.8801C108.515 59.1491 109.103 59.3874 109.641 59.6992C109.774 59.7786 109.761 60.0843 109.818 60.3104C109.597 60.3104 109.312 60.3899 109.185 60.3104C108.237 59.6992 107.345 59.5769 106.472 60.4204C106.408 60.4816 106.288 60.4877 106.2 60.5182C106.164 60.4323 106.143 60.3416 106.136 60.2493C106.2 59.1429 106.902 58.9229 107.901 58.8373L107.946 58.8801ZM104.783 63.1588C105.472 62.2603 106.193 61.3801 106.921 60.506C107.288 60.0537 108.388 60.3471 108.888 61.0256C108.706 61.5717 108.495 62.1083 108.256 62.6332C107.863 63.4033 107.402 64.1368 106.99 64.8826C106.909 64.9864 106.816 65.0808 106.712 65.1637C106.655 65.06 106.585 64.9635 106.503 64.8764C106.016 64.473 105.504 64.094 105.029 63.6539C104.821 63.5073 104.681 63.1894 104.745 63.1099L104.783 63.1588ZM106.225 65.2065V65.7261C105.801 66.0195 105.308 66.6124 104.96 66.539C104.684 66.4655 104.432 66.3278 104.225 66.1381C104.017 65.9484 103.861 65.7125 103.77 65.451C103.77 65.0843 104.403 64.3752 104.852 64.3324C105.301 64.2896 105.706 64.8398 106.187 65.1576L106.225 65.2065ZM104.694 62.6882C104.327 63.0109 103.931 63.3014 103.511 63.5561C102.448 64.039 101.354 64.4425 100.304 64.9376C100.072 65.118 99.9192 65.3751 99.8735 65.6588C99.6584 66.4412 99.5066 67.242 99.3105 68.0305C99.3105 68.0977 99.1017 68.1222 98.9942 68.165C98.9601 68.0649 98.9326 67.9628 98.912 67.8593C98.7854 66.918 98.6525 65.9828 98.5513 65.0415C98.5513 64.907 98.6146 64.6686 98.7221 64.6319C100.449 63.929 102.183 63.2566 103.922 62.5843C103.992 62.4926 104.15 62.5659 104.656 62.6393L104.694 62.6882ZM67.1172 65.4816C69.0057 62.6975 71.446 60.3023 74.2972 58.4339C76.1381 57.2481 78.0233 56.209 80.2564 55.9339L80.3007 55.6161C83.4637 55.9095 86.7027 56.0011 89.8404 56.5513C92.9781 57.1014 95.8944 58.0916 98.9056 58.9168C100.003 59.1928 101.076 59.5546 102.113 59.9987C102.511 60.1821 102.746 60.7689 102.961 61.2212C102.76 61.4541 102.504 61.6366 102.214 61.753C100.316 62.4926 98.4185 63.22 96.5207 63.9107C94.9835 64.473 93.4399 65.017 91.8711 65.4755C91.6496 65.5427 91.1119 65.1821 90.9791 64.9009C90.1124 63.0671 89.1192 61.3373 87.0316 60.6894C85.2927 60.2258 83.5295 59.8525 81.7494 59.5708C81.0219 59.4241 80.2754 59.3385 79.5479 59.1857C77.7703 58.8068 76.2204 59.4058 74.7148 60.2065C74.4973 60.3511 74.3015 60.5238 74.1328 60.72C74.1021 60.7674 74.0888 60.8233 74.0948 60.8789C74.1997 60.94 74.3156 60.9815 74.4364 61.0011C75.7016 61.0011 76.9668 61.0011 78.232 61.0745C79.9464 61.1906 82.578 63.5806 82.907 65.2432C82.9134 65.4205 82.8921 65.5977 82.8438 65.7689L82.616 65.3777C82.0998 64.4158 81.3366 63.5981 80.3995 63.003C79.4624 62.4079 78.3828 62.0554 77.2642 61.9791C77.1796 61.9807 77.0959 61.9972 77.0175 62.028C77.0644 62.0623 77.1153 62.0911 77.1693 62.1136C79.3518 62.7249 80.4146 64.3997 81.2053 66.2884C81.3838 66.716 81.5379 67.1527 81.6671 67.5965C81.6936 67.7994 81.6936 68.0048 81.6671 68.2077C81.4594 68.1393 81.26 68.0491 81.0725 67.9388C79.9212 67.1258 78.6685 66.3679 77.2199 66.7163C75.379 67.1442 73.5951 67.8104 71.7985 68.4033C70.78 68.7456 69.7868 69.1613 68.7746 69.5158C68.6931 69.5456 68.6055 69.5567 68.5188 69.5482C68.4321 69.5397 68.3485 69.5119 68.2748 69.4669C67.538 68.7687 66.8999 67.9795 66.377 67.1197C66.1556 66.7652 66.7313 65.9889 67.1172 65.4816ZM70.4574 70.017C72.3552 69.2469 74.253 68.5684 76.1508 67.8654C76.5493 67.7554 76.9551 67.6717 77.3654 67.6148L80.8194 69.1124C80.908 69.1552 80.9713 69.2407 81.0598 69.2958C81.3192 69.4547 81.5849 69.6075 81.8506 69.7603C81.5709 69.9306 81.2815 70.0857 80.9839 70.2249L70.1221 74.8275C68.996 75.2982 67.8763 75.775 66.744 76.2151C65.4788 76.7102 64.6311 75.7077 63.5809 75.3288C62.943 75.0603 62.3238 74.752 61.7274 74.4058C61.5521 74.2889 61.3889 74.1558 61.2403 74.0085C61.3761 73.8996 61.5223 73.8035 61.6768 73.7212C64.5868 72.4742 67.5031 71.2151 70.4257 70.017H70.4574ZM44.976 65.5977C45.811 65.5977 46.7409 65.4388 47.4684 65.7261C50.448 66.9119 53.339 68.2872 56.3249 69.4975C58.1784 70.2493 59.9751 69.4547 61.7654 69.0329C62.4739 68.8679 63.1507 68.5684 63.8529 68.3667C63.9393 68.3497 64.0287 68.3531 64.1135 68.3765C64.1982 68.3999 64.2759 68.4427 64.34 68.5011C64.3663 68.5822 64.3726 68.6682 64.3583 68.752C64.344 68.8359 64.3096 68.9153 64.2578 68.984C62.5245 71.0439 60.1711 71.6796 56.7994 71.6735C55.2694 71.2287 53.7675 70.6981 52.3015 70.0843C49.8091 68.9168 47.4242 67.5476 45.0077 66.2334C44.8748 66.1845 44.976 65.8116 44.976 65.5977ZM41.9458 58.1772C42.4776 58.6921 42.9351 59.2739 43.3059 59.907C43.9385 61.1295 44.4003 62.4131 44.8811 63.6906C44.8971 63.8154 44.88 63.942 44.8313 64.0586C44.7826 64.1752 44.704 64.2778 44.6028 64.3569C44.2008 64.51 43.7686 64.5747 43.3376 64.5464C42.5784 62.5843 41.9079 60.5855 41.1171 58.3178C41.503 58.2444 41.8572 58.0916 41.9331 58.1772H41.9458ZM38.9599 55.9522V55.9095V55.9522ZM27.4908 53.7823C28.8952 53.5134 30.3122 53.2628 31.7229 53.006V53.0977C32.7386 53.1282 33.7549 53.0688 34.7594 52.9205C36.6572 52.4742 37.3215 53.6784 38.011 54.9376C38.1108 55.0989 38.1996 55.2663 38.2767 55.4388C38.359 55.6466 38.4095 55.8667 38.4791 56.05C38.2008 55.9706 37.7769 55.9767 37.6694 55.7994C36.866 54.4302 35.702 54.363 34.19 54.4425C31.9503 54.4591 29.7113 54.3509 27.4844 54.1185C27.3896 54.1185 27.2947 54.0207 27.1998 53.9718C27.2947 53.9229 27.3769 53.8007 27.4781 53.7823H27.4908ZM38.4791 69.5158C37.8216 69.5203 37.1867 69.2845 36.7015 68.8557C34.538 67.1686 32.4441 65.396 30.3059 63.6784C30.0416 63.5218 29.7533 63.4063 29.4518 63.3361C29.5847 63.5378 29.7238 63.7334 29.8377 63.9473C29.8987 64.0842 29.9495 64.2252 29.9896 64.3691C29.8504 64.3324 29.7113 64.308 29.5784 64.2591L26.4533 63.0855C26.3803 63.0703 26.3049 63.0703 26.2319 63.0855C26.2362 63.1777 26.2468 63.2696 26.2636 63.3606C26.3999 63.8614 26.5055 64.3696 26.5799 64.8826C26.5799 65.0598 26.3205 65.2615 26.1813 65.451C26.0168 65.3043 25.7891 65.1821 25.6942 64.9987C24.5618 62.9327 23.4484 60.8606 22.335 58.7823C22.3049 58.685 22.2879 58.5843 22.2844 58.4828C22.4236 58.5195 22.6134 58.4828 22.702 58.5928C23.537 59.4241 24.3594 60.2799 25.1944 61.1112C25.392 61.3102 25.623 61.4756 25.8777 61.6002C26.8561 62.0973 27.8472 62.5802 28.8509 63.0488C28.9889 63.074 29.1305 63.074 29.2684 63.0488C29.2684 62.9204 29.2684 62.7371 29.2178 62.6637C27.9526 61.4412 26.6873 60.2187 25.4854 58.9963C23.9102 57.4315 22.3604 55.8483 20.8042 54.2713C20.7231 54.1716 20.6511 54.0652 20.589 53.9535C20.7105 53.9213 20.8364 53.9069 20.9623 53.9107C24.6188 54.3936 28.2815 54.8275 31.9253 55.3838C34.4558 55.7689 36.904 56.3068 39.3901 56.808C39.6305 56.8569 39.8266 57.1258 40.0227 57.2909L39.8076 57.4742C40.2504 59.1368 40.7186 60.7933 41.1361 62.462C41.6839 64.5533 43.0428 66.361 44.9318 67.5109C44.9495 67.5745 44.9536 67.6409 44.9438 67.7061C44.934 67.7713 44.9105 67.8338 44.8748 67.8899C42.7682 68.495 40.6363 69.1002 38.4665 69.5158H38.4791ZM47.1585 72.0341C45.849 71.6246 44.5079 71.3068 43.1858 70.9217C42.9606 70.8241 42.7482 70.701 42.5532 70.5549C42.7558 70.4361 42.9672 70.3319 43.1858 70.2432C44.3371 69.8887 45.4884 69.3019 46.6524 69.2652C47.7504 69.3269 48.8192 69.6301 49.7775 70.1515C52.6368 71.4514 55.4667 72.8145 58.267 74.2407C60.2471 75.2493 62.1702 76.3679 64.1123 77.4559C64.1693 77.4559 64.1123 77.8532 64.0681 77.8715C62.4549 78.4828 60.8291 79.0024 59.2096 79.5586L58.9629 79.6014L56.9702 78.4522L52.485 75.7872C52.3598 75.6806 52.2511 75.5571 52.1624 75.4205C52.318 75.4053 52.4749 75.4053 52.6305 75.4205L57.3624 76.1478C57.4193 76.1478 57.4889 76.0989 57.5459 76.0745C57.4636 75.9828 57.4004 75.8544 57.2991 75.8117C55.9643 75.2004 54.6485 74.5586 53.2758 74.0574C51.2388 73.3117 49.1955 72.6698 47.1459 72.0341H47.1585ZM58.9946 83.8557C58.2143 84.7644 57.4236 85.667 56.6223 86.5635C56.5717 86.6185 56.2301 86.5635 56.2047 86.4718C55.9391 85.7139 55.6987 84.9559 55.4962 84.1857C55.4962 84.1025 55.519 84.0207 55.5623 83.9488C55.6057 83.8768 55.668 83.8173 55.743 83.7762C56.7172 83.5928 57.6977 83.4461 58.7542 83.2811C58.8427 83.2811 59.0641 83.3239 59.1147 83.4278C59.1653 83.5317 59.0768 83.7456 58.9819 83.8557H58.9946ZM52.0865 85.0782C51.5235 83.3483 50.7454 81.6796 50.0622 79.9865C50.035 79.8735 50.0138 79.7593 49.9989 79.6442C50.1294 79.66 50.2571 79.6929 50.3785 79.742C51.7069 80.5794 52.1118 81.9547 52.5673 83.2933C52.7191 83.7395 52.8393 84.2041 52.9911 84.6503C52.9911 84.7236 53.1682 84.7603 53.2631 84.8153C53.2631 84.7175 53.3454 84.6075 53.3138 84.528C52.9848 83.6662 52.6368 82.8104 52.3142 81.9425C52.283 81.7911 52.283 81.6353 52.3142 81.484C52.4344 81.5635 52.6242 81.6185 52.6748 81.7285C53.2189 82.951 53.7375 84.2041 54.2689 85.4449C54.3199 85.5321 54.377 85.6158 54.4398 85.6955C54.4526 85.6022 54.4526 85.5077 54.4398 85.4143C54.2373 84.6931 54.0096 83.9779 53.8071 83.2566C53.7759 83.0704 53.7759 82.8805 53.8071 82.6943C53.921 82.8349 54.1108 82.9571 54.1488 83.1161C54.6612 85.1515 55.1546 87.187 55.6607 89.2285C55.7302 89.4678 55.8256 89.6993 55.9454 89.9192C56.0326 90.0424 56.1345 90.1553 56.249 90.2554C56.0899 90.3076 55.9272 90.3484 55.762 90.3777C53.7882 90.5794 54.4967 89.0024 54.1614 88.1222C54.0982 87.9571 54.0349 87.7921 53.9653 87.6271L53.7819 88.0672C53.8768 88.6784 53.9843 89.1552 54.016 89.6625C54.016 89.852 53.8451 90.0476 53.7502 90.2432C53.5478 90.0598 53.2126 89.9131 53.1556 89.6992C52.7887 88.1772 52.5672 86.594 52.0738 85.0904L52.0865 85.0782ZM55.2495 91.2395C55.3001 91.2395 55.357 91.3251 55.4077 91.374C55.3254 91.4412 55.2558 91.5513 55.1609 91.5757C54.3006 91.7896 53.4339 91.9791 52.5799 92.2236C52.5024 92.2746 52.44 92.3443 52.3989 92.4258C52.3579 92.5073 52.3396 92.5977 52.3459 92.6882C52.5293 93.4095 52.8203 94.1063 52.9785 94.8337C53.0101 95.0048 52.5673 95.2554 52.3459 95.4449C52.1934 95.2684 52.0559 95.0804 51.9347 94.8826C51.5741 94.1368 51.2388 93.385 50.8718 92.6454C50.8718 92.5965 50.6378 92.6454 50.5176 92.6454C46.3804 93.6234 42.2495 94.6381 38.0933 95.5488C37.2329 95.7383 37.2709 95.9767 37.3025 96.7102C37.2654 97.7951 37.1192 98.8739 36.866 99.9315C36.866 100.011 36.7141 100.078 36.6382 100.145C36.5876 100.041 36.4864 99.9315 36.4991 99.8337C36.5623 99.2224 36.6572 98.6112 36.7141 98.1588C36.7141 96.2884 36.2966 95.9828 34.4494 96.3251C33.393 96.5024 32.3365 96.6491 31.2864 96.7958C31.1852 96.7958 31.0713 96.7346 30.9574 96.698C31.0386 96.6296 31.1305 96.5739 31.2295 96.5329C34.9302 95.451 38.6309 94.3569 42.3443 93.3055C45.0898 92.5293 47.8291 91.6674 50.6252 91.1356C52.0612 90.8728 53.6743 91.1906 55.2368 91.2518L55.2495 91.2395ZM52.1308 95.775V95.8117V95.775ZM41.813 103.99C41.813 104.039 41.7181 104.125 41.6802 104.118C41.6018 104.091 41.5306 104.047 41.4713 103.99L41.7181 103.685C41.7615 103.783 41.7934 103.885 41.813 103.99ZM41.1045 105.592C40.9583 105.636 40.8015 105.636 40.6553 105.592C39.5989 105.127 38.5488 104.656 37.4923 104.167C37.3721 104.106 37.3088 103.935 37.2203 103.819L38.0996 103.354C39.1307 103.825 40.1682 104.277 41.1677 104.797C41.2626 104.846 41.1804 105.323 41.0855 105.592H41.1045ZM28.7307 99.0696C29.2178 99.962 28.7307 99.9681 28.1614 99.8642C26.137 99.8275 26.175 99.8642 26.3268 98.0305C26.3901 97.3275 26.681 97.1442 27.3326 97.2603C27.5411 97.2985 27.753 97.3169 27.9652 97.3153C28.6801 97.352 29.5215 97.2664 28.7687 98.3728C28.7061 98.4775 28.6685 98.5944 28.6587 98.715C28.6488 98.8355 28.667 98.9567 28.7117 99.0696H28.7307ZM30.0465 97.6026C30.215 97.5458 30.3956 97.5312 30.5716 97.5601C30.7475 97.589 30.9131 97.6605 31.0527 97.7679C31.1923 97.8753 31.3014 98.0152 31.37 98.1744C31.4385 98.3336 31.4641 98.507 31.4446 98.6784C31.4446 99.5158 30.8689 99.9009 29.7112 99.9376C29.5088 99.6136 28.9647 99.1429 28.99 98.7151C29.0567 98.4615 29.1858 98.2274 29.3665 98.0326C29.5472 97.8378 29.774 97.6881 30.0275 97.5965L30.0465 97.6026ZM31.6027 99.253C31.7798 99.0207 31.6534 98.5684 31.647 98.22C31.6298 98.0491 31.6002 97.8795 31.5585 97.7126C31.9628 97.6852 32.3686 97.6852 32.773 97.7126C32.8932 97.7126 32.9881 97.9877 33.0324 98.0488C33.0262 98.6425 32.9755 99.2349 32.8806 99.8214C32.8227 99.9419 32.7344 100.046 32.6239 100.125C32.5134 100.204 32.3842 100.255 32.248 100.274C31.4952 100.304 30.8309 100.249 31.5837 99.253H31.6027ZM36.5434 92.5293C37.3595 92.2297 38.1819 91.918 39.0042 91.6368C39.3522 91.5146 39.7127 91.4229 40.067 91.3129C39.8858 91.7543 39.6362 92.1665 39.3268 92.5354C38.8784 92.85 38.3919 93.1107 37.8782 93.3117C36.9925 93.7151 36.594 93.3789 36.5244 92.5109L36.5434 92.5293ZM39.7064 78.1894C41.0914 78.8728 42.4214 79.6553 43.6855 80.5305C45.2576 81.6851 46.6713 83.0284 47.8923 84.528C49.0879 86.0928 49.8407 87.9816 50.7454 89.7481C50.7896 89.8275 50.3721 90.1209 50.0811 90.4021C49.8802 90.1987 49.7021 89.9754 49.5497 89.7359C48.4771 87.1208 46.8502 84.7514 44.7736 82.7799C44.0546 82.1581 43.2961 81.5804 42.5025 81.05C42.4203 80.9889 42.2685 81.0195 42.1546 81.0073C42.1355 81.1124 42.1355 81.22 42.1546 81.3251C43.2046 83.997 43.3376 86.9242 42.5342 89.6747C42.3484 90.474 42.077 91.2525 41.7244 91.9975C41.4967 92.4009 40.8894 92.6087 40.4592 92.9021C40.3983 92.6894 40.3769 92.468 40.3959 92.2481C40.9965 90.4993 41.497 88.7199 41.8952 86.918C42.2495 84.7297 41.5157 82.6393 40.5541 80.6466C40.2125 79.9437 39.7633 79.2835 39.3775 78.5928C39.3276 78.4601 39.2915 78.3229 39.2699 78.1833C39.428 78.165 39.6052 78.1099 39.7128 78.1711L39.7064 78.1894ZM46.9118 104.883C45.9566 106.545 45.1531 108.33 43.9259 109.773C42.0765 112.039 39.6162 113.769 36.8154 114.773C34.4453 115.699 31.8892 116.096 29.338 115.934C28.0733 115.778 26.8217 115.535 25.593 115.207V115.207C21.8516 114.233 18.5454 112.098 16.1836 109.13C13.8219 106.162 12.5357 102.526 12.5233 98.7823C12.4903 97.2927 12.6304 95.8041 12.9408 94.3447C13.1496 93.5582 13.4009 92.7829 13.6937 92.0219C14.859 89.1565 16.864 86.6818 19.463 84.9009C22.721 82.6698 26.3205 81.3312 30.4387 81.4779C33.915 81.5572 37.2995 82.5711 40.2125 84.4058C40.5857 84.6442 41.1614 85.017 41.1487 85.3043C41.0601 86.8874 40.8261 88.4584 40.611 90.0293C40.611 90.0782 40.1808 90.176 40.1239 90.1148C38.5884 88.4431 36.6249 87.191 34.4304 86.484C31.736 85.5823 28.8061 85.5823 26.1117 86.484C25.9852 86.5268 25.9282 86.7713 25.8397 86.9241C26.175 86.8447 26.5102 86.753 26.8455 86.6919C28.5093 86.4107 28.5219 86.4107 28.3764 88.1038C28.3132 88.8679 28.2246 89.6381 28.1234 90.4021C28.1234 90.5244 27.9462 90.6344 27.8577 90.7566C28.056 90.7909 28.2572 90.8072 28.4587 90.8055C28.8003 90.8055 29.1356 90.7077 29.4708 90.6527C29.4708 90.6527 29.5278 90.6161 29.5594 90.5977C29.4928 90.5691 29.4292 90.5343 29.3696 90.4938C29.1039 90.2982 28.6295 90.0965 28.6295 89.8826C28.6244 88.8367 28.6856 87.7916 28.8129 86.753C28.8129 86.5696 29.1925 86.429 29.3949 86.2701C29.5151 86.4412 29.7429 86.6185 29.7366 86.7958C29.7366 87.7921 29.5973 88.7823 29.61 89.7786C29.61 89.9559 30.0908 90.1637 30.3818 90.2676C30.4957 90.3043 30.8436 90.0782 30.8436 89.9804C30.8436 88.8618 30.7487 87.7493 30.717 86.6368C30.7458 86.4479 30.8102 86.2655 30.9069 86.0989C31.1662 86.2823 31.6217 86.4412 31.6533 86.6491C31.8327 87.7176 31.8963 88.8013 31.8431 89.8826C31.7482 90.8422 32.2417 90.9706 32.9628 91.0378C32.7161 90.72 32.3302 90.4266 32.267 90.072C32.1349 88.9497 32.063 87.8214 32.0518 86.6919C32.0518 86.6002 32.3871 86.3985 32.5326 86.4229C35.2306 86.8763 37.7035 88.1632 39.5799 90.0904C40.1176 90.6283 39.9088 90.83 39.3521 91.0928C38.3969 91.5451 37.4543 92.0464 36.5371 92.5293L36.0689 92.9021C36.2437 93.0841 36.4044 93.2782 36.5497 93.4828C36.6106 93.6194 36.6324 93.7693 36.613 93.9168C34.9492 94.308 33.4057 95.3227 31.5521 94.852L31.7293 95.3532C30.268 95.7628 28.8129 96.1845 27.3453 96.5757C27.2554 96.5913 27.163 96.588 27.0745 96.5658C26.9861 96.5436 26.9036 96.5032 26.8328 96.4474C26.2002 95.9645 26.5292 95.5916 27.01 95.2249C27.0953 95.1281 27.1675 95.0213 27.2251 94.907C27.1238 94.9498 26.9847 94.9681 26.9277 95.0415C26.6178 95.4449 26.3521 95.8789 26.0358 96.264C24.9161 97.6393 25.0363 99.1246 25.631 100.641C25.631 100.726 25.9599 100.757 26.1307 100.744C26.5165 100.708 27.0163 100.463 27.263 100.61C27.9336 101.013 28.4587 101.625 29.0976 102.071C29.939 102.682 30.755 103.293 31.938 103.238C33.4816 103.189 35.0314 103.324 36.575 103.397C36.7078 103.397 36.8343 103.568 36.9609 103.66C36.8689 103.723 36.7822 103.792 36.7015 103.868C36.575 104.008 36.4611 104.161 36.3409 104.314C36.4977 104.285 36.6561 104.264 36.8154 104.253C36.9151 104.253 37.014 104.272 37.1064 104.308C38.0996 104.754 39.0738 105.231 40.0733 105.659C40.6553 105.909 40.6364 106.191 40.2695 106.618C38.2875 108.934 35.5389 110.516 32.4884 111.099C32.3429 111.099 31.957 110.799 31.957 110.641C31.957 109.632 32.0519 108.623 32.0708 107.584C32.0708 107.395 31.8811 107.205 31.7799 107.016C31.6027 106.894 31.4029 106.807 31.1915 106.759C30.6411 106.759 30.0908 106.759 29.5341 106.759H28.8066C29.0723 106.802 29.3316 106.851 29.5973 106.881C29.863 106.912 30.0275 106.924 30.2299 106.949C30.062 106.975 29.8983 107.022 29.7429 107.089C29.6875 107.126 29.6412 107.174 29.6073 107.23C29.5734 107.286 29.5527 107.348 29.5467 107.413C29.6037 108.458 29.6986 109.504 29.7492 110.549C29.7068 110.764 29.6277 110.97 29.5152 111.16C29.2748 111.001 28.8825 110.867 28.8319 110.683C28.6737 109.577 28.6105 108.458 28.4966 107.346C28.4579 107.227 28.3981 107.115 28.3195 107.016C28.2561 107.122 28.2112 107.238 28.1866 107.358C28.2372 108.44 28.3131 109.522 28.3384 110.604C28.3384 110.732 28.0158 111.001 27.9462 110.971C26.3457 110.31 24.7832 109.626 23.1638 108.941C22.7905 108.599 22.3414 108.385 21.9491 108.085C21.5306 107.783 21.1313 107.456 20.7535 107.107C20.608 106.973 20.4689 106.832 20.3297 106.692C20.4927 106.269 20.7303 105.876 21.0319 105.53H21.1457C22.0567 105.139 22.955 104.736 23.8596 104.308C24.1949 104.644 24.4922 104.98 24.8718 105.31C24.9097 105.347 25.0236 105.31 25.0995 105.31C25.0995 105.207 25.0995 105.048 25.0236 104.993C24.5934 104.656 24.1443 104.339 23.7078 104.015V103.862V104.015L23.5497 103.868C22.7146 104.296 21.8733 104.718 21.0192 105.164C20.9449 105.213 20.8858 105.28 20.8484 105.359C20.4508 105.577 20.0255 105.743 19.5832 105.854C19.4693 105.714 19.3618 105.573 19.2606 105.427C19.5389 105.194 20.0893 104.718 20.5258 104.284H20.5764C21.209 104.027 21.8417 103.703 22.4743 103.416C22.6957 103.318 22.9297 103.263 23.2397 103.159C22.9677 102.768 22.8348 102.413 22.5691 102.248C22.4109 102.15 22.0124 102.248 21.791 102.413C21.2232 102.75 20.68 103.123 20.1652 103.532C20.1433 103.554 20.1241 103.578 20.1082 103.605C19.5452 103.831 18.843 104.149 18.5267 104.259C18.4318 104.088 18.3433 103.905 18.2611 103.727C18.293 103.723 18.3222 103.708 18.3433 103.685C18.7296 103.192 19.2108 102.777 19.7604 102.462C19.7604 102.462 19.7604 102.462 19.7604 102.462C19.9977 102.364 20.2244 102.243 20.4372 102.101C21.0319 101.68 21.5696 101.185 21.9555 100.879C21.8543 99.5953 21.7783 98.6173 21.6961 97.6332C21.6769 97.565 21.6493 97.4993 21.6138 97.4376C21.5759 97.4804 21.519 97.517 21.519 97.5598C21.4467 98.0402 21.4467 98.5281 21.519 99.0085C21.8606 100.286 21.6075 101.233 20.2981 101.839C20.0636 101.963 19.8503 102.122 19.6654 102.309V102.309C19.0444 102.456 18.4069 102.527 17.7676 102.523V102.523C17.7044 102.321 17.6411 102.12 17.5842 101.912C17.5272 101.704 17.4577 101.417 17.4071 101.166C17.3565 100.916 17.3248 100.659 17.2932 100.408C17.2615 100.158 17.2363 99.8948 17.2236 99.6442C17.2109 99.3936 17.2236 99.2163 17.2236 99.0329C17.3944 97.6637 17.5399 96.2884 17.7613 94.9253C17.8815 94.2102 18.1725 93.5011 19.1214 94.3141C19.2626 94.3957 19.4199 94.4477 19.5832 94.4669C19.305 94.2459 19.0488 94.0004 18.8178 93.7334C18.6956 93.5144 18.6061 93.2798 18.5521 93.0366C18.7988 92.9755 19.0961 92.8104 19.2796 92.8899C19.7672 93.1151 20.2311 93.3853 20.6649 93.6967C21.2274 94.0487 21.7585 94.4454 22.2528 94.8826C22.4046 95.0293 22.2908 95.4266 22.2971 95.7077L22.7716 94.8764C22.8222 94.7848 22.9297 94.687 22.9107 94.6136C22.8095 94.2346 22.7969 93.6967 22.5375 93.5317C21.7404 93.0366 20.8295 92.7065 20.0071 92.2603C19.7667 92.1319 19.6338 91.8324 19.4567 91.6063C19.8046 91.5574 20.2032 91.3679 20.4879 91.4718C21.4304 91.8263 22.3287 92.297 23.2523 92.6943C23.3946 92.7193 23.5403 92.7193 23.6825 92.6943C23.6067 92.5916 23.515 92.5009 23.4105 92.4253C22.7779 92.1075 22.1453 91.8141 21.5127 91.5024C19.8553 90.7139 19.8995 90.7628 21.2723 89.5158C22.5821 88.3436 24.1106 87.4226 25.7764 86.8019C25.5044 86.8019 25.1944 86.6674 24.9667 86.7591C22.7478 87.5831 20.8293 89.0202 19.4504 90.8911C17.6285 93.3361 16.5594 96.1112 16.92 99.2224C16.92 99.6319 16.9706 100.035 17.0212 100.445C17.0863 100.963 17.1792 101.477 17.2995 101.985C17.4197 102.493 17.5842 102.994 17.7486 103.495C17.9033 104.005 18.1001 104.501 18.337 104.98C18.5961 105.451 18.8967 105.898 19.2353 106.319C19.5706 106.747 19.9185 107.163 20.2917 107.541C20.6781 107.973 21.106 108.368 21.5696 108.721C21.7847 108.886 22.0187 109.021 22.2528 109.167L22.4173 109.247C22.448 109.278 22.4877 109.299 22.5312 109.308C24.429 110.029 26.2066 110.989 28.1424 111.417C30.8578 111.978 33.6916 111.57 36.1195 110.268V110.268C36.9229 109.785 37.8718 109.436 38.4918 108.788C39.8013 107.413 40.9274 105.873 42.1609 104.418C42.3532 104.157 42.644 103.979 42.9706 103.923C44.1662 103.978 45.3556 104.106 46.5449 104.271C46.7093 104.32 46.9813 104.754 46.9181 104.864L46.9118 104.883ZM31.7862 107.065C31.7229 108.287 31.7166 109.467 31.5711 110.659C31.5711 110.903 31.0144 111.093 30.717 111.27C30.6049 111.081 30.5279 110.874 30.4893 110.659C30.5526 109.546 30.6285 108.428 30.7993 107.321C30.8309 107.181 31.4446 107.132 31.7925 107.046L31.7862 107.065ZM22.5375 94.6014C22.5967 94.4841 22.6621 94.3698 22.7336 94.2591C22.7842 94.3752 22.8285 94.4363 22.8095 94.4608C22.7629 94.5472 22.7078 94.6291 22.645 94.7053C22.6134 94.6503 22.5375 94.6014 22.5438 94.583L22.5375 94.6014ZM49.8597 99.6381C48.9108 99.5403 48.2592 99.0268 48.4173 98.1955C48.5172 97.9117 48.6832 97.6538 48.9026 97.4419C49.122 97.2299 49.3888 97.0695 49.6825 96.973C49.87 96.9198 50.0682 96.912 50.2595 96.9503C50.4508 96.9886 50.6293 97.0719 50.7794 97.1927C50.9295 97.3136 51.0465 97.4683 51.12 97.6432C51.1935 97.8181 51.2212 98.0078 51.2008 98.1955C51.2069 98.5523 51.0724 98.8979 50.8245 99.1623C50.5767 99.4268 50.234 99.5903 49.866 99.6197L49.8597 99.6381ZM51.4349 97.1503C51.4161 97.0533 51.4237 96.9534 51.457 96.8601C51.4902 96.7669 51.548 96.6836 51.6247 96.6185C53.1176 95.9706 54.6359 95.396 56.1352 94.742C56.2743 94.6808 56.3439 94.4791 56.4831 94.4119C56.9036 94.1374 57.3805 93.9539 57.8812 93.874C58.0899 93.874 58.5138 94.6319 58.4442 94.9009C58.2924 95.3227 57.7736 95.6222 57.413 95.9767L57.1157 95.5855C55.9453 96.0928 54.7561 96.5635 53.6237 97.1381C53.1999 97.3337 51.612 97.4926 51.4412 97.1319L51.4349 97.1503ZM57.5142 103.599C57.3323 103.797 57.1187 103.967 56.8816 104.1C56.4578 103.911 56.0782 103.776 55.7366 103.587C54.4967 102.886 53.261 102.173 52.0296 101.447C51.9137 101.363 51.8076 101.267 51.7133 101.16C51.8405 101.111 51.9651 101.056 52.0865 100.995C52.9785 100.439 53.6491 100.995 54.3449 101.417C55.2685 101.973 56.2047 102.523 57.1157 103.098C57.3118 103.196 57.5648 103.519 57.5205 103.581L57.5142 103.599ZM57.6977 101.019C55.8505 100.512 53.9843 100.078 52.1434 99.5586C51.9093 99.4975 51.7765 99.0941 51.6057 98.8496C51.8587 98.7395 52.1371 98.5073 52.3775 98.5439C53.8767 98.7701 55.3697 99.0696 56.869 99.3141C57.1227 99.3277 57.3755 99.2771 57.6028 99.1674C57.7642 99.0936 57.9426 99.0613 58.1207 99.0737C58.2988 99.086 58.4706 99.1425 58.6194 99.2378C58.7683 99.3331 58.8892 99.4639 58.9704 99.6175C59.0516 99.7712 59.0905 99.9425 59.0831 100.115C59.0736 100.27 59.0269 100.42 58.9469 100.555C58.8669 100.689 58.7557 100.804 58.622 100.89C58.4884 100.976 58.3358 101.031 58.1765 101.05C58.0172 101.069 57.8555 101.052 57.704 101.001L57.6977 101.019ZM58.9186 92.187C58.9186 92.187 58.8427 92.187 58.8174 92.1442L58.1026 91.5329C58.1026 91.8997 58.1025 92.2725 58.0646 92.6332C58.0186 92.8728 57.9509 93.108 57.8622 93.3361C57.6914 93.1038 57.4067 92.8899 57.3751 92.6393C57.1347 90.9706 56.8817 89.3019 56.7804 87.6271C56.868 87.1143 57.1416 86.6485 57.5522 86.3129C60.0826 83.7579 62.4232 81.0317 65.1877 78.764C67.2121 77.1075 69.7235 75.9706 72.1085 74.7725C74.7401 73.4522 77.4476 72.2603 80.1678 71.1051C84.4632 69.3263 88.7966 67.6454 93.1173 65.9278C94.2243 65.4877 95.3377 65.0537 96.4574 64.6503C96.557 64.6275 96.6608 64.6283 96.76 64.6528C96.8592 64.6773 96.9508 64.7247 97.0268 64.7909C98.2034 66.0134 98.1086 67.4437 97.8112 68.9107C97.7436 69.2603 97.5542 69.5769 97.2745 69.8082C96.9949 70.0395 96.6419 70.1714 96.274 70.1821C93.4652 70.6222 90.6565 71.0806 87.873 71.6613C87.1825 71.8712 86.5752 72.2809 86.1333 72.8349C85.1022 74.0146 83.8939 73.7028 82.6919 73.3483C82.0024 73.1405 81.3824 72.4926 80.7182 72.4742C79.8579 72.4742 78.9912 72.8777 78.1309 73.0855C78.1711 73.1289 78.218 73.166 78.27 73.1955C79.7567 73.7579 81.2369 74.3141 82.6983 74.8948C82.7552 74.8948 82.7552 75.2493 82.6983 75.2554C82.0657 75.4327 81.2876 75.8667 80.7309 75.6955C79.4087 75.2982 78.2004 74.528 76.8846 74.094C76.2822 74.0047 75.6668 74.1284 75.1513 74.4425C72.3298 75.9033 69.5464 77.4192 66.7629 78.9412C66.709 79.0125 66.6735 79.0951 66.6592 79.1823C66.6449 79.2694 66.6523 79.3586 66.6807 79.4425C67.1931 80.4266 67.7371 81.3985 68.2685 82.3764C68.2815 82.4698 68.2815 82.5643 68.2685 82.6576C68.1908 82.6055 68.1168 82.5483 68.0471 82.4865C67.3765 81.8385 66.7186 81.1906 66.0544 80.5427C65.6938 80.4816 65.1941 80.2493 64.998 80.396C63.9732 81.1662 63.0242 82.028 62.0627 82.841C61.9726 82.941 61.9 83.0546 61.8476 83.1772C61.9694 83.2543 62.0986 83.3198 62.2335 83.3728C63.252 83.7028 64.2451 84.0635 64.6437 85.1576C64.6596 85.2753 64.6596 85.3945 64.6437 85.5121C64.5275 85.4893 64.4149 85.4524 64.3085 85.4021C63.1571 84.6686 60.5761 84.6197 59.7916 85.3349C59.6641 85.4816 59.5538 85.6415 59.4627 85.8117C59.63 85.8609 59.8014 85.8956 59.9751 85.9156C61.2403 85.9828 62.4232 86.2762 63.233 87.3459C63.2803 87.3716 63.3337 87.3851 63.388 87.3851C63.4423 87.3851 63.4956 87.3716 63.543 87.3459C64.3527 86.5207 65.1498 85.6772 65.9532 84.8398C67.3183 83.8018 68.744 82.8406 70.2233 81.9608C72.8549 80.5794 75.5941 79.3813 78.2954 78.1161C78.5012 78.0615 78.715 78.0408 78.928 78.0549C78.7951 78.22 78.7002 78.4339 78.5294 78.5256C76.5747 79.6136 74.544 80.5855 72.6652 81.7835C70.4265 83.2151 68.2645 84.7553 66.1873 86.3984C65.0478 87.3479 64.0246 88.4205 63.1381 89.5953C62.867 90.0967 62.7843 90.6735 62.904 91.2273C63.195 93.3422 63.5746 95.4388 63.8909 97.5476C63.8909 97.7371 63.7454 97.9571 63.6695 98.1588C63.4165 98.0121 62.98 97.8838 62.9547 97.7065C62.7886 96.0498 62.0277 94.5014 60.8038 93.33C60.2146 92.8895 59.5859 92.5008 58.925 92.1686L58.9186 92.187ZM67.2437 93.5928C67.2816 93.8984 67.3133 94.3385 67.1362 94.5219C66.6554 95.0231 66.4023 94.6503 66.2125 94.1735C65.7318 92.951 65.3079 91.7285 64.7196 90.561C64.049 89.2407 65.1118 88.6784 65.7761 87.9143C65.9147 87.7662 66.0695 87.6329 66.2379 87.517C66.377 87.4192 66.5352 87.3398 66.687 87.2542L66.8072 87.7249L66.4023 87.786C66.6933 89.6992 66.9843 91.6368 67.25 93.5745L67.2437 93.5928ZM67.8763 95.0231C68.0661 94.9742 68.3697 95.3716 68.8442 95.7444C68.3191 96.0378 68.0155 96.3557 67.7308 96.3557C67.4461 96.3557 67.2817 95.9522 67.0603 95.7444C67.3576 95.4388 67.5916 95.0782 67.9016 95.0048L67.8763 95.0231ZM68.6165 96.8019C68.8758 96.753 69.2491 96.6246 69.4009 96.7407C70.9575 97.9498 72.877 98.6402 74.8729 98.709H75.1449L75.8408 98.7579C75.6429 98.9069 75.4312 99.0378 75.2082 99.1491C74.4238 99.4241 73.6267 99.6686 72.7284 99.9559C72.0958 99.4975 71.4632 99.0146 70.8306 98.5623C70.198 98.1099 69.5654 97.7493 68.9328 97.3398L68.4077 96.9975C68.4963 96.9241 68.5532 96.7958 68.6418 96.7835L68.6165 96.8019ZM74.3099 97.1747C73.3726 97.1772 72.4441 96.9997 71.5784 96.6524C70.7127 96.3051 69.9271 95.795 69.2673 95.1517C68.6074 94.5084 68.0865 93.7449 67.7347 92.9054C67.383 92.0659 67.2075 91.1672 67.2184 90.2615C67.2163 89.3351 67.4095 88.418 67.7862 87.5661C68.163 86.7142 68.7154 85.9454 69.4097 85.3065C70.104 84.6676 70.9258 84.1721 71.8248 83.8502C72.7239 83.5282 73.6813 83.3866 74.6389 83.4339C76.5128 83.5181 78.2767 84.3131 79.5476 85.6464C80.8185 86.9796 81.4937 88.7435 81.4267 90.5549C81.4394 94.0757 78.0043 97.2236 74.3162 97.1564L74.3099 97.1747ZM79.6365 84.5341C79.5 84.5219 79.3692 84.4755 79.2569 84.3997C77.8315 83.1805 75.9712 82.5448 74.0695 82.6271C73.7406 82.6271 73.4369 82.6271 73.089 82.5904C73.3767 82.3653 73.6812 82.161 73.9999 81.9791C74.6895 81.6429 75.4043 81.3679 76.1065 81.0439C77.1629 80.5733 78.0043 81.1539 78.561 81.8141C79.0962 82.578 79.5399 83.3983 79.8832 84.2591C79.7693 84.3997 79.6871 84.5219 79.6428 84.5158L79.6365 84.5341ZM102.22 101.722C101.037 101.49 99.8672 101.178 98.6906 100.891L88.5245 98.3544C87.7004 98.1744 86.889 97.9437 86.0954 97.6637C85.235 97.3214 84.5708 97.6026 83.8053 97.9388C81.4491 99.0376 79.0332 100.013 76.5683 100.861C73.7545 101.717 70.89 102.409 67.9902 102.933C66.1444 103.198 64.2827 103.347 62.4169 103.379C62.0678 103.403 61.7176 103.35 61.3921 103.226C61.1896 103.153 61.0694 102.884 60.9113 102.7C61.1013 102.639 61.2959 102.592 61.4933 102.56C61.8033 102.56 62.1259 102.56 62.4232 102.56L62.4739 102.884C65.0865 102.444 67.7245 102.126 70.2992 101.527C72.7706 100.935 75.1988 100.185 77.5678 99.2835C79.7693 98.4461 81.8505 97.3092 84.0141 96.374C84.5043 96.2119 85.0343 96.1991 85.5323 96.3373C88.3791 97.0525 91.2258 97.8471 94.0662 98.5684C96.4827 99.1796 98.9246 99.687 101.335 100.317C101.853 100.533 102.335 100.824 102.765 101.178C102.587 101.35 102.366 101.735 102.227 101.704L102.22 101.722ZM85.7158 92.8043C85.798 92.8838 85.7158 93.1161 85.7158 93.2811C85.564 93.2811 85.3299 93.2811 85.2793 93.2139C84.9693 92.731 84.7036 92.2297 84.362 91.6246C84.6545 91.1038 84.9842 90.6034 85.3488 90.1271C85.4817 89.9681 85.8487 89.9987 86.108 89.9437C86.0637 90.3288 86.108 90.9645 85.9435 91.0562C84.8302 91.5513 84.963 92.0953 85.7221 92.786L85.7158 92.8043ZM85.4374 89.5341C85.093 89.7267 84.8004 89.995 84.5834 90.3174C84.3664 90.6397 84.2312 91.0069 84.1887 91.3892C84.1461 91.7715 84.1975 92.1582 84.3386 92.5177C84.4798 92.8772 84.7067 93.1995 85.001 93.4584C85.1212 93.5562 85.1654 93.9657 85.0895 94.0207C84.8618 94.1857 84.3557 94.3813 84.3114 94.3202C83.7484 93.5562 83.2423 92.7432 82.945 92.2909C83.0336 90.4571 83.527 89.3447 84.7542 88.6906C84.963 88.5806 85.4627 88.9901 85.8296 89.1613C85.7031 89.2713 85.5956 89.4425 85.4628 89.5158L85.4374 89.5341ZM84.4443 88.1588C83.9445 88.6784 83.4321 89.1918 82.9197 89.7053C82.8734 89.7389 82.8223 89.7657 82.7678 89.7848L82.6097 89.4975C82.8944 88.7456 83.1664 87.9816 83.47 87.2297C83.5017 87.1442 83.7294 87.0403 83.7673 87.0708C84.0646 87.2989 84.3418 87.5503 84.5961 87.8227C84.634 87.8165 84.5328 88.0488 84.4506 88.1405L84.4443 88.1588ZM83.9382 94.742C83.9712 94.8227 83.9834 94.9101 83.9734 94.9964C83.9635 95.0827 83.9318 95.1653 83.8812 95.2371C83.3815 95.561 82.8438 95.8483 82.3187 96.1356C82.2302 95.6344 82.1289 95.1393 82.0403 94.6442C82.0403 94.5464 82.0403 94.4425 82.0403 94.1368C82.0909 93.6539 82.1606 92.9571 82.2365 92.2664C82.2565 92.1984 82.2887 92.1343 82.3314 92.0769C82.3853 92.1339 82.434 92.1952 82.4769 92.2603C82.9766 93.0672 83.4827 93.8862 83.9445 94.7236L83.9382 94.742ZM106.826 93.5623C105.459 95.3165 104.295 97.2297 103.03 99.0635C102.885 99.2713 102.511 99.5158 102.309 99.473C99.7786 98.9229 97.2103 98.3544 94.6735 97.731C91.7509 97.0097 88.8409 96.2395 85.9309 95.4632C85.817 95.4632 85.6462 95.0782 85.7031 95.0048C88.3601 91.2945 86.3358 87.5537 83.0399 85.7077C82.8438 85.5977 82.6034 85.2738 82.6414 85.0965C82.9703 83.4706 82.0087 82.3275 81.1168 81.1784C80.7751 80.7505 80.307 80.4082 79.9528 79.9559C79.9143 79.8652 79.9004 79.7664 79.9126 79.669C79.9248 79.5717 79.9626 79.4789 80.0224 79.3997C82.616 77.1503 85.216 74.907 87.8477 72.676C88.1949 72.4206 88.6046 72.2564 89.037 72.1992C92.6871 71.5879 96.3372 70.9767 100.006 70.4143C102.935 69.9865 105.883 69.6992 108.819 69.3447L110.716 69.1002V69.1674C113.158 68.9779 115.594 68.6784 118.042 68.6356C120.708 68.5703 123.376 68.6581 126.032 68.8984C127.978 69.1824 129.905 69.5805 131.801 70.0904C131.96 70.1573 132.106 70.2503 132.231 70.3654C132.076 70.3775 131.921 70.402 131.769 70.4388C130.347 70.8443 128.958 71.351 127.613 71.9547C124.767 73.4645 122.483 75.665 120.357 77.9999C117.713 80.9033 115.075 83.8129 112.488 86.7652C110.565 88.9962 108.641 91.2273 106.832 93.5439L106.826 93.5623ZM86.5066 90.72C86.5066 90.72 86.5129 90.7139 86.5129 90.7016L86.5066 90.72ZM110.988 95.5672C110.913 95.6344 110.822 95.6829 110.722 95.7085C110.623 95.734 110.519 95.7359 110.419 95.7139C110.292 95.6711 110.261 95.3899 110.09 94.9742C110.723 93.1405 111.305 91.0684 112.095 89.094C113.364 86.0848 115.52 83.5021 118.295 81.6674C118.591 81.5218 118.906 81.4169 119.231 81.3557C119.117 81.8141 119.162 82.4804 118.858 82.7004C115.164 85.451 112.918 89.094 111.634 93.3544C111.615 93.4842 111.615 93.6159 111.634 93.7456C111.713 93.6848 111.788 93.6173 111.855 93.5439C113.911 91.0989 116.03 88.709 119.225 87.5904C119.64 87.5033 120.066 87.4725 120.49 87.4987C120.452 87.8716 120.389 88.2383 120.389 88.6112C120.389 88.8004 120.461 88.983 120.591 89.1246C121.18 89.6442 121.806 90.1148 122.394 90.6344C122.514 90.7322 122.527 90.94 122.584 91.0989C122.413 91.05 122.236 91.0073 122.072 90.9461C120.882 90.5183 119.731 89.852 118.51 89.7236C116.897 89.5341 115.606 90.4571 114.563 91.6307C113.367 92.9205 112.197 94.2407 110.995 95.5488L110.988 95.5672ZM143.7 110.922C141.749 113.077 139.218 114.668 136.387 115.518C133.319 116.498 130.02 116.589 126.898 115.781C123.2 114.9 119.948 112.774 117.726 109.785C116.03 107.554 114.943 104.948 114.563 102.205C114.05 98.6601 114.904 95.4327 116.543 92.3275C116.865 91.7163 117.175 90.9339 117.757 90.6466C118.455 90.3784 119.225 90.3418 119.946 90.5427C120.635 90.7637 121.277 91.101 121.844 91.539C121.945 91.6002 121.958 92.0158 121.844 92.1503C120.373 93.7828 119.372 95.7599 118.94 97.8838C118.379 100.496 118.787 103.216 120.092 105.567C120.275 105.916 120.465 106.258 120.655 106.606C121.703 108.319 123.214 109.725 125.026 110.671C127.784 112.194 131.041 112.639 134.129 111.917C137.216 111.194 139.901 109.357 141.632 106.784C143.03 104.736 143.744 102.323 143.676 99.8707C143.608 97.4184 142.762 95.0455 141.252 93.0733C140.879 92.5843 140.487 92.1075 140.069 91.6491C139.993 91.5574 139.785 91.5696 139.639 91.539C139.686 91.6634 139.754 91.7791 139.841 91.8813C140.474 92.3642 140.525 92.6821 139.677 93.0488C138.652 93.495 137.697 94.094 136.71 94.6258C136.925 94.9131 137.147 95.1882 137.343 95.4877C137.659 95.94 137.975 96.4046 138.266 96.863C138.327 96.9267 138.393 96.9859 138.462 97.0403C138.462 97.0036 138.538 96.9608 138.532 96.9363C138.203 95.9217 139.241 95.9278 139.696 95.5183C140.075 95.2027 140.489 94.9281 140.93 94.6992C141.19 94.5926 141.461 94.5146 141.739 94.4669C141.657 94.7909 141.594 95.1209 141.486 95.4327C141.448 95.5305 141.303 95.5916 141.202 95.6711C141.316 95.6711 141.461 95.7444 141.537 95.6711C142.657 94.962 142.536 96.0623 142.688 96.484C143.567 98.7964 143.594 101.331 142.764 103.66C142.687 103.747 142.589 103.813 142.478 103.854C142.368 103.894 142.249 103.908 142.132 103.892C141.278 103.298 140.387 102.757 139.462 102.273C138.829 102.004 139.222 101.765 139.203 101.466C139.127 100.243 139 98.9657 138.886 97.7187C138.886 97.7187 138.728 97.6821 138.646 97.6637C138.678 99.1796 138.709 100.72 138.779 102.218C138.779 102.309 139.127 102.376 139.298 102.48C139.74 102.755 140.177 103.049 140.62 103.33C141.11 103.599 141.577 103.906 142.018 104.247C142.188 104.4 142.132 104.791 142.182 105.072C141.967 105.082 141.752 105.051 141.55 104.98C140.677 104.455 139.835 103.886 138.975 103.342C138.824 103.263 138.667 103.194 138.507 103.134L138.45 103.238C138.359 103.491 138.247 103.736 138.114 103.972C137.969 104.168 137.801 104.348 137.615 104.51C137.703 104.51 137.811 104.583 137.881 104.552C137.95 104.522 138.013 104.375 138.096 104.351C138.223 104.311 138.36 104.311 138.488 104.351C139.443 104.773 140.386 105.2 141.347 105.665C141.493 105.738 141.537 105.995 141.625 106.166C141.353 106.264 140.993 106.521 140.809 106.441C139.873 106.068 138.975 105.604 138.051 105.182C137.892 105.14 137.729 105.118 137.564 105.115C137.668 105.238 137.79 105.347 137.925 105.439C138.741 105.806 139.557 106.16 140.379 106.515C140.911 106.741 141.145 106.881 140.639 107.499C138.906 109.574 136.494 111.018 133.8 111.594C133.073 111.771 132.756 111.674 132.877 110.854C132.956 110.072 132.994 109.287 132.99 108.501C132.97 108.375 132.928 108.253 132.864 108.141C132.789 108.255 132.735 108.381 132.706 108.513C132.636 109.406 132.63 110.31 132.51 111.197C132.51 111.435 132.111 111.631 131.877 111.845C131.769 111.625 131.573 111.398 131.58 111.185C131.58 110.286 131.687 109.387 131.706 108.495C131.706 108.348 131.535 108.177 131.403 108.061C131.27 107.945 131.162 108 131.042 107.975C131.188 107.975 131.333 107.933 131.472 107.896L134.989 107.016C134.426 107.138 133.857 107.242 133.307 107.401C131.763 107.896 130.089 107.852 128.575 107.279C128.408 107.248 128.236 107.248 128.069 107.279C128.195 107.37 128.309 107.529 128.448 107.541C129.22 107.633 129.404 108.098 129.397 108.764C129.397 109.565 129.511 110.359 129.479 111.154C129.479 111.343 129.024 111.698 128.847 111.661C126.158 111.14 123.729 109.76 121.951 107.743C121.54 107.266 121.597 107.016 122.167 106.826C123.065 106.527 123.786 105.543 124.918 106.136C125.094 106.264 125.261 106.403 125.418 106.551C125.734 106.777 126.051 107.163 126.392 107.163C126.734 107.163 127.025 106.832 127.278 106.582C127.911 105.897 128.543 105.164 129.176 104.479C129.271 104.375 129.53 104.381 129.713 104.4C130.39 104.455 131.061 104.534 131.738 104.595C131.836 104.583 131.931 104.552 132.016 104.504L131.732 104.369C131.206 104.143 130.669 103.929 130.15 103.685C130.118 103.644 130.097 103.597 130.087 103.547C130.077 103.497 130.079 103.446 130.093 103.397C130.298 103.208 130.533 103.051 130.789 102.933C131.522 102.629 132.272 102.364 133.035 102.138C134.199 101.826 133.667 101.111 133.478 100.506C133.168 99.4669 132.788 98.44 132.472 97.3948C132.431 97.1601 132.431 96.9204 132.472 96.6857C132.727 96.7716 132.99 96.837 133.256 96.8813C133.492 96.885 133.727 96.8645 133.958 96.8202C133.4 96.7274 132.889 96.461 132.502 96.0616C132.115 95.6622 131.873 95.1517 131.814 94.6075C131.725 93.9962 131.732 93.3117 131.7 92.6637L133.781 92.9143C133.895 92.9143 134.009 92.951 134.129 92.9755C134.041 92.8777 133.971 92.7187 133.87 92.7004C132.959 92.5354 132.978 91.9119 132.997 91.2212C133.016 90.5305 132.877 89.7542 132.883 89.0268C132.883 88.8679 133.231 88.55 133.364 88.5745C135.437 88.9506 137.375 89.8393 138.988 91.154C139.117 91.2277 139.258 91.2814 139.405 91.3129C139.342 91.1723 139.316 90.9828 139.209 90.8911C137.29 89.3524 134.953 88.3805 132.478 88.0916C132.313 88.0916 132.054 87.3337 132.168 87.0586C132.556 86.1828 133.024 85.342 133.566 84.5464C133.675 84.4393 133.809 84.3585 133.956 84.3107C134.103 84.2629 134.26 84.2494 134.414 84.2713C138.29 84.9611 141.774 86.9878 144.219 89.9742C146.319 92.4361 147.569 95.4712 147.793 98.654C148.009 100.857 147.758 103.079 147.055 105.185C146.353 107.291 145.213 109.237 143.707 110.903L143.7 110.922ZM130.757 111.337C130.757 111.508 130.479 111.68 130.321 111.851C130.144 111.686 129.834 111.533 129.815 111.35C129.72 110.335 129.682 109.314 129.65 108.293C129.687 108.172 129.759 108.064 129.859 107.982C130.093 108.11 130.454 108.214 130.492 108.409C130.588 108.81 130.639 109.22 130.643 109.632H130.605C130.69 110.191 130.743 110.754 130.764 111.319L130.757 111.337ZM141.056 93.3789C140.961 93.5317 140.911 93.7518 140.771 93.8251C139.879 94.3019 138.968 94.742 138.07 95.1943L137.672 95.3899C137.508 95.2187 137.367 95.0276 137.254 94.8214C137.223 94.7297 137.362 94.4975 137.482 94.4363C138.424 93.9412 139.38 93.4522 140.348 93.0366C140.499 92.951 140.822 93.2383 141.062 93.3606L141.056 93.3789Z" fill="#FC9D17"/>
<path d="M25.8203 86.8939L25.827 86.8872L25.8203 86.8939Z" fill="#FC9D17"/>
<path d="M24.4919 101.337C24.1282 101.411 23.7608 101.466 23.3911 101.502C23.3532 101.502 23.3089 101.453 23.2646 101.428V101.74C23.4566 102.079 23.6678 102.408 23.8973 102.724C24.0301 102.914 24.3717 103.207 24.4223 103.177C24.8398 102.902 25.3649 102.62 25.523 102.223C25.6369 101.942 25.2194 101.465 25.0422 101.08C24.8696 101.186 24.6849 101.272 24.4919 101.337V101.337Z" fill="#FC9D17"/>
<path d="M26.2951 104.931L27.0732 103.384C26.9724 103.292 26.8669 103.204 26.7569 103.122C26.3204 103.519 25.9029 103.941 25.4917 104.344L26.2951 104.931Z" fill="#FC9D17"/>
<path d="M32.4313 106.911C33.2726 106.545 34.1013 106.166 34.93 105.775C34.9806 105.775 34.9743 105.61 34.9996 105.524C34.929 105.53 34.8591 105.542 34.7909 105.561L32.3364 106.594L32.1719 106.801C32.2604 106.844 32.3743 106.936 32.4313 106.911Z" fill="#FC9D17"/>
<path d="M21.9113 95.8725C21.9113 95.8725 21.9112 95.7075 21.8606 95.6892C21.1268 95.3041 20.3866 94.9312 19.6465 94.5522C20.3234 95.0168 21.0003 95.4813 21.6835 95.9337C21.7278 95.9642 21.848 95.9214 21.9113 95.8725Z" fill="#FC9D17"/>
<path d="M30.8371 93.8247L29.8882 94.1242L30.8877 93.9714L30.8371 93.8247Z" fill="#FC9D17"/>
<path d="M31.1913 94.0022C31.1471 94.0022 31.0965 93.9411 31.0585 93.9472H30.8877L30.932 94.0756L31.1913 94.0022Z" fill="#FC9D17"/>
<path d="M27.9901 94.7172C28.6227 94.5277 29.2553 94.326 29.8879 94.106C29.2047 94.2099 28.5215 94.3199 27.8446 94.436C27.7751 94.436 27.7308 94.6133 27.6738 94.705C27.778 94.7245 27.8847 94.7286 27.9901 94.7172V94.7172Z" fill="#FC9D17"/>
<path d="M27.7753 103.837C27.8322 103.941 27.946 104.045 27.9397 104.148C27.9247 104.489 27.8845 104.828 27.8195 105.163C27.7665 105.296 27.6918 105.42 27.5981 105.53L28.1422 105.781C28.2084 105.649 28.2552 105.509 28.2813 105.365C28.2813 104.968 28.2813 104.576 28.2813 104.069C28.1804 103.982 28.0748 103.901 27.965 103.825C27.9271 103.794 27.8386 103.831 27.7753 103.837Z" fill="#FC9D17"/>
<path d="M34.9682 91.7648L32.9502 91.019L34.9682 91.7648Z" fill="#FC9D17"/>
<path d="M30.2743 103.531C30.502 103.531 30.7867 103.531 31.065 103.47C31.1629 103.449 31.2582 103.418 31.3497 103.378C31.2421 103.378 31.1409 103.329 31.0334 103.317C30.6222 103.281 30.211 103.238 29.7682 103.226C29.5235 103.233 29.2801 103.262 29.0407 103.311C29.0407 103.311 28.9901 103.366 28.9585 103.397C29.1356 103.427 29.3127 103.47 29.4899 103.488C29.667 103.507 29.9833 103.513 30.2743 103.531Z" fill="#FC9D17"/>
<path d="M24.9473 92.3213C24.9954 92.3213 25.043 92.3108 25.0865 92.2907C25.504 92.0279 25.9152 91.7589 26.3517 91.4839L24.9663 92.2235C24.9663 92.2235 24.9473 92.2907 24.9473 92.3213Z" fill="#FC9D17"/>
<path d="M26.9405 101.435C26.8298 101.255 26.705 101.083 26.5672 100.921L26.2383 101.368L26.8709 101.771C26.9025 101.643 26.9784 101.514 26.9405 101.435Z" fill="#FC9D17"/>
<path d="M25.8711 105.885L26.763 106.496L27.1173 106.276C26.7504 106.099 26.3772 105.915 26.0039 105.744C25.9976 105.769 25.9154 105.848 25.8711 105.885Z" fill="#FC9D17"/>
<path d="M35.4865 105.365C35.7712 105.194 36.0495 105.011 36.4037 104.754C36.2456 104.662 36.1634 104.595 36.1444 104.613C35.8851 104.809 35.6383 105.023 35.3853 105.225C35.4232 105.292 35.4865 105.371 35.4865 105.365Z" fill="#FC9D17"/>
<path d="M28.2245 102.364C27.9967 102.29 27.7753 102.205 27.5412 102.15C27.4779 102.15 27.3894 102.211 27.3135 102.242C27.4273 102.37 27.5476 102.492 27.6868 102.639L28.2245 102.364Z" fill="#FC9D17"/>
<path d="M35.746 92.3884C35.6172 92.2366 35.4799 92.0917 35.3348 91.9544C35.2259 91.8778 35.1067 91.8161 34.9805 91.771C35.1513 91.9788 35.3158 92.1989 35.4992 92.3822C35.5372 92.4311 35.6574 92.3884 35.746 92.3884Z" fill="#FC9D17"/>
<path d="M22.012 101.569C22.0932 101.724 22.1931 101.87 22.3094 102.003C22.3094 101.936 22.398 101.856 22.379 101.795C22.3073 101.565 22.2228 101.338 22.1259 101.117C22.0564 101.373 21.9741 101.496 22.012 101.569Z" fill="#FC9D17"/>
<path d="M27.3073 90.8725C27.17 90.966 27.041 91.0703 26.9214 91.1842L27.554 90.9336C27.4591 90.8725 27.3579 90.8236 27.3073 90.8725Z" fill="#FC9D17"/>
<path d="M22.0247 96.2573L21.8223 96.6424L21.9172 97.0642C21.9931 96.8441 22.069 96.6302 22.1259 96.4101C22.1386 96.3735 22.0626 96.3062 22.0247 96.2573Z" fill="#FC9D17"/>
<path d="M24.2705 92.9383C24.3782 92.8783 24.4798 92.8088 24.5741 92.7305C24.4792 92.6632 24.4033 92.5838 24.378 92.596C24.2863 92.6522 24.1996 92.7156 24.1187 92.7855C24.1693 92.8405 24.2452 92.9444 24.2705 92.9383Z" fill="#FC9D17"/>
<path d="M26.9086 91.166L26.3646 91.4716H26.3267H26.3646L26.9086 91.166Z" fill="#FC9D17"/>
<path d="M31.0587 90.4933C30.9406 90.4601 30.8201 90.4356 30.6981 90.4199C30.5885 90.4285 30.4803 90.449 30.3755 90.481L30.755 90.5911L31.0587 90.4933Z" fill="#FC9D17"/>
<path d="M24.8906 103.599L24.9919 103.831L25.1437 103.654L24.8906 103.599V103.599Z" fill="#FC9D17"/>
<path d="M35.6133 93.739L35.4109 93.5679C35.4109 93.6107 35.335 93.6534 35.335 93.6901C35.3552 93.7589 35.385 93.8247 35.4235 93.8857L35.6133 93.739Z" fill="#FC9D17"/>
<path d="M24.0365 100.903L23.853 100.964L24.0238 101.105L24.0365 100.903Z" fill="#FC9D17"/>
<path d="M27.7754 106.704L27.9082 106.807L28.1169 106.691C28.0663 106.691 28.0157 106.612 27.9715 106.618C27.9023 106.638 27.8363 106.666 27.7754 106.704V106.704Z" fill="#FC9D17"/>
<path d="M24.9731 93.8616H24.9414L25.2008 93.7271L25.0806 93.5132L24.9731 93.8616Z" fill="#FC9D17"/>
<path d="M23.7267 93.4888H23.3408L23.499 93.7516L23.7267 93.4888Z" fill="#FC9D17"/>
<path d="M27.5728 104.509L27.3008 104.644H27.5854L27.5728 104.509Z" fill="#FC9D17"/>
<path d="M24.0429 96.0619C24.0429 96.0619 24.0998 96.0252 24.1504 95.9885C24.201 95.9519 24.0746 95.9335 24.0556 95.9396C24.0366 95.9457 23.9987 95.9824 23.9734 96.0008C23.9481 96.0191 24.024 96.0619 24.0429 96.0619Z" fill="#FC9D17"/>
<path d="M25.8203 94.5765C25.8697 94.598 25.9204 94.6163 25.9721 94.6315C25.9721 94.6315 26.0291 94.5949 26.0544 94.5826C26.0205 94.5527 25.9822 94.528 25.9405 94.5093C25.9405 94.5093 25.8836 94.5398 25.8203 94.5765Z" fill="#FC9D17"/>
<path d="M23.0498 101.16L23.2333 101.404C23.2349 101.388 23.2349 101.372 23.2333 101.355L23.113 101.099L23.0498 101.16Z" fill="#FC9D17"/>
<path d="M25.929 102.878C25.929 102.878 25.8972 102.829 25.8781 102.823C25.8591 102.82 25.8397 102.82 25.8207 102.823C25.8195 102.843 25.8195 102.863 25.8207 102.884L25.929 102.878Z" fill="#FC9D17"/>
<path d="M22.7144 98.6783H23.018L22.7333 98.6416L22.7144 98.6783Z" fill="#FC9D17"/>
<path d="M30.1221 104.467C30.1221 104.467 30.1221 104.522 30.1221 104.528C30.1221 104.534 30.1667 104.528 30.1858 104.528V104.448L30.1221 104.467Z" fill="#FC9D17"/>
<path d="M24.1758 98.7269H24.2077L24.2459 98.6841L24.1758 98.7269Z" fill="#FC9D17"/>
<path d="M27.9655 92.7061L27.9209 92.8222L27.9974 92.7183L27.9655 92.7061Z" fill="#FC9D17"/>
<path d="M25.4664 105.695L25.5746 105.628L25.4536 105.671L25.4664 105.695Z" fill="#FC9D17"/>
<path d="M23.5684 103.819L23.5751 103.826V103.819H23.5684Z" fill="#FC9D17"/>
<path d="M23.5747 103.971H23.7265L23.5747 103.825V103.971Z" fill="#FC9D17"/>
<path d="M110.988 74.7843C110.988 74.8332 110.912 74.9004 110.862 74.9127L109.596 75.1205C109.509 75.1458 109.426 75.1828 109.35 75.2305C109.457 75.2672 109.577 75.3467 109.685 75.3283C111.848 75.0105 114.012 74.6559 116.175 74.3687C117.883 74.1425 119.604 74.008 121.312 73.8124C122.192 73.7146 123.21 73.8124 123.906 73.4273C125.74 72.4799 127.461 71.3185 129.22 70.2427L129.409 70.1266C129.344 70.0949 129.277 70.0683 129.207 70.0471C128.561 69.9357 127.908 69.8602 127.252 69.821C123.95 69.821 120.654 69.821 117.358 69.821V69.6987C116.511 69.7843 115.669 69.9371 114.828 69.9432C113.278 69.9432 113.398 70.8601 113.626 71.8625C113.685 72.0052 113.713 72.1578 113.71 72.3113C113.707 72.4648 113.672 72.6162 113.607 72.7563C113.542 72.8965 113.448 73.0227 113.332 73.1274C113.216 73.2322 113.079 73.3134 112.93 73.3662C112.362 73.6039 111.815 73.8839 111.292 74.2036C111.14 74.3014 111.096 74.5887 110.988 74.7843Z" fill="#FC9D17"/>
<path d="M112.627 72.1683C112.468 71.5081 112.386 71.1536 112.298 70.793C112.106 71.0699 111.895 71.3334 111.665 71.5815C111.286 71.9543 110.919 72.4922 110.457 72.5962C109.549 72.7818 108.619 72.8517 107.692 72.804C105.9 72.7741 104.138 73.2591 102.631 74.1976C100.341 75.522 98.0366 76.826 95.7171 78.1096C93.2942 79.4543 90.865 80.7991 88.4105 82.0949C87.3287 82.6634 86.1711 83.1096 84.9248 82.4433C84.6991 82.3442 84.4639 82.2664 84.2227 82.2111C84.3302 82.6023 84.3808 83.3052 84.5453 83.3358C85.8105 83.5314 87.2086 83.947 88.3409 83.623C90.1818 83.1096 91.8835 82.101 93.6232 81.2636C96.1536 80.0411 98.684 78.7575 101.214 77.5411C102.087 77.1194 103.049 76.881 103.928 76.4715C106.256 75.4038 108.576 74.3076 110.887 73.1829C111.545 72.8834 112.108 72.48 112.627 72.1683Z" fill="#FC9D17"/>
<path d="M122.337 74.5337C120.439 74.7721 118.541 74.9738 116.682 75.2488C114.822 75.5239 113.101 75.8112 111.323 76.1535C110.14 76.3858 108.97 76.7158 107.793 77.0031C111.766 76.6608 115.733 76.2635 119.712 76.0251C120.958 75.9457 121.787 75.5911 122.337 74.5337Z" fill="#FC9D17"/>
<path d="M122.337 74.5278V74.5346H122.344L122.337 74.5278Z" fill="#FC9D17"/>
<path d="M107.54 77.1132C107.612 77.0822 107.682 77.0476 107.749 77.0093L107.496 77.0765C107.496 77.0765 107.534 77.1193 107.54 77.1132Z" fill="#FC9D17"/>
<path d="M122.343 74.534L122.394 74.479L122.343 74.534Z" fill="#FC9D17"/>
<path d="M135.565 104.839C135.539 104.944 135.494 105.043 135.432 105.133C135.192 105.353 134.939 105.548 134.686 105.744C134.496 105.499 134.097 105.133 134.161 105.035C134.325 104.723 134.692 104.515 134.977 104.258C134.85 104.197 134.673 104.051 134.603 104.087C134.125 104.282 133.694 104.572 133.338 104.937C133.155 105.2 133.338 105.744 133.465 106.159C133.509 106.306 133.908 106.508 134.021 106.447C134.625 106.118 135.21 105.759 135.774 105.371C135.819 105.336 135.853 105.289 135.873 105.236C135.893 105.184 135.898 105.127 135.888 105.071C135.824 104.961 135.673 104.931 135.565 104.839Z" fill="#FC9D17"/>
<path d="M138.918 97.2968C139.038 97.2968 139.184 97.2968 139.272 97.254C139.727 96.9756 140.167 96.6736 140.588 96.3494C140.806 96.1432 141.001 95.9158 141.17 95.6709C140.468 96.1171 139.766 96.5572 139.07 97.0156C138.988 97.0645 138.969 97.199 138.918 97.2968Z" fill="#FC9D17"/>
<path d="M137.102 105.365C137.001 105.396 136.874 105.365 136.805 105.451C136.349 105.83 135.913 106.221 135.476 106.612C135.335 106.745 135.202 106.886 135.078 107.034C135.71 106.569 136.343 106.111 136.975 105.64C137.058 105.591 137.064 105.457 137.102 105.365Z" fill="#FC9D17"/>
<path d="M135.034 98.3787C134.951 98.2198 134.749 98.1281 134.604 98.0059C134.627 98.1632 134.662 98.3186 134.711 98.4704C134.831 98.7699 134.97 99.0817 135.11 99.3567C135.11 99.4117 135.211 99.4545 135.261 99.4973L135.394 99.3017C135.298 98.9857 135.178 98.6772 135.034 98.3787V98.3787Z" fill="#FC9D17"/>
<path d="M135.59 93.5744L134.8 93.0977L134.584 93.2505C134.856 93.3911 135.128 93.5378 135.407 93.6722C135.438 93.6845 135.533 93.6111 135.59 93.5744Z" fill="#FC9D17"/>
<path d="M132.826 104.179C132.687 104.247 132.56 104.332 132.421 104.412C132.472 104.412 132.528 104.485 132.566 104.467C132.725 104.406 132.876 104.332 133.148 104.204C133.043 104.181 132.934 104.173 132.826 104.179V104.179Z" fill="#FC9D17"/>
<path d="M135.742 93.9289L136.375 94.149C136.263 94.0547 136.142 93.9707 136.014 93.8984C135.938 93.8739 135.831 93.9289 135.742 93.9289Z" fill="#FC9D17"/>
<path d="M135.034 102.663C135.141 102.486 135.255 102.309 135.356 102.125C135.356 102.125 135.356 102.046 135.312 101.893C135.179 102.18 135.084 102.364 135.002 102.553C134.989 102.584 135.021 102.627 135.034 102.663Z" fill="#FC9D17"/>
<path d="M135.584 101.343C135.651 101.23 135.712 101.114 135.767 100.995C135.767 100.952 135.767 100.891 135.717 100.842L135.508 101.117L135.584 101.343Z" fill="#FC9D17"/>
<path d="M132.718 106.514C132.718 106.576 132.8 106.618 132.845 106.673C132.889 106.631 132.971 106.588 132.965 106.557C132.934 106.484 132.891 106.416 132.838 106.355C132.781 106.429 132.706 106.484 132.718 106.514Z" fill="#FC9D17"/>
<path d="M134.647 105.047C134.647 105.09 134.698 105.157 134.73 105.163C134.761 105.169 134.825 105.121 134.913 105.072C134.837 105.023 134.793 104.974 134.749 104.968C134.704 104.962 134.641 105.023 134.647 105.047Z" fill="#FC9D17"/>
<path d="M134.515 102.327L134.129 102.773L134.515 102.327Z" fill="#FC9D17"/>
<path d="M130.023 106.08C130.023 106.08 130.061 106.16 130.099 106.227C130.156 106.166 130.207 106.135 130.207 106.099C130.207 106.062 130.169 106.019 130.144 105.976C130.118 105.934 130.042 106.038 130.023 106.08Z" fill="#FC9D17"/>
<path d="M134.053 96.6548L133.977 96.8504L134.135 96.7159L134.053 96.6548Z" fill="#FC9D17"/>
<path d="M134.742 94.3872L134.515 94.43C134.51 94.4624 134.51 94.4953 134.515 94.5278L134.742 94.3872Z" fill="#FC9D17"/>
<path d="M137.456 101.203H137.254V101.288L137.456 101.203Z" fill="#FC9D17"/>
<path d="M137.457 101.196V101.203H137.463L137.457 101.196Z" fill="#FC9D17"/>
<path d="M135.154 104.448L134.996 104.295L135.122 104.467L135.154 104.448Z" fill="#FC9D17"/>
<path d="M136.583 98.8188V98.88H136.647C136.649 98.8617 136.649 98.8432 136.647 98.825C136.647 98.825 136.59 98.8188 136.583 98.8188Z" fill="#FC9D17"/>
<path d="M133.066 103.892C133.066 103.892 133.06 103.905 133.066 103.892V103.892Z" fill="#FC9D17"/>
<path d="M135.546 98.6782C135.546 98.6782 135.539 98.6859 135.546 98.6782V98.6782Z" fill="#FC9D17"/>
<path d="M132.547 105.378H132.649L132.566 105.316L132.547 105.378Z" fill="#FC9D17"/>
<path d="M138.563 97.5596L138.621 97.6818L138.563 97.5596Z" fill="#FC9D17"/>
<path d="M136.072 102.896V102.847H135.932L136.072 102.896Z" fill="#FC9D17"/>
<path d="M132.238 94.2833L132.174 94.2466L132.238 94.2833Z" fill="#FC9D17"/>
<path d="M60.9238 89.711C60.0572 89.0631 59.1146 88.4885 58.191 87.9201C58.0561 87.8634 57.9133 87.8264 57.7671 87.8101C57.7671 87.9262 57.6533 88.0729 57.7039 88.1524C57.9643 88.7029 58.3005 89.2169 58.7034 89.6805C59.7472 90.6707 60.8796 91.5753 61.974 92.5105C62.0232 92.543 62.0763 92.5697 62.1321 92.59V92.5472C62.1063 91.9949 62.015 91.4474 61.8601 90.9152C61.6568 90.4446 61.335 90.0307 60.9238 89.711V89.711Z" fill="#FC9D17"/>
<path d="M39.4912 63.134C39.8336 63.3359 40.1518 63.5737 40.4401 63.8431C40.3452 63.403 40.263 62.9629 40.1618 62.5228C39.9151 61.4837 39.5735 60.4323 38.4158 60.0778C35.1199 59.1243 31.7987 58.2441 28.4902 57.3578C28.3598 57.3028 28.2367 57.233 28.1233 57.1499C28.2461 57.0999 28.3763 57.069 28.5092 57.0582C31.7355 57.4922 34.9554 57.9323 38.1817 58.3602C38.3624 58.3581 38.5415 58.3293 38.7131 58.2746C38.5676 58.1524 38.4475 57.9568 38.283 57.9201C37.4985 57.7367 36.7015 57.5839 35.9044 57.4372L24.8274 55.4629L24.7642 55.6768L24.2012 55.8235C24.3214 55.9641 24.4415 56.1047 24.5681 56.2392C24.6946 56.3736 24.9477 56.6793 25.1627 56.8504C25.6815 57.3272 26.1306 57.9751 26.7568 58.2135C28.1296 58.7514 29.6416 58.9653 31.0143 59.5032C33.8674 60.6707 36.6761 61.9177 39.4912 63.134Z" fill="#FC9D17"/>
<path d="M36.4169 64.2524C34.1458 63.1644 31.8874 62.0642 29.6164 60.97C29.537 60.943 29.4537 60.9285 29.3696 60.9272C29.4013 61.0006 29.4013 61.1045 29.4582 61.1473C31.7103 62.9199 33.8865 64.8148 36.2714 66.404C37.3152 67.1131 38.7639 67.2537 40.0228 67.6571C40.1617 67.7074 40.2969 67.7666 40.4276 67.8343C40.3134 67.8914 40.1922 67.9345 40.067 67.9627C39.485 68.0238 38.8967 68.0727 38.3147 68.1277V68.0116C38.1945 68.0116 38.0743 68.0605 37.9541 68.0972C37.9541 68.0972 37.9541 68.2439 37.9857 68.2561C38.3083 68.4089 38.6183 68.6901 38.9663 68.6717C39.7169 68.6055 40.4587 68.4662 41.1804 68.2561C41.7049 68.0681 42.2127 67.8391 42.6987 67.5715C42.3504 67.2404 41.9689 66.9435 41.5599 66.6852C39.8582 65.86 38.1249 65.0776 36.4169 64.2524Z" fill="#FC9D17"/>
<path d="M74.3478 86.8259C73.8656 86.821 73.3871 86.9087 72.9402 87.0838C72.4933 87.259 72.0869 87.5181 71.7444 87.8462C71.402 88.1742 71.1303 88.5647 70.9452 88.995C70.7601 89.4253 70.6652 89.8868 70.666 90.3528C70.7049 91.2518 71.092 92.1039 71.7505 92.7402C72.409 93.3765 73.2908 93.7504 74.2213 93.788C74.703 93.7963 75.1814 93.7107 75.6282 93.5364C76.0749 93.3621 76.4807 93.1026 76.8214 92.7734C77.1621 92.4443 77.4306 92.0521 77.611 91.6205C77.7914 91.1889 77.88 90.7265 77.8714 90.2611C77.857 89.3596 77.4821 88.4985 76.8253 87.8581C76.1684 87.2178 75.2806 86.8479 74.3478 86.8259V86.8259ZM74.2213 93.3234C73.4108 93.29 72.646 92.9516 72.0904 92.3805C71.5348 91.8094 71.2324 91.0509 71.248 90.2672C71.2505 89.8694 71.3345 89.476 71.4951 89.1097C71.6557 88.7434 71.8898 88.4114 72.1838 88.133C72.4779 87.8545 72.8261 87.6351 73.2083 87.4873C73.5906 87.3396 73.9994 87.2664 74.4111 87.2721C75.2003 87.3339 75.9378 87.6761 76.4811 88.2327C77.0244 88.7893 77.3349 89.5206 77.3527 90.2855C77.3461 91.0866 77.0142 91.8531 76.4286 92.4201C75.8429 92.9871 75.0503 93.3093 74.2213 93.3173V93.3234Z" fill="#FC9D17"/>
<path d="M69.35 90.0657C68.8011 90.1712 68.2633 90.3246 67.7432 90.5242C68.2176 91.7466 68.5403 92.633 68.9451 93.5132C69.0527 93.7576 69.3879 93.9043 69.622 94.1244C69.8307 93.8127 70.2167 93.5132 70.2167 93.1892C70.1919 92.3465 70.0882 91.5077 69.9067 90.6831C69.8624 90.4264 69.5208 90.0535 69.35 90.0657Z" fill="#FC9D17"/>
<path d="M79.5665 93.4765C79.6553 93.4496 79.7329 93.3961 79.7879 93.3237C80.0916 92.6024 80.3763 91.875 80.6673 91.1599C80.5471 90.9765 80.4775 90.7748 80.4079 90.7809C79.8683 90.7273 79.3231 90.7835 78.8074 90.9459C78.6431 91.085 78.5189 91.2628 78.4468 91.4621C78.3748 91.6613 78.3573 91.8752 78.3962 92.0828C78.7104 92.6024 79.1051 93.0723 79.5665 93.4765V93.4765Z" fill="#FC9D17"/>
<path d="M77.2954 93.452C77.2881 94.0972 77.3219 94.7423 77.3966 95.3835C77.3966 95.3835 77.6117 95.463 77.6497 95.4202C77.985 95.1268 78.2823 94.809 78.6999 94.43C78.3583 93.8554 78.1115 93.452 77.8711 93.0547C77.6687 93.183 77.3017 93.3175 77.2954 93.452Z" fill="#FC9D17"/>
<path d="M80.5091 89.4727C80.4769 89.119 80.3872 88.7725 80.2433 88.4458C80.1105 88.672 79.984 88.9042 79.8321 89.1243C79.761 89.2267 79.6734 89.3175 79.5728 89.3932C79.4399 89.4971 79.3008 89.5827 79.1616 89.6744L79.8891 89.7844C80.0346 89.7172 80.4964 89.6072 80.5091 89.4727Z" fill="#FC9D17"/>
<path d="M133.117 82.3885C133.087 82.3675 133.055 82.3491 133.022 82.3335C133.022 82.3335 132.971 82.3641 132.971 82.3763C132.986 82.4021 133.003 82.4267 133.022 82.4496L133.117 82.3885Z" fill="#FC9D17"/>
<path d="M53.7563 87.5227L53.9398 87.1315C53.807 86.5508 53.6868 85.9885 53.5413 85.4383C53.5413 85.3405 53.3514 85.2794 53.2502 85.2061C53.1999 85.3096 53.1719 85.4219 53.168 85.5361C53.2882 86.0924 53.421 86.6486 53.5665 87.1987C53.6162 87.3136 53.6799 87.4224 53.7563 87.5227V87.5227Z" fill="#FC9D17"/>
<path d="M54.6298 86.2879L54.5852 86.2329C54.5852 86.2329 54.5406 86.2757 54.547 86.2818C54.5582 86.3095 54.5783 86.333 54.6043 86.349C54.6101 86.3277 54.6186 86.3072 54.6298 86.2879V86.2879Z" fill="#FC9D17"/>
<path d="M54.7118 87.1069C54.7148 87.0764 54.7148 87.0457 54.7118 87.0152C54.7118 87.0152 54.7117 86.9846 54.6671 86.9663C54.6611 87.0007 54.6611 87.0358 54.6671 87.0702C54.6671 87.0702 54.699 87.0947 54.7118 87.1069Z" fill="#FC9D17"/>
<path d="M127.487 91.0679L127.43 91.0984L127.904 92.0948L127.487 91.0679Z" fill="#FC9D17"/>
<path d="M128.17 92.5291L127.936 92.1562L128.119 92.5658L128.17 92.5291Z" fill="#FC9D17"/>
<path d="M128.733 93.7695L128.549 93.4272L128.651 93.8001L128.733 93.7695Z" fill="#FC9D17"/>
<path d="M127.278 90.5849L127.164 90.4443C127.164 90.4443 127.113 90.5055 127.126 90.5238C127.152 90.5742 127.184 90.6214 127.221 90.6644L127.278 90.5849Z" fill="#FC9D17"/>
<path d="M128.372 93.0181L128.303 93.0547L128.537 93.3909L128.372 93.0181Z" fill="#FC9D17"/>
<path d="M126.955 89.8947L126.772 89.6074L126.898 89.9192L126.955 89.8947Z" fill="#FC9D17"/>
<path d="M128.878 94.2954L128.929 94.381V94.2832L128.878 94.2954Z" fill="#FC9D17"/>
<path d="M130.681 98.6657C130.719 98.5374 130.82 98.3846 130.782 98.2868C130.561 97.6755 130.314 97.1254 130.061 96.5508C130.03 96.5325 129.996 96.5204 129.96 96.5152C129.924 96.5099 129.887 96.5117 129.852 96.5203C129.732 96.6792 129.504 96.8931 129.549 97.0093C129.783 97.5899 130.086 98.1523 130.365 98.7208L130.681 98.6657Z" fill="#FC9D17"/>
<path d="M130.32 100.182C130.276 100.353 130.605 100.609 130.909 101.025C131.193 100.628 131.478 100.414 131.44 100.237C131.402 100.059 131.111 99.7843 130.928 99.5581C130.713 99.7659 130.377 99.9371 130.32 100.182Z" fill="#FC9D17"/>
<path d="M57.9823 100.041C58.01 100.117 58.0483 100.189 58.0961 100.255C58.153 100.194 58.2479 100.133 58.2479 100.072C58.2479 100.011 58.1657 99.9435 58.0771 99.8335C58.0265 99.9374 57.9696 99.9985 57.9823 100.041Z" fill="#FC9D17"/>
<path d="M57.6278 94.803C57.5979 94.73 57.5475 94.6665 57.4823 94.6196C57.4823 94.6196 57.3747 94.6869 57.2798 94.7602C57.3484 94.819 57.4251 94.8683 57.5076 94.9069C57.5076 94.9069 57.6278 94.8213 57.6278 94.803Z" fill="#FC9D17"/>
<path d="M124.868 101.973C124.912 101.911 124.868 101.789 124.868 101.691L124.494 101.753L123.773 101.832V101.753C123.506 101.796 123.242 101.855 122.983 101.93C122.907 101.93 122.881 102.132 122.85 102.242C122.866 102.265 122.888 102.285 122.913 102.299C122.938 102.314 122.966 102.324 122.995 102.327C123.52 102.327 124.045 102.284 124.57 102.223C124.697 102.177 124.803 102.088 124.868 101.973V101.973Z" fill="#FC9D17"/>
<path d="M83.4761 92.3575C83.6532 92.7059 83.7481 92.8893 83.8493 93.0727C83.8936 93.0116 83.9885 92.9382 83.9759 92.8954C83.9188 92.6856 83.8426 92.481 83.7481 92.2842C83.6555 92.3015 83.5645 92.326 83.4761 92.3575V92.3575Z" fill="#FC9D17"/>
<path d="M123.096 98.8918C123.406 98.7554 123.696 98.5786 123.957 98.3661C124.064 98.2806 124.064 98.0727 124.115 97.9199C124.033 97.9043 123.949 97.9043 123.868 97.9199C123.583 98.03 123.305 98.1522 123.027 98.2683L122.938 98.085C122.755 98.1705 122.527 98.2256 122.419 98.3661C122.312 98.5067 122.527 98.7023 122.653 98.8124C122.716 98.8582 122.788 98.8892 122.865 98.903C122.942 98.9168 123.021 98.913 123.096 98.8918V98.8918Z" fill="#FC9D17"/>
<path d="M50.2389 98.5008C50.2177 98.2241 50.1403 97.9541 50.0112 97.7062C49.8924 97.6769 49.7681 97.6749 49.6484 97.7003C49.5286 97.7258 49.4167 97.7781 49.3216 97.8529C49.2204 98.0668 49.3216 98.3847 49.3722 98.6536L50.2389 98.5069V98.5008Z" fill="#FC9D17"/>
<path d="M30.2233 99.1974C30.3562 99.1974 30.5523 98.9834 30.8559 98.7573C30.5207 98.5311 30.3245 98.2927 30.1664 98.3172C30.0082 98.3416 29.7172 98.6106 29.7299 98.7512C29.7661 98.8599 29.8304 98.958 29.9168 99.036C30.0031 99.1141 30.1086 99.1696 30.2233 99.1974V99.1974Z" fill="#FC9D17"/>
<path d="M76.2013 90.1328C75.1765 89.9922 74.1454 89.8516 73.1142 89.8027C72.7789 89.8027 72.1526 90.035 72.1463 90.1817C72.1247 90.3887 72.1491 90.5977 72.2178 90.7948C72.2866 90.9919 72.398 91.1726 72.5449 91.3247C73.2913 91.7648 74.1454 91.9971 74.9678 91.3247C75.0485 91.2902 75.1357 91.2724 75.2239 91.2724C75.3122 91.2724 75.3995 91.2902 75.4802 91.3247C76.486 91.8687 76.3405 91.0741 76.4797 90.4629C76.4101 90.3895 76.3215 90.145 76.2013 90.1328Z" fill="#FC9D17"/>
</svg>
