<svg width="160" height="160" viewBox="0 0 160 160" fill="none" xmlns="http://www.w3.org/2000/svg">
<path d="M118.623 94.3179C116.945 93.706 115.148 93.4908 113.373 93.6894C111.598 93.888 109.893 94.4949 108.392 95.4626C106.891 96.4303 105.634 97.7324 104.72 99.267C103.806 100.802 103.26 102.527 103.124 104.308C102.989 106.089 103.267 107.877 103.938 109.532C104.609 111.188 105.655 112.665 106.992 113.849C108.33 115.033 109.923 115.891 111.647 116.356C113.372 116.821 115.181 116.88 116.932 116.529C122.321 115.495 126.168 110.593 126.241 105.183C126.217 102.815 125.477 100.509 124.117 98.5691C122.757 96.6296 120.842 95.1475 118.623 94.3179V94.3179ZM117.708 113.597C115.919 114.248 113.969 114.312 112.141 113.779C110.314 113.247 108.704 112.145 107.545 110.635C106.386 109.125 105.738 107.284 105.697 105.381C105.655 103.478 106.221 101.611 107.313 100.051C108.405 98.4918 109.965 97.3209 111.768 96.7088C113.57 96.0966 115.521 96.0751 117.337 96.6472C119.153 97.2194 120.739 98.3555 121.865 99.8905C122.99 101.426 123.598 103.28 123.598 105.183C123.582 107.017 123.011 108.803 121.96 110.305C120.908 111.807 119.425 112.955 117.708 113.597V113.597Z" fill="#FC9D17"/>
<path d="M116.803 99.8929C115.744 99.5006 114.588 99.4544 113.501 99.7607C112.414 100.067 111.453 100.71 110.754 101.598C110.056 102.485 109.657 103.571 109.615 104.699C109.574 105.828 109.891 106.941 110.521 107.877C111.152 108.814 112.063 109.527 113.124 109.913C114.185 110.299 115.341 110.338 116.426 110.026C117.512 109.713 118.469 109.064 119.162 108.173C119.855 107.281 120.248 106.193 120.283 105.064C120.286 105.013 120.286 104.961 120.283 104.909C120.283 104.847 120.283 104.78 120.283 104.723C120.237 103.666 119.883 102.646 119.265 101.788C118.646 100.93 117.791 100.271 116.803 99.8929V99.8929ZM114.951 108.26C114.285 108.261 113.634 108.065 113.08 107.695C112.525 107.326 112.093 106.801 111.837 106.186C111.582 105.571 111.514 104.893 111.644 104.24C111.773 103.587 112.093 102.986 112.564 102.515C113.034 102.044 113.634 101.722 114.287 101.592C114.941 101.462 115.618 101.528 116.233 101.783C116.849 102.038 117.375 102.469 117.745 103.023C118.115 103.577 118.313 104.228 118.313 104.894C118.306 105.784 117.95 106.635 117.321 107.265C116.692 107.895 115.841 108.252 114.951 108.26V108.26Z" fill="#FC9D17"/>
<path d="M43.5695 94.3179C41.8915 93.706 40.0946 93.4908 38.3195 93.6894C36.5444 93.888 34.8395 94.4949 33.3382 95.4626C31.8369 96.4303 30.58 97.7324 29.6661 99.267C28.7522 100.802 28.2061 102.527 28.0705 104.308C27.9349 106.089 28.2135 107.877 28.8846 109.532C29.5556 111.188 30.6008 112.665 31.9383 113.849C33.2758 115.033 34.8692 115.891 36.5938 116.356C38.3183 116.821 40.1271 116.88 41.8785 116.529C47.2671 115.495 51.1147 110.593 51.1871 105.183C51.1651 102.814 50.4253 100.508 49.0653 98.5679C47.7053 96.628 45.7891 95.1462 43.5695 94.3179ZM42.6542 113.597C40.8661 114.246 38.9178 114.308 37.0921 113.774C35.2664 113.24 33.6583 112.138 32.5014 110.628C31.3445 109.119 30.6989 107.279 30.6584 105.378C30.6178 103.476 31.1844 101.611 32.2759 100.053C33.3674 98.4952 34.927 97.3259 36.7283 96.7147C38.5296 96.1035 40.4788 96.0823 42.2929 96.6542C44.107 97.2261 45.6917 98.3613 46.8168 99.895C47.9419 101.429 48.5489 103.281 48.5497 105.183C48.5336 107.017 47.9615 108.804 46.9089 110.306C45.8563 111.808 44.3727 112.956 42.6542 113.597V113.597Z" fill="#FC9D17"/>
<path d="M41.7647 99.8929C40.7058 99.5006 39.5498 99.4544 38.463 99.7607C37.3761 100.067 36.4144 100.71 35.7162 101.598C35.018 102.485 34.6193 103.571 34.5774 104.699C34.5355 105.828 34.8526 106.941 35.4831 107.877C36.1135 108.814 37.0249 109.527 38.086 109.913C39.1472 110.299 40.3034 110.338 41.3884 110.026C42.4735 109.713 43.4314 109.064 44.1244 108.173C44.8174 107.281 45.2098 106.193 45.2451 105.064C45.2504 105.013 45.2504 104.961 45.2451 104.909C45.2529 104.847 45.2529 104.785 45.2451 104.723C45.2003 103.666 44.8468 102.645 44.2283 101.787C43.6098 100.928 42.7533 100.27 41.7647 99.8929V99.8929ZM39.9133 108.26C39.2474 108.26 38.5965 108.063 38.0429 107.693C37.4892 107.323 37.0577 106.797 36.8029 106.182C36.5481 105.567 36.4814 104.89 36.6113 104.237C36.7412 103.584 37.0619 102.984 37.5327 102.513C38.0035 102.042 38.6034 101.722 39.2565 101.592C39.9095 101.462 40.5865 101.529 41.2016 101.783C41.8168 102.038 42.3426 102.47 42.7125 103.023C43.0825 103.577 43.2799 104.228 43.2799 104.894C43.2731 105.787 42.9141 106.642 42.2809 107.272C41.6476 107.903 40.7913 108.258 39.8978 108.26H39.9133Z" fill="#FC9D17"/>
<path d="M110.385 55.5421C110.152 54.906 109.92 54.2699 109.739 53.6132C109.361 52.2479 108.896 51.2653 107.67 50.4482C106.636 49.7294 105.601 49.7139 104.381 49.7139H94.3793C93.0248 49.7219 91.6867 50.0116 90.4501 50.5644C89.2135 51.1173 88.1054 51.9213 87.1961 52.9254C86.4373 53.8645 85.7673 54.8721 85.1948 55.9352C83.7209 58.4123 82.2005 60.8688 80.768 63.3717C79.7337 65.1663 80.1422 68.1088 82.3918 68.807C82.9773 68.9233 83.5767 68.9529 84.1708 68.8949H109.237C110.494 68.8949 111.797 68.7242 112.702 67.7623C113.173 67.2297 113.486 66.5771 113.609 65.877C113.731 65.1768 113.657 64.4565 113.395 63.7958C112.395 61.0549 111.392 58.3037 110.385 55.5421ZM111.063 65.399C111.035 65.612 110.951 65.8138 110.82 65.9833C110.457 66.2339 110.015 66.3408 109.578 66.2833C104.857 66.3557 100.13 66.2833 95.4085 66.2833H83.8657C83.6485 66.2833 83.4261 66.2833 83.2089 66.2833C83.0802 66.1773 82.9805 66.0402 82.9193 65.8851C82.5728 65.0783 83.3848 64.1475 83.7778 63.4907L86.1256 59.5449C87.4961 57.2435 88.7114 54.4303 91.1678 53.127C92.1678 52.6128 93.2756 52.3434 94.4 52.341H105.529C105.62 52.3519 105.71 52.371 105.798 52.3979C106.832 52.8426 106.956 53.4632 107.241 54.4665C107.98 57.0522 109.056 59.5655 109.977 62.084C110.333 63.0666 110.804 64.0647 111.073 65.0732C111.063 65.1042 111.063 65.3059 111.063 65.399Z" fill="#FC9D17"/>
<path d="M139.284 81.1929C138.872 81.1916 138.47 81.3108 138.126 81.5356C137.782 81.7604 137.511 82.0811 137.347 82.458C137.183 82.8349 137.133 83.2516 137.203 83.6567C137.273 84.0617 137.46 84.4373 137.742 84.7372C138.023 85.0371 138.386 85.2481 138.785 85.3441C139.185 85.4402 139.604 85.4172 139.991 85.2778C140.377 85.1385 140.715 84.889 140.961 84.56C141.208 84.2311 141.353 83.8372 141.378 83.427C141.392 83.3413 141.392 83.254 141.378 83.1684C141.339 82.6368 141.103 82.1391 140.715 81.7733C140.327 81.4076 139.816 81.2005 139.284 81.1929V81.1929ZM138.058 83.2977C138.058 81.71 140.426 81.7462 140.509 83.2977C140.426 84.8698 138.058 84.8853 138.058 83.2977V83.2977Z" fill="#FC9D17"/>
<path d="M151.56 86.7688H148.008C148.008 86.2517 148.008 85.7656 147.956 85.2691C147.83 83.0984 147.014 81.0246 145.627 79.3501C144.24 77.6756 142.355 76.488 140.245 75.9605C140.191 75.77 140.12 75.5848 140.033 75.4071C139.392 74.2174 138.527 73.1636 137.484 72.3043C137.364 72.1499 137.21 72.0259 137.034 71.9423L124.994 66.0158L123.665 65.3642C122.062 59.9755 120.457 54.5868 118.851 49.1982C118.55 48.0157 118.036 46.8978 117.336 45.8988C115.924 44.0371 113.762 43.3131 111.481 43.3131C108.622 43.3131 105.762 43.3131 102.902 43.3131H94.0224C93.9223 43.2905 93.82 43.2784 93.7173 43.2769C88.2666 43.3286 83.8139 47.352 80.6593 51.4219C76.8323 56.4431 74.0217 62.1627 72.385 68.2602C71.9605 69.7895 71.6323 71.344 71.4024 72.9145V73.0334H21.7561V73.5454H22.1699V75.764C20.6139 75.8825 19.1069 76.3624 17.7689 77.1654C15.7383 78.4238 14.2082 80.3488 13.4404 82.611C13.0318 83.9927 12.857 85.4329 12.9233 86.8723C12.9233 87.3635 12.9233 87.8497 12.9233 88.341H9.30322C9.18705 88.3423 9.07602 88.389 8.99387 88.4712C8.91172 88.5533 8.86498 88.6644 8.86364 88.7805V92.9539C8.86498 93.0701 8.91172 93.1811 8.99387 93.2632C9.07602 93.3454 9.18705 93.3921 9.30322 93.3935H12.8922C12.8922 93.74 12.8922 94.0916 12.8922 94.4278H8V97.3341H13.2749C13.4814 98.0994 13.7746 98.8385 14.1489 99.5372H12.6595C10.4151 104.429 16.7605 108.66 16.7605 108.66H25.733C25.8768 107.2 26.1204 105.752 26.4622 104.326C26.5412 104.213 26.5942 104.084 26.6173 103.948C27.074 100.853 28.6285 98.0243 30.9972 95.9794C33.3659 93.9345 36.3909 92.8094 39.5202 92.8094C42.6495 92.8094 45.6745 93.9345 48.0432 95.9794C50.4119 98.0243 51.9664 100.853 52.423 103.948C52.4428 104.054 52.4795 104.155 52.5316 104.248V108.484H101.661V104.197C101.701 104.119 101.729 104.035 101.743 103.948C102.195 100.859 103.74 98.0346 106.098 95.988C108.456 93.9415 111.469 92.8091 114.591 92.7966C117.714 92.784 120.736 93.8923 123.11 95.9198C125.485 97.9473 127.052 100.759 127.528 103.845V108.499H135.767V108.675H144.755C144.755 108.675 151.1 104.445 148.856 99.5527H146.735C147.102 98.853 147.388 98.1139 147.589 97.3496H151.726V94.4536H147.987C147.987 93.8744 147.987 93.2952 147.987 92.7264V92.4109H151.576C151.63 92.4118 151.685 92.4017 151.735 92.3813C151.786 92.3608 151.832 92.3305 151.871 92.292V92.292C151.909 92.2533 151.94 92.2072 151.96 92.1566C151.98 92.106 151.99 92.0518 151.99 91.9972V87.2601C151.996 87.1992 151.99 87.1376 151.971 87.0792C151.953 87.0208 151.923 86.9669 151.882 86.9208C151.842 86.8747 151.793 86.8373 151.737 86.8112C151.682 86.7851 151.622 86.7706 151.56 86.7688V86.7688ZM12.9129 92.4988H9.76865V89.2046H12.9233C12.9181 90.3009 12.9129 91.4025 12.9129 92.4988ZM117.134 52.6786C117.703 54.5713 118.261 56.4641 118.825 58.3672C119.57 60.8529 120.311 63.3421 121.049 65.8348H118.773C117.656 61.6976 116.541 57.5691 115.427 53.4491C115.36 53.1906 115.293 52.932 115.22 52.6837L117.134 52.6786ZM73.8899 74.0626C74.0407 72.8442 74.2617 71.6355 74.5518 70.4425C75.2194 67.6432 76.1439 64.9115 77.3134 62.282C79.5682 57.2088 82.6555 52.0063 87.1082 48.5518C88.9544 47.1244 91.1574 46.0384 93.4588 45.966C93.544 45.9826 93.6305 45.9912 93.7173 45.9919H110.783C112.107 45.9919 113.524 45.9919 114.615 46.871C115.422 47.6222 115.979 48.602 116.213 49.6791L116.586 50.941H114.052C113.917 50.9419 113.785 50.9736 113.665 51.0337C113.545 51.0937 113.44 51.1805 113.358 51.2874C113.277 51.3942 113.221 51.5183 113.195 51.6501C113.169 51.7819 113.174 51.9179 113.209 52.0476C114.377 56.3917 115.55 60.7357 116.725 65.0797C116.891 65.7055 117.061 66.3312 117.242 66.9518C117.295 67.1359 117.405 67.2982 117.557 67.4147C117.709 67.5311 117.894 67.5955 118.085 67.5982H122.15H122.186L133.931 73.3799L135.637 74.2177C136.16 74.6606 136.633 75.1582 137.049 75.7019H116.027V66.445C116.027 66.2019 116.027 65.9641 116.027 65.7262C116.048 65.6605 116.048 65.5901 116.027 65.5245C116.022 65.4758 116.008 65.4285 115.986 65.3848C114.776 62.0234 113.569 58.6654 112.366 55.3108L111.88 53.9611C111.362 52.451 111.223 50.61 110.054 49.4309C109.331 48.6462 108.348 48.1501 107.287 48.0346C106.843 48.0346 106.387 48.0346 105.943 48.0346H94.0483C91.5746 47.9734 89.1521 48.7456 87.1702 50.2273C85.6188 51.4167 84.6466 52.9785 83.6847 54.6282C82.4228 56.7692 81.1644 58.9119 79.9095 61.0563L78.358 63.7248C77.9946 64.2729 77.7075 64.8679 77.5047 65.4934C77.4726 65.5541 77.4549 65.6213 77.453 65.69V68.5343C77.2683 68.6085 77.11 68.7364 76.9985 68.9013C76.887 69.0663 76.8273 69.2608 76.8273 69.46V72.8886C76.8279 73.0829 76.8849 73.2728 76.9914 73.4353C77.0979 73.5978 77.2493 73.7259 77.4272 73.804C77.4272 74.4349 77.4272 75.071 77.4272 75.7019H73.8071C73.8278 75.1279 73.8278 74.5797 73.8899 74.0626ZM78.2339 82.854C78.2339 81.4009 78.2339 79.9477 78.2339 78.4945H115.117C115.117 79.6219 115.117 80.7441 115.117 81.8715C115.117 83.335 114.843 84.7158 113.503 85.5949C112.314 86.381 110.809 86.262 109.449 86.5051C108.218 86.7232 107.016 87.0788 105.865 87.5652C102.472 89.0139 99.7563 91.6982 98.2682 95.0742C97.4718 96.8532 95.998 97.541 94.131 97.541H89.9939C87.2892 97.541 84.569 97.6134 81.8643 97.541C80.8789 97.5452 79.9316 97.1602 79.2285 96.4697C78.5255 95.7792 78.1234 94.8391 78.1098 93.8537C78.1098 93.2383 78.1098 92.6178 78.1098 92.0024C78.1098 90.7353 78.1098 89.4683 78.1098 88.1962C78.3202 88.1394 78.5062 88.015 78.6389 87.8421C78.7716 87.6692 78.8437 87.4574 78.8441 87.2394V83.8056C78.8506 83.6039 78.7957 83.405 78.6867 83.2351C78.5778 83.0652 78.4199 82.9324 78.2339 82.854V82.854ZM115.122 75.6967H78.2701V73.8195C78.4637 73.7511 78.6313 73.6243 78.7498 73.4567C78.8684 73.289 78.932 73.0888 78.9321 72.8835V69.4082C78.9318 69.2199 78.8783 69.0354 78.7776 68.8762C78.677 68.7169 78.5333 68.5894 78.3632 68.5084C78.3632 67.6603 78.3632 66.8122 78.3063 65.9744C78.3063 65.902 78.3063 65.8296 78.3063 65.7624C78.6114 64.485 79.6095 63.249 80.2611 62.1423C81.3713 60.2393 82.4866 58.343 83.6071 56.4537C84.269 55.3212 84.8844 54.1266 85.6395 53.0457C86.5481 51.7661 87.75 50.7227 89.1446 50.003C90.5392 49.2832 92.0859 48.9079 93.6553 48.9086C97.2288 48.8775 100.807 48.9086 104.381 48.9086C105.477 48.9086 106.967 48.6552 108.001 49.0792C108.715 49.3659 109.334 49.8459 109.79 50.4652C110.307 51.2357 110.406 52.3476 110.7 53.2371C110.892 53.8215 111.104 54.4007 111.316 54.985C112.598 58.543 113.879 62.1027 115.158 65.6641C115.086 68.979 115.101 72.3249 115.122 75.6709V75.6967ZM67.1618 73.5454H69.1321V75.5623H67.1618V73.5454ZM62.9677 73.5454H64.938V75.5623H62.9677V73.5454ZM58.4116 73.5454H60.382V75.5623H58.4168L58.4116 73.5454ZM54.1762 73.5454H56.1413V75.5623H54.1762V73.5454ZM49.9666 73.5454H51.9369V75.5623H49.9666V73.5454ZM45.757 73.5454H47.7273V75.5623H45.757V73.5454ZM41.5526 73.5454H43.5177V75.5623H41.5526V73.5454ZM37.343 73.5454H39.3082V75.5623H37.343V73.5454ZM32.7817 73.5454H34.7521V75.5623H32.7817V73.5454ZM28.5722 73.5454H30.5425V75.5623H28.5722V73.5454ZM24.3677 73.5454H26.3329V75.5623H24.3677V73.5454ZM145.313 94.4536H143.834V97.3341H144.868C144.624 98.0835 144.25 98.7839 143.762 99.4027C143.73 99.448 143.696 99.4912 143.658 99.532H142.722V99.4751H128.977C127.752 96.7029 125.747 94.3464 123.208 92.6922C120.668 91.038 117.703 90.1573 114.672 90.1573C111.641 90.1573 108.676 91.038 106.136 92.6922C103.597 94.3464 101.593 96.7029 100.368 99.4751H53.8245C52.7964 97.1521 51.2179 95.1146 49.2254 93.5387C47.233 91.9628 44.8866 90.8959 42.3893 90.4305C39.8919 89.965 37.3188 90.115 34.8924 90.8673C32.4661 91.6197 30.2595 92.9518 28.4636 94.7484C27.0895 96.1264 25.9846 97.7487 25.2055 99.532H17.2518C16.9222 99.1334 16.6345 98.7019 16.3933 98.2443C16.2381 97.9495 16.105 97.6435 15.9951 97.329H17.0604V94.4329H15.5607C15.5607 94.3399 15.5607 94.2468 15.5607 94.1537V89.7683C15.5607 86.8154 15.1832 83.6711 17.1122 81.1785C17.8477 80.2624 18.7835 79.5273 19.8477 79.0297C20.912 78.5322 22.0761 78.2853 23.2507 78.3083H71.6765C71.8758 78.4186 72.1003 78.4756 72.3281 78.4738H77.3651V81.3543C77.3651 81.8715 77.3651 82.3886 77.3651 82.9058C77.1995 82.9882 77.0601 83.115 76.9623 83.2721C76.8646 83.4291 76.8125 83.6103 76.8118 83.7953V87.2291C76.8119 87.4077 76.8599 87.583 76.9509 87.7368C77.0418 87.8905 77.1724 88.017 77.3289 88.1031V91.1284C77.3289 93.2952 76.9979 95.6431 78.8235 97.241C79.9509 98.2236 81.2903 98.4046 82.7072 98.4046H92.6158C93.6178 98.4677 94.6234 98.44 95.6204 98.3219C96.7787 98.1099 97.8135 97.4668 98.5165 96.5222C98.9709 95.7626 99.3801 94.9769 99.7421 94.1692C100.685 92.4831 101.98 91.0193 103.538 89.8769C105.751 88.3405 108.323 87.4034 111.006 87.1567C112.288 87.0171 113.431 86.8619 114.455 85.9983C115.322 85.2676 115.877 84.2336 116.006 83.1074C116.059 82.2966 116.068 81.4835 116.032 80.6717V78.4842H129.954C132.85 78.4842 135.793 78.6393 138.683 78.4842C138.811 78.4781 138.937 78.4608 139.061 78.4324C140.724 78.7071 142.246 79.5324 143.384 80.7759C144.521 82.0195 145.208 83.6091 145.334 85.2898C145.458 87.5187 145.334 89.7786 145.334 92.0127C145.339 92.8143 145.355 93.6262 145.324 94.4278L145.313 94.4536ZM151.11 91.5318H147.971C147.971 90.2492 148.013 88.946 148.008 87.6738H151.11V91.5318Z" fill="#FC9D17"/>
<path d="M110.923 71.6045H107.303C107.024 71.6045 106.756 71.7154 106.559 71.9127C106.361 72.1101 106.25 72.3778 106.25 72.6569C106.25 72.936 106.361 73.2037 106.559 73.4011C106.756 73.5984 107.024 73.7093 107.303 73.7093H110.923C111.202 73.7093 111.47 73.5984 111.667 73.4011C111.864 73.2037 111.975 72.936 111.975 72.6569C111.975 72.3778 111.864 72.1101 111.667 71.9127C111.47 71.7154 111.202 71.6045 110.923 71.6045V71.6045Z" fill="#FC9D17"/>
</svg>
