<svg width="48" height="49" viewBox="0 0 48 49" fill="none" xmlns="http://www.w3.org/2000/svg">
<circle cx="30.1443" cy="24.1238" r="16.9411" fill="#383632"/>
<path fill-rule="evenodd" clip-rule="evenodd" d="M1.11523 33.2508C0.56295 33.2508 0.115234 33.6985 0.115234 34.2508V35.4087C0.115234 35.9609 0.562951 36.4087 1.11524 36.4087H30.6942C31.2465 36.4087 31.6942 35.9609 31.6942 35.4087V34.2508C31.6942 33.6985 31.2465 33.2508 30.6942 33.2508H1.11523ZM1.62973 12.0542C0.963206 11.6543 0.115234 12.1344 0.115234 12.9117V29.0929C0.115234 29.6451 0.562951 30.0929 1.11524 30.0929H30.6942C31.2465 30.0929 31.6942 29.6452 31.6942 29.0929V12.9117C31.6942 12.1344 30.8462 11.6543 30.1797 12.0542L24.5339 15.4417C24.1112 15.6953 23.5667 15.6031 23.2511 15.2244L16.6729 7.33052C16.2731 6.85076 15.5363 6.85076 15.1365 7.33052L8.55827 15.2244C8.2427 15.6031 7.69824 15.6953 7.27555 15.4417L1.62973 12.0542ZM4.65762 20.4087C4.32625 20.4087 4.05762 20.6773 4.05762 21.0087V25.8087C4.05762 26.1401 4.32625 26.4087 4.65762 26.4087H27.4576C27.789 26.4087 28.0576 26.1401 28.0576 25.8087V21.0087C28.0576 20.6773 27.789 20.4087 27.4576 20.4087H4.65762Z" fill="#FC9D17"/>
<circle cx="6.61768" cy="40.2681" r="4.73193" transform="rotate(-180 6.61768 40.2681)" fill="#383632"/>
</svg>
