<svg width="48" height="49" viewBox="0 0 48 49" fill="none" xmlns="http://www.w3.org/2000/svg">
<circle cx="30.029" cy="24.1242" r="16.9411" fill="#383632"/>
<path fill-rule="evenodd" clip-rule="evenodd" d="M10.3074 8.28C12.7874 7.60571 15.4229 7 17 7C18.5771 7 21.2126 7.608 23.6926 8.27771C25.9079 8.88738 28.1081 9.55043 30.2914 10.2663C30.9204 10.4744 31.478 10.8556 31.9001 11.3662C32.3222 11.8769 32.5917 12.4962 32.6777 13.1531C34.04 23.3863 30.8788 30.9703 27.0434 35.9874C25.417 38.1336 23.4777 40.0236 21.2903 41.5943C20.5339 42.1378 19.7325 42.6157 18.8949 43.0228C18.2526 43.3245 17.5669 43.5714 17 43.5714C16.4331 43.5714 15.7451 43.3245 15.1051 43.0228C14.4103 42.696 13.592 42.2183 12.7097 41.5943C10.5224 40.0236 8.58305 38.1336 6.95658 35.9874C3.12115 30.9703 -0.0399868 23.3863 1.3223 13.1531C1.40844 12.4965 1.67805 11.8776 2.10016 11.3673C2.52228 10.8571 3.07976 10.4762 3.70858 10.2686C5.21258 9.77714 7.77029 8.96571 10.3074 8.28ZM22.7143 18.4271C22.4108 18.4271 22.1197 18.5477 21.9051 18.7623L15.8571 24.8126L13.2377 22.1908C13.1315 22.0846 13.0053 22.0003 12.8665 21.9428C12.7276 21.8853 12.5788 21.8557 12.4286 21.8557C12.2783 21.8557 12.1295 21.8853 11.9907 21.9428C11.8518 22.0003 11.7257 22.0846 11.6194 22.1908C11.5132 22.2971 11.4289 22.4232 11.3714 22.5621C11.3139 22.7009 11.2843 22.8497 11.2843 23C11.2843 23.1503 11.3139 23.2991 11.3714 23.4379C11.4289 23.5767 11.5132 23.7029 11.6194 23.8091L15.048 27.2377C15.1542 27.3441 15.2803 27.4286 15.4191 27.4862C15.558 27.5438 15.7068 27.5735 15.8571 27.5735C16.0075 27.5735 16.1563 27.5438 16.2952 27.4862C16.434 27.4286 16.5601 27.3441 16.6663 27.2377L23.5234 20.3806C23.738 20.166 23.8586 19.8749 23.8586 19.5714C23.8586 19.2679 23.738 18.9769 23.5234 18.7623C23.3088 18.5477 23.0178 18.4271 22.7143 18.4271ZM17.0002 10.4286C15.6394 10.4286 13.5157 10.9298 11.6818 11.4284C9.75137 11.9501 7.81204 12.5655 6.67671 12.9365L6.67329 12.9376C5.99752 13.1608 5.3984 13.5701 4.94477 14.1184C4.68658 14.4305 4.48148 14.7805 4.33561 15.1542C4.152 15.6246 4.51468 16.0909 5.01533 16.1565L5.54281 16.2257C6.00248 16.2861 6.41044 15.9326 6.70595 15.5754C6.88515 15.3588 7.12171 15.197 7.38855 15.1086C8.5093 14.7424 10.4067 14.1407 12.2807 13.6342C14.1666 13.1215 15.9955 12.7143 17.0002 12.7143C18.0046 12.7143 19.8313 13.1226 21.719 13.6323C23.3613 14.0843 24.9925 14.5759 26.6111 15.1066C26.8783 15.1952 27.1151 15.3573 27.2944 15.5742C27.5901 15.9319 27.9983 16.2858 28.4584 16.2256L28.9852 16.1566C29.4858 16.0911 29.8486 15.6249 29.6652 15.1544C29.5194 14.7805 29.3143 14.4303 29.0562 14.118C28.6026 13.5693 28.0036 13.1597 27.3277 12.9361L27.3249 12.9352C25.6699 12.3925 24.0021 11.8899 22.3229 11.4278L22.3176 11.4264C20.4862 10.9318 18.3611 10.4286 17.0002 10.4286ZM9.1245 34.7189C10.289 36.126 11.6303 37.3786 13.1159 38.4454L15.0926 39.6227C15.5948 39.8594 16.306 40.1428 17.0002 40.1428C17.6952 40.1428 18.4057 39.8587 18.9073 39.623L18.921 39.6164C19.6076 39.2827 20.2645 38.8909 20.8845 38.4455C22.3702 37.3787 23.7115 36.126 24.876 34.7189C25.198 34.3299 25.1174 33.755 24.715 33.45L24.3506 33.1739C23.9482 32.869 23.3764 32.9495 23.0524 33.3369C22.0273 34.5627 20.851 35.6556 19.551 36.589C19.0387 36.9572 18.496 37.2811 17.9287 37.5573C17.4706 37.7719 17.1548 37.8571 17.0002 37.8571C16.8446 37.8571 16.5233 37.7702 16.0656 37.5544C15.6161 37.343 15.0615 37.0216 14.4457 36.5863C13.1471 35.6535 11.9722 34.5615 10.948 33.3369C10.6241 32.9495 10.0523 32.8689 9.64984 33.1739L9.2855 33.45C8.88306 33.755 8.80255 34.3299 9.1245 34.7189Z" fill="#FC9D17"/>
<circle cx="6.50244" cy="40.2681" r="4.73193" transform="rotate(-180 6.50244 40.2681)" fill="#383632"/>
</svg>
