<svg width="48" height="48" viewBox="0 0 48 48" fill="none" xmlns="http://www.w3.org/2000/svg">
<rect width="48" height="48" rx="24" fill="#383632"/>
<path d="M10.875 17.9062C10.875 16.095 12.345 14.625 14.1562 14.625H33.8438C35.655 14.625 37.125 16.095 37.125 17.9062V30.0938C37.125 30.964 36.7793 31.7986 36.1639 32.4139C35.5486 33.0293 34.714 33.375 33.8438 33.375H14.1562C13.286 33.375 12.4514 33.0293 11.8361 32.4139C11.2207 31.7986 10.875 30.964 10.875 30.0938V17.9062ZM18.8644 23.4638C19.1985 23.4638 19.5294 23.3979 19.8381 23.2701C20.1468 23.1422 20.4273 22.9548 20.6635 22.7185C20.8998 22.4823 21.0872 22.2018 21.2151 21.8931C21.3429 21.5844 21.4088 21.2535 21.4088 20.9194C21.4088 20.5852 21.3429 20.2544 21.2151 19.9457C21.0872 19.637 20.8998 19.3565 20.6635 19.1202C20.4273 18.884 20.1468 18.6965 19.8381 18.5687C19.5294 18.4408 19.1985 18.375 18.8644 18.375C18.1896 18.375 17.5424 18.6431 17.0652 19.1202C16.5881 19.5974 16.32 20.2446 16.32 20.9194C16.32 21.5942 16.5881 22.2414 17.0652 22.7185C17.5424 23.1957 18.1896 23.4638 18.8644 23.4638ZM16.2337 24.735C15.8071 24.735 15.3979 24.9045 15.0962 25.2062C14.7945 25.5079 14.625 25.9171 14.625 26.3438C14.6251 27.042 14.8585 27.7203 15.2883 28.2706C15.718 28.821 16.3194 29.2119 16.9969 29.3812L17.0962 29.4075C18.2587 29.6981 19.4719 29.6981 20.6325 29.4075L20.7337 29.3831C21.4112 29.2138 22.0126 28.8229 22.4423 28.2725C22.8721 27.7221 23.1056 27.0439 23.1056 26.3456C23.1059 26.1342 23.0644 25.9248 22.9837 25.7294C22.903 25.534 22.7845 25.3564 22.6351 25.2069C22.4857 25.0573 22.3083 24.9386 22.113 24.8576C21.9176 24.7767 21.7083 24.735 21.4969 24.735H16.2337ZM26.8125 20.25C26.5639 20.25 26.3254 20.3488 26.1496 20.5246C25.9738 20.7004 25.875 20.9389 25.875 21.1875C25.875 21.4361 25.9738 21.6746 26.1496 21.8504C26.3254 22.0262 26.5639 22.125 26.8125 22.125H32.4375C32.6861 22.125 32.9246 22.0262 33.1004 21.8504C33.2762 21.6746 33.375 21.4361 33.375 21.1875C33.375 20.9389 33.2762 20.7004 33.1004 20.5246C32.9246 20.3488 32.6861 20.25 32.4375 20.25H26.8125ZM26.8125 25.875C26.5639 25.875 26.3254 25.9738 26.1496 26.1496C25.9738 26.3254 25.875 26.5639 25.875 26.8125C25.875 27.0611 25.9738 27.2996 26.1496 27.4754C26.3254 27.6512 26.5639 27.75 26.8125 27.75H32.4375C32.6861 27.75 32.9246 27.6512 33.1004 27.4754C33.2762 27.2996 33.375 27.0611 33.375 26.8125C33.375 26.5639 33.2762 26.3254 33.1004 26.1496C32.9246 25.9738 32.6861 25.875 32.4375 25.875H26.8125Z" fill="white"/>
</svg>
