<svg width="24" height="24" viewBox="0 0 24 24" fill="none" xmlns="http://www.w3.org/2000/svg">
<rect x="0.5" y="0.5" width="23" height="23" rx="11.5" fill="white"/>
<path d="M7.74179 7.74259C7.88293 7.60145 8.07436 7.52215 8.27396 7.52215C8.47357 7.52215 8.665 7.60145 8.80614 7.74259L11.9992 10.9356L15.1923 7.74259C15.3334 7.60145 15.5248 7.52215 15.7244 7.52215C15.924 7.52215 16.1155 7.60145 16.2566 7.74259C16.3977 7.88373 16.477 8.07516 16.477 8.27477C16.477 8.47437 16.3977 8.6658 16.2566 8.80694L13.0635 12L16.2566 15.1931C16.3977 15.3342 16.477 15.5256 16.477 15.7252C16.477 15.9248 16.3977 16.1163 16.2566 16.2574C16.1155 16.3986 15.924 16.4778 15.7244 16.4778C15.5248 16.4778 15.3334 16.3986 15.1923 16.2574L11.9992 13.0644L8.80614 16.2574C8.665 16.3986 8.47357 16.4778 8.27396 16.4778C8.07436 16.4778 7.88293 16.3986 7.74179 16.2574C7.60064 16.1163 7.52135 15.9248 7.52135 15.7252C7.52135 15.5256 7.60064 15.3342 7.74179 15.1931L10.9348 12L7.74179 8.80694C7.60064 8.6658 7.52135 8.47437 7.52135 8.27477C7.52135 8.07516 7.60064 7.88373 7.74179 7.74259V7.74259Z" fill="#242424"/>
<rect x="0.5" y="0.5" width="23" height="23" rx="11.5" stroke="#D2D2D2"/>
</svg>
