<svg width="62" height="50" viewBox="0 0 62 50" fill="none" xmlns="http://www.w3.org/2000/svg">
<path d="M0 6.4002C0 2.9902 2.79 0.200195 6.2 0.200195H55.8C57.4443 0.200195 59.0213 0.853407 60.1841 2.01613C61.3468 3.17886 62 4.75585 62 6.4002V43.6002C62 45.2445 61.3468 46.8215 60.1841 47.9843C59.0213 49.147 57.4443 49.8002 55.8 49.8002H6.2C4.55566 49.8002 2.97866 49.147 1.81594 47.9843C0.653212 46.8215 0 45.2445 0 43.6002V6.4002ZM34.1 34.3002L24.8 25.0002L6.2 43.6002H55.8L40.3 28.1002L34.1 34.3002ZM46.5 21.9002C48.1443 21.9002 49.7213 21.247 50.8841 20.0843C52.0468 18.9215 52.7 17.3445 52.7 15.7002C52.7 14.0559 52.0468 12.4789 50.8841 11.3161C49.7213 10.1534 48.1443 9.5002 46.5 9.50019C44.8557 9.5002 43.2787 10.1534 42.1159 11.3161C40.9532 12.4789 40.3 14.0559 40.3 15.7002C40.3 17.3445 40.9532 18.9215 42.1159 20.0843C43.2787 21.247 44.8557 21.9002 46.5 21.9002Z" fill="#E8E8E8"/>
</svg>
