<svg width="62" height="30" viewBox="0 0 62 30" fill="none" xmlns="http://www.w3.org/2000/svg">
<path d="M46.7693 20.8396C46.0842 20.5898 45.3506 20.5019 44.6258 20.583C43.9011 20.6641 43.205 20.9119 42.5921 21.307C41.9791 21.702 41.466 22.2337 41.0928 22.8602C40.7197 23.4868 40.4967 24.1912 40.4414 24.9184C40.386 25.6455 40.4998 26.3756 40.7737 27.0514C41.0477 27.7273 41.4745 28.3305 42.0205 28.8138C42.5666 29.2971 43.2172 29.6474 43.9213 29.8373C44.6254 30.0272 45.3639 30.0514 46.0789 29.9082C48.279 29.4859 49.8499 27.4843 49.8794 25.2757C49.8699 24.3087 49.5676 23.3672 49.0124 22.5753C48.4572 21.7834 47.6752 21.1783 46.7693 20.8396ZM46.3956 28.711C45.6652 28.9768 44.8691 29.0029 44.1229 28.7854C43.3767 28.5679 42.7193 28.1182 42.2461 27.5016C41.7729 26.8849 41.5087 26.1335 41.4916 25.3565C41.4746 24.5794 41.7058 23.8172 42.1515 23.1805C42.5973 22.5437 43.2344 22.0657 43.9704 21.8158C44.7063 21.5658 45.5028 21.557 46.2441 21.7906C46.9854 22.0242 47.633 22.4881 48.0927 23.1148C48.5524 23.7415 48.8003 24.4985 48.8005 25.2757C48.7941 26.0244 48.5608 26.7535 48.1315 27.3668C47.7021 27.9801 47.0969 28.4488 46.3956 28.711Z" fill="#1C1C1C"/>
<path d="M46.0258 23.1157C45.5934 22.9555 45.1215 22.9366 44.6777 23.0617C44.234 23.1867 43.8414 23.4493 43.5563 23.8117C43.2712 24.174 43.1085 24.6174 43.0913 25.0781C43.0742 25.5388 43.2037 25.9931 43.4611 26.3756C43.7185 26.758 44.0906 27.049 44.5238 27.2066C44.9571 27.3643 45.4291 27.3804 45.8721 27.2528C46.3151 27.1251 46.7062 26.8602 46.9892 26.4962C47.2721 26.1322 47.4323 25.6879 47.4467 25.2271C47.4479 25.206 47.4479 25.1849 47.4467 25.1638C47.4467 25.1384 47.4467 25.111 47.4467 25.0877C47.4279 24.6563 47.2834 24.2397 47.0309 23.8894C46.7785 23.539 46.4291 23.2701 46.0258 23.1157ZM45.2699 26.5319C44.9979 26.5324 44.732 26.4521 44.5056 26.3013C44.2793 26.1505 44.1028 25.936 43.9985 25.6849C43.8941 25.4338 43.8666 25.1573 43.9194 24.8906C43.9722 24.6238 44.1029 24.3787 44.2951 24.1862C44.4872 23.9938 44.7321 23.8627 44.9988 23.8095C45.2655 23.7562 45.542 23.7833 45.7933 23.8873C46.0446 23.9913 46.2594 24.1675 46.4105 24.3935C46.5616 24.6196 46.6423 24.8855 46.6423 25.1574C46.6395 25.5207 46.4941 25.8684 46.2374 26.1256C45.9807 26.3827 45.6332 26.5286 45.2699 26.5319Z" fill="#1C1C1C"/>
<path d="M16.1258 20.8396C15.4407 20.5898 14.707 20.5019 13.9823 20.583C13.2576 20.6641 12.5615 20.9119 11.9485 21.307C11.3356 21.702 10.8224 22.2337 10.4493 22.8602C10.0762 23.4868 9.85317 24.1912 9.79781 24.9184C9.74245 25.6455 9.85621 26.3756 10.1302 27.0514C10.4042 27.7273 10.8309 28.3305 11.377 28.8138C11.923 29.2971 12.5736 29.6474 13.2777 29.8373C13.9818 30.0272 14.7203 30.0514 15.4353 29.9082C17.6355 29.4859 19.2064 27.4843 19.2359 25.2757C19.2269 24.3085 18.9249 23.3668 18.3696 22.5748C17.8143 21.7828 17.032 21.1778 16.1258 20.8396ZM15.7521 28.711C15.022 28.9758 14.2265 29.0011 13.4812 28.7832C12.7358 28.5652 12.0792 28.1154 11.6069 27.4989C11.1345 26.8825 10.8709 26.1315 10.8544 25.3551C10.8378 24.5787 11.0692 23.8172 11.5148 23.1811C11.9605 22.5451 12.5972 22.0677 13.3326 21.8182C14.0681 21.5686 14.8639 21.56 15.6046 21.7935C16.3452 22.027 16.9922 22.4904 17.4516 23.1166C17.9109 23.7428 18.1588 24.4991 18.1591 25.2757C18.1525 26.0246 17.9189 26.7539 17.4892 27.3672C17.0594 27.9806 16.4537 28.4491 15.7521 28.711Z" fill="#1C1C1C"/>
<path d="M15.3891 23.1157C14.9567 22.9555 14.4848 22.9366 14.041 23.0617C13.5973 23.1867 13.2046 23.4493 12.9196 23.8117C12.6345 24.174 12.4717 24.6174 12.4546 25.0781C12.4375 25.5388 12.567 25.9931 12.8244 26.3756C13.0818 26.758 13.4539 27.049 13.8871 27.2066C14.3204 27.3643 14.7924 27.3804 15.2354 27.2528C15.6785 27.1251 16.0695 26.8602 16.3525 26.4962C16.6354 26.1322 16.7956 25.6879 16.81 25.2271C16.8122 25.206 16.8122 25.1848 16.81 25.1638C16.8132 25.1385 16.8132 25.113 16.81 25.0877C16.7918 24.6561 16.6475 24.2394 16.3949 23.8889C16.1424 23.5384 15.7927 23.2696 15.3891 23.1157ZM14.6332 26.5319C14.3613 26.5319 14.0956 26.4513 13.8695 26.3003C13.6435 26.1493 13.4673 25.9346 13.3633 25.6834C13.2592 25.4323 13.232 25.1559 13.285 24.8893C13.3381 24.6226 13.469 24.3777 13.6612 24.1855C13.8535 23.9932 14.0984 23.8623 14.365 23.8093C14.6316 23.7563 14.908 23.7835 15.1592 23.8875C15.4103 23.9915 15.625 24.1677 15.7761 24.3938C15.9271 24.6198 16.0077 24.8856 16.0077 25.1574C16.0049 25.5222 15.8583 25.8712 15.5998 26.1285C15.3413 26.3859 14.9916 26.5308 14.6268 26.5319H14.6332Z" fill="#1C1C1C"/>
<path d="M43.4059 5.0075C43.3109 4.74779 43.2159 4.48809 43.142 4.21994C42.9879 3.66253 42.7978 3.26135 42.2974 2.92775C41.8752 2.63426 41.4529 2.62793 40.9546 2.62793H36.8711C36.318 2.63121 35.7717 2.74947 35.2668 2.9752C34.762 3.20092 34.3095 3.52918 33.9383 3.93912C33.6285 4.32256 33.3549 4.73395 33.1212 5.16797C32.5194 6.17934 31.8987 7.18226 31.3138 8.20419C30.8915 8.93686 31.0583 10.1382 31.9768 10.4233C32.2158 10.4708 32.4606 10.4829 32.7031 10.4592H42.9372C43.4503 10.4592 43.9824 10.3895 44.3519 9.99679C44.544 9.77932 44.6721 9.51288 44.7221 9.22702C44.772 8.94116 44.7418 8.64706 44.6348 8.37733C44.2266 7.25828 43.817 6.135 43.4059 5.0075ZM43.6825 9.03187C43.6714 9.11884 43.6371 9.20124 43.5833 9.27046C43.4354 9.37277 43.2548 9.41642 43.0766 9.39292C41.1488 9.42248 39.219 9.39292 37.2912 9.39292H32.5785C32.4899 9.39292 32.3991 9.39292 32.3104 9.39292C32.2578 9.34964 32.2171 9.29369 32.1922 9.23034C32.0507 8.90096 32.3822 8.5209 32.5427 8.25275L33.5012 6.64174C34.0608 5.70216 34.557 4.55355 35.5599 4.02147C35.9681 3.81151 36.4204 3.70151 36.8795 3.70053H41.4233C41.4605 3.70501 41.4973 3.71278 41.5331 3.72376C41.9554 3.90534 42.0061 4.15871 42.1222 4.56833C42.4241 5.62404 42.8633 6.65018 43.2391 7.67844C43.3848 8.07961 43.577 8.48712 43.6867 8.89885C43.6825 8.91151 43.6825 8.99386 43.6825 9.03187Z" fill="#1C1C1C"/>
<path d="M55.2042 15.48C55.0364 15.4795 54.8721 15.5281 54.7316 15.6199C54.5911 15.7117 54.4806 15.8426 54.4136 15.9965C54.3467 16.1504 54.3263 16.3205 54.3549 16.4859C54.3835 16.6513 54.4599 16.8046 54.5747 16.9271C54.6895 17.0495 54.8376 17.1356 55.0008 17.1749C55.164 17.2141 55.3351 17.2047 55.4929 17.1478C55.6508 17.0909 55.7886 16.989 55.8893 16.8547C55.9899 16.7204 56.0491 16.5596 56.0594 16.3921C56.065 16.3572 56.065 16.3215 56.0594 16.2865C56.0435 16.0695 55.9469 15.8663 55.7886 15.717C55.6303 15.5677 55.4218 15.4831 55.2042 15.48ZM54.7038 16.3393C54.7038 15.6911 55.6709 15.7059 55.7046 16.3393C55.6709 16.9812 54.7038 16.9875 54.7038 16.3393Z" fill="#1C1C1C"/>
<path d="M60.2166 17.757H58.766C58.766 17.5458 58.766 17.3474 58.7449 17.1447C58.6936 16.2584 58.3605 15.4117 57.7942 14.7281C57.2279 14.0444 56.458 13.5595 55.5968 13.3441C55.5748 13.2664 55.5458 13.1908 55.5102 13.1182C55.2486 12.6325 54.8951 12.2022 54.4693 11.8514C54.4205 11.7883 54.3576 11.7377 54.2856 11.7036L49.3702 9.28388L48.8276 9.01784C48.173 6.81775 47.5178 4.61766 46.8619 2.41757C46.7389 1.9348 46.5293 1.47837 46.2432 1.07049C45.6668 0.310379 44.7842 0.0147814 43.8531 0.0147814C42.6855 0.0147814 41.5178 0.0147814 40.3502 0.0147814H36.7249C36.684 0.00557332 36.6423 0.000618797 36.6003 0C34.3749 0.0211141 32.557 1.66379 31.269 3.32548C29.7065 5.37553 28.559 7.71074 27.8907 10.2002C27.7174 10.8246 27.5834 11.4593 27.4895 12.1005V12.1491H7.2199V12.3581H7.38881V13.2639C6.75352 13.3123 6.13828 13.5082 5.59199 13.8361C4.76293 14.3499 4.13821 15.1358 3.82473 16.0594C3.6579 16.6235 3.58653 17.2116 3.61359 17.7992C3.61359 17.9998 3.61359 18.1983 3.61359 18.3988H2.13559C2.08817 18.3994 2.04283 18.4185 2.00929 18.452C1.97576 18.4856 1.95667 18.5309 1.95612 18.5783V20.2822C1.95667 20.3297 1.97576 20.375 2.00929 20.4085C2.04283 20.4421 2.08817 20.4612 2.13559 20.4617H3.60092C3.60092 20.6032 3.60092 20.7467 3.60092 20.884H1.60352V22.0706H3.75717C3.84146 22.383 3.96118 22.6848 4.114 22.9701H3.50591C2.58955 24.9675 5.18027 26.6946 5.18027 26.6946H8.84358C8.90228 26.0987 9.00175 25.5075 9.14129 24.9252C9.17355 24.8792 9.19518 24.8265 9.20464 24.7711C9.39109 23.5072 10.0258 22.3524 10.9929 21.5175C11.96 20.6826 13.195 20.2232 14.4726 20.2232C15.7503 20.2232 16.9853 20.6826 17.9524 21.5175C18.9195 22.3524 19.5542 23.5072 19.7406 24.7711C19.7487 24.814 19.7637 24.8554 19.785 24.8936V26.6228H39.8435V24.8724C39.8601 24.8407 39.8714 24.8065 39.8773 24.7711C40.0616 23.5098 40.6924 22.3566 41.655 21.521C42.6177 20.6855 43.8482 20.2231 45.1229 20.218C46.3975 20.2129 47.6317 20.6654 48.601 21.4932C49.5703 22.321 50.2104 23.4691 50.4048 24.7289V26.6291H53.7683V26.7009H57.438C57.438 26.7009 60.0287 24.9738 59.1123 22.9764H58.2466C58.3964 22.6907 58.5133 22.389 58.595 22.0769H60.2842V20.8945H58.7576C58.7576 20.6581 58.7576 20.4216 58.7576 20.1893V20.0605H60.2229C60.2452 20.0609 60.2673 20.0568 60.288 20.0484C60.3087 20.0401 60.3275 20.0277 60.3433 20.012C60.359 19.9962 60.3714 19.9774 60.3797 19.9567C60.3881 19.936 60.3922 19.9139 60.3918 19.8916V17.9576C60.3945 17.9327 60.3919 17.9076 60.3844 17.8837C60.3769 17.8599 60.3645 17.8378 60.348 17.819C60.3316 17.8002 60.3114 17.785 60.2888 17.7743C60.2662 17.7636 60.2416 17.7577 60.2166 17.757ZM3.60937 20.0964H2.32562V18.7515H3.61359C3.61148 19.1991 3.60937 19.6488 3.60937 20.0964ZM46.1609 3.83855C46.3931 4.61132 46.6212 5.3841 46.8513 6.1611C47.1553 7.17599 47.458 8.19228 47.7592 9.20998H46.8302C46.3741 7.52085 45.9188 5.83524 45.4641 4.15315C45.4366 4.04758 45.4092 3.94201 45.3796 3.84066L46.1609 3.83855ZM28.5051 12.5692C28.5667 12.0718 28.657 11.5783 28.7754 11.0913C29.048 9.94834 29.4254 8.83301 29.9029 7.75944C30.8235 5.68815 32.084 3.56407 33.9019 2.15364C34.6557 1.57089 35.5552 1.1275 36.4948 1.09794C36.5296 1.10469 36.5649 1.10823 36.6003 1.10849H43.568C44.1086 1.10849 44.6871 1.10849 45.1326 1.46743C45.4619 1.77413 45.6895 2.17418 45.785 2.61393L45.937 3.12912H44.9025C44.8476 3.1295 44.7936 3.14245 44.7445 3.16697C44.6955 3.19149 44.6527 3.22692 44.6194 3.27055C44.5862 3.31418 44.5634 3.36484 44.5528 3.41865C44.5422 3.47246 44.5441 3.52798 44.5583 3.58095C45.0355 5.35454 45.5141 7.12813 45.9941 8.90172C46.0616 9.1572 46.1313 9.41268 46.2052 9.66605C46.2265 9.74121 46.2716 9.80748 46.3336 9.85503C46.3956 9.90258 46.4712 9.92886 46.5494 9.92997H48.2089H48.2237L53.0188 12.2905L53.7155 12.6326C53.9287 12.8134 54.122 13.0166 54.2919 13.2386H45.709V9.45913C45.709 9.35989 45.709 9.26277 45.709 9.16564C45.7174 9.13884 45.7174 9.1101 45.709 9.0833C45.7069 9.06342 45.7012 9.04409 45.6921 9.02629C45.198 7.65387 44.7054 6.28286 44.2141 4.91326L44.0157 4.36218C43.8045 3.74565 43.7475 2.99398 43.2703 2.51258C42.9751 2.19219 42.5738 1.98966 42.1407 1.9425C41.9591 1.9425 41.7733 1.9425 41.5917 1.9425H36.7355C35.7255 1.91749 34.7364 2.2328 33.9273 2.83774C33.2938 3.32336 32.8969 3.96101 32.5042 4.63455C31.989 5.50868 31.4752 6.38351 30.9628 7.25904L30.3294 8.34853C30.181 8.57229 30.0638 8.81522 29.981 9.07063C29.9679 9.09538 29.9607 9.12285 29.9599 9.15086V10.3121C29.8845 10.3425 29.8199 10.3947 29.7743 10.462C29.7288 10.5294 29.7045 10.6088 29.7044 10.6901V12.09C29.7047 12.1693 29.728 12.2468 29.7715 12.3131C29.8149 12.3795 29.8767 12.4318 29.9494 12.4637C29.9494 12.7213 29.9494 12.981 29.9494 13.2386H28.4714C28.4798 13.0042 28.4798 12.7804 28.5051 12.5692ZM30.2787 16.1586C30.2787 15.5653 30.2787 14.972 30.2787 14.3787H45.3374C45.3374 14.839 45.3374 15.2972 45.3374 15.7575C45.3374 16.355 45.2255 16.9187 44.6786 17.2777C44.193 17.5986 43.5786 17.5501 43.0233 17.6493C42.5209 17.7383 42.0301 17.8835 41.5601 18.0821C40.1747 18.6736 39.0659 19.7695 38.4584 21.1479C38.1332 21.8742 37.5315 22.1551 36.7692 22.1551H35.0801C33.9758 22.1551 32.8652 22.1846 31.761 22.1551C31.3586 22.1568 30.9719 21.9996 30.6848 21.7177C30.3978 21.4357 30.2336 21.0519 30.2281 20.6496C30.2281 20.3984 30.2281 20.145 30.2281 19.8937C30.2281 19.3764 30.2281 18.8591 30.2281 18.3397C30.314 18.3166 30.3899 18.2658 30.4441 18.1952C30.4983 18.1246 30.5277 18.0381 30.5279 17.9491V16.5471C30.5305 16.4648 30.5081 16.3836 30.4636 16.3142C30.4191 16.2449 30.3547 16.1906 30.2787 16.1586ZM45.3395 13.2364H30.2935V12.47C30.3726 12.4421 30.441 12.3903 30.4894 12.3219C30.5378 12.2534 30.5638 12.1717 30.5638 12.0878V10.669C30.5637 10.5921 30.5418 10.5167 30.5007 10.4517C30.4596 10.3867 30.401 10.3347 30.3315 10.3016C30.3315 9.95531 30.3315 9.60904 30.3083 9.26699C30.3083 9.23743 30.3083 9.20787 30.3083 9.18043C30.4329 8.65891 30.8404 8.15428 31.1064 7.70244C31.5597 6.92544 32.015 6.15125 32.4725 5.37988C32.7428 4.91748 32.994 4.42974 33.3023 3.98846C33.6733 3.46601 34.164 3.04002 34.7334 2.74614C35.3027 2.45227 35.9342 2.29905 36.575 2.29933C38.034 2.28666 39.4951 2.29933 40.9541 2.29933C41.4017 2.29933 42.0098 2.19587 42.4321 2.36901C42.7235 2.48605 42.9765 2.68201 43.1626 2.93486C43.3738 3.24946 43.4139 3.70342 43.5342 4.06658C43.6124 4.30517 43.6989 4.54165 43.7855 4.78024C44.3091 6.23289 44.8321 7.68625 45.3543 9.14031C45.3247 10.4937 45.3311 11.8598 45.3395 13.2259V13.2364ZM25.7582 12.3581H26.5626V13.1815H25.7582V12.3581ZM24.0458 12.3581H24.8503V13.1815H24.0458V12.3581ZM22.1857 12.3581H22.9901V13.1815H22.1878L22.1857 12.3581ZM20.4564 12.3581H21.2587V13.1815H20.4564V12.3581ZM18.7377 12.3581H19.5422V13.1815H18.7377V12.3581ZM17.019 12.3581H17.8235V13.1815H17.019V12.3581ZM15.3024 12.3581H16.1048V13.1815H15.3024V12.3581ZM13.5837 12.3581H14.3861V13.1815H13.5837V12.3581ZM11.7214 12.3581H12.5259V13.1815H11.7214V12.3581ZM10.0028 12.3581H10.8072V13.1815H10.0028V12.3581ZM8.28617 12.3581H9.08851V13.1815H8.28617V12.3581ZM57.666 20.8945H57.0621V22.0706H57.4844C57.3848 22.3766 57.2318 22.6625 57.0326 22.9152C57.0197 22.9337 57.0056 22.9513 56.9903 22.9679H56.6082V22.9447H50.996C50.4959 21.8129 49.6777 20.8508 48.6408 20.1754C47.604 19.5 46.3932 19.1404 45.1558 19.1404C43.9184 19.1404 42.7077 19.5 41.6708 20.1754C40.634 20.8508 39.8158 21.8129 39.3156 22.9447H20.3128C19.8931 21.9963 19.2486 21.1644 18.4351 20.521C17.6216 19.8776 16.6636 19.442 15.644 19.252C14.6244 19.0619 13.5739 19.1231 12.5832 19.4303C11.5926 19.7375 10.6917 20.2814 9.95841 21.0149C9.3974 21.5775 8.94628 22.2399 8.62822 22.9679H5.38085C5.24629 22.8052 5.12884 22.629 5.03035 22.4422C4.96697 22.3218 4.91263 22.1969 4.86777 22.0685H5.30273V20.8861H4.69042C4.69042 20.8481 4.69042 20.8101 4.69042 20.7721V18.9816C4.69042 17.776 4.53628 16.4922 5.32384 15.4745C5.62414 15.1005 6.00623 14.8004 6.44073 14.5972C6.87523 14.3941 7.35054 14.2933 7.8301 14.3027H27.6015C27.6828 14.3477 27.7745 14.371 27.8675 14.3703H29.924V15.5463C29.924 15.7575 29.924 15.9686 29.924 16.1798C29.8564 16.2134 29.7995 16.2652 29.7596 16.3293C29.7197 16.3934 29.6984 16.4674 29.6981 16.5429V17.9449C29.6981 18.0178 29.7178 18.0894 29.7549 18.1522C29.792 18.2149 29.8453 18.2666 29.9092 18.3017V19.5369C29.9092 20.4216 29.7741 21.3802 30.5194 22.0326C30.9797 22.4338 31.5266 22.5077 32.1051 22.5077H36.1506C36.5597 22.5334 36.9703 22.5221 37.3773 22.4739C37.8502 22.3873 38.2727 22.1248 38.5597 21.7391C38.7453 21.429 38.9124 21.1082 39.0601 20.7784C39.4453 20.09 39.9738 19.4924 40.6099 19.0259C41.5133 18.3987 42.5637 18.0161 43.6588 17.9153C44.1825 17.8583 44.6491 17.795 45.0671 17.4424C45.421 17.1441 45.6476 16.7219 45.7006 16.2621C45.722 15.931 45.7256 15.5991 45.7111 15.2676V14.3745H51.3951C52.5775 14.3745 53.7789 14.4378 54.9592 14.3745C55.0111 14.372 55.0626 14.365 55.1133 14.3534C55.7922 14.4655 56.4137 14.8025 56.8782 15.3102C57.3426 15.8179 57.6231 16.4669 57.6744 17.1531C57.7251 18.0631 57.6744 18.9858 57.6744 19.898C57.6766 20.2252 57.6829 20.5567 57.6702 20.884L57.666 20.8945ZM60.0329 19.7016H58.7513C58.7513 19.178 58.7682 18.6459 58.766 18.1265H60.0329V19.7016Z" fill="#1C1C1C"/>
<path d="M43.6255 11.5659H42.1475C42.0335 11.5659 41.9242 11.6112 41.8436 11.6918C41.763 11.7723 41.7178 11.8816 41.7178 11.9956C41.7178 12.1096 41.763 12.2188 41.8436 12.2994C41.9242 12.38 42.0335 12.4253 42.1475 12.4253H43.6255C43.7394 12.4253 43.8487 12.38 43.9293 12.2994C44.0099 12.2188 44.0551 12.1096 44.0551 11.9956C44.0551 11.8816 44.0099 11.7723 43.9293 11.6918C43.8487 11.6112 43.7394 11.5659 43.6255 11.5659Z" fill="#1C1C1C"/>
</svg>
