<svg width="62" height="30" viewBox="0 0 62 30" fill="none" xmlns="http://www.w3.org/2000/svg">
<path d="M57.8503 21.0269C57.6422 19.8913 57.1496 18.8221 56.4156 17.9128C55.9477 17.3489 55.4164 16.837 54.8314 16.3867C54.3571 16.0223 53.7855 15.7909 53.259 15.4976C53.1736 15.4517 53.0906 15.399 53.0076 15.3509C53.0883 15.3234 53.1713 15.2936 53.2448 15.273C53.4701 15.218 53.6978 15.1676 53.9254 15.1149L53.4131 14.6772C53.3901 14.66 53.3645 14.6461 53.3373 14.636C52.3888 14.2045 51.3548 13.977 50.3065 13.9692C49.4954 13.9692 48.6867 14.1112 47.8756 14.1754C47.7665 14.1754 47.5745 14.1158 47.5555 14.0494C47.5081 13.8775 47.4606 13.6323 47.5555 13.5155C47.7775 13.2563 48.028 13.0212 48.3025 12.8143C49.1183 12.1268 50.0195 11.6135 51.1128 11.46C51.1423 11.4433 51.167 11.4196 51.1844 11.3911C51.2018 11.3627 51.2114 11.3304 51.2124 11.2973C50.8424 10.1859 50.5294 9.05167 50.0646 7.97926C49.692 7.08224 49.2018 6.23512 48.6061 5.45865C47.7995 4.47738 46.9155 3.55803 45.9618 2.70889C45.2658 2.10384 44.5176 1.55725 43.7254 1.07507C43.1234 0.721265 42.501 0.400712 41.8614 0.114946C41.7105 0.0312257 41.5368 -0.00595789 41.3634 0.00837564C41.1901 0.0227092 41.0254 0.0878734 40.8914 0.195145C40.5974 0.424292 40.2891 0.616775 40.014 0.857379C39.6979 1.11517 39.4145 1.40823 39.1697 1.73043C39.0996 1.83426 39.054 1.95168 39.036 2.07442C39.0179 2.19715 39.028 2.32221 39.0654 2.44078C39.5397 3.30238 40.0543 4.13418 40.5737 4.9614C40.6595 5.05796 40.7796 5.12006 40.9104 5.13555C41.3468 5.21117 41.7926 5.23867 42.2266 5.32345C43.1942 5.51594 43.8867 6.1163 44.5223 6.80145C44.5446 6.83982 44.5583 6.88233 44.5623 6.92617C44.5664 6.97001 44.5609 7.01419 44.546 7.0558C44.3278 7.14975 44.0717 7.39723 43.9318 6.95269C43.8734 6.76531 43.7939 6.58472 43.6946 6.41419C43.665 6.381 43.6287 6.35395 43.5879 6.33465C43.5472 6.31536 43.5028 6.30422 43.4575 6.30191C43.2417 6.28358 42.9452 6.60209 42.8219 6.22171C42.6559 5.71988 42.3879 5.54801 41.8733 5.79091C41.8263 5.80419 41.7775 5.81038 41.7286 5.80924C41.4084 5.83949 41.1104 5.98083 40.8898 6.20707C40.6692 6.43331 40.5409 6.72913 40.5286 7.03976C40.5286 7.18871 40.3768 7.33078 40.2915 7.47514C40.2179 7.38577 40.1444 7.29411 40.0685 7.20475C40.0353 7.16579 40.0045 7.1108 39.9618 7.09705C38.8258 6.735 37.6994 6.32941 36.5468 6.02693C35.5237 5.74566 34.4794 5.54187 33.4235 5.4174C32.5452 5.33412 31.6596 5.35413 30.7863 5.47698C29.7357 5.61905 28.8156 6.16442 28.033 6.81749C27.1697 7.52785 26.4511 8.40548 25.6614 9.21208C25.4741 9.40456 25.3342 9.70474 25.1089 9.78265C24.6512 9.94305 24.1436 9.95909 23.667 10.0782C23.0717 10.2295 22.4812 10.5182 21.8575 10.2936C20.8614 9.93389 19.882 9.5283 18.9073 9.11583C18.6274 9.01973 18.381 8.84987 18.1958 8.62546C17.8593 8.07567 17.5584 7.5063 17.2946 6.92061C17.0338 6.37295 16.6709 5.99256 16.0022 5.9811C15.9747 5.97629 15.9486 5.96582 15.9257 5.9504C15.9028 5.93498 15.8835 5.91497 15.8693 5.89174C15.7721 5.70384 15.6796 5.51365 15.5943 5.32116C15.3571 4.78267 14.7524 4.31062 14.2923 4.33812C13.486 4.38853 12.6844 4.46186 11.878 4.51227C10.9294 4.56956 10.0282 4.99806 9.05354 4.75746C8.82566 4.71382 8.59277 4.69994 8.36107 4.71621C8.26152 4.73816 8.16677 4.77695 8.08121 4.83079C8.11112 4.91233 8.15263 4.98945 8.20454 5.05994C8.58161 5.4449 8.96581 5.8207 9.34526 6.20567C9.36908 6.23731 9.3897 6.27107 9.40689 6.30649C9.38012 6.30966 9.35305 6.30966 9.32627 6.30649C8.91836 6.2492 8.81401 6.35003 8.96104 6.735C9.19147 7.40838 9.47041 8.06535 9.79583 8.70108C10.0733 9.19374 10.3911 9.69787 11.0148 9.91326C12.2195 10.3303 13.4124 10.7794 14.6124 11.2034C14.8686 11.295 15.1768 11.46 15.395 11.389C15.7982 11.2606 15.969 11.4921 16.1895 11.6892C16.8654 12.2964 17.5294 12.9128 18.2124 13.5223C18.7816 14.0196 19.4432 14.4572 19.697 15.1905C20.067 16.2675 20.3682 17.3697 20.6883 18.4627C20.7097 18.5338 20.6504 18.6254 20.629 18.7056C20.5128 18.6575 20.3373 18.6392 20.2899 18.5544C20.1262 18.2611 20.0385 17.9242 19.863 17.6378C19.55 17.1314 19.1966 16.6525 18.8575 16.1598C18.3832 15.7244 17.9705 15.2043 17.4346 14.872C16.6112 14.4081 15.7643 13.9844 14.897 13.6025C14.8804 13.6025 14.8543 13.6025 14.8306 13.6025C14.8382 13.6225 14.8477 13.6416 14.8591 13.6598C15.0085 13.8431 15.1626 14.0242 15.3073 14.2098C15.3329 14.2552 15.3521 14.3037 15.3642 14.3541C15.3146 14.3599 15.2644 14.3599 15.2148 14.3541C14.7113 14.196 14.199 14.0652 13.6804 13.9623C12.5763 13.7921 11.4483 13.8326 10.3603 14.0814C9.21165 14.3402 8.13579 14.8392 7.2085 15.5434C7.13493 15.5784 7.06435 15.619 6.99743 15.6649C5.80176 16.6477 4.90089 17.9226 4.38874 19.3564L4.3745 19.3999C4.3745 19.4229 4.3579 19.4435 4.35079 19.4664C4.34968 19.4732 4.34968 19.4802 4.35079 19.487C4.10521 20.2822 3.98764 21.1092 4.00218 21.9389C4.00321 23.6649 4.57577 25.3454 5.63614 26.7344C6.69651 28.1235 8.18905 29.1482 9.89544 29.6588L9.92153 29.6726L10.1373 29.7276C11.1427 29.9806 12.1868 30.0582 13.2203 29.9567C14.7234 29.7993 16.153 29.247 17.3539 28.3596C18.7784 27.3406 19.8174 25.898 20.3113 24.2533C20.3113 24.2235 20.3682 24.1777 20.3895 24.1799C20.7974 24.2349 21.2029 24.2831 21.6061 24.3564C22.1682 24.4595 22.7231 24.6405 23.2662 24.3358C23.7168 24.0883 24.146 23.9875 24.4733 24.5191C24.4733 24.5191 24.5041 24.5328 24.5065 24.5443C24.5231 24.6405 24.5895 24.7734 24.5468 24.8307C24.1935 25.2363 23.8354 25.6327 23.4488 26.0177C23.3207 26.1483 23.3065 26.2171 23.4938 26.2766C23.7085 26.3617 23.9287 26.4329 24.1531 26.4897C25.7658 26.7808 27.3737 27.0878 28.9935 27.3353C29.9255 27.4774 30.8764 27.5461 31.8203 27.5988C33.3254 27.6859 34.833 27.7501 36.3428 27.7913C37.9602 27.8394 39.5776 27.8555 41.1974 27.8738C41.2377 27.8738 41.3254 27.7592 41.316 27.718C41.1215 27.0007 40.8867 26.2927 40.716 25.5686C40.2179 23.465 40.882 21.6043 42.0677 19.8674C42.1027 19.833 42.1427 19.8037 42.1863 19.7803C42.1987 19.829 42.2043 19.8791 42.2029 19.9293C42.1507 20.2043 42.0938 20.4792 42.0322 20.7519C41.9824 20.9627 42.0488 21.0658 42.2859 21.0819C42.3618 21.0819 42.497 21.1781 42.4946 21.224C42.4661 21.7418 42.3689 22.2597 42.3808 22.7776C42.4141 23.9439 42.7466 25.084 43.3484 26.0956C43.8244 26.9347 44.4619 27.6783 45.2266 28.2863C46.324 29.1912 47.679 29.7543 49.1136 29.9017C50.053 29.9935 51.0015 29.941 51.9238 29.7459C52.8469 29.5339 53.7281 29.1779 54.5326 28.6918C55.9032 27.8463 56.9411 26.5812 57.4804 25.0988C57.9913 23.8007 58.1193 22.3911 57.8503 21.0269ZM47.9159 14.4114C48.3343 14.3166 48.7604 14.2576 49.1895 14.235C50.0287 14.2265 50.8677 14.2709 51.7009 14.3679C52.2132 14.4366 52.7017 14.6841 53.2021 14.856C53.2401 14.856 53.2661 14.9155 53.2993 14.9476C53.2621 14.9749 53.2233 15.0002 53.1831 15.0232C52.5618 15.328 51.8622 15.5388 51.3333 15.9536C50.4132 16.6731 50.1594 17.7386 50.1025 18.8431C50.0883 19.1135 50.1025 19.3839 50.1025 19.6543C50.0964 19.6986 50.0836 19.7419 50.0646 19.7826C50.0385 19.7414 49.9958 19.7024 49.9887 19.6589C49.9294 19.2579 49.8772 18.8569 49.8227 18.4536C49.8371 17.6272 50.1081 16.8241 50.6005 16.1484C50.6551 16.0704 50.7025 15.9857 50.7523 15.9032C50.7528 15.8871 50.7469 15.8715 50.7357 15.8596C50.6954 15.8596 50.6385 15.8596 50.6171 15.8848C50.4603 16.0296 50.324 16.1937 50.2116 16.3729C50.0408 16.7235 49.8084 16.9091 49.3934 16.8312C49.2913 16.817 49.1882 16.8109 49.0851 16.8129C49.1702 16.7458 49.2606 16.6853 49.3555 16.6319C49.5216 16.556 49.6622 16.4365 49.7612 16.2869C49.8602 16.1373 49.9136 15.9638 49.9152 15.7863C49.9318 15.5915 50.1737 15.4151 50.3136 15.2295L50.3895 15.1401C50.3484 15.1301 50.3061 15.1255 50.2638 15.1264C49.6448 15.2272 49.0282 15.3326 48.4092 15.4242C48.3689 15.4249 48.3289 15.4163 48.2927 15.3992C48.2564 15.382 48.2248 15.3569 48.2005 15.3257C48.056 15.0838 47.9254 14.8345 47.8092 14.5787C47.795 14.5489 47.8709 14.4275 47.9159 14.4206V14.4114ZM50.7855 19.3335C50.7855 19.3954 50.6907 19.4595 50.6385 19.5214C50.565 19.4618 50.4369 19.4114 50.425 19.3427C50.3744 19.0667 50.3521 18.7865 50.3586 18.5063C50.3981 18.3535 50.4647 18.2085 50.5555 18.0778L50.7926 18.4879L50.7049 18.5246C50.7452 18.795 50.7784 19.0677 50.7855 19.3427V19.3335ZM50.5009 23.0525C50.523 23.055 50.5453 23.055 50.5673 23.0525C50.5673 23.0686 50.5673 23.0961 50.5507 23.0984C50.4156 23.1396 50.2021 23.2473 50.1547 23.2015C49.9128 22.9797 49.708 22.7231 49.5476 22.4407C49.4147 22.1841 49.4195 21.8656 49.3104 21.5952C49.244 21.4371 49.0732 21.3271 48.9523 21.1781C48.9144 21.1254 48.912 20.9719 48.9523 20.949C49.2278 20.8132 49.5113 20.6931 49.8013 20.5892C49.8464 20.5732 49.9697 20.6648 50.0005 20.729C50.2661 21.3339 50.5199 21.9435 50.7808 22.5622C50.7997 22.6057 50.8519 22.6378 50.8804 22.679C50.9017 22.72 50.9207 22.7621 50.9373 22.8051L51.0345 22.9128C50.952 22.954 50.8643 22.9848 50.7737 23.0044C50.7405 23.0044 50.6978 22.9242 50.6551 22.883C50.6124 22.8417 50.5934 22.8326 50.5626 22.8074L50.3918 23.0044L50.5009 23.0525ZM49.1183 23.5246C48.8865 23.9738 48.6284 24.4099 48.3452 24.8307C48.3262 24.8628 48.2408 24.8559 48.1863 24.8674C48.1863 24.7849 48.1602 24.6864 48.1863 24.6199C48.4235 24.2006 48.6891 23.795 48.912 23.3688C48.9827 23.1869 49.0312 22.9977 49.0567 22.8051L49.0021 22.7913L49.0638 22.5942C49.1065 22.6515 49.1871 22.7088 49.1847 22.7638C49.214 23.0222 49.1914 23.2836 49.1183 23.5338V23.5246ZM48.663 17.9953C48.7126 17.9912 48.7625 17.9988 48.8084 18.0176C48.8543 18.0364 48.8947 18.0657 48.9262 18.103C49.225 18.7263 49.5144 19.3541 49.7847 19.9889C49.8093 20.0473 49.8201 20.1103 49.8164 20.1733C49.8127 20.2363 49.7946 20.2978 49.7634 20.3532C49.6116 20.5319 49.4551 20.4471 49.3436 20.273L49.2606 20.5869C49.1918 20.5205 49.0946 20.4655 49.0567 20.3876C48.8195 19.9155 48.6108 19.4343 48.3808 18.9623C48.3571 18.9142 48.2717 18.8912 48.2171 18.8569C48.212 18.9085 48.2169 18.9605 48.2314 19.0104C48.4685 19.5214 48.7057 20.0255 48.9215 20.5365C48.9428 20.5869 48.8978 20.6648 48.8835 20.729C48.8219 20.7061 48.7199 20.7015 48.6986 20.658C48.3634 19.9537 48.0369 19.2464 47.7191 18.5361C47.7001 18.4948 47.7642 18.4169 47.7903 18.355C47.8521 18.3784 47.9109 18.4083 47.9658 18.4444C47.9966 18.4719 47.9918 18.5361 48.0227 18.5704C48.08 18.6238 48.1402 18.6743 48.2029 18.7217C48.1919 18.658 48.1856 18.5937 48.1839 18.5292C48.1839 18.4123 48.1839 18.3 48.2005 18.1832L48.5278 18.4719C48.4946 18.3 48.2835 18.064 48.663 18.0044V17.9953ZM47.2756 21.0727C47.6646 21.0727 47.8116 21.3362 47.8306 21.657C47.8368 21.7345 47.8255 21.8124 47.7972 21.8851C47.769 21.9579 47.7246 22.0238 47.6672 22.0782C47.6098 22.1326 47.5407 22.1741 47.4649 22.2C47.389 22.2258 47.3082 22.2352 47.2282 22.2276C47.1472 22.2304 47.0664 22.2175 46.9906 22.1897C46.9148 22.1619 46.8455 22.1198 46.7867 22.0658C46.728 22.0118 46.681 21.947 46.6485 21.8753C46.616 21.8035 46.5986 21.7262 46.5974 21.6479C46.6107 21.4856 46.6891 21.3347 46.8157 21.2273C46.9424 21.1199 47.1073 21.0644 47.2756 21.0727ZM46.8511 20.8436C46.8155 20.7496 46.7824 20.6534 46.7468 20.5571L47.0835 20.6763L46.8511 20.8436ZM47.0883 20.6763C47.1547 20.6419 47.2377 20.5663 47.278 20.5823C47.3868 20.6411 47.4893 20.7101 47.5839 20.7886C47.5444 20.8421 47.5016 20.8934 47.4559 20.9421C47.3183 20.8596 47.1974 20.7657 47.0764 20.674L47.0883 20.6763ZM47.7286 20.9902H47.7452L47.7262 21.004L47.7286 20.9902ZM47.712 20.8459C47.9159 20.6992 47.9729 20.6167 48.0321 20.6167C48.0914 20.6167 48.1247 20.6969 48.1745 20.7427C48.1128 20.8 48.063 20.8825 47.9895 20.91C47.916 20.9375 47.8424 20.8848 47.7001 20.8436L47.712 20.8459ZM48.1863 21.1987C48.3784 21.2812 48.5634 21.3775 48.8432 21.515C48.6843 21.5929 48.6369 21.6341 48.6179 21.6227C48.433 21.5333 48.248 21.4371 48.0725 21.3317C48.0345 21.3087 48.0227 21.2423 48.0013 21.1942C48.0618 21.1835 48.1238 21.1843 48.1839 21.1965L48.1863 21.1987ZM48.4804 23.4902C48.5539 23.2611 48.6298 23.0319 48.7175 22.789C48.7419 22.7195 48.7704 22.6514 48.8029 22.5851C48.829 22.6538 48.8551 22.7226 48.8812 22.7959C48.84 23.0507 48.7846 23.3031 48.7151 23.5521C48.6962 23.6185 48.5468 23.6437 48.4567 23.6896C48.4584 23.6189 48.4655 23.5484 48.478 23.4788L48.4804 23.4902ZM48.1958 17.9746C48.1396 17.9607 48.0907 17.9272 48.0583 17.8807C47.8211 17.3926 47.6076 16.9022 47.3823 16.4119C47.0788 15.7496 46.7705 15.0874 46.4741 14.4229C46.4456 14.3587 46.4859 14.2648 46.4954 14.1937C46.5476 14.2373 46.6235 14.2739 46.6519 14.3312C47.1831 15.4678 47.712 16.6059 48.2385 17.7455C48.2551 17.7822 48.2646 17.8234 48.2859 17.8853C48.2551 17.8967 48.2242 17.9678 48.1934 17.9632L48.1958 17.9746ZM47.61 17.9746C47.6361 18.0342 47.6503 18.0984 47.6812 18.1878C47.6385 18.2244 47.5982 18.2886 47.5484 18.2977C47.5184 18.2996 47.4885 18.2943 47.4612 18.2823C47.4339 18.2703 47.4101 18.252 47.3918 18.229C46.8938 17.1589 46.4005 16.0865 45.9239 15.0095C45.8883 14.9293 45.9737 14.7987 46.0045 14.6933C46.0733 14.7597 46.1705 14.8147 46.2084 14.8949C46.6796 15.9077 47.146 16.9282 47.6077 17.9563L47.61 17.9746ZM47.5768 18.4719L47.5436 18.5017C47.5416 18.4903 47.5416 18.4787 47.5436 18.4673C47.5436 18.4673 47.5436 18.4513 47.5578 18.4444L47.5768 18.4719ZM47.5626 20.0759C47.5341 20.092 47.4938 20.1263 47.4772 20.1172C47.2401 20.0049 46.9839 19.888 46.742 19.762C46.7264 19.7478 46.7146 19.7302 46.7076 19.7106C46.7006 19.6911 46.6986 19.6702 46.7017 19.6497C46.7444 19.5626 46.8037 19.4847 46.8891 19.3495L47.5626 20.0759ZM47.7808 20.3669C47.814 20.383 47.8258 20.4403 47.8472 20.4792L47.6527 20.5617C47.2661 20.4265 46.8653 20.289 46.4669 20.1424C46.4481 20.1237 46.4336 20.1014 46.4242 20.0769C46.4148 20.0524 46.4108 20.0264 46.4124 20.0003C46.4812 19.9476 46.5879 19.8605 46.6495 19.8812C47.0385 20.0141 47.4013 20.1836 47.7784 20.3509L47.7808 20.3669ZM46.6306 20.7221C46.6974 20.7739 46.7688 20.8199 46.844 20.8596C46.7444 20.8871 46.6306 20.9604 46.5499 20.9329C46.406 20.8848 46.2748 20.8065 46.1657 20.7038C46.1457 20.6692 46.1331 20.6311 46.1286 20.5918C46.1241 20.5524 46.1279 20.5126 46.1397 20.4746C46.1658 20.454 46.1966 20.4396 46.2296 20.4329C46.2626 20.4261 46.2968 20.4271 46.3294 20.4357C46.4409 20.4884 46.5239 20.6098 46.6282 20.7061L46.6306 20.7221ZM46.1563 20.839C46.2843 20.9513 46.5049 21.1415 46.4717 21.2171C46.3033 21.625 46.3057 21.9733 46.6377 22.3009C46.6851 22.3491 46.6661 22.4705 46.6567 22.5576C46.6282 22.8417 46.5903 23.1236 46.5594 23.4077C46.5594 23.4948 46.5974 23.6369 46.5594 23.6667C46.3789 23.8017 46.1887 23.9242 45.9902 24.0333C45.9493 24.0067 45.9172 23.9693 45.8978 23.9256C45.7863 23.4673 45.6796 23.009 45.5586 22.5072C45.6748 22.0053 45.7958 21.4646 45.931 20.9306C45.9428 20.8665 46.1326 20.7977 46.161 20.8229L46.1563 20.839ZM46.0353 24.2006C46.2582 24.0264 46.493 23.8683 46.7468 23.6987C46.825 23.7721 46.8891 23.8019 46.8986 23.8431C46.9056 23.8737 46.906 23.9053 46.8999 23.936C46.8938 23.9668 46.8812 23.996 46.863 24.0218C46.6661 24.1708 46.4622 24.3106 46.2535 24.4435C46.2301 24.4483 46.2059 24.4472 46.183 24.4404C46.1602 24.4336 46.1396 24.4212 46.1231 24.4045C46.0756 24.3266 46.0211 24.2006 46.0401 24.1845L46.0353 24.2006ZM46.3507 24.8032C46.4883 24.668 46.6424 24.5512 46.825 24.4091L47.0622 24.6887C46.8748 24.7964 46.6922 24.9178 46.5001 25.0049C46.4389 24.9412 46.3899 24.8675 46.3555 24.7872L46.3507 24.8032ZM46.7468 23.0617C46.7541 22.8899 46.8296 22.7273 46.9577 22.6078C47.0857 22.4884 47.2565 22.4211 47.4345 22.4201C47.5233 22.4225 47.6107 22.4417 47.6918 22.4768C47.7728 22.5118 47.846 22.5619 47.907 22.6243C47.968 22.6866 48.0157 22.76 48.0473 22.8401C48.079 22.9203 48.094 23.0057 48.0914 23.0915C48.0841 23.2615 48.0088 23.4221 47.8815 23.5396C47.7541 23.6572 47.5846 23.7224 47.4085 23.7217C47.319 23.7202 47.2307 23.7014 47.1489 23.6664C47.067 23.6314 46.9933 23.5809 46.9321 23.5179C46.8708 23.4548 46.8232 23.3806 46.7922 23.2995C46.7612 23.2183 46.7474 23.132 46.7515 23.0457L46.7468 23.0617ZM47.1998 23.9325C47.5792 23.9325 47.9586 23.9325 48.3381 23.9325C48.3784 23.9325 48.4163 23.9829 48.4567 24.0104C48.3997 24.0654 48.3476 24.157 48.2835 24.1685C48.0969 24.1884 47.9093 24.1991 47.7215 24.2006V24.1777C47.5484 24.1777 47.3752 24.1777 47.2021 24.1777C47.1523 24.1777 47.1096 24.1089 47.0622 24.07C47.112 24.0058 47.157 23.9164 47.2045 23.9164L47.1998 23.9325ZM50.4203 17.9449C50.4203 17.9449 50.425 17.9265 50.425 17.9288L50.4203 17.9449ZM47.8709 15.2982C48.2053 16.059 48.561 16.8106 48.8978 17.5714C48.9018 17.601 48.8989 17.6312 48.8895 17.6597C48.8801 17.6882 48.8643 17.7144 48.8432 17.7363C48.6938 17.7478 48.4353 17.7845 48.4069 17.7363C47.8448 16.5677 47.2993 15.3945 46.7871 14.2052C46.723 14.0539 46.8677 13.8179 46.9389 13.5407C47.131 13.7171 47.2543 13.7698 47.2946 13.8729C47.5128 14.3198 47.6693 14.8101 47.8756 15.2822L47.8709 15.2982ZM40.3982 1.09111C40.6535 0.819965 40.9502 0.588138 41.278 0.403669C41.4582 0.328051 41.7784 0.502203 42.0085 0.612194C42.5326 0.861964 43.0519 1.12548 43.5523 1.41421C45.0588 2.2747 46.3846 3.40101 47.4606 4.73454C47.5506 4.87146 47.6299 5.0147 47.6978 5.16305L47.0693 5.32116C46.6519 5.14014 46.2013 4.96827 45.7768 4.75059C45.4117 4.56286 45.0634 4.34595 44.7357 4.1021C44.399 3.85004 44.1239 3.51319 43.7729 3.28405C43.1065 2.84867 42.4045 2.4637 41.7168 2.05582C41.2828 1.79688 40.8464 1.53795 40.4171 1.26984C40.3999 1.2435 40.3892 1.21364 40.3859 1.18263C40.3826 1.15162 40.3868 1.12029 40.3982 1.09111ZM45.8527 9.00355C46.4053 8.67587 46.493 8.48339 46.1302 7.89677C45.9855 7.66762 45.8029 7.43848 45.6393 7.22308C44.4535 5.89632 43.0472 4.97744 41.1903 4.78267C40.9839 4.75975 40.78 4.45728 40.6282 4.24875C40.282 3.779 39.9642 3.29321 39.6511 2.80284C39.5942 2.71576 39.5729 2.50724 39.6203 2.47974C39.6793 2.4386 39.7461 2.40913 39.8169 2.39301C39.8877 2.37688 39.9611 2.37443 40.0329 2.38579C41.3491 2.81888 42.6867 3.20384 43.8606 3.95545C44.4378 4.36283 45.0388 4.73772 45.6606 5.07826C46.3578 5.41511 47.1025 5.67405 47.9231 5.41969C48.0132 5.3922 48.2005 5.51365 48.2764 5.61447C49.3543 7.06704 50.192 8.67266 50.7594 10.3738C50.8268 10.5938 50.8775 10.8182 50.9112 11.0452C50.9112 11.075 50.8946 11.1117 50.8851 11.1461C50.8551 11.1277 50.828 11.1054 50.8045 11.0796C49.7871 9.8216 48.7792 8.559 47.7499 7.30557C47.4559 6.9481 47.1049 6.63417 46.7752 6.3042C46.7121 6.25101 46.6447 6.20273 46.5737 6.15984C46.6139 6.23392 46.6607 6.30446 46.7136 6.37065C47.2092 6.91602 47.7096 7.45452 48.2053 7.9976C48.2486 8.06082 48.2829 8.12942 48.3072 8.20154C48.2415 8.1635 48.1788 8.1206 48.1199 8.07321C47.463 7.47514 46.8108 6.87019 46.1468 6.28358C46.0638 6.21025 45.9096 6.22171 45.7816 6.18275C45.6383 6.14623 45.4998 6.09395 45.3689 6.02693C44.3752 5.44032 43.3982 4.82162 42.3855 4.26479C41.9449 4.06218 41.4871 3.89659 41.0171 3.76984C40.9819 3.76299 40.9457 3.76299 40.9104 3.76984C40.9168 3.80003 40.9271 3.8293 40.9413 3.85691C41.0082 4.00147 41.0943 4.13703 41.1974 4.26021C41.3003 4.37298 41.4434 4.44415 41.5982 4.45957C42.4851 4.35645 43.1088 4.86974 43.7657 5.29596C44.4653 5.75425 45.1697 6.19879 45.8361 6.69604C46.5025 7.19329 47.1001 7.69512 47.6954 8.23362C48.6796 9.12729 49.6377 10.0508 50.6053 10.9628C50.6398 11.0027 50.6677 11.0476 50.6883 11.0957C50.6381 11.0941 50.5884 11.0848 50.5412 11.0682C49.659 10.5251 48.7839 9.97513 47.8993 9.43664C47.7212 9.33646 47.5329 9.25429 47.3373 9.19145C47.3065 9.17999 47.2377 9.26478 47.1855 9.30373C47.2262 9.35565 47.2741 9.40191 47.3278 9.44122C47.5152 9.53975 47.7096 9.62225 47.897 9.72078C47.9468 9.74828 47.9776 9.81244 48.0203 9.85827C47.9579 9.87563 47.8931 9.88336 47.8282 9.88118C47.6432 9.84452 47.463 9.78723 47.2804 9.75057C46.5689 9.61308 46.0496 10.0416 45.5089 10.3853C45.4076 10.4509 45.291 10.4911 45.1697 10.5022C44.7215 10.5343 44.2709 10.548 43.8203 10.564C43.7613 10.5562 43.7037 10.54 43.6495 10.5159C43.6827 10.4678 43.7041 10.4036 43.7492 10.3738C44.4298 9.91097 45.1128 9.42747 45.8361 9.00355H45.8527ZM42.4258 7.62867C42.6417 7.34682 43.3365 7.30328 43.595 7.55076C43.6235 7.57826 43.6377 7.6745 43.6235 7.68367C43.5025 7.7547 43.3721 7.81428 43.2464 7.87615L43.2227 7.83032C43.0045 7.8624 42.7887 7.90365 42.5681 7.92198C42.5321 7.92128 42.4967 7.91266 42.4647 7.89678C42.4326 7.8809 42.4048 7.85817 42.3831 7.83032C42.3714 7.79622 42.3677 7.76003 42.3722 7.72437C42.3767 7.68871 42.3894 7.65446 42.4092 7.62409L42.4258 7.62867ZM42.727 8.1832C42.8136 8.10562 42.923 8.05597 43.0401 8.04113C43.2331 8.00255 43.4289 7.9788 43.6258 7.9701C43.6827 7.9701 43.742 8.03655 43.8013 8.07321C43.7449 8.17886 43.673 8.2761 43.5879 8.36194C43.1966 8.66441 42.7934 8.94856 42.4021 9.24415C42.3879 9.25561 42.4021 9.32894 42.4235 9.35873C42.5112 9.47789 42.7057 9.62454 42.6772 9.70474C42.6322 9.84681 42.4401 9.94534 42.2859 10.0989C42.1246 9.96368 41.9302 9.86973 41.9325 9.78723C41.9313 9.53742 41.9863 9.29032 42.0938 9.06313C42.2707 8.75058 42.4771 8.45449 42.7104 8.17862L42.727 8.1832ZM41.4464 6.05443C41.6659 5.95658 41.9023 5.89907 42.1436 5.88486C42.1792 5.88486 42.2764 5.97881 42.2669 6.00631C42.2132 6.20798 42.0899 6.38594 41.9175 6.51089C41.7451 6.63585 41.5338 6.70034 41.3183 6.69375L40.8203 6.65709C41.0001 6.4339 41.2044 6.23028 41.4298 6.04985L41.4464 6.05443ZM41.4749 6.97102C41.6883 7.07184 41.9088 7.16121 42.1104 7.27807C42.1602 7.30786 42.1555 7.42244 42.1768 7.50722C42.0938 7.50722 41.9871 7.53701 41.9397 7.50722C41.5839 7.27807 41.2495 7.23224 40.9223 7.54847C40.8986 7.57138 40.8535 7.57367 40.8203 7.58513C40.8071 7.5529 40.7991 7.51889 40.7966 7.48431C40.8203 7.06955 41.0835 6.98706 41.4582 6.95498L41.4749 6.97102ZM40.2891 8.57505C40.5476 8.2382 40.8179 7.90823 41.0907 7.58055C41.2282 7.41098 41.6409 7.52097 41.8282 7.77532C41.7601 7.98005 41.6809 8.18121 41.5911 8.37798C41.444 8.66671 41.2709 8.94168 41.1168 9.22124C41.0863 9.26019 41.0513 9.29556 41.0124 9.32665C40.991 9.28776 40.9647 9.25158 40.9341 9.21895C40.7515 9.06771 40.5594 8.92564 40.3816 8.76066C40.3033 8.70566 40.2511 8.5865 40.2748 8.55672L40.2891 8.57505ZM40.8298 9.34269V9.53746C40.6709 9.64745 40.4859 9.86973 40.3555 9.84223C40.2523 9.81465 40.1577 9.76305 40.08 9.69193C40.0023 9.62082 39.9438 9.53238 39.9096 9.43435C39.9096 9.29686 40.1468 9.03105 40.3152 9.01501C40.4836 8.99897 40.6353 9.2052 40.8156 9.32435L40.8298 9.34269ZM40.2559 8.3986C40.1184 8.5196 39.97 8.62849 39.8124 8.72399C39.414 8.90502 39.0037 9.05626 38.61 9.24187C38.5234 9.3095 38.4659 9.40589 38.4488 9.51226C38.3681 9.80556 38.3112 10.1057 38.2377 10.4013C38.2377 10.4266 38.1594 10.4357 38.1191 10.4518C38.1063 10.4142 38.0961 10.376 38.0883 10.3372C38.0409 9.9843 37.991 9.63371 37.9531 9.28082C37.9531 9.23041 37.9768 9.14104 38.0171 9.12729C38.6646 8.86377 39.3144 8.61171 39.9666 8.35965C39.9926 8.32528 40.0519 8.35277 40.2416 8.38027L40.2559 8.3986ZM26.1689 9.44581C26.8769 8.40211 27.7917 7.50416 28.8606 6.80374C29.5507 6.35919 30.2575 5.96965 31.0946 5.86653L31.1112 5.74738C32.297 5.85737 33.5112 5.89174 34.6875 6.09797C35.8638 6.3042 36.9571 6.67542 38.0859 6.98477C38.4974 7.08825 38.8995 7.22389 39.2883 7.39036C39.4377 7.4591 39.5255 7.67908 39.6061 7.84865C39.5308 7.93597 39.4348 8.00437 39.3262 8.04801C38.6148 8.32528 37.9033 8.59796 37.1918 8.8569C36.6156 9.06771 36.0369 9.27165 35.4488 9.44351C35.3658 9.46872 35.1642 9.33352 35.1144 9.22811C34.7895 8.54067 34.4171 7.89219 33.6345 7.64929C32.9827 7.47551 32.3216 7.33553 31.6543 7.22995C31.3816 7.17496 31.1017 7.14288 30.829 7.08559C30.1626 6.94352 29.5816 7.16808 29.0172 7.46827C28.9356 7.52246 28.8622 7.58723 28.799 7.66075C28.7875 7.67852 28.7825 7.69949 28.7848 7.72033C28.8241 7.74325 28.8675 7.7588 28.9128 7.76616C29.3871 7.76616 29.8614 7.76616 30.3357 7.79366C30.9784 7.83719 31.965 8.73316 32.0883 9.35644C32.0907 9.42291 32.0827 9.48934 32.0646 9.5535L31.9792 9.40685C31.7857 9.04625 31.4996 8.73972 31.1483 8.51663C30.797 8.29354 30.3922 8.16137 29.9729 8.13279C29.9412 8.13336 29.9098 8.13958 29.8804 8.15112C29.898 8.16398 29.9171 8.17475 29.9373 8.1832C30.7555 8.41235 31.1539 9.04021 31.4504 9.74828C31.5172 9.90857 31.575 10.0723 31.6235 10.2387C31.6334 10.3147 31.6334 10.3917 31.6235 10.4678C31.5456 10.4421 31.4709 10.4083 31.4006 10.367C30.9689 10.0622 30.4994 9.77807 29.9563 9.90868C29.2662 10.0691 28.5974 10.3189 27.9239 10.5411C27.5421 10.6694 27.1697 10.8253 26.7903 10.9582C26.7597 10.9693 26.7269 10.9735 26.6944 10.9703C26.6619 10.9671 26.6305 10.9567 26.6029 10.9398C26.3267 10.6781 26.0875 10.3822 25.8915 10.0599C25.8085 9.92701 26.0243 9.636 26.1689 9.44581ZM27.4211 11.1461C28.1326 10.8573 28.844 10.603 29.5555 10.3395C29.7049 10.2982 29.857 10.2668 30.0108 10.2455L31.3057 10.8069C31.3389 10.823 31.3626 10.8551 31.3958 10.8757C31.4931 10.9353 31.5927 10.9925 31.6923 11.0498C31.5874 11.1137 31.4789 11.1718 31.3674 11.224L27.2954 12.9495C26.8733 13.1259 26.4535 13.3046 26.029 13.4696C25.5547 13.6552 25.2369 13.2794 24.8433 13.1374C24.6041 13.0367 24.372 12.9211 24.1484 12.7913C24.0827 12.7475 24.0215 12.6976 23.9658 12.6424C24.0167 12.6016 24.0715 12.5655 24.1294 12.5347C25.2203 12.0672 26.3136 11.5952 27.4092 11.1461H27.4211ZM17.8686 9.48934C18.1816 9.48934 18.5302 9.42976 18.8029 9.53746C19.9199 9.98201 21.0037 10.4976 22.1231 10.9513C22.8179 11.2331 23.4915 10.9353 24.1626 10.7771C24.4282 10.7153 24.682 10.603 24.9452 10.5274C24.9776 10.521 25.0111 10.5223 25.0429 10.5311C25.0747 10.5398 25.1038 10.5559 25.1278 10.5778C25.1377 10.6082 25.14 10.6404 25.1347 10.6718C25.1293 10.7033 25.1164 10.7331 25.097 10.7588C24.4472 11.531 23.565 11.7694 22.3009 11.7671C21.7274 11.6003 21.1644 11.4014 20.6148 11.1713C19.6804 10.7336 18.7864 10.2203 17.8804 9.72766C17.8306 9.70932 17.8686 9.56954 17.8686 9.48934ZM16.7326 6.7075C16.932 6.90052 17.1035 7.11865 17.2425 7.35598C17.4796 7.81428 17.6527 8.29549 17.833 8.7744C17.839 8.82117 17.8326 8.86865 17.8143 8.91235C17.796 8.95606 17.7666 8.99454 17.7286 9.02417C17.578 9.08158 17.4159 9.10585 17.2543 9.09521C16.9698 8.35965 16.7184 7.61034 16.4219 6.7602C16.5666 6.73271 16.6994 6.67542 16.7278 6.7075H16.7326ZM15.6132 5.8734V5.85737V5.8734ZM11.3136 5.05994C11.8401 4.95911 12.3713 4.86516 12.9002 4.76892V4.80329C13.2809 4.81471 13.662 4.79247 14.0385 4.73684C14.75 4.56956 14.999 5.02098 15.2575 5.49302C15.2949 5.55349 15.3282 5.61626 15.3571 5.68092C15.3879 5.75883 15.4069 5.84132 15.433 5.91007C15.3286 5.88028 15.1697 5.88257 15.1294 5.81612C14.8282 5.30283 14.3919 5.27762 13.8251 5.30741C12.9854 5.31365 12.1461 5.2731 11.3112 5.18596C11.2757 5.18596 11.2401 5.1493 11.2045 5.13097C11.2401 5.11264 11.2709 5.06681 11.3089 5.05994H11.3136ZM15.433 10.9582C15.1865 10.9599 14.9485 10.8715 14.7666 10.7107C13.9555 10.0782 13.1706 9.41372 12.369 8.76982C12.2699 8.71111 12.1618 8.66781 12.0488 8.6415C12.0986 8.71712 12.1508 8.79044 12.1935 8.87064C12.2163 8.92197 12.2354 8.97481 12.2504 9.02876C12.1982 9.01501 12.146 9.00584 12.0962 8.98751L10.9247 8.54755C10.8973 8.54185 10.869 8.54185 10.8417 8.54755C10.8433 8.58213 10.8473 8.61658 10.8536 8.65067C10.9047 8.83844 10.9443 9.02896 10.9721 9.22124C10.9721 9.28769 10.8749 9.36331 10.8227 9.43435C10.7611 9.37935 10.6757 9.33352 10.6401 9.26478C10.2156 8.49026 9.7982 7.71345 9.38081 6.93435C9.36951 6.89787 9.36314 6.86013 9.36185 6.82207C9.41402 6.83582 9.48518 6.82207 9.51838 6.86332C9.83142 7.17496 10.1397 7.49576 10.4527 7.8074C10.5268 7.88203 10.6134 7.94401 10.7089 7.99072C11.0757 8.17709 11.4472 8.35812 11.8235 8.5338C11.8752 8.54323 11.9283 8.54323 11.98 8.5338C11.98 8.48568 11.98 8.41694 11.961 8.38944C11.4867 7.93114 11.0124 7.47285 10.5618 7.01456C9.97132 6.42794 9.39031 5.83445 8.80692 5.24325C8.77652 5.20586 8.74952 5.166 8.72626 5.1241C8.77182 5.11205 8.819 5.10664 8.8662 5.10805C10.237 5.28908 11.6101 5.45178 12.9761 5.6603C13.9247 5.80466 14.8425 6.00631 15.7745 6.19421C15.8646 6.21254 15.9381 6.31337 16.0117 6.37524L15.931 6.44398C16.097 7.06726 16.2725 7.68825 16.429 8.31382C16.6344 9.0978 17.1438 9.77548 17.852 10.2066C17.8586 10.2304 17.8602 10.2553 17.8565 10.2797C17.8528 10.3042 17.844 10.3276 17.8306 10.3486C17.0409 10.5755 16.2417 10.8024 15.4282 10.9582H15.433ZM18.6867 11.9023C18.1958 11.7487 17.6931 11.6296 17.1974 11.4852C17.113 11.4486 17.0334 11.4025 16.9603 11.3477C17.0362 11.3032 17.1155 11.2641 17.1974 11.2309C17.629 11.098 18.0607 10.878 18.497 10.8642C18.9086 10.8874 19.3093 11.001 19.6685 11.1965C20.7405 11.6838 21.8014 12.1948 22.8512 12.7295C23.5935 13.1076 24.3144 13.5269 25.0425 13.9348C25.0638 13.9348 25.0425 14.0837 25.0259 14.0906C24.4211 14.3198 23.8116 14.5145 23.2045 14.7231L23.112 14.7391L22.365 14.3083L20.6836 13.3092C20.6366 13.2693 20.5959 13.2229 20.5626 13.1717C20.621 13.166 20.6798 13.166 20.7381 13.1717L22.512 13.4444C22.5334 13.4444 22.5595 13.4261 22.5808 13.4169C22.55 13.3825 22.5263 13.3344 22.4883 13.3184C21.9879 13.0892 21.4946 12.8486 20.98 12.6607C20.2164 12.3812 19.4504 12.1406 18.682 11.9023H18.6867ZM23.1239 16.334C22.8314 16.6746 22.535 17.013 22.2346 17.3491C22.2156 17.3697 22.0875 17.3491 22.078 17.3147C21.9784 17.0306 21.8883 16.7464 21.8124 16.4577C21.8124 16.4265 21.821 16.3958 21.8372 16.3689C21.8535 16.3419 21.8768 16.3196 21.9049 16.3042C22.2701 16.2354 22.6377 16.1804 23.0338 16.1186C23.067 16.1186 23.15 16.1346 23.1689 16.1736C23.1879 16.2125 23.1547 16.2927 23.1191 16.334H23.1239ZM20.5342 16.7923C20.3231 16.1438 20.0314 15.5182 19.7753 14.8835C19.7651 14.8411 19.7571 14.7983 19.7515 14.7551C19.8005 14.7611 19.8484 14.7734 19.8939 14.7918C20.3919 15.1057 20.5436 15.6213 20.7144 16.1231C20.7713 16.2904 20.8164 16.4646 20.8733 16.6319C20.8733 16.6593 20.9397 16.6731 20.9753 16.6937C20.9753 16.6571 21.0061 16.6158 20.9943 16.586C20.8709 16.2629 20.7405 15.9421 20.6195 15.6167C20.6078 15.56 20.6078 15.5016 20.6195 15.4449C20.6646 15.4747 20.7358 15.4953 20.7547 15.5365C20.9587 15.9948 21.1531 16.4646 21.3523 16.9297C21.3715 16.9624 21.3928 16.9938 21.4164 17.0237C21.4212 16.9887 21.4212 16.9533 21.4164 16.9183C21.3405 16.6479 21.2551 16.3798 21.1792 16.1094C21.1675 16.0396 21.1675 15.9684 21.1792 15.8986C21.2219 15.9513 21.2931 15.9971 21.3073 16.0567C21.4994 16.8197 21.6844 17.5828 21.8741 18.3482C21.9002 18.4379 21.9359 18.5246 21.9808 18.6071C22.0135 18.6533 22.0517 18.6956 22.0946 18.7331C22.035 18.7527 21.974 18.768 21.912 18.779C21.1721 18.8546 21.4377 18.2634 21.312 17.9334C21.2883 17.8715 21.2646 17.8097 21.2385 17.7478L21.1697 17.9128C21.2053 18.1419 21.2456 18.3207 21.2575 18.5109C21.2575 18.5819 21.1935 18.6552 21.1579 18.7285C21.082 18.6598 20.9563 18.6048 20.935 18.5246C20.7974 17.954 20.7144 17.3605 20.5294 16.7968L20.5342 16.7923ZM21.7199 19.1021C21.7389 19.1021 21.7602 19.1341 21.7792 19.1525C21.7484 19.1777 21.7223 19.2189 21.6867 19.2281C21.3642 19.3083 21.0393 19.3793 20.7191 19.471C20.6901 19.4901 20.6667 19.5162 20.6513 19.5468C20.6359 19.5773 20.629 19.6112 20.6314 19.6451C20.7002 19.9155 20.8093 20.1768 20.8686 20.4494C20.8804 20.5136 20.7144 20.6075 20.6314 20.6786C20.5742 20.6124 20.5227 20.5419 20.4772 20.4678C20.3421 20.1882 20.2164 19.9064 20.0788 19.6291C20.0788 19.6108 19.9911 19.6291 19.946 19.6291C18.395 19.9957 16.8464 20.3761 15.2883 20.7175C14.9658 20.7886 14.98 20.8779 14.9919 21.1529C14.978 21.5596 14.9232 21.9641 14.8283 22.3605C14.8283 22.3903 14.7713 22.4155 14.7429 22.4407C14.7239 22.4018 14.6859 22.3605 14.6907 22.3239C14.7144 22.0947 14.75 21.8656 14.7713 21.696C14.7713 20.9948 14.6148 20.8802 13.9223 21.0086C13.5263 21.075 13.1302 21.13 12.7365 21.185C12.6986 21.185 12.6559 21.1621 12.6132 21.1483C12.6437 21.1227 12.6781 21.1018 12.7152 21.0865C14.1026 20.6809 15.4899 20.2707 16.882 19.8766C17.9112 19.5856 18.9381 19.2625 19.9864 19.0631C20.5247 18.9646 21.1294 19.0837 21.7152 19.1066L21.7199 19.1021ZM20.5508 20.8023V20.8161V20.8023ZM16.6828 23.8821C16.6828 23.9004 16.6472 23.9325 16.633 23.9302C16.6036 23.9197 16.5769 23.9033 16.5547 23.8821L16.6472 23.7675C16.6635 23.8043 16.6754 23.8427 16.6828 23.8821ZM16.4172 24.4824C16.3624 24.4991 16.3036 24.4991 16.2488 24.4824C15.8528 24.3083 15.4591 24.1318 15.063 23.9485C15.018 23.9256 14.9942 23.8614 14.961 23.8179L15.2907 23.6437C15.6773 23.8202 16.0662 23.9898 16.4409 24.1845C16.4765 24.2029 16.4456 24.3816 16.4101 24.4824H16.4172ZM11.7784 22.0374C11.961 22.372 11.7785 22.3743 11.565 22.3353C10.8061 22.3216 10.8203 22.3353 10.8773 21.6479C10.901 21.3844 11.0101 21.3156 11.2543 21.3591C11.3325 21.3735 11.4119 21.3804 11.4915 21.3798C11.7595 21.3935 12.0749 21.3614 11.7927 21.7762C11.7692 21.8155 11.7551 21.8593 11.7515 21.9045C11.7478 21.9497 11.7546 21.9951 11.7713 22.0374H11.7784ZM12.2717 21.4875C12.3349 21.4662 12.4026 21.4607 12.4686 21.4715C12.5345 21.4824 12.5966 21.5092 12.6489 21.5494C12.7012 21.5897 12.7422 21.6421 12.7679 21.7018C12.7936 21.7615 12.8032 21.8265 12.7958 21.8908C12.7958 22.2047 12.58 22.3491 12.146 22.3628C12.0701 22.2414 11.8662 22.0649 11.8757 21.9045C11.9006 21.8095 11.9491 21.7217 12.0168 21.6487C12.0845 21.5756 12.1696 21.5195 12.2646 21.4852L12.2717 21.4875ZM12.8551 22.1062C12.9215 22.0191 12.8741 21.8495 12.8717 21.7189C12.8653 21.6548 12.8542 21.5913 12.8385 21.5287C12.9901 21.5184 13.1423 21.5184 13.2938 21.5287C13.3389 21.5287 13.3745 21.6318 13.3911 21.6547C13.3888 21.8773 13.3698 22.0994 13.3342 22.3193C13.3125 22.3644 13.2794 22.4036 13.2379 22.4332C13.1965 22.4629 13.1481 22.482 13.097 22.4888C12.8148 22.5003 12.5658 22.4797 12.848 22.1062H12.8551ZM14.7073 19.5856C15.0132 19.4733 15.3215 19.3564 15.6298 19.251C15.7603 19.2052 15.8954 19.1708 16.0282 19.1296C15.9603 19.295 15.8668 19.4496 15.7508 19.5878C15.5826 19.7058 15.4003 19.8035 15.2077 19.8789C14.8757 20.0301 14.7263 19.9041 14.7002 19.5787L14.7073 19.5856ZM15.8931 14.2098C16.4123 14.466 16.9109 14.7593 17.3848 15.0874C17.9741 15.5203 18.5041 16.0238 18.9618 16.586C19.4101 17.1726 19.6923 17.8807 20.0314 18.5429C20.048 18.5727 19.8915 18.6827 19.7824 18.7881C19.7071 18.7119 19.6403 18.6281 19.5832 18.5384C19.181 17.558 18.5712 16.6697 17.7927 15.9307C17.5231 15.6976 17.2388 15.481 16.9413 15.2822C16.9104 15.2593 16.8535 15.2707 16.8109 15.2661C16.8037 15.3056 16.8037 15.3459 16.8109 15.3853C17.2045 16.3869 17.2543 17.4843 16.9531 18.5154C16.8835 18.8151 16.7818 19.1069 16.6496 19.3862C16.5642 19.5374 16.3365 19.6153 16.1753 19.7253C16.1525 19.6456 16.1444 19.5626 16.1516 19.4801C16.3767 18.8246 16.5643 18.1575 16.7136 17.482C16.8464 16.6616 16.5713 15.878 16.2109 15.1309C16.0828 14.8674 15.9144 14.6199 15.7697 14.361C15.751 14.3113 15.7375 14.2598 15.7294 14.2075C15.7887 14.2006 15.8551 14.18 15.8954 14.2029L15.8931 14.2098ZM18.5943 24.2166C18.2362 24.8399 17.9349 25.509 17.4749 26.0498C16.7816 26.8995 15.8593 27.5481 14.8093 27.9242C13.9208 28.2716 12.9625 28.4204 12.0061 28.3596C11.532 28.3012 11.0628 28.2101 10.6022 28.0869C9.19959 27.722 7.96013 26.9215 7.07475 25.8089C6.18938 24.6963 5.70721 23.3332 5.70255 21.9297C5.69019 21.3713 5.7427 20.8133 5.85908 20.2661C5.93734 19.9713 6.03155 19.6806 6.14131 19.3954C6.57816 18.3212 7.32981 17.3934 8.30415 16.7258C9.52549 15.8894 10.8749 15.3876 12.4188 15.4426C13.7219 15.4723 14.9908 15.8524 16.0828 16.5402C16.2227 16.6296 16.4385 16.7693 16.4338 16.877C16.4006 17.4705 16.3128 18.0594 16.2322 18.6483C16.2322 18.6667 16.0709 18.7033 16.0496 18.6804C15.474 18.0537 14.7379 17.5843 13.9152 17.3193C12.9051 16.9813 11.8067 16.9813 10.7966 17.3193C10.7492 17.3353 10.7279 17.427 10.6947 17.4843C10.8203 17.4545 10.946 17.4201 11.0717 17.3972C11.6954 17.2918 11.7002 17.2918 11.6456 17.9265C11.6219 18.213 11.5887 18.5017 11.5508 18.7881C11.5508 18.834 11.4844 18.8752 11.4512 18.921C11.5255 18.9339 11.6009 18.94 11.6765 18.9394C11.8045 18.9394 11.9302 18.9027 12.0559 18.8821C12.0559 18.8821 12.0773 18.8683 12.0891 18.8615C12.0642 18.8507 12.0403 18.8377 12.018 18.8225C11.9184 18.7492 11.7405 18.6735 11.7405 18.5933C11.7386 18.2013 11.7615 17.8095 11.8093 17.4201C11.8093 17.3514 11.9516 17.2987 12.0275 17.2391C12.0725 17.3033 12.1579 17.3697 12.1555 17.4362C12.1555 17.8097 12.1033 18.1809 12.1081 18.5544C12.1081 18.6208 12.2883 18.6988 12.3974 18.7377C12.4401 18.7515 12.5705 18.6667 12.5705 18.63C12.5705 18.2107 12.535 17.7936 12.5231 17.3766C12.5339 17.3057 12.558 17.2374 12.5943 17.1749C12.6915 17.2437 12.8622 17.3032 12.8741 17.3812C12.9413 17.7817 12.9652 18.188 12.9452 18.5933C12.9097 18.9531 13.0947 19.0012 13.365 19.0264C13.2725 18.9073 13.1279 18.7973 13.1041 18.6644C13.0546 18.2436 13.0277 17.8207 13.0235 17.3972C13.0235 17.3628 13.1492 17.2872 13.2037 17.2964C14.2151 17.4663 15.1422 17.9488 15.8456 18.6713C16.0472 18.8729 15.9689 18.9485 15.7603 19.0471C15.4022 19.2166 15.0488 19.4045 14.7049 19.5856L14.5294 19.7253C14.5949 19.7935 14.6552 19.8663 14.7097 19.943C14.7325 19.9942 14.7407 20.0504 14.7334 20.1057C14.1097 20.2524 13.531 20.6328 12.8362 20.4563L12.9026 20.6442C12.3547 20.7977 11.8093 20.9559 11.2591 21.1025C11.2254 21.1084 11.1907 21.1071 11.1576 21.0988C11.1244 21.0905 11.0935 21.0753 11.067 21.0544C10.8298 20.8734 10.9531 20.7336 11.1334 20.5961C11.1654 20.5598 11.1924 20.5198 11.214 20.4769C11.1761 20.493 11.1239 20.4998 11.1025 20.5273C10.9863 20.6786 10.8868 20.8413 10.7682 20.9856C10.3484 21.5012 10.3935 22.058 10.6164 22.6263C10.6164 22.6584 10.7397 22.6699 10.8037 22.6653C10.9484 22.6515 11.1358 22.5599 11.2282 22.6149C11.4796 22.7661 11.6765 22.9953 11.916 23.1625C12.2314 23.3917 12.5373 23.6208 12.9808 23.6002C13.5595 23.5819 14.1405 23.6323 14.7191 23.6598C14.7689 23.6598 14.8164 23.7239 14.8638 23.7583C14.8293 23.7818 14.7968 23.8078 14.7666 23.8362C14.7192 23.8889 14.6765 23.9462 14.6314 24.0035C14.6902 23.9925 14.7496 23.9848 14.8093 23.9806C14.8467 23.9806 14.8837 23.9876 14.9184 24.0012C15.2907 24.1685 15.6559 24.3472 16.0306 24.5076C16.2488 24.6016 16.2417 24.707 16.1041 24.8674C15.3612 25.7353 14.3307 26.3286 13.1871 26.547C13.1326 26.547 12.9879 26.4348 12.9879 26.3752C12.9879 25.9971 13.0235 25.619 13.0306 25.2294C13.0306 25.1584 12.9595 25.0874 12.9215 25.0163C12.8551 24.9708 12.7802 24.9381 12.701 24.9201C12.4946 24.9201 12.2883 24.9201 12.0796 24.9201H11.8069C11.9065 24.9361 12.0037 24.9545 12.1033 24.9659C12.2029 24.9774 12.2646 24.982 12.3405 24.9911C12.2775 25.001 12.2162 25.0188 12.1579 25.0438C12.1371 25.0576 12.1198 25.0756 12.1071 25.0966C12.0944 25.1176 12.0866 25.1411 12.0844 25.1653C12.1057 25.5571 12.1413 25.949 12.1603 26.3408C12.1444 26.4214 12.1147 26.4988 12.0725 26.57C11.9824 26.5104 11.8354 26.46 11.8164 26.3912C11.7571 25.9765 11.7334 25.5571 11.6907 25.1401C11.6762 25.0954 11.6537 25.0535 11.6243 25.0163C11.6005 25.0562 11.5837 25.0995 11.5745 25.1447C11.5935 25.5502 11.6219 25.9558 11.6314 26.3614C11.6314 26.4095 11.5104 26.5104 11.4844 26.4989C10.8844 26.2514 10.2986 25.9948 9.69149 25.7381C9.55157 25.6098 9.38318 25.5296 9.23615 25.4173C9.07923 25.304 8.92955 25.1815 8.78792 25.0507C8.73338 25.0003 8.68122 24.9476 8.62905 24.8949C8.69017 24.7362 8.77922 24.5889 8.89229 24.4595H8.93496C9.27646 24.3129 9.61323 24.1616 9.95236 24.0012C10.0781 24.1272 10.1895 24.2533 10.3318 24.377C10.346 24.3908 10.3887 24.377 10.4172 24.377C10.4172 24.3381 10.4172 24.2785 10.3887 24.2579C10.2274 24.1318 10.0591 24.0127 9.89544 23.8912V23.8339V23.8912L9.83616 23.8362C9.52311 23.9966 9.2077 24.1547 8.88754 24.322C8.85968 24.3404 8.83753 24.3657 8.8235 24.3953C8.67446 24.4769 8.515 24.5393 8.3492 24.581C8.30651 24.5283 8.26619 24.4755 8.22825 24.4206C8.33259 24.3335 8.53892 24.1547 8.70255 23.992H8.72154C8.9587 23.8958 9.19585 23.7744 9.43301 23.6667C9.51601 23.63 9.60375 23.6094 9.71995 23.5704C9.61798 23.4238 9.56816 23.2909 9.46856 23.229C9.40927 23.1923 9.25986 23.229 9.17686 23.2909C8.964 23.417 8.76038 23.5571 8.56739 23.7102C8.55915 23.7185 8.55196 23.7277 8.54602 23.7377C8.33496 23.8225 8.07172 23.9416 7.95314 23.9829C7.91757 23.9187 7.88438 23.85 7.85355 23.7835C7.8655 23.782 7.87646 23.7763 7.88438 23.7675C8.0292 23.583 8.20959 23.4274 8.41561 23.3092C8.5046 23.2723 8.58958 23.227 8.66935 23.174C8.89227 23.0159 9.09386 22.8303 9.23852 22.7157C9.20058 22.2345 9.17211 21.8679 9.14128 21.4989C9.13409 21.4734 9.12373 21.4488 9.11045 21.4256C9.09622 21.4416 9.0749 21.4554 9.0749 21.4714C9.04778 21.6515 9.04778 21.8344 9.0749 22.0145C9.20296 22.4934 9.10809 22.8486 8.61718 23.0755C8.5293 23.1223 8.44933 23.1818 8.38003 23.2519C8.14719 23.3068 7.90823 23.3337 7.66857 23.3321C7.64485 23.2565 7.62113 23.1809 7.59978 23.103C7.57844 23.025 7.55237 22.9173 7.5334 22.8234C7.51443 22.7294 7.50256 22.6332 7.4907 22.5393C7.47884 22.4453 7.46936 22.3468 7.46462 22.2528C7.45987 22.1589 7.46462 22.0924 7.46462 22.0237C7.52865 21.5104 7.58319 20.9948 7.66619 20.4838C7.71125 20.2157 7.82035 19.9499 8.17608 20.2547C8.22901 20.2852 8.28798 20.3048 8.3492 20.3119C8.2449 20.2291 8.14884 20.1371 8.06225 20.037C8.01645 19.9549 7.9829 19.8669 7.96263 19.7757C8.05512 19.7528 8.16659 19.691 8.23537 19.7208C8.41816 19.8052 8.59208 19.9065 8.75472 20.0232C8.96557 20.1552 9.16468 20.3039 9.34998 20.4678C9.4069 20.5228 9.36422 20.6717 9.3666 20.7771L9.54446 20.4655C9.56343 20.4311 9.60374 20.3944 9.59663 20.3669C9.55868 20.2249 9.55395 20.0232 9.45672 19.9614C9.1579 19.7757 8.8164 19.652 8.5081 19.4847C8.41798 19.4366 8.36818 19.3243 8.30178 19.2395C8.43221 19.2212 8.58162 19.1502 8.68834 19.1891C9.0417 19.322 9.37846 19.4985 9.7247 19.6474C9.77802 19.6568 9.83263 19.6568 9.88595 19.6474C9.85754 19.6089 9.82316 19.5749 9.78399 19.5466C9.54683 19.4274 9.30968 19.3175 9.07253 19.2006C8.45118 18.905 8.46778 18.9233 8.98241 18.4559C9.47345 18.0164 10.0465 17.6711 10.6709 17.4384C10.569 17.4384 10.4528 17.388 10.3674 17.4224C9.53556 17.7313 8.81632 18.2701 8.2994 18.9714C7.6164 19.888 7.21561 20.9284 7.35079 22.0947C7.35079 22.2482 7.36977 22.3995 7.38874 22.553C7.41314 22.7471 7.44796 22.9398 7.49307 23.1305C7.53813 23.3206 7.59978 23.5085 7.66144 23.6964C7.71942 23.8875 7.79319 24.0737 7.88201 24.2533C7.97916 24.4296 8.09184 24.5975 8.21878 24.7551C8.34447 24.9155 8.47489 25.0713 8.61481 25.2134C8.75965 25.3751 8.92006 25.5232 9.09386 25.6557C9.17449 25.7175 9.26223 25.7679 9.34998 25.8229L9.41164 25.8527C9.42317 25.8643 9.43806 25.8723 9.45434 25.8756C10.1658 26.146 10.8322 26.5058 11.5579 26.6662C12.5759 26.8765 13.6382 26.7235 14.5484 26.2354C14.8496 26.0544 15.2053 25.9238 15.4377 25.6809C15.9286 25.1653 16.3508 24.5878 16.8132 24.0425C16.8853 23.9445 16.9943 23.8779 17.1168 23.8568C17.565 23.8775 18.0108 23.9256 18.4567 23.9875C18.5184 24.0058 18.6203 24.1685 18.5966 24.2097L18.5943 24.2166ZM12.9239 25.0347C12.9002 25.493 12.8978 25.9352 12.8433 26.382C12.8433 26.4737 12.6346 26.5447 12.5231 26.6112C12.4811 26.5402 12.4522 26.4626 12.4377 26.382C12.4614 25.965 12.4899 25.5457 12.5539 25.1309C12.5658 25.0782 12.7958 25.0599 12.9263 25.0278L12.9239 25.0347ZM9.45672 20.3624C9.47892 20.3184 9.50344 20.2756 9.53022 20.234C9.54919 20.2776 9.56579 20.3005 9.55867 20.3097C9.54122 20.3421 9.52057 20.3727 9.49701 20.4013C9.48516 20.3807 9.45672 20.3624 9.45909 20.3555L9.45672 20.3624ZM19.6994 22.2505C19.3436 22.2139 19.0994 22.0214 19.1587 21.7097C19.1961 21.6033 19.2583 21.5067 19.3406 21.4272C19.4228 21.3478 19.5228 21.2876 19.633 21.2515C19.7032 21.2315 19.7775 21.2286 19.8492 21.2429C19.921 21.2573 19.9879 21.2885 20.0442 21.3338C20.1004 21.3791 20.1443 21.4371 20.1718 21.5027C20.1994 21.5682 20.2098 21.6394 20.2021 21.7097C20.2044 21.8435 20.154 21.973 20.0611 22.0722C19.9682 22.1713 19.8397 22.2326 19.7017 22.2437L19.6994 22.2505ZM20.2899 21.3179C20.2828 21.2816 20.2857 21.2441 20.2982 21.2091C20.3106 21.1742 20.3323 21.143 20.361 21.1185C20.9207 20.8757 21.4899 20.6603 22.052 20.4151C22.1041 20.3922 22.1302 20.3165 22.1824 20.2913C22.34 20.1884 22.5188 20.1196 22.7065 20.0897C22.7848 20.0897 22.9437 20.3738 22.9176 20.4746C22.8607 20.6328 22.6662 20.745 22.531 20.8779L22.4195 20.7313C21.9808 20.9215 21.535 21.0979 21.1105 21.3133C20.9516 21.3866 20.3563 21.4462 20.2923 21.311L20.2899 21.3179ZM22.5689 23.7354C22.5007 23.8098 22.4207 23.8732 22.3318 23.9233C22.1729 23.8523 22.0306 23.8019 21.9025 23.7308C21.4377 23.4681 20.9745 23.2007 20.5128 22.9288C20.4694 22.8972 20.4296 22.861 20.3942 22.8211C20.442 22.8028 20.4887 22.7822 20.5342 22.7592C20.8685 22.5507 21.1199 22.7592 21.3808 22.9173C21.7271 23.1259 22.078 23.3321 22.4195 23.5475C22.493 23.5842 22.5879 23.7056 22.5713 23.7285L22.5689 23.7354ZM22.6377 22.7684C21.9452 22.5782 21.2456 22.4155 20.5555 22.2207C20.4678 22.1978 20.418 22.0466 20.3539 21.9549C20.4488 21.9137 20.5531 21.8266 20.6432 21.8404C21.2053 21.9251 21.765 22.0374 22.3271 22.1291C22.4221 22.1342 22.5169 22.1152 22.6021 22.0741C22.6626 22.0464 22.7295 22.0343 22.7963 22.0389C22.8631 22.0436 22.9275 22.0648 22.9833 22.1005C23.0391 22.1362 23.0844 22.1852 23.1148 22.2428C23.1453 22.3004 23.1599 22.3646 23.1571 22.4293C23.1535 22.4873 23.136 22.5438 23.106 22.5942C23.076 22.6446 23.0344 22.6876 22.9842 22.7198C22.9341 22.752 22.8769 22.7726 22.8172 22.7798C22.7575 22.787 22.6969 22.7808 22.6401 22.7615L22.6377 22.7684ZM23.0954 19.4572C23.0954 19.4572 23.067 19.4572 23.0575 19.4412L22.7895 19.212C22.7895 19.3495 22.7895 19.4893 22.7753 19.6245C22.758 19.7143 22.7326 19.8025 22.6994 19.888C22.6353 19.801 22.5286 19.7207 22.5168 19.6268C22.4266 19.0012 22.3318 18.3757 22.2939 17.7478C22.3267 17.5556 22.4292 17.3809 22.5832 17.2551C23.5318 16.2973 24.4092 15.2753 25.4456 14.4252C26.2045 13.8042 27.146 13.378 28.0401 12.9288C29.0266 12.4339 30.0417 11.987 31.0614 11.554C32.6717 10.8871 34.2962 10.257 35.916 9.61308C36.331 9.4481 36.7484 9.2854 37.1681 9.13417C37.2055 9.12561 37.2444 9.12594 37.2816 9.13512C37.3187 9.1443 37.3531 9.16206 37.3816 9.18687C37.8227 9.64516 37.7871 10.1814 37.6757 10.7313C37.6503 10.8624 37.5793 10.9811 37.4745 11.0678C37.3696 11.1545 37.2373 11.2039 37.0994 11.2079C36.0464 11.3729 34.9934 11.5448 33.95 11.7625C33.6911 11.8412 33.4635 11.9947 33.2978 12.2024C32.9112 12.6447 32.4583 12.5278 32.0077 12.3949C31.7492 12.317 31.5168 12.0741 31.2677 12.0672C30.9452 12.0672 30.6203 12.2185 30.2978 12.2964C30.3129 12.3127 30.3305 12.3266 30.35 12.3376C30.9073 12.5485 31.4622 12.757 32.01 12.9747C32.0314 12.9747 32.0314 13.1076 32.01 13.1099C31.7729 13.1763 31.4812 13.339 31.2725 13.2748C30.7768 13.1259 30.3239 12.8372 29.8306 12.6745C29.6048 12.641 29.374 12.6874 29.1808 12.8051C28.1231 13.3528 27.0796 13.921 26.0361 14.4916C26.0159 14.5183 26.0026 14.5493 25.9972 14.582C25.9919 14.6146 25.9947 14.6481 26.0053 14.6795C26.1974 15.0484 26.4013 15.4128 26.6005 15.7794C26.6054 15.8144 26.6054 15.8499 26.6005 15.8848C26.5714 15.8653 26.5437 15.8439 26.5175 15.8207C26.2662 15.5778 26.0195 15.3349 25.7705 15.092C25.6353 15.0691 25.448 14.982 25.3745 15.037C24.9903 15.3257 24.6346 15.6488 24.2741 15.9536C24.2403 15.9911 24.2131 16.0336 24.1935 16.0796C24.2391 16.1085 24.2875 16.1331 24.3381 16.1529C24.7199 16.2767 25.0923 16.4119 25.2417 16.822C25.2476 16.8662 25.2476 16.9108 25.2417 16.9549C25.1981 16.9464 25.1559 16.9325 25.116 16.9137C24.6844 16.6387 23.7168 16.6204 23.4227 16.8885C23.3749 16.9435 23.3335 17.0034 23.2994 17.0672C23.3621 17.0857 23.4264 17.0987 23.4915 17.1062C23.9658 17.1314 24.4093 17.2414 24.7128 17.6424C24.7306 17.652 24.7506 17.6571 24.7709 17.6571C24.7913 17.6571 24.8113 17.652 24.829 17.6424C25.1326 17.333 25.4314 17.0168 25.7326 16.7029C26.2443 16.3138 26.7788 15.9534 27.3334 15.6236C28.3199 15.1057 29.3468 14.6566 30.3595 14.1823C30.4366 14.1618 30.5168 14.1541 30.5966 14.1594C30.5468 14.2212 30.5112 14.3014 30.4472 14.3358C29.7144 14.7437 28.9531 15.108 28.2488 15.5572C27.4096 16.0938 26.599 16.6712 25.8203 17.2872C25.3931 17.6432 25.0096 18.0453 24.6772 18.4856C24.5756 18.6736 24.5446 18.8899 24.5895 19.0975C24.6986 19.8903 24.8409 20.6763 24.9595 21.4668C24.9595 21.5379 24.9049 21.6204 24.8765 21.696C24.7816 21.641 24.618 21.5929 24.6085 21.5264C24.5462 20.9053 24.261 20.3249 23.8021 19.8857C23.5813 19.7206 23.3456 19.5749 23.0978 19.4504L23.0954 19.4572ZM26.2164 19.9843C26.2306 20.0988 26.2425 20.2638 26.1761 20.3326C25.9958 20.5205 25.9009 20.3807 25.8298 20.202C25.6496 19.7437 25.4907 19.2854 25.2701 18.8477C25.0187 18.3527 25.4172 18.1419 25.6662 17.8555C25.7181 17.7999 25.7762 17.75 25.8393 17.7065C25.8915 17.6699 25.9507 17.6401 26.0077 17.608L26.0527 17.7845L25.901 17.8074C26.01 18.5246 26.1191 19.251 26.2187 19.9774L26.2164 19.9843ZM26.4535 20.5205C26.5247 20.5021 26.6385 20.6511 26.8164 20.7909C26.6195 20.9009 26.5057 21.02 26.399 21.02C26.2923 21.02 26.2306 20.8688 26.1476 20.7909C26.2591 20.6763 26.3468 20.5411 26.463 20.5136L26.4535 20.5205ZM26.731 21.1873C26.8282 21.169 26.9681 21.1208 27.0251 21.1644C27.6086 21.6176 28.3282 21.8764 29.0764 21.9022H29.1784L29.4393 21.9206C29.3651 21.9764 29.2857 22.0255 29.2021 22.0672C28.9081 22.1703 28.6093 22.262 28.2725 22.3697C28.0353 22.1978 27.7982 22.0168 27.561 21.8472C27.3239 21.6777 27.0867 21.5425 26.8496 21.3889L26.6527 21.2606C26.6859 21.2331 26.7073 21.185 26.7405 21.1804L26.731 21.1873ZM28.8654 21.3271C28.514 21.328 28.1659 21.2614 27.8414 21.1312C27.5168 21.001 27.2223 20.8098 26.975 20.5687C26.7276 20.3275 26.5323 20.0413 26.4004 19.7265C26.2686 19.4118 26.2028 19.0749 26.2069 18.7354C26.2061 18.3881 26.2785 18.0443 26.4198 17.7249C26.561 17.4056 26.7681 17.1174 27.0284 16.8779C27.2887 16.6384 27.5967 16.4526 27.9338 16.3319C28.2708 16.2112 28.6297 16.1581 28.9887 16.1758C29.6912 16.2074 30.3525 16.5054 30.8289 17.0053C31.3053 17.5051 31.5585 18.1663 31.5334 18.8454C31.5381 20.1653 30.2504 21.3454 28.8678 21.3202L28.8654 21.3271ZM30.8622 16.5883C30.8111 16.5837 30.762 16.5663 30.7199 16.5379C30.1855 16.0809 29.4882 15.8426 28.7753 15.8734C28.6519 15.8734 28.5381 15.8734 28.4077 15.8596C28.5155 15.7753 28.6297 15.6987 28.7492 15.6305C29.0077 15.5044 29.2756 15.4013 29.5389 15.2799C29.9349 15.1034 30.2503 15.3211 30.459 15.5686C30.6597 15.855 30.826 16.1625 30.9547 16.4852C30.912 16.5379 30.8812 16.5837 30.8646 16.5814L30.8622 16.5883ZM39.3286 23.0319C38.8851 22.9448 38.4464 22.828 38.0053 22.7203L34.1942 21.7693C33.8853 21.7018 33.5811 21.6153 33.2836 21.5104C32.961 21.3821 32.712 21.4875 32.4251 21.6135C31.5417 22.0254 30.6361 22.3911 29.712 22.7088C28.6572 23.0298 27.5833 23.2892 26.4962 23.4856C25.8043 23.5851 25.1063 23.641 24.4069 23.6529C24.276 23.6618 24.1447 23.6422 24.0227 23.5956C23.9468 23.5681 23.9017 23.4673 23.8424 23.3986C23.9137 23.3756 23.9866 23.358 24.0606 23.3459C24.1768 23.3459 24.2978 23.3459 24.4092 23.3459L24.4282 23.4673C25.4077 23.3023 26.3966 23.1832 27.3618 22.9586C28.2883 22.7366 29.1986 22.4556 30.0867 22.1176C30.912 21.8037 31.6922 21.3775 32.5033 21.0269C32.6871 20.9661 32.8858 20.9613 33.0725 21.0131C34.1397 21.2812 35.2069 21.5791 36.2717 21.8495C37.1776 22.0787 38.093 22.2689 38.9966 22.5049C39.191 22.5861 39.3716 22.695 39.5326 22.828C39.4662 22.8921 39.3832 23.0365 39.331 23.025L39.3286 23.0319ZM33.1413 19.6887C33.1721 19.7185 33.1413 19.8055 33.1413 19.8674C33.0844 19.8674 32.9966 19.8674 32.9776 19.8422C32.8614 19.6612 32.7618 19.4733 32.6338 19.2464C32.7434 19.0512 32.867 18.8636 33.0037 18.685C33.0535 18.6254 33.1911 18.6369 33.2883 18.6163C33.2717 18.7606 33.2883 18.9989 33.2266 19.0333C32.8092 19.2189 32.8591 19.4229 33.1436 19.6818L33.1413 19.6887ZM33.0369 18.4627C32.9078 18.5349 32.7981 18.6355 32.7168 18.7563C32.6354 18.8772 32.5847 19.0149 32.5688 19.1582C32.5528 19.3015 32.5721 19.4464 32.625 19.5812C32.6779 19.716 32.763 19.8368 32.8733 19.9339C32.9183 19.9705 32.9349 20.124 32.9065 20.1447C32.8211 20.2065 32.6314 20.2799 32.6148 20.257C32.4037 19.9705 32.214 19.6658 32.1025 19.4962C32.1357 18.8087 32.3207 18.3917 32.7808 18.1465C32.8591 18.1053 33.0464 18.2588 33.1839 18.323C33.1365 18.3642 33.0962 18.4284 33.0464 18.4559L33.0369 18.4627ZM32.6646 17.9472C32.4772 18.1419 32.2851 18.3344 32.093 18.5269C32.0757 18.5395 32.0565 18.5495 32.0361 18.5567L31.9768 18.449C32.0836 18.1671 32.1855 17.8807 32.2994 17.5988C32.3112 17.5668 32.3966 17.5278 32.4108 17.5393C32.5223 17.6248 32.6262 17.719 32.7215 17.8211C32.7357 17.8188 32.6978 17.9059 32.667 17.9403L32.6646 17.9472ZM32.4749 20.4151C32.4872 20.4453 32.4918 20.4781 32.4881 20.5104C32.4844 20.5428 32.4725 20.5738 32.4535 20.6007C32.2662 20.7221 32.0646 20.8298 31.8678 20.9375C31.8346 20.7496 31.7966 20.564 31.7634 20.3784C31.7634 20.3417 31.7634 20.3028 31.7634 20.1882C31.7824 20.0072 31.8085 19.746 31.8369 19.487C31.8444 19.4615 31.8565 19.4375 31.8725 19.416C31.8927 19.4373 31.911 19.4603 31.927 19.4847C32.1144 19.7872 32.3041 20.0943 32.4772 20.4082L32.4749 20.4151ZM41.0551 19.9728C40.5428 20.6305 40.1065 21.3477 39.6322 22.0351C39.5776 22.113 39.4377 22.2047 39.3618 22.1887C38.4132 21.9824 37.4504 21.7693 36.4994 21.5356C35.4037 21.2652 34.3128 20.9765 33.2219 20.6855C33.1792 20.6855 33.1152 20.5411 33.1365 20.5136C34.1326 19.1227 33.3737 17.7203 32.1381 17.0283C32.0646 16.987 31.9745 16.8656 31.9887 16.7991C32.112 16.1896 31.7515 15.7611 31.4172 15.3303C31.2891 15.1699 31.1136 15.0416 30.9808 14.872C30.9664 14.838 30.9612 14.801 30.9657 14.7645C30.9703 14.728 30.9845 14.6932 31.0069 14.6635C31.9792 13.8202 32.9539 12.9792 33.9405 12.1429C34.0707 12.0471 34.2242 11.9856 34.3863 11.9641C35.7547 11.735 37.1231 11.5058 38.4986 11.295C39.5966 11.1346 40.7017 11.0269 41.8021 10.894L42.5136 10.8024V10.8276C43.429 10.7565 44.342 10.6442 45.2598 10.6282C46.2594 10.6037 47.2596 10.6366 48.2551 10.7267C48.9847 10.8332 49.707 10.9824 50.4179 11.1736C50.4775 11.1986 50.532 11.2335 50.5792 11.2767C50.5208 11.2812 50.4629 11.2904 50.4061 11.3042C49.8729 11.4562 49.3521 11.6462 48.848 11.8725C47.7808 12.4385 46.9247 13.2634 46.1278 14.1387C45.1365 15.2272 44.1476 16.3179 43.1776 17.4247C42.4567 18.2611 41.7357 19.0975 41.0575 19.9659L41.0551 19.9728ZM33.4377 18.9073C33.4377 18.9073 33.4401 18.905 33.4401 18.9004L33.4377 18.9073ZM42.6156 20.7244C42.5873 20.7496 42.5531 20.7678 42.5159 20.7774C42.4787 20.787 42.4396 20.7877 42.4021 20.7794C42.3547 20.7634 42.3428 20.658 42.2788 20.5021C42.516 19.8147 42.7341 19.0379 43.0306 18.2977C43.506 17.1696 44.3142 16.2014 45.3547 15.5136C45.4655 15.459 45.5836 15.4197 45.7057 15.3967C45.663 15.5686 45.6796 15.8184 45.5658 15.9009C44.1808 16.932 43.3389 18.2977 42.8575 19.8949C42.8503 19.9435 42.8503 19.9929 42.8575 20.0416C42.8874 20.0188 42.9151 19.9935 42.9405 19.9659C43.7112 19.0494 44.5057 18.1534 45.7033 17.734C45.859 17.7014 46.0186 17.6898 46.1776 17.6997C46.1634 17.8395 46.1397 17.9769 46.1397 18.1167C46.1398 18.1877 46.1668 18.2561 46.2156 18.3092C46.4361 18.504 46.6709 18.6804 46.8914 18.8752C46.9365 18.9119 46.9413 18.9898 46.9626 19.0494C46.8986 19.031 46.8322 19.015 46.7705 18.9921C46.3246 18.8317 45.893 18.5819 45.4353 18.5338C44.8306 18.4627 44.3468 18.8087 43.9555 19.2487C43.5073 19.7322 43.0685 20.2272 42.6179 20.7175L42.6156 20.7244ZM54.8788 26.4806C54.1472 27.2885 53.1983 27.885 52.1373 28.2038C50.9868 28.5709 49.7503 28.6052 48.58 28.3023C47.1935 27.9721 45.9743 27.1751 45.1412 26.0544C44.5057 25.2183 44.0979 24.2412 43.9555 23.2129C43.7634 21.8839 44.0835 20.674 44.6978 19.5099C44.8187 19.2808 44.9349 18.9875 45.1531 18.8798C45.4146 18.7792 45.7032 18.7655 45.9737 18.8408C46.2318 18.9237 46.4727 19.0501 46.6851 19.2143C46.7231 19.2372 46.7278 19.3931 46.6851 19.4435C46.1338 20.0555 45.7584 20.7967 45.5966 21.5929C45.3862 22.5722 45.539 23.5918 46.0282 24.4733C46.097 24.6039 46.1681 24.7322 46.2393 24.8628C46.6323 25.505 47.1988 26.0318 47.878 26.3866C48.9121 26.9575 50.133 27.1245 51.2905 26.8535C52.4479 26.5826 53.4543 25.8941 54.1033 24.9293C54.6276 24.1617 54.8952 23.257 54.8697 22.3377C54.8443 21.4184 54.527 20.5288 53.961 19.7895C53.8211 19.6062 53.6741 19.4274 53.5175 19.2556C53.4891 19.2212 53.4108 19.2258 53.3562 19.2143C53.3738 19.261 53.3995 19.3043 53.4321 19.3427C53.6693 19.5237 53.6883 19.6428 53.3705 19.7803C52.9863 19.9476 52.6282 20.1722 52.2582 20.3715C52.3389 20.4792 52.4219 20.5823 52.4954 20.6946C52.614 20.8642 52.7325 21.0383 52.8416 21.2102C52.8644 21.2341 52.889 21.2563 52.9152 21.2767C52.9152 21.2629 52.9436 21.2469 52.9412 21.2377C52.8179 20.8573 53.2068 20.8596 53.3776 20.7061C53.5197 20.5878 53.6748 20.4848 53.84 20.399C53.9375 20.3591 54.0393 20.3298 54.1436 20.3119C54.1128 20.4334 54.0891 20.5571 54.0488 20.674C54.0345 20.7107 53.98 20.7336 53.9421 20.7634C53.9847 20.7634 54.0392 20.7909 54.0677 20.7634C54.4875 20.4976 54.4424 20.91 54.4993 21.0681C54.8287 21.935 54.8388 22.8851 54.5278 23.7583C54.4989 23.7908 54.4621 23.8158 54.4207 23.831C54.3793 23.8462 54.3346 23.8511 54.2907 23.8454C53.9708 23.6226 53.6365 23.4198 53.2899 23.2382C53.0527 23.1373 53.1997 23.048 53.1926 22.9357C53.1642 22.4774 53.1167 21.9985 53.074 21.531C53.074 21.531 53.0148 21.5173 52.9839 21.5104C52.9958 22.0787 53.0076 22.6561 53.0337 23.2175C53.0337 23.2519 53.1642 23.2771 53.2282 23.3161C53.3942 23.4192 53.5578 23.5292 53.7238 23.6346C53.9077 23.7356 54.0829 23.8505 54.2479 23.9783C54.312 24.0356 54.2906 24.1822 54.3096 24.2876C54.229 24.2913 54.1484 24.2796 54.0724 24.2533C53.7452 24.0562 53.4298 23.8431 53.1073 23.6392C53.0506 23.6095 52.992 23.5835 52.9318 23.5613L52.9104 23.6002C52.8763 23.695 52.8342 23.787 52.7847 23.8752C52.73 23.9487 52.6672 24.0164 52.5974 24.0768C52.6306 24.0768 52.6709 24.1043 52.697 24.0929C52.7231 24.0814 52.7468 24.0264 52.7776 24.0173C52.8254 24.0022 52.8769 24.0022 52.9247 24.0173C53.2828 24.1754 53.6361 24.3358 53.9966 24.5099C54.0511 24.5374 54.0677 24.6337 54.1009 24.6978C53.999 24.7345 53.8638 24.8307 53.795 24.8009C53.444 24.6612 53.1072 24.487 52.761 24.3289C52.7014 24.3133 52.6401 24.3048 52.5784 24.3037C52.6175 24.35 52.6629 24.3909 52.7136 24.4251C53.0195 24.5626 53.3254 24.6955 53.6337 24.8284C53.833 24.9132 53.9207 24.9659 53.731 25.1974C53.0814 25.9753 52.1774 26.5166 51.1673 26.7326C50.8946 26.7991 50.776 26.7624 50.8211 26.4554C50.8508 26.1622 50.865 25.8677 50.8638 25.5732C50.8563 25.5258 50.8402 25.48 50.8164 25.438C50.7882 25.4808 50.7682 25.5281 50.7571 25.5777C50.731 25.9123 50.7286 26.2514 50.6835 26.5837C50.6835 26.6731 50.5341 26.7464 50.4464 26.8266C50.4061 26.7441 50.3326 26.6593 50.3349 26.5791C50.3349 26.2423 50.3752 25.9054 50.3823 25.5709C50.3823 25.5159 50.3183 25.4517 50.2685 25.4082C50.2187 25.3646 50.1784 25.3853 50.1333 25.3761C50.1879 25.3761 50.2424 25.3601 50.2946 25.3463L51.6132 25.0163C51.4021 25.0622 51.1887 25.1011 50.9823 25.1607C50.4037 25.3462 49.776 25.33 49.2084 25.1149C49.1458 25.1033 49.0814 25.1033 49.0187 25.1149C49.0661 25.1492 49.1088 25.2088 49.161 25.2134C49.4503 25.2478 49.5191 25.4219 49.5167 25.6717C49.5167 25.9719 49.5594 26.2698 49.5476 26.5677C49.5476 26.6387 49.3768 26.7716 49.3104 26.7579C48.3025 26.5626 47.392 26.0452 46.7254 25.289C46.5713 25.1103 46.5926 25.0163 46.8061 24.9453C47.1428 24.833 47.4132 24.4641 47.8377 24.6864C47.9034 24.7345 47.966 24.7865 48.025 24.8422C48.1436 24.927 48.2622 25.0713 48.3902 25.0713C48.5183 25.0713 48.6274 24.9476 48.7223 24.8536C48.9594 24.597 49.1966 24.322 49.4337 24.0654C49.4693 24.0264 49.5665 24.0287 49.6353 24.0356C49.8891 24.0562 50.1405 24.086 50.3942 24.1089C50.4311 24.1044 50.4665 24.0927 50.4985 24.0745L50.3918 24.0241C50.195 23.9393 49.9934 23.8591 49.799 23.7675C49.7871 23.7523 49.7789 23.7347 49.7752 23.716C49.7715 23.6974 49.7724 23.6781 49.7776 23.6598C49.8545 23.5888 49.9426 23.53 50.0385 23.4856C50.3134 23.3718 50.5944 23.2724 50.8804 23.1877C51.3167 23.0709 51.1175 22.8028 51.0464 22.5759C50.9302 22.1864 50.7879 21.8014 50.6693 21.4096C50.654 21.3216 50.654 21.2317 50.6693 21.1438C50.7651 21.176 50.8634 21.2005 50.9634 21.2171C51.0517 21.2185 51.14 21.2108 51.2266 21.1942C51.0174 21.1594 50.8257 21.0595 50.6805 20.9098C50.5354 20.7601 50.4449 20.5686 50.4227 20.3647C50.3895 20.1355 50.3918 19.8789 50.38 19.636L51.1602 19.7299C51.2029 19.7299 51.2456 19.7437 51.2907 19.7528C51.2575 19.7162 51.2314 19.6566 51.1934 19.6497C50.8519 19.5878 50.859 19.3541 50.8661 19.0952C50.8733 18.8362 50.8211 18.5452 50.8234 18.2725C50.8234 18.213 50.9539 18.0938 51.0037 18.103C51.7811 18.244 52.5075 18.5771 53.112 19.07C53.1606 19.0976 53.2134 19.1177 53.2685 19.1296C53.2448 19.0768 53.2353 19.0058 53.195 18.9714C52.4757 18.3946 51.5997 18.0302 50.6717 17.9219C50.61 17.9219 50.5128 17.6378 50.5555 17.5347C50.7009 17.2064 50.8763 16.8912 51.0796 16.5929C51.1204 16.5527 51.1705 16.5225 51.2257 16.5046C51.2809 16.4866 51.3397 16.4816 51.3974 16.4898C52.8503 16.7484 54.1566 17.5081 55.0732 18.6277C55.8604 19.5506 56.329 20.6884 56.4132 21.8816C56.494 22.7074 56.3998 23.5405 56.1364 24.33C55.873 25.1196 55.4459 25.8489 54.8812 26.4737L54.8788 26.4806ZM50.0266 26.6364C50.0266 26.7006 49.9223 26.7647 49.863 26.8289C49.7966 26.767 49.6804 26.7097 49.6733 26.641C49.6377 26.2606 49.6235 25.8779 49.6116 25.4953C49.6253 25.4498 49.6525 25.4091 49.6899 25.3784C49.7776 25.4265 49.9128 25.4655 49.927 25.5388C49.9632 25.6891 49.9823 25.8428 49.9839 25.9971H49.9697C50.0015 26.2067 50.0213 26.4178 50.029 26.6295L50.0266 26.6364ZM53.8875 19.9041C53.8519 19.9614 53.8329 20.0438 53.7807 20.0713C53.4464 20.2501 53.1049 20.4151 52.7681 20.5846L52.6187 20.658C52.5572 20.5938 52.5046 20.5221 52.4622 20.4449C52.4504 20.4105 52.5025 20.3234 52.5476 20.3005C52.9009 20.1149 53.259 19.9316 53.6219 19.7757C53.6788 19.7437 53.7997 19.8514 53.8898 19.8972L53.8875 19.9041Z" fill="#1C1C1C"/>
<path d="M10.6885 17.4737L10.692 17.4702L10.6885 17.4737Z" fill="#1C1C1C"/>
<path d="M10.19 22.8868C10.0537 22.9144 9.91599 22.9351 9.7774 22.9486C9.76317 22.9486 9.74658 22.9303 9.72998 22.9211V23.038C9.80195 23.1651 9.88113 23.2883 9.96713 23.4069C10.0169 23.478 10.145 23.588 10.164 23.5765C10.3205 23.4734 10.5173 23.368 10.5766 23.219C10.6193 23.1136 10.4628 22.9349 10.3964 22.7905C10.3317 22.8302 10.2624 22.8625 10.19 22.8868Z" fill="#1C1C1C"/>
<path d="M10.8661 24.2349L11.1578 23.6552C11.12 23.6204 11.0805 23.5875 11.0392 23.5566C10.8756 23.7056 10.7191 23.8637 10.5649 24.0149L10.8661 24.2349Z" fill="#1C1C1C"/>
<path d="M13.1661 24.9772C13.4815 24.8397 13.7922 24.6976 14.1028 24.551C14.1218 24.551 14.1194 24.4891 14.1289 24.457C14.1024 24.4592 14.0762 24.4638 14.0507 24.4708L13.1305 24.858L13.0688 24.9359C13.102 24.952 13.1447 24.9864 13.1661 24.9772Z" fill="#1C1C1C"/>
<path d="M9.22305 20.8387C9.22305 20.8387 9.22303 20.7768 9.20406 20.77C8.92896 20.6256 8.65149 20.4858 8.37402 20.3438C8.62778 20.5179 8.88155 20.6921 9.13768 20.8616C9.15428 20.8731 9.19934 20.857 9.22305 20.8387Z" fill="#1C1C1C"/>
<path d="M12.5691 20.0708L12.2134 20.1831L12.5881 20.1258L12.5691 20.0708Z" fill="#1C1C1C"/>
<path d="M12.7017 20.137C12.6851 20.137 12.6662 20.1141 12.6519 20.1164H12.5879L12.6045 20.1645L12.7017 20.137Z" fill="#1C1C1C"/>
<path d="M11.5014 20.4054C11.7385 20.3344 11.9757 20.2588 12.2129 20.1763C11.9567 20.2152 11.7006 20.2565 11.4468 20.3C11.4208 20.3 11.4042 20.3665 11.3828 20.4008C11.4219 20.4081 11.4619 20.4097 11.5014 20.4054Z" fill="#1C1C1C"/>
<path d="M11.4209 23.825C11.4422 23.864 11.4849 23.9029 11.4825 23.9419C11.4769 24.0695 11.4619 24.1967 11.4375 24.3223C11.4176 24.3721 11.3896 24.4185 11.3545 24.4597L11.5584 24.5537C11.5833 24.5044 11.6008 24.4519 11.6106 24.3979C11.6106 24.2489 11.6106 24.1023 11.6106 23.9121C11.5728 23.8795 11.5332 23.849 11.492 23.8204C11.4778 23.809 11.4446 23.8227 11.4209 23.825Z" fill="#1C1C1C"/>
<path d="M14.1174 19.2986L13.3608 19.019L14.1174 19.2986Z" fill="#1C1C1C"/>
<path d="M12.358 23.7098C12.4434 23.7098 12.5501 23.7098 12.6545 23.6869C12.6911 23.6789 12.7269 23.6674 12.7612 23.6525C12.7209 23.6525 12.6829 23.6342 12.6426 23.6296C12.4884 23.6158 12.3343 23.5998 12.1683 23.5952C12.0766 23.598 11.9853 23.6087 11.8956 23.6273C11.8956 23.6273 11.8766 23.6479 11.8647 23.6594C11.9311 23.6708 11.9975 23.6869 12.0639 23.6937C12.1304 23.7006 12.2489 23.7029 12.358 23.7098Z" fill="#1C1C1C"/>
<path d="M10.3608 19.5068C10.3789 19.5068 10.3967 19.5029 10.413 19.4953C10.5696 19.3968 10.7237 19.296 10.8873 19.1929L10.368 19.4701C10.368 19.4701 10.3608 19.4953 10.3608 19.5068Z" fill="#1C1C1C"/>
<path d="M11.108 22.9239C11.0665 22.8564 11.0197 22.7921 10.9681 22.7314L10.8447 22.8987L11.0819 23.05C11.0937 23.0018 11.1222 22.9537 11.108 22.9239Z" fill="#1C1C1C"/>
<path d="M10.707 24.5918L11.0414 24.8209L11.1742 24.7384C11.0367 24.672 10.8967 24.6032 10.7568 24.5391C10.7545 24.5482 10.7236 24.578 10.707 24.5918Z" fill="#1C1C1C"/>
<path d="M14.3119 24.3968C14.4186 24.3326 14.5229 24.2638 14.6557 24.1676C14.5965 24.1332 14.5656 24.108 14.5585 24.1149C14.4613 24.1882 14.3688 24.2684 14.2739 24.344C14.2882 24.3693 14.3119 24.399 14.3119 24.3968Z" fill="#1C1C1C"/>
<path d="M11.5896 23.2721C11.5042 23.2446 11.4212 23.2125 11.3334 23.1919C11.3097 23.1919 11.2765 23.2148 11.248 23.2263C11.2907 23.2744 11.3358 23.3202 11.388 23.3752L11.5896 23.2721Z" fill="#1C1C1C"/>
<path d="M14.409 19.5327C14.3608 19.4758 14.3093 19.4215 14.2549 19.37C14.2141 19.3413 14.1694 19.3182 14.1221 19.3013C14.1861 19.3792 14.2478 19.4617 14.3166 19.5304C14.3308 19.5488 14.3758 19.5327 14.409 19.5327Z" fill="#1C1C1C"/>
<path d="M9.26043 22.9747C9.29087 23.033 9.3283 23.0876 9.37192 23.1374C9.37192 23.1122 9.40511 23.0824 9.398 23.0595C9.37111 22.9732 9.33944 22.8883 9.30313 22.8052C9.27705 22.9014 9.2462 22.9472 9.26043 22.9747Z" fill="#1C1C1C"/>
<path d="M11.2452 18.9645C11.1938 18.9996 11.1454 19.0387 11.1006 19.0814L11.3377 18.9874C11.3022 18.9645 11.2642 18.9462 11.2452 18.9645Z" fill="#1C1C1C"/>
<path d="M9.26533 20.9829L9.18945 21.1273L9.22503 21.2854C9.25349 21.2029 9.28194 21.1227 9.30328 21.0402C9.30802 21.0264 9.27956 21.0012 9.26533 20.9829Z" fill="#1C1C1C"/>
<path d="M10.1067 19.7387C10.1471 19.7162 10.1852 19.6901 10.2205 19.6607C10.185 19.6355 10.1565 19.6058 10.147 19.6103C10.1127 19.6314 10.0802 19.6552 10.0498 19.6814C10.0688 19.702 10.0972 19.7409 10.1067 19.7387Z" fill="#1C1C1C"/>
<path d="M11.0966 19.0742L10.8926 19.1888H10.8784H10.8926L11.0966 19.0742Z" fill="#1C1C1C"/>
<path d="M12.6516 18.8219C12.6073 18.8095 12.5622 18.8003 12.5165 18.7944C12.4754 18.7976 12.4348 18.8053 12.3955 18.8173L12.5378 18.8586L12.6516 18.8219Z" fill="#1C1C1C"/>
<path d="M10.3398 23.7349L10.3778 23.8219L10.4347 23.7555L10.3398 23.7349Z" fill="#1C1C1C"/>
<path d="M14.3592 20.0388L14.2833 19.9746C14.2833 19.9906 14.2549 20.0067 14.2549 20.0204C14.2625 20.0462 14.2737 20.0709 14.2881 20.0938L14.3592 20.0388Z" fill="#1C1C1C"/>
<path d="M10.0195 22.7241L9.95068 22.747L10.0147 22.7997L10.0195 22.7241Z" fill="#1C1C1C"/>
<path d="M11.4214 24.8989L11.4712 24.9379L11.5494 24.8943C11.5305 24.8943 11.5115 24.8645 11.4949 24.8668C11.469 24.8742 11.4442 24.885 11.4214 24.8989Z" fill="#1C1C1C"/>
<path d="M10.3708 20.0847H10.3589L10.4561 20.0343L10.4111 19.9541L10.3708 20.0847Z" fill="#1C1C1C"/>
<path d="M9.90296 19.9448H9.7583L9.81759 20.0434L9.90296 19.9448Z" fill="#1C1C1C"/>
<path d="M11.3451 24.0767L11.2432 24.1271H11.3499L11.3451 24.0767Z" fill="#1C1C1C"/>
<path d="M10.0217 20.9091C10.0217 20.9091 10.043 20.8953 10.0619 20.8816C10.0809 20.8678 10.0335 20.8609 10.0264 20.8632C10.0193 20.8655 10.0051 20.8793 9.99557 20.8861C9.98608 20.893 10.0145 20.9091 10.0217 20.9091Z" fill="#1C1C1C"/>
<path d="M10.6885 20.3528C10.707 20.3609 10.726 20.3678 10.7454 20.3735C10.7454 20.3735 10.7667 20.3597 10.7762 20.3551C10.7635 20.3439 10.7492 20.3346 10.7336 20.3276C10.7336 20.3276 10.7122 20.3391 10.6885 20.3528Z" fill="#1C1C1C"/>
<path d="M9.64941 22.8208L9.7182 22.9124C9.71882 22.9063 9.71882 22.9002 9.7182 22.8941L9.67312 22.7979L9.64941 22.8208Z" fill="#1C1C1C"/>
<path d="M10.7296 23.4647C10.7296 23.4647 10.7175 23.446 10.7102 23.4437C10.7029 23.4426 10.6955 23.4426 10.6883 23.4437C10.6879 23.4515 10.6879 23.4592 10.6883 23.467L10.7296 23.4647Z" fill="#1C1C1C"/>
<path d="M9.52344 21.8902H9.63727L9.53053 21.8765L9.52344 21.8902Z" fill="#1C1C1C"/>
<path d="M12.3008 24.0607C12.3008 24.0607 12.3008 24.0817 12.3008 24.084C12.3008 24.0863 12.3178 24.084 12.325 24.084V24.0537L12.3008 24.0607Z" fill="#1C1C1C"/>
<path d="M10.0718 21.9078H10.0828L10.0959 21.8931L10.0718 21.9078Z" fill="#1C1C1C"/>
<path d="M11.4926 19.6514L11.4756 19.6956L11.5047 19.656L11.4926 19.6514Z" fill="#1C1C1C"/>
<path d="M10.5552 24.5212L10.5964 24.4956L10.5503 24.5119L10.5552 24.5212Z" fill="#1C1C1C"/>
<path d="M9.84424 23.8174L9.84774 23.8209V23.8174H9.84424Z" fill="#1C1C1C"/>
<path d="M9.8457 23.8748H9.90262L9.8457 23.8198V23.8748Z" fill="#1C1C1C"/>
<path d="M42.6162 12.9334C42.6162 12.9517 42.5877 12.9769 42.5688 12.9815L42.0944 13.0594C42.0618 13.0689 42.0306 13.0828 42.002 13.1006C42.0423 13.1144 42.0873 13.1442 42.1277 13.1373C42.9387 13.0181 43.7498 12.8852 44.5609 12.7775C45.2012 12.6928 45.8462 12.6423 46.4865 12.569C46.8162 12.5324 47.198 12.569 47.4589 12.4247C48.1466 12.0695 48.7917 11.6341 49.451 11.2308L49.5221 11.1873C49.4977 11.1754 49.4723 11.1654 49.4462 11.1575C49.2038 11.1157 48.9592 11.0874 48.7134 11.0727C47.4755 11.0727 46.2399 11.0727 45.0043 11.0727V11.0269C44.6865 11.0589 44.3711 11.1162 44.0557 11.1185C43.4747 11.1185 43.5197 11.4622 43.6051 11.838C43.6271 11.8915 43.6378 11.9487 43.6366 12.0063C43.6353 12.0638 43.6222 12.1206 43.5978 12.1731C43.5735 12.2256 43.5385 12.273 43.495 12.3122C43.4514 12.3515 43.4002 12.3819 43.3443 12.4017C43.1314 12.4908 42.926 12.5958 42.73 12.7157C42.6731 12.7523 42.6565 12.86 42.6162 12.9334Z" fill="#1C1C1C"/>
<path d="M43.2302 11.9526C43.1709 11.7051 43.1401 11.5722 43.1069 11.437C43.0352 11.5408 42.956 11.6396 42.8698 11.7326C42.7275 11.8724 42.5899 12.074 42.4168 12.113C42.0763 12.1826 41.7279 12.2088 41.3804 12.1909C40.7084 12.1797 40.0481 12.3615 39.4832 12.7134C38.6247 13.2098 37.7607 13.6987 36.8911 14.1799C35.9828 14.684 35.0721 15.1881 34.152 15.6739C33.7465 15.887 33.3125 16.0543 32.8453 15.8046C32.7606 15.7674 32.6725 15.7382 32.582 15.7175C32.6223 15.8641 32.6413 16.1276 32.703 16.1391C33.1773 16.2124 33.7014 16.3683 34.1259 16.2468C34.816 16.0543 35.454 15.6762 36.1061 15.3623C37.0547 14.904 38.0034 14.4228 38.952 13.9668C39.2793 13.8087 39.6397 13.7193 39.9694 13.5658C40.8421 13.1655 41.7116 12.7546 42.578 12.333C42.8247 12.2207 43.0358 12.0695 43.2302 11.9526Z" fill="#1C1C1C"/>
<path d="M46.8711 12.8389C46.1596 12.9282 45.4482 13.0039 44.7509 13.107C44.0537 13.2101 43.4087 13.3178 42.7423 13.4461C42.2988 13.5332 41.8601 13.6569 41.4189 13.7646C42.9083 13.6363 44.3952 13.4874 45.8869 13.398C46.3541 13.3682 46.6648 13.2353 46.8711 12.8389Z" fill="#1C1C1C"/>
<path d="M46.8711 12.8369V12.8404H46.8746L46.8711 12.8369Z" fill="#1C1C1C"/>
<path d="M41.3237 13.806C41.3505 13.7944 41.3767 13.7814 41.402 13.7671L41.3071 13.7923C41.3071 13.7923 41.3214 13.8083 41.3237 13.806Z" fill="#1C1C1C"/>
<path d="M46.873 12.8378L46.8906 12.8188L46.873 12.8378Z" fill="#1C1C1C"/>
<path d="M51.8296 24.2005C51.8198 24.2397 51.8029 24.2769 51.7798 24.3105C51.6897 24.393 51.5949 24.4663 51.5 24.5397C51.4289 24.448 51.2794 24.3105 51.3032 24.2739C51.3648 24.157 51.5024 24.0791 51.6091 23.9828C51.5617 23.9599 51.4953 23.9049 51.4692 23.9187C51.2899 23.9918 51.1283 24.1003 50.9949 24.2372C50.9261 24.3357 50.9949 24.5397 51.0423 24.6955C51.0589 24.7505 51.2083 24.8261 51.251 24.8032C51.4772 24.6801 51.6965 24.5455 51.9079 24.3999C51.9248 24.3866 51.9377 24.3692 51.9453 24.3494C51.9528 24.3297 51.9546 24.3083 51.9506 24.2876C51.9269 24.2464 51.87 24.2349 51.8296 24.2005Z" fill="#1C1C1C"/>
<path d="M53.0869 21.3722C53.132 21.3722 53.1865 21.3722 53.2197 21.3562C53.3904 21.2518 53.555 21.1386 53.713 21.017C53.7946 20.9397 53.8677 20.8545 53.9312 20.7627C53.668 20.93 53.4047 21.095 53.1438 21.2668C53.113 21.2852 53.1059 21.3356 53.0869 21.3722Z" fill="#1C1C1C"/>
<path d="M52.4058 24.3975C52.3679 24.4089 52.3205 24.3975 52.2944 24.4295C52.1236 24.5716 51.96 24.7183 51.7964 24.8649C51.7436 24.9149 51.6937 24.9677 51.647 25.023C51.8841 24.8489 52.1213 24.677 52.3584 24.5006C52.3892 24.4822 52.3916 24.4318 52.4058 24.3975Z" fill="#1C1C1C"/>
<path d="M51.6305 21.778C51.5997 21.7184 51.5238 21.684 51.4692 21.6382C51.4779 21.6972 51.4913 21.7554 51.5095 21.8123C51.5546 21.9246 51.6068 22.0415 51.6589 22.1446C51.6589 22.1652 51.6969 22.1813 51.7159 22.1973L51.7657 22.124C51.7297 22.0055 51.6845 21.8899 51.6305 21.778Z" fill="#1C1C1C"/>
<path d="M51.839 19.9771L51.5425 19.7983L51.4619 19.8556C51.5639 19.9083 51.6658 19.9633 51.7702 20.0137C51.7821 20.0183 51.8176 19.9908 51.839 19.9771Z" fill="#1C1C1C"/>
<path d="M50.8032 23.9529C50.751 23.9781 50.7035 24.0102 50.6514 24.04C50.6703 24.04 50.6917 24.0675 50.7059 24.0606C50.7652 24.0377 50.8221 24.0102 50.9241 23.9621C50.8844 23.9536 50.8437 23.9505 50.8032 23.9529Z" fill="#1C1C1C"/>
<path d="M51.896 20.11L52.1331 20.1925C52.0912 20.1571 52.046 20.1257 51.998 20.0985C51.9695 20.0894 51.9292 20.11 51.896 20.11Z" fill="#1C1C1C"/>
<path d="M51.6306 23.3844C51.6709 23.318 51.7136 23.2515 51.7516 23.1828C51.7516 23.1828 51.7516 23.153 51.735 23.0957C51.6852 23.2034 51.6496 23.2721 51.6188 23.3432C51.614 23.3546 51.6259 23.3707 51.6306 23.3844Z" fill="#1C1C1C"/>
<path d="M51.8371 22.8896C51.8623 22.8472 51.8853 22.8036 51.9058 22.7589C51.9058 22.7429 51.9058 22.72 51.8868 22.7017L51.8086 22.8048L51.8371 22.8896Z" fill="#1C1C1C"/>
<path d="M50.7622 24.8281C50.7622 24.851 50.7931 24.8671 50.8097 24.8877C50.8263 24.8717 50.8571 24.8556 50.8547 24.8442C50.8431 24.8167 50.8271 24.7912 50.8073 24.7686C50.786 24.7961 50.7575 24.8167 50.7622 24.8281Z" fill="#1C1C1C"/>
<path d="M51.4855 24.278C51.4855 24.294 51.5045 24.3192 51.5163 24.3215C51.5282 24.3238 51.5519 24.3055 51.5851 24.2872C51.5567 24.2688 51.5401 24.2505 51.5235 24.2482C51.5069 24.2459 51.4831 24.2688 51.4855 24.278Z" fill="#1C1C1C"/>
<path d="M51.4362 23.2588L51.2915 23.4261L51.4362 23.2588Z" fill="#1C1C1C"/>
<path d="M49.7524 24.6653C49.7524 24.6653 49.7667 24.6951 49.7809 24.7203C49.8023 24.6974 49.8212 24.6859 49.8212 24.6722C49.8212 24.6584 49.807 24.6424 49.7975 24.6264C49.788 24.6103 49.7596 24.6493 49.7524 24.6653Z" fill="#1C1C1C"/>
<path d="M51.2633 21.1318L51.2349 21.2052L51.2942 21.1548L51.2633 21.1318Z" fill="#1C1C1C"/>
<path d="M51.5212 20.2817L51.4358 20.2978C51.4341 20.3099 51.4341 20.3223 51.4358 20.3344L51.5212 20.2817Z" fill="#1C1C1C"/>
<path d="M52.5387 22.8369H52.4629V22.869L52.5387 22.8369Z" fill="#1C1C1C"/>
<path d="M52.5391 22.8345V22.838H52.5426L52.5391 22.8345Z" fill="#1C1C1C"/>
<path d="M51.676 24.0534L51.6167 23.9961L51.6641 24.0603L51.676 24.0534Z" fill="#1C1C1C"/>
<path d="M52.2114 21.9429V21.9639H52.2333C52.2342 21.9576 52.2342 21.9513 52.2333 21.945C52.2333 21.945 52.2136 21.9429 52.2114 21.9429Z" fill="#1C1C1C"/>
<path d="M50.8933 23.8452C50.8933 23.8452 50.8895 23.8527 50.8933 23.8452V23.8452Z" fill="#1C1C1C"/>
<path d="M51.8241 21.8901C51.8241 21.8901 51.8189 21.8954 51.8241 21.8901V21.8901Z" fill="#1C1C1C"/>
<path d="M50.6987 24.4022H50.7375L50.706 24.3789L50.6987 24.4022Z" fill="#1C1C1C"/>
<path d="M52.9541 21.4712L52.976 21.5178L52.9541 21.4712Z" fill="#1C1C1C"/>
<path d="M52.0207 23.4718V23.4531H51.9673L52.0207 23.4718Z" fill="#1C1C1C"/>
<path d="M50.5805 20.2421L50.5586 20.2295L50.5805 20.2421Z" fill="#1C1C1C"/>
<path d="M23.8477 18.5286C23.5228 18.2857 23.1695 18.0703 22.8232 17.8572C22.7726 17.8359 22.7191 17.822 22.6643 17.8159C22.6643 17.8595 22.6216 17.9145 22.6406 17.9442C22.7382 18.1506 22.8643 18.3433 23.0153 18.5171C23.4066 18.8883 23.8311 19.2275 24.2414 19.5781C24.2599 19.5902 24.2798 19.6002 24.3007 19.6078V19.5918C24.291 19.3848 24.2568 19.1795 24.1987 18.98C24.1225 18.8036 24.0018 18.6484 23.8477 18.5286Z" fill="#1C1C1C"/>
<path d="M15.813 8.56524C15.9414 8.64092 16.0607 8.73007 16.1688 8.83105C16.1332 8.66607 16.1024 8.50108 16.0644 8.3361C15.972 7.94655 15.8439 7.55241 15.4099 7.41951C14.1743 7.06204 12.9293 6.73207 11.6889 6.39981C11.6401 6.37919 11.5939 6.35304 11.5514 6.3219C11.5974 6.30315 11.6463 6.29155 11.6961 6.28752C12.9055 6.45022 14.1127 6.6152 15.3221 6.77561C15.3899 6.77483 15.457 6.76401 15.5213 6.74353C15.4668 6.6977 15.4218 6.62437 15.3601 6.61062C15.066 6.54188 14.7672 6.48459 14.4684 6.4296L10.3158 5.68945L10.2921 5.76965L10.0811 5.82465C10.1261 5.87735 10.1712 5.93005 10.2186 5.98047C10.266 6.03088 10.3609 6.14545 10.4415 6.20961C10.636 6.38835 10.8044 6.63125 11.0391 6.72061C11.5538 6.92226 12.1206 7.00246 12.6352 7.20411C13.7048 7.64178 14.7577 8.10924 15.813 8.56524Z" fill="#1C1C1C"/>
<path d="M14.6605 8.98435C13.8091 8.57647 12.9624 8.16401 12.111 7.75383C12.0813 7.74369 12.0501 7.73827 12.0186 7.73779C12.0304 7.76529 12.0304 7.80425 12.0518 7.82029C12.896 8.48481 13.7118 9.19517 14.6059 9.79095C14.9972 10.0568 15.5403 10.1095 16.0122 10.2607C16.0643 10.2795 16.115 10.3017 16.164 10.3272C16.1212 10.3486 16.0758 10.3647 16.0288 10.3753C15.8107 10.3982 15.5901 10.4165 15.3719 10.4371V10.3936C15.3269 10.3936 15.2818 10.4119 15.2367 10.4257C15.2367 10.4257 15.2367 10.4807 15.2486 10.4853C15.3695 10.5426 15.4858 10.648 15.6162 10.6411C15.8976 10.6162 16.1757 10.564 16.4462 10.4853C16.6428 10.4148 16.8332 10.329 17.0154 10.2286C16.8848 10.1045 16.7418 9.99319 16.5885 9.89636C15.9506 9.58701 15.3008 9.2937 14.6605 8.98435Z" fill="#1C1C1C"/>
<path d="M28.8812 17.4473C28.7004 17.4455 28.5211 17.4784 28.3535 17.544C28.186 17.6097 28.0336 17.7068 27.9053 17.8298C27.7769 17.9528 27.675 18.0992 27.6056 18.2605C27.5362 18.4218 27.5007 18.5948 27.501 18.7695C27.5155 19.1065 27.6607 19.426 27.9075 19.6645C28.1544 19.903 28.485 20.0432 28.8338 20.0573C29.0144 20.0604 29.1937 20.0283 29.3612 19.963C29.5287 19.8977 29.6808 19.8004 29.8085 19.677C29.9362 19.5536 30.0369 19.4066 30.1045 19.2448C30.1722 19.0829 30.2054 18.9096 30.2022 18.7351C30.1968 18.3972 30.0562 18.0744 29.81 17.8343C29.5637 17.5943 29.2309 17.4556 28.8812 17.4473ZM28.8338 19.8832C28.5299 19.8707 28.2432 19.7438 28.035 19.5297C27.8267 19.3156 27.7133 19.0312 27.7192 18.7374C27.7201 18.5883 27.7516 18.4408 27.8118 18.3035C27.872 18.1662 27.9597 18.0417 28.07 17.9374C28.1802 17.833 28.3107 17.7507 28.4541 17.6953C28.5974 17.6399 28.7506 17.6125 28.9049 17.6146C29.2008 17.6378 29.4773 17.7661 29.681 17.9747C29.8846 18.1834 30.0011 18.4576 30.0077 18.7443C30.0052 19.0446 29.8808 19.332 29.6613 19.5445C29.4417 19.7571 29.1446 19.8779 28.8338 19.8809V19.8832Z" fill="#1C1C1C"/>
<path d="M27.0067 18.6617C26.8009 18.7013 26.5993 18.7588 26.4043 18.8336C26.5822 19.2919 26.7031 19.6241 26.8549 19.9541C26.8952 20.0458 27.0209 20.1008 27.1086 20.1833C27.1869 20.0664 27.3316 19.9541 27.3316 19.8327C27.3223 19.5168 27.2834 19.2023 27.2154 18.8932C27.1988 18.7969 27.0707 18.6571 27.0067 18.6617Z" fill="#1C1C1C"/>
<path d="M30.8369 19.9408C30.8702 19.9307 30.8993 19.9106 30.9199 19.8835C31.0338 19.6131 31.1405 19.3404 31.2496 19.0723C31.2045 19.0035 31.1784 18.9279 31.1523 18.9302C30.9501 18.9101 30.7457 18.9312 30.5523 18.9921C30.4908 19.0442 30.4442 19.1109 30.4172 19.1856C30.3902 19.2603 30.3836 19.3404 30.3982 19.4183C30.516 19.6131 30.664 19.7893 30.8369 19.9408Z" fill="#1C1C1C"/>
<path d="M29.9852 19.9312C29.9825 20.1731 29.9952 20.4149 30.0232 20.6553C30.0232 20.6553 30.1038 20.6851 30.118 20.669C30.2437 20.559 30.3552 20.4399 30.5117 20.2978C30.3837 20.0824 30.2912 19.9312 30.201 19.7822C30.1252 19.8303 29.9876 19.8808 29.9852 19.9312Z" fill="#1C1C1C"/>
<path d="M31.1902 18.4397C31.1781 18.3071 31.1445 18.1772 31.0906 18.0547C31.0408 18.1395 30.9933 18.2265 30.9364 18.309C30.9098 18.3474 30.8769 18.3815 30.8392 18.4099C30.7894 18.4488 30.7372 18.4809 30.6851 18.5153L30.9578 18.5565C31.0123 18.5313 31.1855 18.4901 31.1902 18.4397Z" fill="#1C1C1C"/>
<path d="M50.912 15.7838C50.9008 15.7759 50.8889 15.769 50.8764 15.7632C50.8764 15.7632 50.8574 15.7746 50.8574 15.7792C50.8629 15.7889 50.8693 15.7981 50.8764 15.8067L50.912 15.7838Z" fill="#1C1C1C"/>
<path d="M21.161 17.7088L21.2298 17.5621C21.18 17.3445 21.1349 17.1336 21.0804 16.9274C21.0804 16.8907 21.0092 16.8678 20.9713 16.8403C20.9524 16.8791 20.9419 16.9212 20.9404 16.9641C20.9855 17.1726 21.0353 17.3811 21.0898 17.5874C21.1085 17.6304 21.1324 17.6712 21.161 17.7088Z" fill="#1C1C1C"/>
<path d="M21.4888 17.2456L21.4718 17.2246C21.4718 17.2246 21.4548 17.2409 21.4573 17.2432C21.4615 17.2538 21.4692 17.2627 21.4791 17.2689C21.4813 17.2607 21.4846 17.2529 21.4888 17.2456Z" fill="#1C1C1C"/>
<path d="M21.5192 17.5536C21.5204 17.5419 21.5204 17.5302 21.5192 17.5186C21.5192 17.5186 21.5192 17.507 21.5022 17.5C21.4999 17.5131 21.4999 17.5265 21.5022 17.5396C21.5022 17.5396 21.5144 17.5489 21.5192 17.5536Z" fill="#1C1C1C"/>
<path d="M48.8011 19.0376L48.7798 19.0491L48.9576 19.4226L48.8011 19.0376Z" fill="#1C1C1C"/>
<path d="M49.057 19.5851L48.9692 19.4453L49.038 19.5988L49.057 19.5851Z" fill="#1C1C1C"/>
<path d="M49.269 20.0502L49.2002 19.9219L49.2381 20.0617L49.269 20.0502Z" fill="#1C1C1C"/>
<path d="M48.7227 18.8564L48.68 18.8037C48.68 18.8037 48.6611 18.8266 48.6658 18.8335C48.6754 18.8524 48.6874 18.8701 48.7014 18.8862L48.7227 18.8564Z" fill="#1C1C1C"/>
<path d="M49.1335 19.7686L49.1074 19.7823L49.1952 19.9083L49.1335 19.7686Z" fill="#1C1C1C"/>
<path d="M48.602 18.5974L48.5332 18.4897L48.5806 18.6066L48.602 18.5974Z" fill="#1C1C1C"/>
<path d="M49.3228 20.2473L49.3422 20.2799V20.2427L49.3228 20.2473Z" fill="#1C1C1C"/>
<path d="M49.9984 21.8855C50.0126 21.8373 50.0506 21.78 50.0364 21.7434C49.9534 21.5142 49.8609 21.308 49.766 21.0926C49.7544 21.0857 49.7415 21.0812 49.7281 21.0792C49.7146 21.0773 49.7009 21.0779 49.6877 21.0811C49.6427 21.1407 49.5573 21.2209 49.5739 21.2645C49.6616 21.4822 49.7755 21.693 49.8798 21.9061L49.9984 21.8855Z" fill="#1C1C1C"/>
<path d="M49.8638 22.4539C49.8472 22.5181 49.9705 22.6143 50.0844 22.7702C50.1911 22.6212 50.2978 22.541 50.2836 22.4746C50.2694 22.4081 50.1602 22.305 50.0915 22.2202C50.0108 22.2981 49.8852 22.3623 49.8638 22.4539Z" fill="#1C1C1C"/>
<path d="M22.7458 22.4016C22.7562 22.4301 22.7705 22.4571 22.7885 22.4818C22.8098 22.4589 22.8454 22.436 22.8454 22.4131C22.8454 22.3902 22.8145 22.365 22.7813 22.3237C22.7624 22.3627 22.741 22.3856 22.7458 22.4016Z" fill="#1C1C1C"/>
<path d="M22.6124 20.4369C22.6012 20.4095 22.5823 20.3857 22.5578 20.3682C22.5578 20.3682 22.5175 20.3934 22.4819 20.4209C22.5076 20.4429 22.5364 20.4614 22.5673 20.4759C22.5673 20.4759 22.6124 20.4438 22.6124 20.4369Z" fill="#1C1C1C"/>
<path d="M47.8195 23.1259C47.8361 23.103 47.8195 23.0572 47.8195 23.0205L47.6796 23.0434L47.4093 23.0732V23.0434C47.3091 23.0596 47.2101 23.0818 47.1128 23.1099C47.0844 23.1099 47.0748 23.1855 47.063 23.2267C47.0692 23.2355 47.0773 23.2429 47.0867 23.2484C47.0961 23.2539 47.1066 23.2575 47.1175 23.2588C47.3144 23.2588 47.5112 23.2428 47.708 23.2199C47.7557 23.2026 47.7953 23.1692 47.8195 23.1259Z" fill="#1C1C1C"/>
<path d="M32.3022 19.5212C32.3686 19.6518 32.4042 19.7205 32.4422 19.7893C32.4588 19.7663 32.4943 19.7388 32.4896 19.7228C32.4682 19.6441 32.4397 19.5674 32.4042 19.4937C32.3695 19.5001 32.3354 19.5093 32.3022 19.5212Z" fill="#1C1C1C"/>
<path d="M47.1553 21.9708C47.2716 21.9197 47.3802 21.8534 47.4778 21.7737C47.5182 21.7416 47.5182 21.6637 47.5371 21.6064C47.5066 21.6006 47.4752 21.6006 47.4446 21.6064C47.3379 21.6477 47.2336 21.6935 47.1292 21.7371L47.096 21.6683C47.0272 21.7004 46.9419 21.721 46.9016 21.7737C46.8612 21.8264 46.9419 21.8998 46.9893 21.941C47.0126 21.9582 47.0398 21.9698 47.0686 21.975C47.0975 21.9802 47.1272 21.9787 47.1553 21.9708Z" fill="#1C1C1C"/>
<path d="M19.8425 21.8238C19.8346 21.7201 19.8056 21.6189 19.7571 21.5259C19.7126 21.5149 19.666 21.5142 19.6211 21.5237C19.5763 21.5333 19.5343 21.5529 19.4987 21.5809C19.4607 21.6611 19.4986 21.7803 19.5176 21.8811L19.8425 21.8261V21.8238Z" fill="#1C1C1C"/>
<path d="M12.3394 22.0855C12.3892 22.0855 12.4628 22.0053 12.5766 21.9205C12.4509 21.8357 12.3774 21.7464 12.3181 21.7555C12.2588 21.7647 12.1497 21.8655 12.1544 21.9182C12.168 21.959 12.1921 21.9958 12.2245 22.025C12.2569 22.0543 12.2964 22.0751 12.3394 22.0855Z" fill="#1C1C1C"/>
<path d="M29.5753 18.6867C29.1911 18.634 28.8045 18.5813 28.418 18.563C28.2923 18.563 28.0575 18.6501 28.0551 18.7051C28.047 18.7826 28.0562 18.861 28.0819 18.9349C28.1077 19.0088 28.1495 19.0765 28.2045 19.1336C28.4844 19.2985 28.8045 19.3856 29.1128 19.1336C29.1431 19.1206 29.1758 19.1139 29.2089 19.1139C29.2419 19.1139 29.2747 19.1206 29.3049 19.1336C29.682 19.3375 29.6275 19.0396 29.6796 18.8105C29.6536 18.783 29.6203 18.6913 29.5753 18.6867Z" fill="#1C1C1C"/>
</svg>
