<svg width="62" height="30" viewBox="0 0 62 30" fill="none" xmlns="http://www.w3.org/2000/svg">
<path d="M62.0003 17.0343V17.3742C61.8579 18.217 61.6118 19.0403 61.146 19.6972C60.3119 20.8782 59.0042 20.6161 57.8961 20.9366C57.876 20.9366 57.8311 20.8623 57.8064 20.818C57.7646 20.7419 57.7383 20.6037 57.6888 20.5931C57.5247 20.5613 57.3112 20.4904 57.2245 20.7118C56.9784 21.3086 56.606 21.8259 56.1412 22.2167C54.9558 23.249 53.0461 23.0188 52.0727 21.705C51.709 21.2093 51.514 20.1222 50.7077 20.6339C50.3384 20.8623 49.9215 20.9707 49.5022 20.9472C37.9202 20.9614 26.3388 20.9614 14.7578 20.9472C14.6565 20.9348 14.5609 20.8872 14.4839 20.8109C14.4298 20.7649 14.3957 20.5949 14.3771 20.5984C14.1914 20.6498 13.95 20.4125 13.8185 20.6817C13.4099 21.5174 12.8899 22.1636 12.0914 22.5797C10.8286 23.233 8.9158 22.5673 8.26118 21.1898C8.08785 20.8268 8.16677 20.0938 7.47655 20.2054C7.23823 20.2443 7.30478 20.6569 6.98599 20.5949C6.19363 20.4391 5.39199 20.3435 4.59499 20.2213C3.798 20.0991 2.98554 20 2.18854 19.8336C1.78527 19.759 1.39691 19.6025 1.04179 19.3714C0.554312 19.0368 0.422769 18.3799 0.268013 17.808C0.134923 17.2981 -0.196265 16.5332 0.181341 16.234C0.787985 15.7595 0.665728 15.0973 0.859174 14.5166C1.08667 13.8331 1.2213 13.0505 1.76914 12.6097C2.34019 12.1529 3.06599 12.4326 3.71907 12.3069C5.70923 11.9528 7.83095 12.5034 9.62457 10.8657C10.4076 10.1574 11.395 9.71834 12.3127 9.21373C13.3325 8.65246 14.3245 7.97433 15.5177 7.99204C20.3662 8.08942 25.2163 7.90174 30.0648 8.14077C33.1723 8.29303 36.2922 8.1266 39.4043 8.20096C41.5415 8.25408 43.7886 7.73531 45.6611 9.56253C46.3405 10.2247 47.1406 10.7222 47.8803 11.3048C48.422 11.7297 48.9094 12.4114 49.4975 12.553C50.6675 12.8345 51.89 12.8505 53.0925 12.9248C54.6942 13.024 56.3006 13.0434 57.9008 13.1568C58.9408 13.2311 60.0674 13.1214 60.6477 14.5059C61.0145 15.4089 61.3936 16.3066 62.0003 17.0343ZM31.1697 10.3309L31.0924 10.1716L31.0521 10.2088L31.1744 10.3256L31.3121 10.5027C31.5742 10.7978 31.8362 11.0929 32.0983 11.388L32.1896 11.5438L32.2407 11.4676L32.0859 11.3933C31.936 10.9924 31.655 10.6747 31.3028 10.508C31.3524 10.3504 31.2935 10.3062 31.1697 10.3309ZM35.5199 10.508L35.4426 10.3646L35.4163 10.3894L35.5261 10.5027L35.6809 10.6798L35.7536 10.7807L35.7753 10.7506L35.6747 10.6851L35.5199 10.508ZM13.235 17.2096L13.0803 17.0325L13.0246 16.9104L12.9812 16.9582L13.0865 17.0272L13.2412 17.2043L13.3 17.3388L13.3465 17.2928L13.235 17.2096ZM57.37 17.5389L57.4133 17.739L57.4783 17.6841L57.3638 17.5442C57.3173 17.4203 57.4257 17.1795 57.1719 17.2078C57.1719 17.0874 57.1719 16.967 57.1719 16.8537C57.36 17.0347 57.5134 17.2582 57.6225 17.5102C57.7317 17.7621 57.7943 18.0371 57.8064 18.318C57.7592 18.3741 57.7148 18.4332 57.6733 18.495C57.6928 18.5221 57.7146 18.547 57.7383 18.5694C57.7584 18.4844 57.7801 18.3923 57.8017 18.3109C58.0896 18.4702 57.842 18.8119 57.9843 19.0191C57.941 19.0288 57.8981 19.0412 57.8559 19.0563C57.855 19.074 57.855 19.0917 57.8559 19.1094L57.9766 19.0173C58.9052 19.0173 59.8182 18.9695 60.7359 19.0173C61.2002 19.0421 61.2946 18.711 61.3333 18.3693C61.3488 18.2312 61.7387 18.0258 61.3797 17.9391C60.8549 17.8403 60.326 17.7736 59.795 17.739C59.719 17.723 59.6444 17.6993 59.5722 17.6682C59.6473 17.6372 59.7251 17.6152 59.8043 17.6026C60.2122 17.6137 60.6204 17.5989 61.0269 17.5584C61.2342 17.5247 61.6459 17.8505 61.6459 17.2893C61.6519 17.1816 61.6375 17.0738 61.6035 16.9732C61.5695 16.8725 61.5169 16.7816 61.4492 16.7065C61.3815 16.6314 61.3004 16.574 61.2115 16.5383C61.1225 16.5026 61.0279 16.4894 60.934 16.4996C59.8074 16.4996 58.6823 16.4996 57.5572 16.4996C57.3823 16.4996 56.9939 16.3031 57.1781 16.8537L56.8809 16.689C56.6875 16.3491 56.5033 15.9967 56.0917 15.972C56.1041 15.6639 55.9044 15.8392 55.7976 15.8038C55.762 15.7453 55.7388 15.655 55.6909 15.6267C55.0378 15.3292 54.3507 15.4408 53.679 15.4125C53.6229 15.4018 53.5683 15.3827 53.5165 15.3558C53.5305 15.3363 53.5413 15.2991 53.5568 15.2974C53.9364 15.2384 54.3189 15.2064 54.702 15.2018C55.3752 15.2319 55.957 15.5399 56.5482 15.933C57.2585 16.404 58.0958 16.0499 58.8804 16.1101C59.0584 16.1242 58.998 15.9525 58.9794 15.7984C58.9067 15.2142 58.6189 14.5591 59.289 14.1642C59.4282 14.0845 59.5985 14.0721 59.7331 13.9872C59.8677 13.9022 59.7579 13.8632 59.6805 13.8455C59.145 13.734 58.6157 13.5728 58.0772 13.5233C56.4894 13.3781 54.9001 13.2719 53.3107 13.1692C52.0727 13.0842 50.847 13.0275 49.6167 12.939C49.3984 12.9303 49.1856 12.8591 48.9977 12.7318C48.4313 12.2998 47.8896 11.8235 47.334 11.372C46.6918 10.8409 46.0588 10.3097 45.3949 9.81749C44.8409 9.4138 44.2822 8.93221 43.6647 8.75515C42.86 8.52498 41.9887 8.62944 41.1515 8.59048C37.7144 8.42936 34.2711 8.64892 30.8324 8.40104C29.9951 8.34084 29.1455 8.51081 28.3021 8.51258C27.5051 8.51258 26.7081 8.3975 25.9096 8.39395C22.6736 8.37448 19.4361 8.39396 16.2002 8.36209C15.3193 8.34356 14.4432 8.51412 13.6173 8.86492C12.0403 9.54128 10.6429 10.5912 9.21291 11.5757C9.11903 11.6228 9.03023 11.6822 8.94829 11.7527C8.83841 11.8767 8.94829 11.8961 9.03031 11.9085C9.52708 11.9811 10.0254 12.0502 10.5237 12.1245C10.5696 12.1358 10.6146 12.1512 10.6583 12.1706C10.6178 12.2033 10.5721 12.2267 10.5237 12.2396C8.89258 12.3122 7.26299 12.3759 5.6365 12.5937C4.47892 12.7495 3.30432 12.7318 2.13746 12.8115C1.84033 12.831 1.78926 13.1904 1.63605 13.4046C1.77843 13.4401 1.96723 13.4206 2.05544 13.5197C2.29686 13.7906 3.25944 12.8363 2.87255 14.1607C2.61875 15.0353 2.36651 15.8462 1.33738 15.6515C1.28631 15.6409 1.2244 15.694 1.16869 15.717C1.21578 15.753 1.26823 15.7788 1.32344 15.7931C3.86764 15.7931 6.41132 15.7931 8.95448 15.7931C9.02701 15.8025 9.10042 15.7909 9.16805 15.7595C9.41101 15.6019 9.73136 15.2726 9.91861 15.4762C10.1415 15.717 9.62922 15.4762 9.65553 15.7365C9.65785 15.7576 9.65785 15.779 9.65553 15.8002C9.55958 15.8586 9.34602 15.6533 9.36614 15.9773C8.84771 16.1331 8.43759 16.4376 8.25033 17.0396C8.16901 17.0507 8.09389 17.0949 8.03875 17.1641C7.98361 17.2334 7.95215 17.3231 7.95012 17.4167L7.6406 17.8948L7.52454 18.2153L7.60346 18.2489L7.6406 17.8948C7.88357 17.8523 7.96869 17.6752 7.95012 17.4132C8.14047 17.3813 8.21475 17.2273 8.25963 17.0343L9.37541 15.972C9.47291 15.9206 9.68493 16.1278 9.66326 15.7949C9.87218 15.7949 10.1167 15.8533 10.2823 15.7524C10.9415 15.3452 12.9379 15.9153 13.3991 16.5793C13.6343 16.9174 13.7349 17.4344 14.1806 17.5637L14.2224 17.9178C14.2497 17.9027 14.276 17.8856 14.3013 17.8665C14.2642 17.7638 14.2208 17.6646 14.1775 17.5655L14.0119 17.0449C14.0986 16.9953 14.1419 16.9989 14.1837 17.1299C14.2162 17.2326 14.3245 17.307 14.4034 17.3849C14.4279 17.3745 14.45 17.3582 14.4684 17.3371C14.4325 17.2308 14.3916 17.1268 14.3462 17.0254C14.1806 16.6713 14.0135 16.3172 13.8463 15.9543C14.2812 16.1844 14.3957 16.7085 14.6387 17.1104C14.811 17.4219 14.969 17.7434 15.1122 18.0736L15.1788 18.6048C15.202 18.5711 15.2515 18.5322 15.2453 18.5092C15.2128 18.3622 15.3521 18.1391 15.1076 18.0842C15.0039 17.5903 15.1943 17.4752 15.5951 17.5425C16.0733 17.6239 16.5592 17.6682 17.042 17.7071C18.6562 17.8381 20.2702 17.9603 21.8844 18.0842C21.9819 18.0842 22.0871 18.1214 22.084 17.932C22.0809 17.7425 22.0066 17.7549 21.8844 17.7408C20.8521 17.6752 19.8199 17.6009 18.7892 17.5265C18.7499 17.517 18.712 17.5015 18.6763 17.4805C18.6995 17.4575 18.7242 17.4114 18.7475 17.4114C19.4222 17.4203 20.1232 17.2981 20.7593 17.4716C21.8024 17.7585 22.0763 17.6168 22.0716 16.4376C22.0716 16.1331 22.0577 15.8268 22.0716 15.524C22.084 15.3027 22.0128 15.2531 21.8302 15.2531C20.9512 15.2531 20.0722 15.2389 19.1993 15.2248C19.1387 15.2106 19.0803 15.1862 19.026 15.1522C19.079 15.1136 19.1378 15.0866 19.1993 15.0725C20.0722 15.0725 20.945 15.0566 21.8178 15.0725C22.0577 15.0725 22.0701 14.9202 22.0747 14.7184C22.0794 14.5166 22.0623 14.3855 21.8209 14.3855C19.303 14.3855 16.7836 14.3643 14.2642 14.3501C14.1527 14.3501 14.0088 14.3661 14.032 14.1731C14.0398 14.1146 14.1868 14.0367 14.2657 14.0367C16.6567 14.081 19.0492 14.1111 21.4387 14.2014C21.9911 14.2226 22.183 14.0403 22.0701 13.4489C22.0159 13.1674 22.2542 12.6628 21.937 12.6309C20.6866 12.4981 19.4299 12.5937 18.1702 12.4875C16.5081 12.3476 14.8306 12.4291 13.1592 12.4255C12.975 12.4255 12.8311 12.3281 12.8125 12.1635C12.8124 12.0808 12.8272 11.999 12.856 11.9231C12.8848 11.8473 12.9269 11.779 12.9797 11.7226C13.4651 11.1965 13.9744 10.7 14.5056 10.2353C15.2051 9.65282 15.7529 8.81889 16.7913 8.83482C25.1482 8.92866 33.4957 8.96762 41.8479 9.0526C42.6124 9.0526 43.4156 8.79056 44.1414 9.39787C44.7388 9.89539 45.4073 10.2831 46.0217 10.7488C46.7305 11.2906 47.4145 11.8731 48.1078 12.4468C48.245 12.5777 48.3742 12.719 48.4947 12.8699C48.3418 12.9049 48.1864 12.9238 48.0304 12.9266C47.6466 12.8983 47.2659 12.808 46.8837 12.8044C45.138 12.7849 43.3924 12.7867 41.6467 12.7814C39.7494 12.7814 39.751 12.7814 39.6782 10.6249C39.6684 10.5476 39.6502 10.4721 39.6241 10.4C39.5972 10.4743 39.579 10.5523 39.5699 10.6319C39.5575 13.1532 39.508 15.6745 39.5699 18.194C39.5869 19.0333 39.2124 18.7889 38.8487 18.7482C38.6599 18.7287 38.4758 18.6544 38.2885 18.6508C35.8743 18.5977 33.4617 18.5623 31.0552 18.2967C29.7893 18.1586 28.5126 18.1497 27.242 18.0913C25.7285 18.024 24.215 17.9709 22.703 17.8948C22.5978 17.8948 22.4987 17.7354 22.3935 17.6522C22.4896 17.6091 22.5908 17.5828 22.6937 17.5743C23.972 17.6788 25.2488 17.808 26.527 17.9001C27.68 17.9833 28.8376 18.017 29.9905 18.0949C31.0212 18.1657 32.0503 18.0949 33.0856 18.2064C35.1191 18.4047 37.1696 18.3835 39.2124 18.4614C39.3563 18.4614 39.4059 18.4171 39.4043 18.2471C39.395 17.3902 39.3904 16.5332 39.4043 15.6763C39.4043 15.4868 39.3471 15.4426 39.1892 15.439C36.3835 15.3629 33.5793 15.4815 30.7705 15.3257C28.0901 15.1752 25.4004 15.2744 22.7139 15.2584C22.622 15.2452 22.532 15.2185 22.4461 15.1787C22.5299 15.1251 22.6209 15.088 22.7154 15.069C28.152 15.1256 33.5917 14.9804 39.0267 15.246C39.214 15.2549 39.4167 15.3239 39.4105 14.9397C39.4105 14.5856 39.2403 14.5856 39.0174 14.5856C33.5741 14.5278 28.1319 14.4652 22.6906 14.3979C22.5941 14.3789 22.5007 14.3431 22.4136 14.2917C22.5048 14.2461 22.6012 14.2157 22.6999 14.2014C26.4481 14.2463 30.1963 14.2929 33.9445 14.3413C35.523 14.3607 37.1031 14.3271 38.6785 14.3944C39.2821 14.4192 39.5405 14.2545 39.3935 13.5605C39.3393 13.3037 39.5993 12.8257 39.2387 12.808C36.7796 12.6805 34.3175 12.808 31.8538 12.6557C29.243 12.491 26.6184 12.6167 23.9999 12.6132C22.4337 12.6132 22.4338 12.6132 22.3641 10.8426C22.3639 10.7432 22.3582 10.6438 22.3471 10.5452C22.3344 10.4958 22.3156 10.4487 22.2914 10.4053C22.2696 10.4518 22.2544 10.502 22.2465 10.554C22.2465 13.2311 22.2465 15.9076 22.2465 18.5835C22.2561 18.6394 22.2744 18.6928 22.3007 18.7411C22.3192 18.6933 22.3579 18.6402 22.3517 18.5959C22.2852 18.1143 22.5173 18.0453 22.8547 18.1055C23.1642 18.1604 23.4737 18.2294 23.791 18.2542C25.4515 18.3764 27.1105 18.5127 28.771 18.5977C31.6092 18.7429 34.4506 18.8491 37.2826 18.9784C39.2944 19.0704 41.3063 18.9341 43.3305 19.1112C45.1411 19.2687 46.9688 19.1537 48.7887 19.159C48.9095 19.159 48.9791 19.1306 49.0008 18.9695C49.1663 17.6806 49.1555 16.3845 49.1385 15.0867C49.1385 14.8176 49.0534 14.7326 48.829 14.7326C45.9258 14.7326 43.0225 14.7261 40.1193 14.7131C39.9924 14.7131 39.867 14.5555 39.7401 14.4705C39.8486 14.426 39.9614 14.3963 40.076 14.382C42.8616 14.4369 45.6472 14.4865 48.4328 14.5697C48.8754 14.5821 49.1168 14.5112 49.0178 13.9376C49.0085 13.8862 49.0456 13.8225 49.0611 13.7605C49.0797 13.7835 49.1091 13.803 49.1137 13.8278C49.2006 14.1969 49.2606 14.5735 49.2933 14.9539C49.3165 15.9932 49.4929 17.0998 49.2515 18.0612C48.8862 19.5042 49.6647 19.136 50.276 19.1607C50.4307 19.1607 50.635 19.1165 50.4307 19.4281C50.3765 19.5131 50.4307 19.6884 50.4307 19.8229C50.4586 19.807 50.5081 19.7981 50.5143 19.7734C50.7046 19.0846 51.0203 18.4614 51.288 17.8116C51.6471 16.9263 53.0399 15.6869 53.9189 15.6267C54.5546 15.5831 55.1925 15.6397 55.8147 15.7949C55.8007 16.1101 56.0081 15.9153 56.1103 15.972C56.3044 16.2935 56.579 16.5404 56.898 16.6802C56.85 16.9564 56.9986 17.0892 57.1827 17.1972C57.1812 17.3548 57.1843 17.5123 57.37 17.5389ZM30.43 10.5062L30.3728 10.3699L30.3325 10.4L30.4346 10.5009C30.5894 10.7152 30.7442 10.9294 30.9113 11.1419C30.9577 11.2021 31.0134 11.2534 31.0661 11.3189C31.2208 11.5048 31.3756 11.4871 31.3121 11.3968C31.0614 11.0339 30.8943 10.5682 30.4223 10.5062H30.43ZM53.4794 21.2695C53.5752 21.3364 53.6796 21.3854 53.7889 21.4147C54.0368 21.451 54.2882 21.4408 54.5333 21.3846C54.7639 21.3102 54.5457 21.0977 54.5519 20.9472C54.5642 20.5489 54.9558 20.6516 55.109 20.4267C55.1291 20.3984 55.2792 20.471 55.3597 20.517C55.4402 20.563 55.5794 20.7224 55.5996 20.7029C55.7365 20.5875 55.8499 20.4397 55.9322 20.2695C56.0145 20.0992 56.0636 19.9107 56.0762 19.7167C56.0762 19.4954 55.8859 19.5821 55.7667 19.5396C55.4433 19.4334 55.6893 19.0209 55.4912 18.8314C55.4917 18.7918 55.4992 18.7526 55.5133 18.7164C55.5274 18.6802 55.5478 18.6476 55.5733 18.6207C55.8271 18.5127 56.0545 18.3605 55.7481 18.0896C55.5547 17.9125 55.4278 17.0449 54.9852 17.8948C54.8304 18.1887 54.5519 17.8399 54.3306 17.9178C54.3089 17.9178 54.2284 17.8381 54.2331 17.8063C54.312 17.206 53.987 17.1512 53.5986 17.1813C53.6388 16.983 53.809 17.075 53.8926 17.0042C54.0171 16.8777 54.1278 16.7344 54.2222 16.5775C54.1232 16.5323 54.0189 16.5043 53.9127 16.4943C53.091 16.5509 52.0262 17.7195 51.9009 18.6296C51.6657 20.4373 52.7025 22.199 54.5317 21.9706C54.6079 21.95 54.6812 21.9178 54.7499 21.875C54.6781 21.8342 54.6006 21.8079 54.5209 21.7971C54.0783 21.8254 53.693 21.7281 53.4546 21.2447L53.4794 21.2695ZM9.68338 21.4943C10.0563 22.1176 10.6258 22.0255 11.1659 22.0255C11.2603 22.0255 11.395 22.0662 11.3965 21.8715C11.3981 21.6767 11.2805 21.6944 11.1582 21.6679C10.875 21.6059 10.5299 21.8449 10.3101 21.4554C10.427 21.4669 10.5443 21.4704 10.6614 21.466C10.9555 21.4324 11.4476 21.6944 11.2665 20.9189C11.2464 20.8357 11.576 20.6321 11.7494 20.5188C11.7958 20.4887 11.9041 20.586 11.9862 20.625C12.0682 20.6639 12.2322 20.7861 12.2709 20.7489C12.5372 20.4686 12.7073 20.0888 12.7507 19.6777C12.7507 19.6459 12.5804 19.5538 12.4814 19.5237C12.2074 19.444 12.2802 19.136 12.1842 18.9412C12.1684 18.9144 12.1586 18.8835 12.1556 18.8513C12.1526 18.8191 12.1566 18.7866 12.1671 18.7566C12.1777 18.7265 12.1945 18.6999 12.2161 18.679C12.2377 18.6581 12.2634 18.6436 12.291 18.6367C12.4907 18.5658 12.7305 18.4773 12.4674 18.1728C12.2446 17.916 12.0032 17.6752 11.7803 17.4274C11.7045 17.523 11.5838 17.6044 11.5637 17.716C11.5281 17.9143 11.4461 17.9373 11.2959 17.9302C11.0839 17.9178 10.8038 17.8895 10.793 17.6505C10.7605 17.0007 10.4928 17.16 10.1832 17.353C10.091 17.4249 9.9949 17.49 9.89539 17.5478C9.81802 17.5832 9.62457 17.5283 9.72671 17.4504C10.1136 17.1547 10.5237 16.8218 10.9648 16.7138C11.7602 16.5208 12.1146 17.3742 12.6268 17.8381C12.6863 17.9125 12.7421 17.9905 12.794 18.0718C12.8837 18.1781 12.9487 18.3463 13.1236 18.2613C13.1546 18.2454 13.1963 18.1781 13.1886 18.1604C12.8156 17.3176 12.2446 16.643 11.429 16.5439C9.50232 16.3101 8.28593 17.8364 8.64342 20.0336C8.72544 20.6409 9.03805 21.2712 9.671 21.4943H9.68338ZM41.6111 9.66522C40.5573 9.27392 40.3638 9.883 40.4768 10.9205C40.5263 11.3809 41.0385 11.349 41.0587 11.774C41.0912 12.468 41.5492 12.2148 41.8526 12.2237C42.8353 12.2538 43.8195 12.2449 44.8022 12.2538C44.9709 12.2538 45.1287 12.2892 45.1551 12.0006C45.1551 11.9014 45.2897 11.8235 45.364 11.7244C45.3915 11.7816 45.4158 11.8407 45.4367 11.9014C45.4661 12.0148 45.4847 12.229 45.5125 12.2308C45.8375 12.2414 46.1625 12.2201 46.4875 12.2077C46.4751 12.1706 46.472 12.1174 46.4473 12.098C46.1178 11.8499 45.7997 11.5828 45.494 11.2977C44.3782 10.1592 43.168 9.36776 41.5988 9.66522H41.6111ZM4.70486 16.149C3.45443 16.149 2.204 16.1366 0.955122 16.1632C0.769414 16.1632 0.586813 16.3579 0.405748 16.4695C0.405748 16.4695 0.444427 16.6111 0.472283 16.6147C0.693584 16.6395 0.916444 16.6501 1.14084 16.6589L6.49385 16.8803C6.55529 16.883 6.6164 16.8919 6.67647 16.9068C7.21503 17.0308 7.75977 17.2804 8.22404 16.6802C8.34629 16.5208 8.47318 16.3686 8.59699 16.2128C8.42112 16.1811 8.24396 16.1598 8.06618 16.149C6.93646 16.1443 5.81189 16.1443 4.69249 16.149H4.70486ZM60.3351 15.8533C60.4759 15.6922 60.7994 15.9383 60.722 15.6444C60.5796 15.1132 60.4125 14.5254 59.8941 14.2882C59.8043 14.2474 59.6387 14.4227 59.5087 14.4989C59.7904 14.9238 59.7439 15.6409 60.3227 15.8533H60.3351ZM12.4319 21.0995C12.4674 21.1827 12.4829 21.2659 12.5077 21.2766C12.5773 21.2872 12.6903 21.2943 12.715 21.25C12.9008 20.9219 13.0756 20.5872 13.2397 20.2461C13.3116 20.1132 13.3551 19.9627 13.3666 19.807C13.3666 19.7362 13.2196 19.6671 13.1391 19.5963C13.0185 20.1609 12.7704 20.6793 12.4195 21.0995H12.4319ZM56.4971 18.1816C56.3231 17.712 56.0312 17.3121 55.6584 17.0325C55.5593 16.9511 55.4819 16.7758 55.3488 16.9369C55.3256 16.9652 55.3844 17.16 55.4371 17.1848C55.7139 17.3287 55.9474 17.5627 56.1087 17.8576C56.1691 17.955 56.2217 18.0577 56.2898 18.148C56.3298 18.1937 56.3793 18.2272 56.4337 18.2454C56.4414 18.2454 56.4801 18.1922 56.4971 18.1816ZM55.9122 21.1101C55.9396 21.1657 55.9712 21.2184 56.0066 21.2677C56.0066 21.2677 56.0638 21.2482 56.0762 21.2252C56.231 20.9472 56.3857 20.6728 56.525 20.3877C56.5917 20.2558 56.6437 20.1148 56.6798 19.9681C56.6983 19.8831 56.6798 19.6317 56.6271 19.7379C56.4012 20.1965 56.2511 20.7064 55.9122 21.103V21.1101ZM15.4078 19.0828L15.315 18.8651C15.2847 18.9305 15.2638 19.001 15.2531 19.074C15.2626 19.1485 15.2824 19.2208 15.3119 19.2882L15.4078 19.0828ZM14.4793 18.2808L14.3942 18.1161C14.3694 18.1621 14.3261 18.2064 14.3245 18.2524C14.333 18.3098 14.3514 18.3646 14.3787 18.4136L14.4793 18.2808ZM57.5897 17.87C57.5418 17.9656 57.5077 18.0028 57.5108 18.0364C57.5218 18.0935 57.54 18.1484 57.565 18.1993C57.5897 18.1586 57.6284 18.1197 57.6361 18.0754C57.6439 18.0311 57.6176 17.9745 57.5897 17.8629V17.87ZM14.5536 18.9837C14.5747 18.9234 14.5893 18.8604 14.5969 18.796C14.5857 18.7555 14.569 18.7172 14.5474 18.6827C14.5249 18.7171 14.5086 18.7562 14.4994 18.7978C14.5101 18.86 14.5284 18.9201 14.5536 18.9766V18.9837ZM11.7912 16.0569C11.7741 16.0392 11.7618 16.018 11.7494 16.018C11.737 16.018 11.7262 16.0392 11.7138 16.0499C11.7014 16.0605 11.7339 16.0853 11.7447 16.087C11.7556 16.0888 11.771 16.0764 11.7912 16.0569ZM7.41157 18.4578C7.39454 18.495 7.37286 18.5269 7.37751 18.5357C7.39615 18.5557 7.4176 18.5718 7.44096 18.5835C7.45025 18.5623 7.47037 18.5393 7.46728 18.518C7.46418 18.4968 7.43788 18.4915 7.41157 18.4631V18.4578ZM13.6204 17.8665C13.6297 17.8576 13.642 17.8523 13.6451 17.8434C13.6482 17.8346 13.6359 17.8222 13.6312 17.8116L13.5972 17.8399L13.6204 17.8665ZM0.64406 17.8452L0.631687 17.8116C0.622401 17.8116 0.606919 17.8204 0.605371 17.8275C0.603824 17.8346 0.605382 17.8488 0.616215 17.8594L0.64406 17.8452ZM13.478 17.4734C13.4703 17.4734 13.461 17.4539 13.4532 17.4539C13.4455 17.4539 13.4393 17.4699 13.4331 17.4787C13.4269 17.4876 13.4501 17.5 13.4579 17.5C13.4656 17.5 13.4718 17.4893 13.478 17.4734ZM12.8884 16.7864C12.8729 16.7652 12.8652 16.7439 12.8543 16.7404C12.8435 16.7368 12.8265 16.7546 12.811 16.7616C12.811 16.7758 12.8249 16.8006 12.8358 16.8041C12.8466 16.8077 12.8636 16.8006 12.8884 16.7917V16.7864ZM7.26918 18.8704C7.26918 18.8792 7.25061 18.8881 7.25061 18.8969C7.25061 18.9058 7.26145 18.9164 7.26763 18.9253L7.29703 18.8916L7.26918 18.8704ZM12.7228 16.5881C12.7097 16.5721 12.6946 16.5583 12.6779 16.5474C12.6779 16.5474 12.6547 16.5651 12.6562 16.5722C12.6602 16.5897 12.6664 16.6064 12.6748 16.6218L12.7228 16.5881ZM12.4025 16.4111C12.4025 16.4004 12.3916 16.3845 12.3854 16.3827C12.3792 16.381 12.3669 16.3934 12.3576 16.3987C12.3483 16.404 12.3669 16.427 12.3746 16.4288C12.3823 16.4305 12.3932 16.4305 12.4025 16.4235V16.4111ZM59.3199 15.7117C59.3065 15.6952 59.2908 15.6815 59.2735 15.671C59.2735 15.671 59.2441 15.6851 59.2441 15.6887C59.2441 15.6922 59.2549 15.7294 59.2657 15.7329C59.2766 15.7365 59.2936 15.7347 59.3199 15.7241V15.7117ZM32.335 11.7173C32.3629 11.6571 32.3784 11.6359 32.3784 11.6146C32.3784 11.5934 32.3474 11.5792 32.3428 11.581C32.325 11.5939 32.3114 11.6132 32.3041 11.6359C32.2995 11.6642 32.3165 11.6854 32.335 11.7297V11.7173ZM26.3089 11.1206C26.3181 11.11 26.3305 11.1011 26.3305 11.0923C26.3305 11.0834 26.3166 11.0728 26.3089 11.064C26.3011 11.0551 26.2872 11.0817 26.2872 11.0905C26.2872 11.0994 26.2996 11.1224 26.3089 11.133V11.1206ZM26.185 10.9152C26.185 10.9152 26.1696 10.894 26.1618 10.894C26.1541 10.894 26.1464 10.9082 26.1371 10.9152L26.168 10.9471L26.185 10.9152ZM25.99 10.7063C25.99 10.7169 25.973 10.7276 25.9746 10.7364C25.9761 10.7453 25.9901 10.7488 25.9993 10.7559C26.0086 10.763 26.0164 10.7346 26.0148 10.7258C26.0133 10.7169 25.9993 10.724 25.99 10.7187V10.7063ZM30.9825 10.0335L30.9546 9.99808C30.9431 10.0099 30.9332 10.0236 30.9252 10.0388C30.9252 10.0388 30.9422 10.0671 30.9453 10.0654C30.9584 10.0608 30.9709 10.0542 30.9825 10.0459V10.0335ZM59.2657 14.4369L59.2564 14.4528L59.2828 14.4723C59.2828 14.4723 59.292 14.4564 59.2905 14.4546L59.2657 14.4369ZM35.2785 10.2159H35.2924L35.277 10.1946C35.277 10.1946 35.277 10.2052 35.277 10.2088C35.277 10.2123 35.2723 10.2229 35.2754 10.2283L35.2785 10.2159Z" fill="#1C1C1C"/>
<path d="M42.0222 18.8059C41.3057 18.8059 40.5891 18.8059 39.8726 18.8059C39.8107 18.8059 39.7504 18.7192 39.6885 18.6732C39.7473 18.6112 39.8061 18.4961 39.8618 18.4961C41.3475 18.5474 42.8316 18.6112 44.3157 18.6732C44.3542 18.6835 44.3913 18.7002 44.4256 18.7227C44.3709 18.7608 44.3106 18.7872 44.2476 18.8006C43.5063 18.8006 42.765 18.8006 42.0222 18.8006V18.8059Z" fill="#1C1C1C"/>
<path d="M45.2632 15.4452H42.4249C41.597 15.4452 40.7675 15.4452 39.9396 15.4452C39.8653 15.4315 39.7936 15.4033 39.7275 15.362C39.7802 15.3284 39.8343 15.2646 39.8823 15.2646C41.5712 15.2776 43.2591 15.293 44.9459 15.3107C45.0542 15.3473 45.1602 15.3922 45.2632 15.4452Z" fill="#1C1C1C"/>
<path d="M41.2224 14.0465C40.9795 13.8589 40.6142 14.259 40.4657 13.827C40.3867 13.6021 40.6312 13.6676 40.7195 13.6836C41.1481 13.7633 41.7362 13.3985 41.9575 13.8606C42.0674 14.0943 41.4669 13.85 41.2224 14.0465Z" fill="#1C1C1C"/>
<path d="M50.472 14.5527L51.5739 14.6537C51.2179 14.6767 50.8635 14.7174 50.5076 14.7174C50.1517 14.7174 49.7973 14.6767 49.4429 14.6519L50.472 14.5527Z" fill="#1C1C1C"/>
<path d="M13.7286 13.4746C14.0381 13.5985 14.3569 13.2976 14.5643 13.6765C14.6478 13.8269 14.4095 13.9137 14.0752 13.8358C13.9906 13.801 13.9092 13.7565 13.8323 13.703C13.806 13.6906 13.7688 13.703 13.741 13.6942C13.5258 13.6003 13.2767 13.8712 13.0786 13.6198L13.7286 13.4746Z" fill="#1C1C1C"/>
<path d="M8.37402 14.0605C8.87389 14.0605 9.37374 14.0605 9.87515 14.0605C9.89527 14.0605 9.91384 14.0995 9.93396 14.1207C9.9061 14.1402 9.87824 14.1774 9.85039 14.1774C9.35981 14.1774 8.86925 14.1774 8.37867 14.1774L8.37402 14.0605Z" fill="#1C1C1C"/>
<path d="M17.1763 17.2617C17.5105 17.2617 17.8448 17.2617 18.1775 17.2617C18.1992 17.2617 18.2209 17.2971 18.2425 17.3166C18.2178 17.3308 18.1915 17.3591 18.1667 17.3591C17.8371 17.3591 17.5075 17.3591 17.1794 17.3591L17.1763 17.2617Z" fill="#1C1C1C"/>
<path d="M11.274 15.2876C11.5448 15.3018 11.8141 15.3159 12.0849 15.3336V15.3867C11.8141 15.3867 11.5433 15.3867 11.2725 15.3867L11.274 15.2876Z" fill="#1C1C1C"/>
<path d="M10.5805 15.4433L10.1797 15.369C10.2365 15.3331 10.2983 15.3085 10.3623 15.2964C10.5743 15.2964 10.7848 15.3265 10.9968 15.3442L10.5805 15.4433Z" fill="#1C1C1C"/>
<path d="M12.3121 14.1988L12.2379 14.4679C12.171 14.3646 12.1188 14.2499 12.0831 14.128C12.0738 14.0713 12.1775 13.9881 12.2286 13.9155L12.3121 14.1988Z" fill="#1C1C1C"/>
<path d="M51.7771 16.5234L51.4676 17.0546C51.4196 16.7642 51.579 16.6332 51.7771 16.5234Z" fill="#1C1C1C"/>
<path d="M52.3898 15.9749C52.3898 15.6774 52.5833 15.8633 52.6869 15.8244L52.3867 15.9749H52.3898Z" fill="#1C1C1C"/>
<path d="M13.3881 15.4558L13.0786 15.2539C13.1962 15.2911 13.3696 15.2167 13.3881 15.4575V15.4558Z" fill="#1C1C1C"/>
<path d="M12.5692 15.6524L12.3247 15.509C12.3742 15.4949 12.4423 15.4524 12.4686 15.4736C12.5108 15.5252 12.5443 15.5853 12.5677 15.6507L12.5692 15.6524Z" fill="#1C1C1C"/>
<path d="M52.6868 15.824C52.721 15.7608 52.7604 15.7015 52.8044 15.6469C52.8152 15.6363 52.8771 15.6894 52.9174 15.7142L52.6821 15.8204L52.6868 15.824Z" fill="#1C1C1C"/>
<path d="M12.568 15.6541L12.8775 15.6931L12.8481 15.7834L12.5664 15.6523L12.568 15.6541Z" fill="#1C1C1C"/>
<path d="M51.9346 16.3499C51.9717 16.1339 52.1125 16.1533 52.2441 16.1728L51.9346 16.3499Z" fill="#1C1C1C"/>
<path d="M53.14 15.4346L53.2653 15.5373C53.2266 15.5603 53.1864 15.6045 53.1493 15.6028C53.1121 15.601 53.0657 15.5567 53.0239 15.5319L53.14 15.4346Z" fill="#1C1C1C"/>
<path d="M14.0055 17.0475C13.9606 16.9767 13.9157 16.9076 13.8755 16.8333C13.8755 16.8333 13.9095 16.7925 13.9297 16.7695C13.9529 16.8634 13.9776 16.959 14.0024 17.0528L14.0055 17.0475Z" fill="#1C1C1C"/>
<path d="M13.029 15.7798L13.1589 15.8807C13.124 15.9135 13.0842 15.9387 13.0413 15.9551C13.0119 15.9551 12.9763 15.9179 12.9438 15.8966L13.029 15.7798Z" fill="#1C1C1C"/>
<path d="M12.6143 14.9725C12.6735 14.9478 12.7355 14.9329 12.7984 14.9282C12.8294 14.9282 12.8557 14.9796 12.8835 15.0079C12.8468 15.0342 12.8066 15.0534 12.7644 15.0646C12.7319 15.0663 12.6994 15.0274 12.6143 14.9725Z" fill="#1C1C1C"/>
<path d="M51.2802 17.1875L51.2462 17.3646L51.1719 17.3274L51.2833 17.1875H51.2802Z" fill="#1C1C1C"/>
<path d="M13.3818 15.463L13.5366 15.6312C13.4267 15.6436 13.3633 15.6046 13.3911 15.4541L13.3818 15.463Z" fill="#1C1C1C"/>
<path d="M13.4067 16.1232L13.5166 16.2719L13.4423 16.3091L13.4083 16.1196L13.4067 16.1232Z" fill="#1C1C1C"/>
<path d="M13.0816 15.2541L12.9438 15.1709L13.0027 15.1089L13.0769 15.2594L13.0816 15.2541Z" fill="#1C1C1C"/>
<path d="M13.5288 15.6313L13.6836 15.8084C13.5536 15.8456 13.5288 15.7606 13.5288 15.6402V15.6313Z" fill="#1C1C1C"/>
<path d="M51.4722 17.0493L51.2803 17.1892L51.4722 17.0511V17.0493Z" fill="#1C1C1C"/>
<path d="M52.3835 15.9676L52.2442 16.1588C52.1901 15.9977 52.2628 15.9605 52.3851 15.9676H52.3835Z" fill="#1C1C1C"/>
<path d="M12.478 14.7244L12.5925 14.8501L12.5183 14.8943L12.4796 14.7173L12.478 14.7244Z" fill="#1C1C1C"/>
<path d="M12.4795 14.7228L12.3247 14.6768L12.3572 14.5918L12.4795 14.7264V14.7228Z" fill="#1C1C1C"/>
<path d="M13.4083 16.1197L13.2427 16.0736L13.2814 15.9922L13.4052 16.1232L13.4083 16.1197Z" fill="#1C1C1C"/>
<path d="M13.8354 15.9621C13.6946 16.0135 13.6946 15.8966 13.6807 15.7939L13.8354 15.9621Z" fill="#1C1C1C"/>
<path d="M13.6957 16.4349C13.6555 16.4579 13.6307 16.4827 13.609 16.4791C13.5874 16.4756 13.5703 16.4437 13.5518 16.4243C13.5765 16.403 13.5982 16.3711 13.626 16.3641C13.6539 16.357 13.6632 16.3995 13.6957 16.4349Z" fill="#1C1C1C"/>
<path d="M51.9301 16.3428L51.7754 16.5198L51.9301 16.3428Z" fill="#1C1C1C"/>
<path d="M50.9502 17.6334C51.0059 17.6139 51.0322 17.5962 51.0523 17.6015C51.0725 17.6069 51.091 17.6387 51.1096 17.6582C51.0957 17.6759 51.0802 17.7025 51.0632 17.706C51.0461 17.7095 51.0245 17.6848 50.9502 17.6334Z" fill="#1C1C1C"/>
<path d="M13.8369 16.6048C13.8044 16.6314 13.7859 16.6562 13.7627 16.6615C13.7394 16.6668 13.7209 16.619 13.724 16.6084C13.7353 16.5812 13.7544 16.5593 13.7781 16.5464C13.7781 16.5464 13.8091 16.5747 13.8369 16.6048Z" fill="#1C1C1C"/>
<path d="M50.9581 18.0144C50.9349 18.0286 50.9194 18.0445 50.9086 18.041C50.8977 18.0375 50.89 18.0162 50.8838 18.0003C50.8776 17.9843 50.9024 17.979 50.9101 17.9808C50.9274 17.9893 50.9436 18.0007 50.9581 18.0144Z" fill="#1C1C1C"/>
<path d="M50.7711 18.3594C50.7746 18.3642 50.7772 18.3697 50.779 18.3756C50.779 18.3756 50.7711 18.3864 50.7679 18.39L50.7554 18.363L50.7711 18.3594Z" fill="#1C1C1C"/>
<path d="M11.0153 20.2365C10.5046 20.2241 10.3298 19.7584 10.322 19.3335C10.3143 18.9086 10.4768 18.4252 11.0308 18.4287C11.5848 18.4323 11.8046 18.7828 11.8294 19.337C11.8572 19.8505 11.4904 20.2294 11.0153 20.2365ZM11.3527 19.0325C11.3045 18.9598 11.2407 18.9026 11.1675 18.8663C11.0943 18.83 11.0142 18.8159 10.9349 18.8253C10.8188 18.8253 10.7089 18.9794 10.5975 19.0644C10.7625 19.2914 10.9494 19.4963 11.1546 19.6752C11.2243 19.7265 11.4069 19.5159 11.3527 19.0325ZM11.4936 19.2839L11.6003 19.4893C11.6235 19.4273 11.67 19.3671 11.6684 19.3122C11.6577 19.2274 11.6369 19.1446 11.6065 19.0661L11.4936 19.2839Z" fill="#1C1C1C"/>
<path d="M10.3019 21.4564L9.6659 21.5007C9.55536 21.3626 9.45201 21.2171 9.35639 21.0651C9.25579 20.8881 9.07474 20.5463 9.11188 20.5074C9.29913 20.3109 9.54984 20.0754 9.77114 20.0842C9.93828 20.0842 10.2354 20.4543 10.223 20.6437C10.2122 20.9341 9.89803 21.2138 10.3019 21.4564Z" fill="#1C1C1C"/>
<path d="M8.85986 18.6624C9.07033 18.3968 8.94962 17.8125 9.35972 17.7647C9.54853 17.7417 9.88588 18.1029 9.94933 18.3579C9.99731 18.5508 9.7203 18.8518 9.58721 19.105C9.40615 18.8483 8.95581 19.2113 8.85986 18.6624Z" fill="#1C1C1C"/>
<path d="M53.7314 19.3565C53.7856 18.7917 54.0239 18.319 54.4542 18.2942C54.9494 18.2729 55.3069 18.728 55.3084 19.314C55.3107 19.4498 55.2891 19.5848 55.2448 19.7109C55.2006 19.837 55.1347 19.9516 55.0509 20.0479C54.9672 20.1442 54.8673 20.2202 54.7574 20.2715C54.6474 20.3228 54.5296 20.3482 54.4108 20.3463C53.9651 20.3551 53.8413 19.7761 53.7314 19.3565ZM54.6987 19.4557C54.7343 19.0095 54.5594 18.882 54.3226 18.8342C54.1864 18.8059 54.0301 18.9351 54.0889 19.036C54.2456 19.2635 54.4213 19.4728 54.6135 19.661L54.6987 19.4557Z" fill="#1C1C1C"/>
<path d="M53.4762 21.2651C52.8696 21.6564 52.7675 20.9393 52.6189 20.6365C52.4904 20.3763 52.9671 20.3108 53.1234 20.0912C53.1342 20.077 53.2782 20.1302 53.2782 20.1709C53.3308 20.4418 53.8213 20.4896 53.5613 20.9181C53.5152 21.0302 53.4839 21.1495 53.4685 21.2722L53.4762 21.2651Z" fill="#1C1C1C"/>
<path d="M52.7764 18.9828C52.6216 18.9385 52.3261 18.9385 52.3957 18.5897C52.4561 18.2976 52.6449 18.0391 52.7764 17.7646C52.9312 17.9948 53.3382 18.0249 53.2887 18.3719C53.2562 18.6021 53.2453 19.0448 52.7764 18.9828Z" fill="#1C1C1C"/>
<path d="M53.6043 17.1909C53.547 17.2476 53.4495 17.368 53.4371 17.3503C53.2824 17.2352 53.4495 17.26 53.4867 17.237C53.5259 17.2182 53.5669 17.2051 53.6089 17.198L53.6043 17.1909Z" fill="#1C1C1C"/>
</svg>
