<svg width="36" height="36" viewBox="0 0 36 36" fill="none" xmlns="http://www.w3.org/2000/svg">
<rect width="36" height="36" rx="18" fill="#383632"/>
<path d="M25.3221 23.3017L18.4573 11.4203C18.355 11.2437 18.1784 11.1562 18.0002 11.1562C17.822 11.1562 17.6438 11.2437 17.5431 11.4203L10.6783 23.3017C10.4753 23.6548 10.7295 24.0938 11.1354 24.0938H24.865C25.271 24.0938 25.5251 23.6548 25.3221 23.3017ZM17.4721 16.0408C17.4721 15.9682 17.5316 15.9088 17.6042 15.9088H18.3963C18.4689 15.9088 18.5283 15.9682 18.5283 16.0408V19.0772C18.5283 19.1498 18.4689 19.2092 18.3963 19.2092H17.6042C17.5316 19.2092 17.4721 19.1498 17.4721 19.0772V16.0408ZM18.0002 21.8495C17.7929 21.8453 17.5956 21.7599 17.4505 21.6119C17.3054 21.4638 17.2241 21.2647 17.2241 21.0574C17.2241 20.8501 17.3054 20.651 17.4505 20.5029C17.5956 20.3548 17.7929 20.2695 18.0002 20.2653C18.2075 20.2695 18.4048 20.3548 18.5499 20.5029C18.695 20.651 18.7763 20.8501 18.7763 21.0574C18.7763 21.2647 18.695 21.4638 18.5499 21.6119C18.4048 21.7599 18.2075 21.8453 18.0002 21.8495Z" fill="#F6F6F6"/>
</svg>
