<svg width="62" height="30" viewBox="0 0 62 30" fill="none" xmlns="http://www.w3.org/2000/svg">
<path d="M45.5608 17.4575C44.8759 17.2077 44.1425 17.12 43.4181 17.2013C42.6936 17.2826 41.9979 17.5306 41.3855 17.926C40.773 18.3214 40.2605 18.8533 39.8882 19.4801C39.5159 20.1068 39.2939 20.8113 39.2397 21.5383C39.1854 22.2652 39.3003 22.9949 39.5755 23.6699C39.8506 24.345 40.2784 24.9471 40.8254 25.429C41.3724 25.9109 42.0236 26.2596 42.7279 26.4475C43.4322 26.6354 44.1706 26.6576 44.8849 26.5122C47.0728 26.0893 48.6388 24.0907 48.662 21.8893C48.6527 20.9239 48.3515 19.9839 47.798 19.1929C47.2445 18.4019 46.4645 17.797 45.5608 17.4575ZM45.2576 25.3883C44.5121 25.6681 43.6968 25.7025 42.9305 25.4864C42.1641 25.2704 41.4868 24.8151 40.9974 24.1871C40.5079 23.5591 40.2318 22.7912 40.2094 21.9953C40.187 21.1994 40.4194 20.4171 40.8727 19.7626C41.3261 19.108 41.9767 18.6154 42.7296 18.3565C43.4826 18.0976 44.2986 18.0861 45.0586 18.3235C45.8186 18.5609 46.4829 19.0348 46.9546 19.6763C47.4264 20.3177 47.6809 21.093 47.681 21.8893C47.6743 22.6482 47.4396 23.3876 47.0075 24.0115C46.5753 24.6354 45.9657 25.1151 45.2576 25.3883Z" fill="#1C1C1C"/>
<path d="M44.8021 19.7403C44.3728 19.5848 43.9052 19.5695 43.4666 19.6965C43.0281 19.8235 42.641 20.0863 42.3612 20.4471C42.0813 20.8079 41.9231 21.2481 41.9092 21.7045C41.8953 22.1609 42.0265 22.61 42.2839 22.9871C42.5412 23.3643 42.9116 23.6501 43.3416 23.8036C43.7717 23.957 44.2393 23.9702 44.6773 23.8411C45.1153 23.7121 45.5011 23.4475 45.7792 23.0854C46.0574 22.7233 46.2135 22.2823 46.2253 21.8258C46.2263 21.8078 46.2263 21.7898 46.2253 21.7718C46.2253 21.7486 46.2253 21.7254 46.2253 21.7042C46.2074 21.2732 46.0629 20.857 45.8098 20.5077C45.5567 20.1584 45.2062 19.8914 44.8021 19.7403ZM44.0645 23.2007C43.7826 23.2007 43.5071 23.1172 43.2727 22.9606C43.0384 22.804 42.8557 22.5814 42.7478 22.321C42.64 22.0606 42.6118 21.774 42.6667 21.4976C42.7217 21.2212 42.8575 20.9672 43.0568 20.7679C43.2561 20.5686 43.51 20.4329 43.7864 20.3779C44.0629 20.3229 44.3494 20.3511 44.6098 20.459C44.8702 20.5669 45.0928 20.7495 45.2494 20.9839C45.406 21.2182 45.4896 21.4938 45.4896 21.7756C45.486 22.1525 45.3348 22.5129 45.0683 22.7794C44.8018 23.0459 44.4413 23.1972 44.0645 23.2007Z" fill="#1C1C1C"/>
<path d="M14.6372 17.4575C13.9528 17.209 13.2202 17.1223 12.4967 17.2043C11.7732 17.2863 11.0786 17.5347 10.4671 17.93C9.85571 18.3254 9.34415 18.8569 8.97252 19.483C8.60089 20.1092 8.37929 20.8128 8.32509 21.5389C8.2709 22.265 8.38557 22.9938 8.66013 23.6681C8.93469 24.3425 9.36167 24.9441 9.90762 25.4258C10.4536 25.9076 11.1037 26.2563 11.807 26.4448C12.5102 26.6333 13.2476 26.6563 13.9613 26.5122C16.1511 26.0893 17.7172 24.0906 17.7404 21.8893C17.7306 20.9237 17.4291 19.9837 16.8752 19.1927C16.3214 18.4018 15.5412 17.7969 14.6372 17.4575ZM14.3398 25.3883C13.5945 25.6685 12.7791 25.7034 12.0126 25.4877C11.2461 25.272 10.5685 24.817 10.0787 24.1892C9.58889 23.5614 9.31246 22.7935 9.28971 21.9976C9.26695 21.2016 9.49907 20.4192 9.95221 19.7644C10.4053 19.1097 11.0558 18.6168 11.8087 18.3576C12.5617 18.0985 13.3777 18.0867 14.1378 18.3239C14.898 18.5611 15.5624 19.0349 16.0344 19.6763C16.5063 20.3176 16.761 21.093 16.7613 21.8893C16.7549 22.648 16.5207 23.3874 16.0888 24.0113C15.657 24.6353 15.0477 25.115 14.3398 25.3883Z" fill="#1C1C1C"/>
<path d="M13.8783 19.7403C13.449 19.5848 12.9814 19.5695 12.5428 19.6965C12.1042 19.8235 11.7172 20.0863 11.4374 20.4471C11.1575 20.8079 10.9993 21.2481 10.9854 21.7045C10.9715 22.1609 11.1026 22.61 11.36 22.9871C11.6174 23.3643 11.9877 23.6501 12.4178 23.8036C12.8478 23.957 13.3155 23.9702 13.7535 23.8411C14.1914 23.7121 14.5772 23.4475 14.8554 23.0854C15.1335 22.7233 15.2897 22.2823 15.3015 21.8258C15.3034 21.8079 15.3034 21.7897 15.3015 21.7718C15.3044 21.7493 15.3044 21.7266 15.3015 21.7042C15.2836 21.2732 15.1391 20.857 14.886 20.5077C14.6328 20.1584 14.2823 19.8914 13.8783 19.7403ZM13.1426 23.2007C12.8607 23.2007 12.5852 23.1172 12.3508 22.9606C12.1165 22.804 11.9338 22.5814 11.8259 22.321C11.7181 22.0606 11.6899 21.774 11.7448 21.4976C11.7998 21.2212 11.9356 20.9672 12.1349 20.7679C12.3342 20.5686 12.5881 20.4329 12.8645 20.3779C13.141 20.3229 13.4275 20.3511 13.6879 20.459C13.9483 20.5669 14.1709 20.7495 14.3275 20.9839C14.4841 21.2182 14.5677 21.4938 14.5677 21.7756C14.5646 22.1526 14.4135 22.5134 14.1469 22.78C13.8803 23.0466 13.5196 23.1977 13.1426 23.2007Z" fill="#1C1C1C"/>
<path d="M57.8598 11.2632C57.6938 11.2627 57.5313 11.3109 57.3924 11.4018C57.2535 11.4926 57.1442 11.6222 57.0781 11.7745C57.012 11.9268 56.9919 12.0951 57.0204 12.2586C57.0489 12.4222 57.1247 12.5738 57.2384 12.6948C57.352 12.8157 57.4987 12.9007 57.6601 12.9393C57.8216 12.9778 57.9908 12.9682 58.1469 12.9117C58.303 12.8551 58.4391 12.7541 58.5384 12.621C58.6377 12.488 58.6958 12.3288 58.7056 12.1631C58.7078 12.1464 58.7078 12.1295 58.7056 12.1128C58.7076 12.0968 58.7076 12.0806 58.7056 12.0646C58.6911 11.8492 58.596 11.6471 58.4393 11.4986C58.2826 11.3501 58.0757 11.2661 57.8598 11.2632ZM57.3385 12.1128C57.3385 11.4389 58.3464 11.4447 58.3831 12.1128C58.3464 12.7829 57.3385 12.7887 57.3385 12.1128Z" fill="#1C1C1C"/>
<path d="M55.8032 11.5103H53.6095C53.3109 11.5103 53.0688 11.7523 53.0688 12.0509V12.161C53.0688 12.4596 53.3109 12.7017 53.6095 12.7017H55.8032C56.1018 12.7017 56.3439 12.4596 56.3439 12.161V12.0509C56.3439 11.7523 56.1018 11.5103 55.8032 11.5103Z" fill="#1C1C1C"/>
<path d="M61.8436 11.0017H59.9743C59.7459 10.6384 59.4308 10.3376 59.0574 10.1262C58.6839 9.91488 58.2637 9.79967 57.8347 9.79093H52.1497H41.7607L38.7213 7.56251L33.6716 3.87421L32.513 3.02842C32.4753 3.00753 32.4311 3.0019 32.3894 3.01268C32.3477 3.02346 32.3118 3.04983 32.289 3.08635L31.8796 3.65021C31.8582 3.68775 31.8523 3.73214 31.8631 3.77396C31.8739 3.81578 31.9006 3.85174 31.9375 3.87421L35.0851 6.17215L38.1458 8.40831C38.0237 8.42368 37.911 8.48174 37.8276 8.57221C37.7442 8.66267 37.6955 8.77973 37.6901 8.90265V10.0439C35.7938 11.5115 33.4978 12.1951 31.111 12.1951H21.7126C21.4056 12.1951 21.1005 12.1951 20.7935 12.1951C20.6786 12.1923 20.5648 12.1728 20.4555 12.1372L17.8679 7.38099C17.8454 7.34414 17.8096 7.31737 17.7679 7.30622C17.7262 7.29508 17.6818 7.30041 17.6439 7.32113L16.9179 7.64362C16.8806 7.66574 16.8536 7.7017 16.8427 7.74367C16.8319 7.78563 16.838 7.83019 16.8599 7.86761L17.9664 9.87976C17.8659 9.81966 17.7514 9.78703 17.6343 9.78514C17.2288 9.77162 16.8194 9.78514 16.4119 9.78514H6.67948C6.18669 9.76551 5.69332 9.80506 5.20995 9.90293C4.57489 10.0624 3.98646 10.3696 3.49253 10.7994C2.9986 11.2293 2.61312 11.7696 2.36746 12.3766C2.0527 13.149 2.07394 13.9465 2.07394 14.7634V14.9565H0.540689C0.497641 14.957 0.456466 14.9741 0.425845 15.0044C0.395224 15.0347 0.377554 15.0756 0.376556 15.1187V16.8392C0.377057 16.8826 0.394511 16.9241 0.425185 16.9548C0.455859 16.9854 0.497313 17.0029 0.540689 17.0034H1.91946C1.91946 17.154 1.91946 17.3046 1.93877 17.4533H0V18.6448H2.19946C2.22843 18.722 2.26125 18.7973 2.29601 18.8707C2.42518 19.3002 2.62914 19.7035 2.8985 20.0622C3.28428 20.5733 3.78269 20.9887 4.35503 21.2761C4.92737 21.5634 5.55824 21.715 6.19865 21.719H7.16417C7.27147 21.718 7.37556 21.6823 7.46085 21.6172C7.54615 21.5521 7.60805 21.4611 7.63727 21.3579C7.78248 20.3538 8.2067 19.4106 8.86161 18.6357C9.51653 17.8608 10.3758 17.2854 11.3417 16.9749C12.3076 16.6644 13.3413 16.6313 14.325 16.8794C15.3088 17.1275 16.2032 17.6469 16.9063 18.3783C17.382 18.8807 17.7564 19.4701 18.0089 20.1143C18.0939 20.3839 18.1584 20.6595 18.202 20.9388C18.217 21.0185 18.2577 21.0911 18.3179 21.1455C18.3333 21.2208 18.3468 21.2961 18.3604 21.3714C18.3887 21.4751 18.4504 21.5667 18.5359 21.6319C18.6214 21.6972 18.7259 21.7325 18.8335 21.7325H38.1149C38.2222 21.7316 38.3263 21.6958 38.4116 21.6307C38.4969 21.5656 38.5588 21.4746 38.588 21.3714C38.7346 20.3693 39.1591 19.4283 39.8134 18.6552C40.4677 17.8821 41.3255 17.3079 42.2896 16.9976C43.2537 16.6874 44.2855 16.6536 45.2679 16.9C46.2502 17.1464 47.1439 17.6632 47.8474 18.3918C48.3278 18.8884 48.7075 19.4733 48.9654 20.1143C49.0495 20.3842 49.114 20.6597 49.1585 20.9388C49.1729 21.0183 49.2129 21.0909 49.2725 21.1455C49.2879 21.2208 49.3014 21.2961 49.315 21.3714C49.3433 21.4751 49.405 21.5667 49.4905 21.6319C49.576 21.6972 49.6805 21.7325 49.7881 21.7325H52.3486C53.4474 21.7325 54.5056 21.7692 55.5059 21.2111C56.2807 20.7707 56.8944 20.0941 57.2573 19.2801C57.2774 19.2559 57.2942 19.2293 57.3075 19.2009C57.8225 18.1105 58.3432 17.0163 58.8697 15.9181C59.1053 15.4276 59.339 14.9352 59.5746 14.4428H61.048C61.0733 14.4431 61.0983 14.4379 61.1213 14.4274C61.1427 14.4179 61.1615 14.4035 61.1763 14.3854C61.1911 14.3673 61.2013 14.3459 61.2063 14.3231C61.4638 13.2842 61.7251 12.244 61.9903 11.2025C61.9953 11.1796 61.9954 11.1558 61.9906 11.1328C61.9857 11.1098 61.976 11.088 61.9622 11.0691C61.9483 11.0501 61.9305 11.0343 61.9101 11.0226C61.8897 11.011 61.867 11.0039 61.8436 11.0017ZM2.08167 16.399C1.9965 16.4715 1.94198 16.5736 1.92911 16.6848H0.710622V15.2867H2.08167V16.399ZM33.2641 4.43615L32.2484 3.70042C32.3199 3.60001 32.3932 3.50732 32.4666 3.40111L35.4945 5.61409L40.5442 9.30045L41.2123 9.78707H40.5847L38.3099 8.12638L33.2641 4.43615ZM20.9055 15.8081V13.178C21.9212 13.1992 22.9369 13.178 23.9527 13.178H29.151C30.2923 13.178 31.4683 13.2398 32.6018 13.1104C34.3235 12.9226 35.9792 12.3419 37.441 11.413L37.7944 11.1832V11.8765C37.7167 11.898 37.6481 11.9444 37.5993 12.0086C37.5505 12.0727 37.524 12.1511 37.524 12.2318V12.3245C37.5243 12.4053 37.5508 12.4838 37.5995 12.5482C37.6483 12.6127 37.7167 12.6595 37.7944 12.6817V13.5256C37.7165 13.5475 37.6479 13.5942 37.5991 13.6587C37.5503 13.7232 37.5239 13.8019 37.524 13.8828V13.9736C37.5239 14.0545 37.5503 14.1332 37.5991 14.1976C37.6479 14.2621 37.7165 14.3089 37.7944 14.3308C37.7944 14.3984 37.7944 14.4679 37.7944 14.5355C37.777 15.0202 37.5221 15.3253 37.1668 15.6208C36.4941 16.1415 35.9486 16.8085 35.5717 17.5711C35.3072 18.1639 34.919 18.5598 34.2316 18.5656C33.6948 18.5656 33.156 18.5656 32.6192 18.5656H25.9725H23.188C22.6955 18.5656 22.0525 18.6506 21.6006 18.4208C20.6776 17.9322 20.9055 16.6693 20.9055 15.8081ZM17.2365 7.86182L17.6632 7.66871C18.4061 9.03847 19.1502 10.4076 19.8955 11.776C19.8627 11.7452 19.8318 11.7162 19.8009 11.6834L18.9068 10.7816L18.7678 10.6387L17.2365 7.86182ZM59.0744 12.0522C58.7874 12.656 58.499 13.2597 58.2093 13.8635H48.8805L49.7243 14.7788H57.7729L57.4176 15.5261H50.2052L51.049 16.4414H56.9812L56.6587 17.1134C56.5448 17.3529 56.4308 17.5943 56.315 17.8337C56.2931 17.8676 56.2737 17.9031 56.257 17.9399C56.0779 18.369 55.8065 18.7534 55.4621 19.0658C55.1177 19.3782 54.7087 19.6109 54.2642 19.7474C53.7726 19.8644 53.2664 19.9087 52.7619 19.8787H50.0449C49.7257 18.4618 48.9339 17.1957 47.7996 16.2885C46.6653 15.3814 45.2562 14.8872 43.8038 14.8872C42.3514 14.8872 40.9422 15.3814 39.8079 16.2885C38.6737 17.1957 37.8818 18.4618 37.5626 19.8787H19.0787C18.7595 18.4618 17.9677 17.1957 16.8334 16.2885C15.6991 15.3814 14.29 14.8872 12.8376 14.8872C11.3852 14.8872 9.97599 15.3814 8.84173 16.2885C7.70747 17.1957 6.91565 18.4618 6.59645 19.8787C5.90127 19.8787 5.22153 19.8613 4.58236 19.5195C4.18508 19.3058 3.83759 19.0103 3.56277 18.6525H4.1054V17.461H3.06843C3.06843 17.4263 3.06843 17.3935 3.06843 17.3587V14.5973C3.06843 14.3617 3.06843 14.1242 3.06843 13.8867C3.06982 13.2079 3.2914 12.5479 3.69988 12.0058C4.00255 11.6137 4.3924 11.2976 4.83854 11.0824C5.28468 10.8672 5.77483 10.7589 6.2701 10.7661C6.76252 10.7661 7.25686 10.7661 7.74927 10.7661H17.503L18.7871 12.0618C18.9532 12.2298 19.1135 12.4036 19.2853 12.5658C19.6441 12.9009 20.1024 13.1097 20.5907 13.1606V16.7427C20.5667 17.0609 20.5836 17.3808 20.6409 17.6947C20.7417 18.0349 20.9498 18.3334 21.2341 18.5457C21.5184 18.758 21.8637 18.8727 22.2186 18.8726H22.6048H25.034H32.0534H34.1196C34.4274 18.8861 34.7341 18.828 35.0156 18.7027C35.3585 18.5327 35.6316 18.2487 35.788 17.8994C35.9901 17.4316 36.2623 16.9973 36.5952 16.6114C37.1224 16.0166 37.9933 15.5841 38.1149 14.7325C38.133 14.5935 38.1414 14.4535 38.14 14.3134C38.2191 14.2922 38.289 14.2456 38.3389 14.1806C38.3888 14.1157 38.416 14.0362 38.4162 13.9543V13.8635C38.4162 13.7799 38.388 13.6987 38.3361 13.6332C38.2842 13.5676 38.2117 13.5216 38.1304 13.5024V12.6663C38.2114 12.6465 38.2835 12.6002 38.3353 12.5348C38.3871 12.4694 38.4155 12.3886 38.4162 12.3052V12.2125C38.4158 12.1292 38.3874 12.0485 38.3355 11.9833C38.2837 11.9182 38.2114 11.8724 38.1304 11.8533V10.936C38.2509 10.8473 38.3669 10.7526 38.4779 10.6522C38.6711 10.4745 38.6711 10.2872 38.6711 10.0555V9.84114L39.7872 10.6136C39.8309 10.6611 39.884 10.6991 39.9432 10.7251C40.0024 10.751 40.0663 10.7643 40.1309 10.7642H47.1174C49.3304 10.7642 51.5434 10.741 53.7564 10.7642C55.1081 10.7816 56.4695 10.7642 57.827 10.7642C58.1066 10.7716 58.3791 10.8534 58.6167 11.001C58.8543 11.1486 59.0482 11.3568 59.1787 11.6042C59.1607 11.7577 59.1231 11.9083 59.0667 12.0522H59.0744ZM60.9321 14.1223H59.7406L59.8333 13.9292C60.0882 13.3962 60.3528 12.8825 60.3451 12.2723C60.3444 11.9485 60.2787 11.628 60.152 11.33H61.6427C61.3968 12.2607 61.1574 13.1934 60.9244 14.1281L60.9321 14.1223Z" fill="#1C1C1C"/>
<path d="M23.9718 15.4243H22.4076C22.1911 15.4243 22.0156 15.5998 22.0156 15.8163V15.8994C22.0156 16.1158 22.1911 16.2914 22.4076 16.2914H23.9718C24.1883 16.2914 24.3638 16.1158 24.3638 15.8994V15.8163C24.3638 15.5998 24.1883 15.4243 23.9718 15.4243Z" fill="#1C1C1C"/>
</svg>
