<svg width="48" height="48" viewBox="0 0 48 48" fill="none" xmlns="http://www.w3.org/2000/svg">
<rect width="48" height="48" rx="24" fill="#383632"/>
<path d="M33.8938 17.1277H30.0959L29.1911 14.592C29.1286 14.4185 29.0141 14.2685 28.8631 14.1626C28.7122 14.0566 28.5322 13.9998 28.3478 14H19.7801C19.4031 14 19.0652 14.2374 18.9396 14.592L18.032 17.1277H14.2341C12.9997 17.1277 12 18.1274 12 19.3618V32.0959C12 33.3303 12.9997 34.33 14.2341 34.33H33.8938C35.1282 34.33 36.1279 33.3303 36.1279 32.0959V19.3618C36.1279 18.1274 35.1282 17.1277 33.8938 17.1277ZM24.064 30.8619C20.6279 30.8619 18.5958 29 18.5958 25.3937C18.5958 21.7875 20.6279 19.9256 24.064 19.9256C27.5 19.9256 29.5321 22.2875 29.5321 25.3937C29.5321 28.5 27.5 30.8619 24.064 30.8619ZM21.3831 25.3937C21.3831 26.1048 21.6655 26.7866 22.1683 27.2894C22.6711 27.7922 23.3529 28.0746 24.064 28.0746C24.775 28.0746 25.4569 27.7922 25.9596 27.2894C26.4624 26.7866 26.7448 26.1048 26.7448 25.3937C26.7448 24.6827 26.4624 24.0008 25.9596 23.4981C25.4569 22.9953 24.775 22.7129 24.064 22.7129C23.3529 22.7129 22.6711 22.9953 22.1683 23.4981C21.6655 24.0008 21.3831 24.6827 21.3831 25.3937Z" fill="white"/>
</svg>
