<svg width="48" height="48" viewBox="0 0 48 48" fill="none" xmlns="http://www.w3.org/2000/svg">
<rect width="48" height="48" rx="24" fill="#383632"/>
<path d="M33.7856 29.1972H24.0856C23.6959 29.1972 23.3675 29.0637 23.1005 28.7966C22.8334 28.5296 22.6999 28.2012 22.6999 27.8115C22.6999 27.4217 22.8334 27.0934 23.1005 26.8263C23.3675 26.5593 23.6959 26.4258 24.0856 26.4258H33.7856C34.1753 26.4258 34.5037 26.5593 34.7707 26.8263C35.0377 27.0934 35.1713 27.4217 35.1713 27.8115C35.1713 28.2012 35.0377 28.5296 34.7707 28.7966C34.5037 29.0637 34.1753 29.1972 33.7856 29.1972ZM33.7856 22.3142H24.0856C23.6959 22.3142 23.3675 22.1771 23.1005 21.9028C22.8334 21.6286 22.6999 21.3002 22.6999 20.9177C22.6999 20.5352 22.8334 20.2104 23.1005 19.9434C23.3675 19.6763 23.6959 19.5428 24.0856 19.5428H33.7856C34.1753 19.5428 34.5037 19.6763 34.7707 19.9434C35.0377 20.2104 35.1713 20.5352 35.1713 20.9177C35.1713 21.3002 35.0377 21.6286 34.7707 21.9028C34.5037 22.1771 34.1753 22.3142 33.7856 22.3142ZM33.7856 16.7714H24.0856C23.6959 16.7714 23.3675 16.6343 23.1005 16.36C22.8334 16.0858 22.6999 15.7574 22.6999 15.3749C22.6999 14.9924 22.8334 14.6676 23.1005 14.4006C23.3675 14.1335 23.6959 14 24.0856 14H33.7856C34.1753 14 34.5037 14.1335 34.7707 14.4006C35.0377 14.6676 35.1713 14.9924 35.1713 15.3749C35.1713 15.7574 35.0377 16.0858 34.7707 16.36C34.5037 16.6343 34.1753 16.7714 33.7856 16.7714ZM19.9285 34.74H14.3857C13.996 34.74 13.6676 34.6065 13.4006 34.3394C13.1335 34.0724 13 33.744 13 33.3543V27.8115C13 27.4217 13.1335 27.0934 13.4006 26.8263C13.6676 26.5593 13.996 26.4258 14.3857 26.4258H19.9285C20.3038 26.4258 20.6286 26.5593 20.9028 26.8263C21.1771 27.0934 21.3142 27.4217 21.3142 27.8115V33.3543C21.3142 33.744 21.1771 34.0724 20.9028 34.3394C20.6286 34.6065 20.3038 34.74 19.9285 34.74ZM19.9285 22.3142H14.3857C13.996 22.3142 13.6676 22.1771 13.4006 21.9028C13.1335 21.6286 13 21.3038 13 20.9285V15.3857C13 14.996 13.1335 14.6676 13.4006 14.4006C13.6676 14.1335 13.996 14 14.3857 14H19.9285C20.3038 14 20.6286 14.1335 20.9028 14.4006C21.1771 14.6676 21.3142 14.996 21.3142 15.3857V20.9285C21.3142 21.3038 21.1771 21.6286 20.9028 21.9028C20.6286 22.1771 20.3038 22.3142 19.9285 22.3142ZM24.0856 31.9686H33.7856C34.1753 31.9686 34.5037 32.1021 34.7707 32.3691C35.0377 32.6362 35.1713 32.9646 35.1713 33.3543C35.1713 33.744 35.0341 34.0724 34.7599 34.3394C34.4856 34.6065 34.1609 34.74 33.7856 34.74H24.0856C23.6959 34.74 23.3675 34.6065 23.1005 34.3394C22.8334 34.0724 22.6999 33.744 22.6999 33.3543C22.6999 32.9646 22.8334 32.6362 23.1005 32.3691C23.3675 32.1021 23.6959 31.9686 24.0856 31.9686Z" fill="white"/>
</svg>
