<svg width="63" height="31" viewBox="0 0 63 31" fill="none" xmlns="http://www.w3.org/2000/svg">
<path d="M30.2931 0.00195312H29.1924C29.0151 0.00195312 28.8708 1.22015 28.8708 1.44483C28.8617 1.54127 28.8897 1.63755 28.9491 1.71411C29.0084 1.79068 29.0947 1.84179 29.1903 1.85708H30.291C30.3872 1.84227 30.4742 1.79144 30.5343 1.71488C30.5944 1.63833 30.6231 1.54178 30.6146 1.44483C30.6146 1.22221 30.4704 0.00195312 30.2931 0.00195312Z" fill="#1C1C1C"/>
<path fill-rule="evenodd" clip-rule="evenodd" d="M7.39606 14.0565C7.42869 14.0891 7.44749 14.1331 7.44854 14.1792C7.44854 14.4905 7.44648 14.8017 7.43823 15.1088C7.43735 15.1477 7.44006 15.2027 7.44321 15.2665C7.45474 15.5007 7.47211 15.8532 7.3393 15.9601C7.32357 15.9764 7.30463 15.9891 7.2837 15.9977C7.26276 16.0062 7.24028 16.0102 7.21768 16.0096H3.42911C3.38281 16.0091 3.33856 15.9904 3.30581 15.9577C3.27307 15.9249 3.25444 15.8807 3.25391 15.8344C3.29719 14.0267 5.9562 13.9071 7.27334 14.004C7.31947 14.0051 7.36343 14.0238 7.39606 14.0565ZM7.06515 15.7478V15.7622C7.06454 15.7575 7.06454 15.7526 7.06515 15.7478ZM7.09401 14.9419C7.09503 14.8427 7.09555 14.7435 7.09606 14.645C7.09657 14.5454 7.09709 14.4456 7.09813 14.3482C6.57176 14.323 6.04419 14.3506 5.52334 14.4307C4.77923 14.5482 3.76303 14.8285 3.62081 15.6674H7.06927C7.06927 15.6355 7.07237 15.6025 7.07546 15.5695C7.07855 15.5365 7.08164 15.5036 7.08164 15.4716C7.09401 15.2943 7.09401 15.1171 7.09401 14.9419Z" fill="#1C1C1C"/>
<path d="M35.2903 20.0478C35.377 20.0354 35.4655 20.0527 35.5412 20.0968C36.2688 20.6781 34.8486 21.2491 34.9805 20.3256L32.9193 19.7341L32.406 21.8118C32.4964 21.8369 32.5748 21.8937 32.6269 21.9717C32.679 22.0498 32.7013 22.1439 32.6899 22.2371C32.6784 22.3302 32.6338 22.4161 32.5643 22.4792C32.4948 22.5422 32.405 22.5782 32.3112 22.5806C32.2176 22.5778 32.128 22.5415 32.0589 22.4782C31.9897 22.415 31.9455 22.3291 31.9343 22.2361C31.9231 22.1431 31.9456 22.0491 31.9977 21.9713C32.0498 21.8934 32.1282 21.8368 32.2185 21.8118L31.7031 19.7341L29.6419 20.3256C29.6666 20.4168 29.6576 20.5138 29.6164 20.5988C29.5753 20.6839 29.5048 20.7511 29.4179 20.7883C29.3311 20.8254 29.2338 20.8299 29.1439 20.801C29.0539 20.772 28.9775 20.7115 28.9287 20.6307C28.8844 20.5483 28.871 20.4527 28.8911 20.3613C28.9111 20.2699 28.9632 20.1887 29.038 20.1324C29.1127 20.0761 29.2052 20.0484 29.2985 20.0544C29.3919 20.0603 29.4801 20.0995 29.5471 20.1649L31.0765 18.6808L29.5347 17.1946C29.4677 17.2599 29.3796 17.2991 29.2862 17.3051C29.1928 17.311 29.1004 17.2833 29.0256 17.227C28.9509 17.1707 28.8988 17.0895 28.8787 16.9981C28.8587 16.9067 28.872 16.8112 28.9163 16.7288C28.9652 16.6479 29.0416 16.5874 29.1315 16.5585C29.2214 16.5295 29.3187 16.534 29.4056 16.5712C29.4924 16.6083 29.5629 16.6756 29.6041 16.7606C29.6452 16.8456 29.6543 16.9427 29.6295 17.0338L31.6908 17.6254L32.2061 15.5497C32.1141 15.5261 32.0339 15.4698 31.9803 15.3915C31.9267 15.3131 31.9034 15.2179 31.9148 15.1236C31.9261 15.0294 31.9713 14.9424 32.042 14.879C32.1126 14.8156 32.2039 14.78 32.2988 14.7788C32.3939 14.7795 32.4856 14.8147 32.5566 14.878C32.6276 14.9413 32.6732 15.0282 32.6848 15.1226C32.6964 15.217 32.6732 15.3124 32.6197 15.391C32.5661 15.4696 32.4858 15.526 32.3937 15.5497L32.9069 17.6254L34.9682 17.0338C34.9434 16.9427 34.9525 16.8456 34.9936 16.7606C35.0348 16.6756 35.1053 16.6083 35.1921 16.5712C35.279 16.534 35.3763 16.5295 35.4662 16.5585C35.5561 16.5874 35.6325 16.6479 35.6814 16.7288C35.7257 16.8112 35.739 16.9067 35.719 16.9981C35.6989 17.0895 35.6468 17.1707 35.5721 17.227C35.4973 17.2833 35.4049 17.311 35.3115 17.3051C35.2181 17.2991 35.13 17.2599 35.063 17.1946L33.5212 18.6808L35.063 20.1649C35.1234 20.1014 35.2035 20.0601 35.2903 20.0478Z" fill="#1C1C1C"/>
<path fill-rule="evenodd" clip-rule="evenodd" d="M36.8886 7.35079C37.4271 7.84892 37.9655 8.34691 38.5005 8.84879C38.5983 8.93785 38.6989 9.02647 38.8003 9.11585L38.8013 9.11675C39.0821 9.3642 39.3698 9.61772 39.6239 9.90208C39.9393 10.2442 40.2402 10.6936 40.2217 11.2027C40.2031 11.7119 39.8218 11.9942 39.3601 12.0478C39.3299 12.05 39.2996 12.05 39.2694 12.0478H39.1333C37.6427 12.0728 36.1496 12.0609 34.6567 12.049C33.8085 12.0422 32.9603 12.0355 32.1127 12.0355H27.5821C27.208 12.0437 26.8435 11.917 26.5551 11.6785C26.2667 11.4401 26.0737 11.1059 26.0115 10.7369C25.9726 10.2996 25.9657 9.86009 25.9909 9.42181V7.26781C25.9909 7.1655 25.9874 7.05827 25.9838 6.94859C25.9722 6.58759 25.9596 6.20008 26.0671 5.87441C26.3248 5.09525 27.0256 4.81287 27.78 4.81287H31.618C32.2031 4.79842 32.7883 4.8315 33.368 4.9118C34.1351 5.04647 34.8424 5.41341 35.3942 5.96304C35.8908 6.42789 36.3898 6.8894 36.8886 7.35079ZM30.7276 10.9863C31.7665 10.9894 32.8053 10.9925 33.8442 10.9925L39.1107 11.0007C39.043 10.8539 38.9502 10.7199 38.8365 10.605C38.3557 10.1023 37.8333 9.63224 37.3124 9.16357C37.0472 8.92498 36.7825 8.68676 36.5238 8.44478C36.3379 8.27361 36.1504 8.10667 35.9634 7.94017C35.628 7.64159 35.2939 7.34418 34.9738 7.02664C34.512 6.5608 34.0957 6.16504 33.4629 5.99602C32.9214 5.87906 32.3673 5.83196 31.8139 5.85586H28.2046C28.1495 5.85586 28.0867 5.85333 28.0195 5.85063C27.7129 5.83829 27.3159 5.82232 27.1451 6.02694C26.983 6.22125 27.0059 6.59822 27.024 6.89468C27.0291 6.97875 27.0338 7.05634 27.0338 7.12146V9.0982C27.0338 9.24844 27.0311 9.39959 27.0284 9.55098C27.0229 9.85441 27.0173 10.1589 27.0338 10.4586C27.0328 10.5322 27.0474 10.6052 27.0768 10.6728C27.1062 10.7403 27.1497 10.8007 27.2043 10.8501C27.2589 10.8995 27.3235 10.9366 27.3936 10.959C27.4637 10.9814 27.5379 10.9886 27.611 10.9801C28.6499 10.9801 29.6887 10.9832 30.7276 10.9863Z" fill="#1C1C1C"/>
<path fill-rule="evenodd" clip-rule="evenodd" d="M24.0025 6.5117C24.0025 6.09945 24.0025 5.71194 23.7716 5.3471C23.4542 4.84415 22.9224 4.67101 22.3576 4.66895H19.375C18.2413 4.66895 17.1674 4.74933 16.1388 5.28732C15.4588 5.64966 14.8644 6.15363 14.3958 6.76522C13.9271 7.37682 13.5951 8.08183 13.4221 8.83267C13.2686 9.46305 13.2309 10.1161 13.3108 10.7599C13.3696 11.1052 13.5484 11.4187 13.8158 11.645C14.0832 11.8713 14.4219 11.9958 14.7722 11.9967C15.2051 12.0118 15.6398 12.0068 16.0745 12.0017C16.2918 11.9992 16.5091 11.9967 16.7263 11.9967L22.4627 12.007H22.5266C22.5626 12.0068 22.5985 12.0034 22.6338 11.9967C23.0023 11.9641 23.3456 11.7959 23.5972 11.5248C23.8489 11.2537 23.9911 10.8989 23.9963 10.5291C24.0032 10.3284 24.0009 10.126 23.9986 9.92352C23.9974 9.82229 23.9963 9.72106 23.9963 9.62006L24.0025 6.5117ZM22.539 10.9599H14.8299C14.4692 10.9434 14.3455 10.7249 14.3455 10.3889C14.3455 9.09856 14.6794 7.91541 15.6173 6.98373C16.0299 6.57771 16.5188 6.25753 17.0559 6.0417C17.593 5.82588 18.1675 5.7187 18.7463 5.72637H22.4236C22.7142 5.72637 22.9409 5.82943 22.9657 6.15923C23.0083 6.73996 22.994 7.33263 22.9798 7.92191C22.9727 8.21529 22.9657 8.50782 22.9657 8.79762V10.2178C22.9646 10.2416 22.9637 10.2658 22.9628 10.2905C22.9518 10.5907 22.9389 10.9408 22.539 10.9599Z" fill="#1C1C1C"/>
<path fill-rule="evenodd" clip-rule="evenodd" d="M57.0706 14.4145C56.4172 14.0682 54.9578 13.6292 54.5187 14.5382C54.1374 15.3318 55.1186 16.1419 55.7101 16.4675C56.3924 16.8447 57.8002 17.2776 58.3032 16.3933C58.3096 16.38 58.3151 16.3662 58.3197 16.3521C58.666 15.54 57.6869 14.7485 57.0706 14.4145ZM57.9961 16.2243C57.5941 16.9107 56.3471 16.4304 55.8359 16.1377C55.4236 15.9069 54.5435 15.2493 54.8444 14.6722C54.9969 14.3774 55.4277 14.3465 55.7184 14.3651C56.1696 14.4031 56.6061 14.5441 56.9943 14.7773C57.4416 15.0329 58.2146 15.6245 57.9919 16.2305L57.9961 16.2243Z" fill="#1C1C1C"/>
<path fill-rule="evenodd" clip-rule="evenodd" d="M61.5891 19.8625C61.5897 20.0205 61.5661 20.1776 61.519 20.3284C61.6802 20.3984 61.8179 20.5134 61.9155 20.6596C62.0131 20.8059 62.0665 20.9771 62.0693 21.1529C62.0691 21.2722 62.0453 21.3904 61.9994 21.5006C61.9534 21.6107 61.8862 21.7108 61.8016 21.795C61.717 21.8792 61.6167 21.946 61.5063 21.9914C61.3959 22.0368 61.2776 22.0601 61.1583 22.0598H60.1771C60.1261 22.2319 60.0641 22.4006 59.9916 22.5648C60.015 22.5868 60.0309 22.6157 60.0369 22.6473C60.0401 22.6636 60.0401 22.6804 60.0369 22.6967C60.1915 23.5604 60.274 24.5622 59.7793 25.3351C59.13 26.3699 57.7593 26.4358 56.6565 26.4358H53.6244L52.9359 26.4152V26.4255H51.5199C51.5364 26.2957 51.5364 26.1658 51.5364 26.0359C51.5375 24.677 51.0742 23.3585 50.2232 22.299C49.3721 21.2395 48.1846 20.5028 46.8573 20.2109C44.4931 19.7182 42.0072 20.8684 40.7705 22.9709C40.593 23.2759 40.4426 23.5959 40.3211 23.9273C40.2326 24.2087 40.1637 24.4959 40.115 24.7868C40.1064 24.8421 40.0845 24.8945 40.0511 24.9394C39.9646 25.4221 39.9356 25.9133 39.9645 26.4028H38.9525V26.4152H35.5906L26.1088 26.3967C25.5768 26.3961 25.0445 26.3981 24.5121 26.4001C23.1468 26.4053 21.7797 26.4105 20.4157 26.3719L18.7543 26.3101C18.7687 26.1988 18.7687 26.0896 18.7687 25.9784C18.7661 25.6159 18.7309 25.2543 18.6636 24.8981C18.6331 24.8544 18.6127 24.8044 18.6038 24.7518C18.5729 24.5622 18.5337 24.3766 18.4863 24.1932C18.1734 23.1863 17.5975 22.2812 16.8181 21.571C16.0388 20.8609 15.0841 20.3714 14.0526 20.1531C12.8699 19.9268 11.6461 20.0705 10.5481 20.5648C9.45 21.059 8.53099 21.8798 7.91625 22.9152C7.31607 23.9339 7.0293 25.1068 7.09175 26.2874H5.75194C5.73551 26.2894 5.71891 26.2894 5.70248 26.2874C5.59883 26.2872 5.4959 26.2878 5.3936 26.2883C4.66182 26.2925 3.96229 26.2965 3.26608 25.9927C2.14682 25.5062 1.93452 24.3024 1.87062 23.1976C1.86974 23.1633 1.87959 23.1296 1.89881 23.1011C1.91802 23.0726 1.94564 23.0509 1.9778 23.0389C1.63684 22.4921 1.4175 21.8784 1.33469 21.2394C1.25565 21.259 1.17487 21.2708 1.09352 21.2745C0.899661 21.2725 0.709776 21.2193 0.543212 21.1201C0.376649 21.0208 0.239361 20.8792 0.145349 20.7097C0.029601 20.4476 -0.0158624 20.1599 0.0134327 19.8749C0.0134327 19.7827 0.0102147 19.6867 0.00692883 19.5886C-0.00838101 19.1315 -0.0251646 18.6304 0.275209 18.2774C0.400323 18.1326 0.561781 18.0239 0.74294 17.9623C0.924099 17.9007 1.1184 17.8885 1.30583 17.927V17.2344C1.27917 16.6192 1.35297 16.0038 1.52432 15.4123C1.8573 14.4241 2.52613 13.5838 3.41449 13.0377C4.16372 12.5999 5.02057 12.3807 5.88799 12.4049H6.18687C6.22115 12.4018 6.25565 12.4018 6.28993 12.4049C6.84708 12.4131 7.39794 12.2865 7.89564 12.036C9.26225 11.3104 9.67038 9.96853 10.0105 8.59574C10.5526 6.40875 12.4366 4.99062 14.4216 4.16612C16.0641 3.50984 17.7954 3.10204 19.5582 2.95617C20.2699 2.88228 20.9882 2.87458 21.7051 2.8669C21.9682 2.86408 22.2311 2.86126 22.4934 2.85517C22.9437 2.84512 23.3945 2.83202 23.8454 2.81891C24.7815 2.7917 25.7182 2.76447 26.653 2.76447C27.1936 2.76447 27.7345 2.76631 28.2755 2.76814C29.3576 2.7718 30.4402 2.77547 31.5217 2.76447C34.5579 2.73562 37.5508 3.48385 40.1232 5.13284C41.3244 5.90118 42.4058 6.84228 43.3326 7.92583C43.8407 8.51865 44.305 9.14761 44.7219 9.80775C44.9955 10.2894 45.3729 10.7041 45.8267 11.0218C46.7728 11.6546 47.9003 11.9762 49.0052 12.1926C49.5634 12.31 50.1299 12.3844 50.6995 12.4152C50.7889 12.4186 50.876 12.4441 50.953 12.4894H55.999C57.1182 12.5065 58.1894 12.947 58.9968 13.7223C59.8042 14.4975 60.2878 15.55 60.3503 16.6676C60.3729 17.0221 60.3729 17.3786 60.3729 17.7351C60.588 17.7082 60.8062 17.7462 60.9997 17.8438C61.1931 17.9415 61.3531 18.0946 61.4592 18.2836C61.6446 18.6228 61.6217 19.0886 61.6012 19.5051C61.595 19.6303 61.5891 19.751 61.5891 19.8625ZM0.369782 19.6583C0.366937 20.1926 0.363086 20.9158 1.10177 20.9158C1.17278 20.9118 1.2432 20.9008 1.31202 20.8828V18.2568C1.24437 18.2417 1.17518 18.2348 1.10589 18.2362C0.365799 18.2381 0.368177 18.9645 0.369925 19.4987C0.370046 19.5358 0.370165 19.572 0.370031 19.6069L0.369782 19.6583ZM42.9822 9.12754C42.5388 8.5592 42.0522 8.02582 41.527 7.53213H41.5208C40.6488 6.71593 39.6721 6.01931 38.6165 5.46058C39.6095 7.45293 41.3305 8.98723 43.4233 9.74592C43.2831 9.53979 43.1388 9.33367 42.9822 9.12754ZM22.1615 23.8572H23.8291L25.0679 23.8551C25.0493 23.7739 25.0382 23.6911 25.0349 23.6078C25.0267 23.4388 25.0294 23.2688 25.0322 23.0991C25.0335 23.0144 25.0349 22.9296 25.0349 22.8451V19.3513C24.96 19.3223 24.8955 19.2714 24.8499 19.2052C24.8043 19.139 24.7797 19.0607 24.7793 18.9803V17.6116C24.7794 17.5312 24.8042 17.4527 24.8502 17.3867C24.8963 17.3207 24.9615 17.2705 25.037 17.2427V14.0745C24.9533 14.0518 24.8795 14.0022 24.8269 13.9332C24.7744 13.8643 24.746 13.7799 24.7463 13.6932V13.4747H21.9946L8.52638 13.4479H5.78081C5.24465 13.4369 4.71354 13.5534 4.2312 13.7877C3.74885 14.0221 3.32905 14.3677 3.00636 14.796C2.31099 15.745 2.33008 16.8773 2.34891 17.9943C2.35196 18.1752 2.35501 18.3558 2.35501 18.5351V20.4479C2.32535 21.076 2.45512 21.7014 2.73222 22.2659C2.98744 22.7458 3.35436 23.1573 3.80201 23.4656C4.21099 21.9747 5.04544 20.6353 6.20336 19.611C8.81496 17.255 12.6138 16.5501 15.9572 17.523C18.9419 18.3908 21.6153 20.6994 22.1615 23.8572ZM41.2672 18.0919V13.8499H41.2611C41.2611 13.7365 41.2611 13.6231 41.2549 13.5036H39.476L30.724 13.4891H25.5894V13.7076C25.5897 13.7792 25.5707 13.8495 25.5345 13.9112C25.4982 13.9728 25.446 14.0236 25.3833 14.058V17.2592C25.4561 17.2888 25.5184 17.3396 25.5621 17.405C25.6059 17.4704 25.629 17.5474 25.6286 17.6261V18.9947C25.628 19.0734 25.6042 19.1502 25.5602 19.2155C25.5162 19.2808 25.454 19.3316 25.3812 19.3616V23.1935C25.3691 23.4198 25.3885 23.6466 25.4389 23.8675L31.6845 23.8799H36.4584C36.7785 22.2038 37.6587 20.6862 38.9545 19.576C39.6487 18.9708 40.4279 18.4708 41.2672 18.0919ZM41.0611 12.4606H41.2672L41.2569 11.9989C41.25 11.8883 41.25 11.7775 41.2569 11.667C41.2466 11.5759 41.2466 11.4839 41.2569 11.3928C41.2569 11.0527 41.2446 10.7559 40.9993 10.4941C40.7141 10.2096 40.4286 9.92532 40.1431 9.64107C39.4298 8.93091 38.7165 8.22076 38.0084 7.50534C37.8262 7.32135 37.6459 7.13169 37.4646 6.94108C36.8275 6.27111 36.1792 5.58929 35.4009 5.09986C34.5352 4.5557 33.552 4.39079 32.542 4.39079H28.4566C27.9 4.38873 27.3373 4.39904 26.7808 4.41347C26.1913 4.42996 25.5585 4.74533 25.4245 5.3637C25.3958 5.56851 25.3882 5.77572 25.4018 5.98208V11.9803C25.4647 12.0146 25.517 12.0653 25.5533 12.127C25.5896 12.1887 25.6085 12.2591 25.6079 12.3307V12.4317L41.0611 12.4606ZM41.6073 11.3557C41.603 11.4142 41.5883 11.4714 41.5641 11.5248L41.562 11.5289C41.5638 11.5307 41.5662 11.5328 41.5689 11.5352C41.5815 11.5464 41.602 11.5647 41.6156 11.5969C41.6341 11.8896 41.6486 12.1844 41.6486 12.4812H46.34C45.5436 12.1682 44.8359 11.6651 44.2787 11.0156C44.2511 10.9784 44.2242 10.9427 44.1978 10.9077C44.1452 10.8381 44.0945 10.7709 44.0437 10.6982C43.0611 10.4391 42.125 10.0281 41.2693 9.48001C39.7048 8.46176 38.2661 6.82719 37.6683 5.00299C36.9019 4.66997 36.1081 4.40377 35.2958 4.20735C34.544 4.01753 33.7771 3.89407 33.0037 3.83838C32.4242 3.79427 31.8402 3.80067 31.2575 3.80705C31.0505 3.80932 30.8437 3.81159 30.6374 3.81159C27.4795 3.8054 24.33 3.85487 21.1742 3.92495C21.0592 3.92767 20.9449 3.9295 20.8311 3.93131C20.6002 3.935 20.3714 3.93865 20.1436 3.94969C19.9632 3.95971 19.7848 3.97558 19.6045 3.9916L19.5891 3.99298L19.1315 4.04244L19.1058 4.04551C19.0145 4.05639 18.9738 4.06124 18.9332 4.06674C18.9005 4.07118 18.8679 4.07603 18.809 4.08479L18.7193 4.0981C16.8394 4.37431 14.9101 4.88137 13.2961 5.912C12.4429 6.43291 11.7513 7.18084 11.2988 8.07218C11.1295 8.41352 11.0506 8.76843 10.9711 9.12611C10.9306 9.30841 10.8899 9.49145 10.837 9.67377C10.5929 10.5505 10.154 11.3608 9.55289 12.0442C9.43992 12.1715 9.31946 12.292 9.19217 12.4049L23.2725 12.4317H24.7608V12.3307C24.7609 12.2438 24.7897 12.1594 24.8426 12.0905C24.8955 12.0216 24.9696 11.972 25.0535 11.9494V10.0098C25.0535 9.52208 25.0491 9.03395 25.0448 8.54566C25.0361 7.5687 25.0274 6.59092 25.0535 5.61518C25.0803 4.62578 25.9522 4.07955 26.8694 4.07955C27.1443 4.07856 27.4191 4.07291 27.6939 4.06725C27.9962 4.06103 28.2985 4.05481 28.6009 4.05481C29.1562 4.06041 29.7124 4.05576 30.2687 4.05111C31.1455 4.04378 32.0226 4.03645 32.8965 4.06924C34.0098 4.07919 35.0917 4.43982 35.9884 5.09986C36.6655 5.61598 37.2602 6.23644 37.8528 6.8546C38.0719 7.08325 38.2908 7.31158 38.5134 7.5342L41.2487 10.2612C41.4259 10.4424 41.5419 10.6745 41.5805 10.9249C41.5998 11.0677 41.6088 11.2117 41.6073 11.3557ZM59.0985 20.7999C59.146 20.6883 59.2156 20.5875 59.3031 20.5036L59.2928 19.5987C59.2928 19.2709 59.2995 18.9414 59.3061 18.6112C59.3194 17.9488 59.3327 17.2838 59.2928 16.6264C59.1918 14.9032 57.6912 13.5695 55.9948 13.5469H55.8732C55.2453 13.5592 54.6165 13.5551 53.9873 13.551C53.6728 13.5489 53.3578 13.5469 53.0431 13.5469L41.6218 13.5242C41.6197 13.6419 41.6175 13.76 41.6152 13.8783C41.6082 14.2405 41.6012 14.6051 41.6012 14.9671V17.9476C43.8507 17.0438 46.3366 16.9119 48.6692 17.5725C51.6724 18.432 54.3706 20.7468 54.9209 23.9211H57.1595C57.7398 23.7008 58.2472 23.3232 58.625 22.8307C58.8874 22.4841 59.0786 22.089 59.1877 21.6682C59.0823 21.517 59.0262 21.3371 59.0269 21.1529C59.0267 21.0316 59.051 20.9115 59.0985 20.7999ZM60.3503 20.248H61.1727C61.2347 19.9659 61.2576 19.6767 61.2407 19.3884L61.241 19.337C61.2438 18.8027 61.2477 18.0795 60.509 18.0795C60.4637 18.0762 60.4182 18.0762 60.3729 18.0795C60.3706 18.3142 60.3666 18.5489 60.3627 18.7834C60.3565 19.1584 60.3503 19.534 60.3503 19.9079V20.248Z" fill="#1C1C1C"/>
<path fill-rule="evenodd" clip-rule="evenodd" d="M12.2953 22.9758C12.8021 22.8399 13.3382 22.8617 13.8322 23.0382C14.3125 23.2171 14.7296 23.5333 15.0316 23.9475C15.3336 24.3616 15.5071 24.8554 15.5307 25.3674C15.5339 25.3976 15.5339 25.428 15.5307 25.4581C15.5327 25.4828 15.5327 25.5076 15.5307 25.5323C15.5077 26.1103 15.2924 26.664 14.919 27.1057C14.5456 27.5474 14.0355 27.8519 13.4694 27.9708C12.9488 28.0729 12.4093 28.0138 11.9232 27.8012C11.437 27.5887 11.0272 27.233 10.7486 26.7814C10.4765 26.3197 10.3542 25.7849 10.3985 25.2508C10.4428 24.7167 10.6515 24.2094 10.9959 23.7988C11.3353 23.3988 11.7886 23.1117 12.2953 22.9758ZM11.8805 26.5233C12.1646 26.8086 12.5494 26.9709 12.9521 26.9752C13.3545 26.972 13.7397 26.8111 14.0249 26.5271C14.3101 26.243 14.4725 25.8585 14.4774 25.456C14.4736 25.0537 14.3126 24.6689 14.0287 24.3838C13.7448 24.0987 13.3605 23.9361 12.9582 23.9307C12.5554 23.9329 12.1696 24.0934 11.8842 24.3777C11.5988 24.6619 11.4367 25.0471 11.4329 25.4499C11.4356 25.8525 11.5963 26.238 11.8805 26.5233Z" fill="#1C1C1C"/>
<path fill-rule="evenodd" clip-rule="evenodd" d="M14.6853 20.5693C13.6504 20.1948 12.5252 20.148 11.4628 20.4353C10.4003 20.7226 9.45205 21.33 8.74687 22.1751C8.04316 23.033 7.62106 24.0871 7.53807 25.1937C7.45507 26.3002 7.71523 27.4054 8.28309 28.3588C8.85792 29.2917 9.70273 30.0278 10.7055 30.4695C11.7083 30.9113 12.8216 31.0378 13.8979 30.8323C16.3817 30.3603 18.1688 28.1011 18.1977 25.6008C18.1908 24.5051 17.8513 23.4373 17.2241 22.5388C16.5969 21.6403 15.7115 20.9535 14.6853 20.5693ZM14.3452 29.6203C13.5064 29.9215 12.5953 29.9581 11.735 29.7251C10.8747 29.4922 10.1065 29.0009 9.53427 28.3176C8.97443 27.6293 8.63959 26.7857 8.57507 25.9009C8.51055 25.016 8.71947 24.1327 9.17355 23.3706C9.63171 22.6192 10.308 22.0253 11.1123 21.6681C11.9166 21.3109 12.8107 21.2073 13.6753 21.3712C14.6494 21.5725 15.5251 22.1019 16.156 22.8709C16.787 23.6399 17.1351 24.602 17.1423 25.5967C17.1373 26.4715 16.8673 27.3242 16.368 28.0424C15.8686 28.7607 15.1634 29.3108 14.3452 29.6203Z" fill="#1C1C1C"/>
<path fill-rule="evenodd" clip-rule="evenodd" d="M45.215 23.0371C45.7225 22.9012 46.2593 22.9233 46.754 23.1005C47.2342 23.2793 47.6511 23.5955 47.9528 24.0097C48.2545 24.4239 48.4276 24.9178 48.4504 25.4297C48.4526 25.4599 48.4526 25.4902 48.4504 25.5204V25.5946C48.4278 26.1726 48.2126 26.7266 47.8392 27.1684C47.4657 27.6101 46.9553 27.9145 46.3891 28.0331C45.868 28.1336 45.3286 28.0726 44.8431 27.8582C44.3576 27.6438 43.9491 27.2863 43.6724 26.8334C43.4018 26.3734 43.2798 25.8411 43.3229 25.3091C43.3661 24.7772 43.5724 24.2715 43.9136 23.8611C44.2535 23.4605 44.7074 23.173 45.215 23.0371ZM44.8029 26.5855C45.0868 26.8708 45.4714 27.0332 45.8738 27.0375C46.2763 27.0343 46.6615 26.8734 46.9467 26.5894C47.2319 26.3053 47.3943 25.9208 47.3991 25.5183C47.3959 25.1159 47.2351 24.7307 46.951 24.4455C46.667 24.1603 46.2825 23.9979 45.88 23.993C45.4774 23.9952 45.0918 24.1558 44.8067 24.4401C44.5216 24.7244 44.36 25.1095 44.3567 25.5122C44.3589 25.9146 44.5191 26.3001 44.8029 26.5855Z" fill="#1C1C1C"/>
<path fill-rule="evenodd" clip-rule="evenodd" d="M47.6073 20.6311C46.5712 20.2592 45.4458 20.2148 44.3836 20.5038C43.3214 20.7929 42.3737 21.4015 41.6688 22.2471C40.9657 23.1053 40.5439 24.1593 40.4609 25.2657C40.3779 26.3722 40.6378 27.4773 41.2051 28.4308C41.7799 29.3637 42.6247 30.0998 43.6274 30.5416C44.6302 30.9833 45.7436 31.1098 46.8199 30.9043C49.3058 30.4323 51.0908 28.1732 51.1217 25.6729C51.1165 24.5752 50.7775 23.5051 50.1498 22.6046C49.5221 21.704 48.6354 21.0158 47.6073 20.6311ZM47.2734 29.682C46.4342 29.9831 45.5228 30.0196 44.6622 29.7867C43.8016 29.5537 43.0331 29.0625 42.4604 28.3793C41.9005 27.6911 41.5657 26.8474 41.5012 25.9626C41.4366 25.0777 41.6456 24.1945 42.0996 23.4323C42.5578 22.6786 43.2351 22.0829 44.0412 21.7249C44.8472 21.3668 45.7433 21.2635 46.6097 21.4288C47.5838 21.6301 48.4594 22.1595 49.0903 22.9285C49.7213 23.6975 50.0694 24.6596 50.0767 25.6543C50.0719 26.5305 49.8014 27.3846 49.3009 28.1038C48.8004 28.8229 48.0934 29.3733 47.2734 29.682Z" fill="#1C1C1C"/>
<path fill-rule="evenodd" clip-rule="evenodd" d="M28.7544 2.06111C28.8311 2.0005 28.9282 1.97168 29.0255 1.98059H30.4581C30.5556 1.97274 30.6524 2.00223 30.729 2.06308C30.8055 2.12393 30.8561 2.2116 30.8704 2.30833C30.8556 2.40468 30.8048 2.49186 30.7283 2.55228C30.6518 2.61271 30.5553 2.64192 30.4581 2.63401H29.0255C28.9279 2.64288 28.8305 2.61377 28.7537 2.55274C28.677 2.4917 28.6267 2.40343 28.6133 2.30627C28.6271 2.20949 28.6777 2.12172 28.7544 2.06111ZM30.4581 2.18672H29.0255C28.9039 2.18672 28.8194 2.2568 28.8194 2.30627C28.8194 2.35574 28.8977 2.42789 29.0255 2.42789H30.4581C30.5777 2.42789 30.6642 2.3578 30.6642 2.30833C30.6642 2.25886 30.5859 2.18672 30.4581 2.18672Z" fill="#1C1C1C"/>
</svg>
