<svg width="48" height="48" viewBox="0 0 48 48" fill="none" xmlns="http://www.w3.org/2000/svg">
<rect width="48" height="48" rx="24" fill="#E8E8E8"/>
<path d="M15.2991 19.6684L15.0036 20.8143C14.424 20.99 13.9163 21.3475 13.5555 21.8339C13.1947 22.3203 12.9999 22.9099 13 23.5156V32.7487C13 33.497 13.2972 34.2146 13.8263 34.7437C14.3554 35.2728 15.073 35.57 15.8212 35.57H16.8472C17.5954 35.57 18.313 35.2728 18.8421 34.7437C19.3712 34.2146 19.6684 33.497 19.6684 32.7487V31.7228H28.9016V32.7487C28.9016 33.497 29.1988 34.2146 29.7279 34.7437C30.257 35.2728 30.9746 35.57 31.7228 35.57H32.7487C33.497 35.57 34.2146 35.2728 34.7437 34.7437C35.2728 34.2146 35.57 33.497 35.57 32.7487V23.5156C35.5701 22.9099 35.3753 22.3203 35.0145 21.8339C34.6537 21.3475 34.146 20.99 33.5664 20.8143L33.2699 19.6684H34.2876C34.4917 19.6684 34.6874 19.5873 34.8317 19.443C34.976 19.2988 35.057 19.103 35.057 18.899C35.057 18.6949 34.976 18.4992 34.8317 18.3549C34.6874 18.2106 34.4917 18.1295 34.2876 18.1295H32.8729L32.2943 15.8859C32.0811 15.06 31.5996 14.3283 30.9253 13.8059C30.251 13.2835 29.4222 13 28.5692 13H20.0008C19.1478 13 18.319 13.2835 17.6447 13.8059C16.9704 14.3283 16.4889 15.06 16.2757 15.8859L15.6971 18.1295H14.2824C14.0783 18.1295 13.8826 18.2106 13.7383 18.3549C13.594 18.4992 13.513 18.6949 13.513 18.899C13.513 19.103 13.594 19.2988 13.7383 19.443C13.8826 19.5873 14.0783 19.6684 14.2824 19.6684H15.2991ZM20.0008 14.5389H28.5692C29.0809 14.539 29.5781 14.7092 29.9825 15.0227C30.387 15.3361 30.6758 15.7751 30.8036 16.2706L31.9455 20.6943H16.6245L17.7653 16.2706C17.8932 15.7749 18.1822 15.3358 18.5869 15.0224C18.9915 14.7089 19.4889 14.5388 20.0008 14.5389ZM30.4405 32.7487V31.7228H34.0311V32.7487C34.0311 33.4566 33.4566 34.0311 32.7487 34.0311H31.7228C31.015 34.0311 30.4405 33.4566 30.4405 32.7487ZM18.1295 31.7228V32.7487C18.1295 33.4566 17.555 34.0311 16.8472 34.0311H15.8212C15.1134 34.0311 14.5389 33.4566 14.5389 32.7487V31.7228H18.1295ZM18.386 26.8498C18.0459 26.8498 17.7197 26.7147 17.4792 26.4742C17.2387 26.2337 17.1036 25.9075 17.1036 25.5674C17.1036 25.2273 17.2387 24.9011 17.4792 24.6606C17.7197 24.4201 18.0459 24.285 18.386 24.285C18.7261 24.285 19.0523 24.4201 19.2928 24.6606C19.5333 24.9011 19.6684 25.2273 19.6684 25.5674C19.6684 25.9075 19.5333 26.2337 19.2928 26.4742C19.0523 26.7147 18.7261 26.8498 18.386 26.8498ZM31.4664 25.5674C31.4664 25.9075 31.3313 26.2337 31.0908 26.4742C30.8503 26.7147 30.5241 26.8498 30.184 26.8498C29.8439 26.8498 29.5177 26.7147 29.2772 26.4742C29.0367 26.2337 28.9016 25.9075 28.9016 25.5674C28.9016 25.2273 29.0367 24.9011 29.2772 24.6606C29.5177 24.4201 29.8439 24.285 30.184 24.285C30.5241 24.285 30.8503 24.4201 31.0908 24.6606C31.3313 24.9011 31.4664 25.2273 31.4664 25.5674ZM21.9767 26.8498H26.5933C26.7974 26.8498 26.9931 26.9308 27.1374 27.0751C27.2817 27.2194 27.3627 27.4151 27.3627 27.6192C27.3627 27.8233 27.2817 28.019 27.1374 28.1633C26.9931 28.3076 26.7974 28.3886 26.5933 28.3886H21.9767C21.7726 28.3886 21.5769 28.3076 21.4326 28.1633C21.2883 28.019 21.2073 27.8233 21.2073 27.6192C21.2073 27.4151 21.2883 27.2194 21.4326 27.0751C21.5769 26.9308 21.7726 26.8498 21.9767 26.8498Z" fill="#383632"/>
</svg>
