<svg width="62" height="30" viewBox="0 0 62 30" fill="none" xmlns="http://www.w3.org/2000/svg">
<path d="M13.0231 21.6281C12.4886 21.4392 11.908 21.4243 11.3645 21.5855C10.821 21.7467 10.3425 22.0757 9.99737 22.5254C9.65227 22.9752 9.45833 23.5226 9.44332 24.0893C9.42832 24.656 9.59301 25.213 9.91382 25.6803C10.2346 26.1477 10.6951 26.5016 11.2293 26.6914C11.7635 26.8811 12.3441 26.8969 12.8878 26.7366C13.4316 26.5763 13.9107 26.248 14.2565 25.7987C14.6023 25.3495 14.7971 24.8024 14.813 24.2357C14.8151 24.2111 14.8151 24.1864 14.813 24.1618C14.8152 24.1308 14.8152 24.0997 14.813 24.0688C14.7881 23.5309 14.6049 23.0124 14.2865 22.5782C13.9681 22.144 13.5286 21.8135 13.0231 21.6281ZM12.1293 25.772C11.8103 25.772 11.4985 25.6774 11.2333 25.5001C10.9681 25.3229 10.7614 25.0709 10.6394 24.7762C10.5175 24.4814 10.4857 24.1571 10.5481 23.8443C10.6104 23.5315 10.7642 23.2442 10.9899 23.0188C11.2156 22.7934 11.5031 22.64 11.816 22.578C12.1289 22.5161 12.4532 22.5483 12.7477 22.6706C13.0423 22.793 13.294 23 13.4709 23.2654C13.6478 23.5308 13.742 23.8428 13.7416 24.1618C13.7383 24.5882 13.5673 24.9961 13.2656 25.2974C12.9638 25.5988 12.5557 25.7692 12.1293 25.772Z" fill="#1C1C1C"/>
<path d="M61.9809 14.9022C61.9266 13.7221 61.4236 12.6073 60.5749 11.7856C59.7261 10.9639 58.5956 10.4974 57.4143 10.4814H44.3297C44.247 10.4236 44.1494 10.3907 44.0486 10.3863L43.9345 10.3758L43.7993 10.3631H43.7338H43.7232C43.3582 10.3128 42.9963 10.2422 42.6392 10.1518C41.7094 9.90876 40.769 9.51783 40.0738 8.84162C39.6342 8.41899 39.4145 7.89282 39.144 7.36241C38.8166 6.69837 38.4446 6.05731 38.0304 5.44366C37.3483 4.41474 36.5285 3.48406 35.5939 2.67754C33.6139 0.98701 31.0844 -0.0420919 28.4683 0.0424344C27.1476 0.0846976 25.8205 0.0424344 24.4998 0.0424344C23.2319 0.0424344 21.964 0.118506 20.6962 0.158656C19.8667 0.162414 19.0383 0.216046 18.2153 0.319258C16.6671 0.527227 15.1789 1.0547 13.8453 1.86821C12.1844 2.93746 10.9608 4.6153 10.7009 6.60167C10.7009 6.64182 10.7009 6.67985 10.684 6.71789C10.6608 6.85313 10.6354 6.98838 10.6079 7.12151C10.5363 7.46374 10.4432 7.80111 10.329 8.13159C10.0818 8.84373 9.67816 9.63406 9.03154 10.0799C8.67594 10.3263 8.25329 10.4576 7.82069 10.4561C7.76343 10.4565 7.70651 10.465 7.65164 10.4814H4.80734C3.95373 10.4589 3.10874 10.6569 2.35396 11.0562C1.3897 11.6025 0.651728 12.4746 0.272504 13.5159C0.0665207 14.1483 -0.0243728 14.8125 0.00413591 15.4769C0.00413591 16.7152 0.00413591 17.9536 0.00413591 19.1919C0.0102767 19.7765 0.125662 20.3549 0.344351 20.8972C0.501612 21.8402 0.987693 22.6971 1.71642 23.316C2.44516 23.9349 3.36948 24.2758 4.32554 24.2782H6.02663C6.02663 24.2782 6.07101 23.9042 6.15342 23.433C6.16032 23.4145 6.16528 23.3954 6.16821 23.3759C6.38014 21.9453 7.09631 20.6376 8.18754 19.6885C9.27876 18.7394 10.6732 18.2116 12.1194 18.2001C13.5655 18.1886 14.9682 18.6943 16.0743 19.6259C17.1805 20.5575 17.9173 21.8538 18.1519 23.2808L18.2597 24.2719H18.8936L40.5429 24.2909L40.7162 23.4224C40.7174 23.4069 40.7174 23.3914 40.7162 23.3759C40.7162 23.3463 40.7289 23.3167 40.7331 23.285L40.7859 23.023C41.0091 21.9453 41.5217 20.9487 42.2687 20.1404C43.0158 19.3321 43.9689 18.7427 45.0258 18.4355C46.0827 18.1282 47.2033 18.1148 48.2672 18.3966C49.3311 18.6784 50.2981 19.2449 51.0643 20.035C51.9448 20.9528 52.5217 22.1192 52.7168 23.3759C52.7234 23.4167 52.737 23.456 52.7569 23.4921C52.7908 23.7457 52.8267 24.0077 52.8668 24.2719H57.501C58.345 24.2696 59.1672 24.0035 59.8526 23.511C60.538 23.0184 61.0523 22.324 61.3237 21.5248C61.6675 20.938 61.8788 20.2831 61.9428 19.606C61.9872 19.1644 61.964 18.7122 61.964 18.2705C61.9851 17.159 62.0252 16.0264 61.9809 14.9022ZM33.6646 2.58456L33.6963 2.56766C33.8146 2.64092 33.9308 2.71698 34.045 2.79587C34.9657 3.44153 35.7878 4.2174 36.4856 5.09922C36.9052 5.62834 37.2872 6.18618 37.6289 6.76862C37.8 7.06235 37.9522 7.36663 38.1022 7.67093C37.9484 7.7015 37.7897 7.69745 37.6377 7.65907C37.4856 7.6207 37.344 7.54895 37.2231 7.44905C36.8766 7.13841 36.5427 6.8151 36.2025 6.49813L33.5188 4.00037C33.3678 3.88322 33.2498 3.72885 33.1764 3.55239C33.117 3.36059 33.1333 3.15329 33.2222 2.97322C33.311 2.79314 33.4656 2.65402 33.654 2.58456H33.6646ZM11.5398 7.83999C11.6117 7.56528 11.673 7.28423 11.7174 6.99473C11.7343 6.88696 11.7469 6.78341 11.7638 6.67141C11.7628 6.6524 11.7628 6.63335 11.7638 6.61435C11.7638 6.61435 11.7638 6.58266 11.7638 6.63337C11.7638 6.68409 11.804 6.44107 11.8124 6.40092C12.0163 5.42986 12.4809 4.53272 13.1564 3.80597C14.3208 2.56132 15.9183 1.88088 17.5454 1.50262C17.8455 1.43289 18.1477 1.37373 18.452 1.32724L18.6379 1.29765H18.6781L18.9549 1.26595C19.1831 1.24482 19.4114 1.2406 19.6417 1.23426C21.1674 1.18566 22.691 1.12648 24.2167 1.08633C25.5078 1.05252 26.8032 1.08633 28.0943 1.08633C28.6844 1.06765 29.2752 1.086 29.863 1.14128L29.956 1.15607L30.1673 1.19411C30.3343 1.22369 30.5012 1.2575 30.666 1.29554C31.0148 1.37823 31.359 1.47909 31.6972 1.59772C32.0118 1.70901 32.3201 1.8374 32.6207 1.98231C32.2971 2.30282 32.1016 2.73042 32.0708 3.18485C32.0401 3.63928 32.1762 4.08931 32.4537 4.45048C32.7444 4.7774 33.0587 5.08252 33.3941 5.36336L36.4011 8.17174C36.6499 8.42828 36.9618 8.61484 37.3056 8.71271C37.7282 8.81626 38.1508 8.72963 38.5734 8.68525H38.6009L38.6199 8.71694C39.0811 9.47241 39.7432 10.0848 40.5323 10.4857H36.3272C36.2041 9.29297 35.7222 8.16565 34.9452 7.25253C34.3112 6.52983 33.4955 5.95082 32.7623 5.35068L30.18 3.22273C29.003 2.21278 27.5046 1.65537 25.9537 1.65054C23.9715 1.65054 21.9915 1.68859 20.0115 1.70972C18.9253 1.72028 17.8983 1.77734 16.8418 2.13235C15.9768 2.40326 15.1869 2.87203 14.5347 3.50148C13.8825 4.13093 13.386 4.90371 13.0846 5.75852C12.7591 6.72635 12.7993 7.71742 12.7993 8.71694V10.4857H10.16C10.8299 9.73088 11.3026 8.82194 11.5356 7.83999H11.5398ZM13.634 11.557H36.0334C36.0334 11.874 36.0334 12.191 36.0334 12.5016V16.0559C36.0334 16.9646 36.1327 17.9134 35.6446 18.727C35.0318 19.7497 33.9541 20.1322 32.8214 20.1386L26.7482 20.1724C25.1486 20.1829 23.5447 20.2168 21.945 20.1998C21.4938 20.2023 21.0501 20.0844 20.6597 19.8581C20.2693 19.6319 19.9463 19.3056 19.7241 18.9129C19.0623 17.6705 18.0277 16.6669 16.7657 16.0433C16.3668 15.848 15.9509 15.6896 15.5231 15.5699C15.0392 15.4347 14.5131 15.4093 14.0756 15.1473C13.7936 14.9725 13.5617 14.7276 13.4025 14.4365C13.2432 14.1455 13.1621 13.8181 13.167 13.4863C13.167 12.8524 13.167 12.2037 13.167 11.5634L13.634 11.557ZM13.1606 10.4814C13.1606 9.55587 13.1606 8.63031 13.1606 7.70474C13.1446 6.99141 13.2709 6.28203 13.5321 5.61805C13.7933 4.95408 14.1843 4.34883 14.6821 3.83767C15.7957 2.71558 17.4694 2.1091 19.0373 2.07741C21.0744 2.03514 23.1157 2.03725 25.1528 2.01612C26.3235 2.00555 27.4519 2.05628 28.5338 2.56978C29.4425 2.99241 30.1906 3.70242 30.9597 4.33637L33.5716 6.48756C34.6282 7.35818 35.4861 8.35982 35.8411 9.72281C35.9055 9.97177 35.95 10.2254 35.9743 10.4814H13.1522H13.1606ZM60.9053 19.2024C60.9025 19.7584 60.7724 20.3064 60.5249 20.8042H52.9598C52.4226 19.8369 51.6674 19.0081 50.754 18.3837C49.8406 17.7592 48.7943 17.3562 47.698 17.2067C46.6017 17.0572 45.4857 17.1652 44.4384 17.5223C43.3912 17.8794 42.4416 18.4756 41.665 19.2637C41.2114 19.7222 40.8225 20.2405 40.5091 20.8042H18.3991C17.862 19.8369 17.1067 19.0081 16.1934 18.3837C15.28 17.7592 14.2336 17.3562 13.1374 17.2067C12.0411 17.0572 10.925 17.1652 9.87777 17.5223C8.83053 17.8794 7.88093 18.4756 7.10434 19.2637C6.6507 19.7222 6.26181 20.2405 5.94844 20.8042H1.46221L1.44531 20.7746C1.17391 20.1885 1.04848 19.5454 1.07973 18.9002V16.8526C1.07973 15.4981 0.919132 14.0865 1.79398 12.9348C2.13731 12.4961 2.57798 12.1432 3.08115 11.9041C3.58433 11.665 4.13623 11.5461 4.69323 11.557H12.812V12.4023C12.812 13.3638 12.7105 14.3464 13.4459 15.1008C14.1306 15.8003 15.1364 15.7876 16.0049 16.1088C16.8336 16.4168 17.5887 16.8947 18.2216 17.5119C18.6937 17.9792 19.0926 18.5149 19.405 19.101C20.0009 20.1576 21.0702 20.5802 22.2324 20.5633L24.8084 20.5485L31.9255 20.5084C32.5404 20.5084 33.1934 20.5527 33.8062 20.426C34.5275 20.2751 35.1758 19.8828 35.6441 19.3138C36.1124 18.7448 36.3727 18.0332 36.3821 17.2964C36.399 15.3945 36.3821 13.4737 36.3821 11.5634H54.3334C55.316 11.5634 56.3007 11.5782 57.2918 11.5634H57.4228C58.3112 11.5751 59.1626 11.9207 59.8078 12.5315C60.4531 13.1423 60.8448 13.9735 60.9053 14.8599C60.956 15.8848 60.9053 16.9202 60.9053 17.9451C60.9095 18.3572 60.9137 18.7798 60.9095 19.2024H60.9053Z" fill="#1C1C1C"/>
<path d="M13.9382 19.0416C13.1252 18.7464 12.2548 18.6437 11.3954 18.7414C10.5359 18.8392 9.71083 19.1347 8.98483 19.605C8.25883 20.0752 7.65169 20.7073 7.21103 21.4516C6.77038 22.1959 6.50821 23.0322 6.4451 23.8949C6.38199 24.7576 6.51965 25.6231 6.84729 26.4237C7.17493 27.2242 7.68363 27.9379 8.33347 28.5088C8.9833 29.0796 9.75659 29.4922 10.5927 29.7139C11.4287 29.9357 12.3048 29.9607 13.1522 29.787C15.7429 29.2777 17.5898 26.9131 17.6236 24.3034C17.6127 23.1567 17.2548 22.0402 16.5969 21.101C15.9391 20.1617 15.0122 19.4437 13.9382 19.0416ZM13.6086 28.5508C12.7051 28.8894 11.717 28.9306 10.7885 28.6683C9.85991 28.406 9.03941 27.8539 8.44658 27.0926C7.85374 26.3314 7.51956 25.4006 7.49275 24.4361C7.46594 23.4716 7.74791 22.5237 8.29754 21.7307C8.84717 20.9377 9.63574 20.3409 10.5483 20.0275C11.4608 19.714 12.4497 19.7002 13.3706 19.988C14.2915 20.2759 15.0965 20.8504 15.668 21.6278C16.2396 22.4052 16.5479 23.3448 16.548 24.3097C16.5384 25.2287 16.253 26.1237 15.729 26.8787C15.2049 27.6338 14.4662 28.214 13.6086 28.5445V28.5508Z" fill="#1C1C1C"/>
<path d="M47.7043 21.6281C47.1857 21.4465 46.6238 21.4282 46.0944 21.5757C45.565 21.7232 45.0936 22.0294 44.7436 22.4531C44.3936 22.8768 44.1818 23.3975 44.1369 23.9453C44.092 24.493 44.2161 25.0413 44.4923 25.5163C44.7872 26.0194 45.2377 26.4128 45.7759 26.6372C46.3141 26.8616 46.9107 26.9047 47.4756 26.7601C48.0405 26.6155 48.5429 26.291 48.9071 25.8356C49.2713 25.3802 49.4773 24.8186 49.4942 24.2358C49.4942 24.2125 49.4942 24.1872 49.4942 24.1618C49.4964 24.1308 49.4964 24.0998 49.4942 24.0688C49.4698 23.5308 49.2869 23.012 48.9684 22.5778C48.6499 22.1435 48.2101 21.8131 47.7043 21.6281ZM46.8105 25.772C46.4914 25.7724 46.1794 25.6782 45.9139 25.5012C45.6484 25.3242 45.4414 25.0724 45.3192 24.7777C45.1969 24.483 45.1647 24.1586 45.2269 23.8456C45.289 23.5327 45.4426 23.2452 45.6683 23.0196C45.8939 22.794 46.1814 22.6404 46.4943 22.5782C46.8073 22.5161 47.1316 22.5482 47.4263 22.6705C47.721 22.7928 47.9728 22.9998 48.1498 23.2652C48.3268 23.5307 48.4211 23.8427 48.4207 24.1618C48.4174 24.5878 48.2466 24.9955 47.9454 25.2967C47.6441 25.598 47.2365 25.7687 46.8105 25.772Z" fill="#1C1C1C"/>
<path d="M48.6216 19.0414C47.8086 18.7461 46.9383 18.6432 46.0789 18.7408C45.2194 18.8384 44.3943 19.1339 43.6682 19.604C42.9422 20.0741 42.3349 20.706 41.8942 21.4502C41.4534 22.1944 41.1911 23.0307 41.1278 23.8933C41.0645 24.756 41.202 25.6215 41.5295 26.4221C41.8569 27.2227 42.3655 27.9365 43.0152 28.5075C43.6648 29.0785 44.438 29.4911 45.274 29.7131C46.11 29.9351 46.986 29.9603 47.8334 29.7868C50.4241 29.2775 52.271 26.9129 52.3048 24.3032C52.2944 23.1567 51.9369 22.0402 51.2794 21.1009C50.6219 20.1617 49.6953 19.4436 48.6216 19.0414ZM48.2899 28.5506C47.3862 28.8887 46.3982 28.9294 45.4698 28.6667C44.5415 28.404 43.7213 27.8516 43.1288 27.0902C42.5363 26.3287 42.2025 25.3979 42.1761 24.4334C42.1496 23.469 42.4319 22.5212 42.9818 21.7284C43.5317 20.9356 44.3204 20.3392 45.2329 20.026C46.1455 19.7128 47.1343 19.6993 48.0551 19.9874C48.9759 20.2755 49.7806 20.8501 50.3519 21.6276C50.9233 22.4051 51.2314 23.3447 51.2314 24.3095C51.2216 25.2288 50.9359 26.1239 50.4115 26.879C49.887 27.634 49.1479 28.2142 48.2899 28.5443V28.5506Z" fill="#1C1C1C"/>
<path d="M6.4302 12.3323C6.42862 12.2852 6.40918 12.2404 6.37583 12.2071C6.34249 12.1737 6.29771 12.1543 6.25058 12.1527C4.87069 12.0555 2.07921 12.1844 2.03906 14.0799C2.03961 14.1274 2.05871 14.1728 2.09228 14.2063C2.12585 14.2399 2.17121 14.259 2.21868 14.2595H6.19775C6.2209 14.2601 6.24391 14.2559 6.26535 14.2471C6.2868 14.2384 6.30622 14.2254 6.32243 14.2088C6.49782 14.0694 6.41963 13.5009 6.42174 13.315C6.4302 12.9853 6.43231 12.6599 6.4302 12.3323ZM6.03715 13.987C6.03715 13.987 6.03715 13.9869 6.03715 13.9764V13.987ZM6.06885 13.1417C6.06885 13.334 6.06885 13.5242 6.05617 13.7143C6.05617 13.7777 6.0456 13.8433 6.0456 13.9067H2.41309C2.5589 13.0212 3.62604 12.7233 4.41002 12.5986C4.95907 12.5113 5.51566 12.4808 6.07096 12.5077C6.07096 12.7127 6.07096 12.924 6.06885 13.1353V13.1417Z" fill="#1C1C1C"/>
<path d="M59.179 12.9221C58.5302 12.3791 57.6004 11.9797 56.7383 12.0896C56.1275 12.1699 55.65 12.6242 55.8338 13.2687C56.0451 14.0252 56.8439 14.5535 57.5244 14.8367C58.2048 15.1198 59.3459 15.3375 59.8087 14.6063C59.8195 14.5927 59.8288 14.5778 59.8362 14.562C59.8443 14.5465 59.8507 14.5302 59.8552 14.5134C60.0792 13.9027 59.6354 13.3046 59.179 12.9221ZM59.5276 14.3802C59.124 15.0987 57.8371 14.6232 57.3088 14.338C56.8714 14.0992 55.9036 13.4145 56.1867 12.7848C56.5143 12.0579 57.8773 12.5523 58.3569 12.7996C58.8366 13.0468 59.8066 13.723 59.5276 14.3802Z" fill="#1C1C1C"/>
<path d="M19.4495 10.0102H32.6039C33.3097 10.0102 33.9732 9.79887 34.2331 9.05926C34.3238 8.80095 34.3375 8.52186 34.2726 8.2559C34.2077 7.98994 34.067 7.74854 33.8675 7.56102C33.8545 7.54658 33.8404 7.53316 33.8253 7.52087C32.8258 6.72421 31.822 5.93178 30.8267 5.13089C29.8885 4.37649 28.9756 3.50588 27.8831 2.97336C26.7906 2.44085 25.6474 2.33942 24.464 2.33942H20.4786C19.827 2.31471 19.1745 2.3366 18.526 2.40492C17.2739 2.59016 16.1216 3.19427 15.257 4.11869C14.382 5.06368 13.8525 6.2769 13.7545 7.56102C13.698 7.99616 13.7094 8.43743 13.7883 8.86907C13.8768 9.19523 14.0689 9.48376 14.3358 9.69113C14.6026 9.8985 14.9296 10.0134 15.2675 10.0186C16.6559 10.0672 18.059 10.0102 19.4495 10.0102ZM14.8153 8.47391C14.732 7.49395 14.9478 6.51174 15.4345 5.65707C15.9921 4.70433 16.8767 3.98646 17.9238 3.63689C18.7099 3.37908 19.5065 3.40656 20.3222 3.40656H24.1005C24.8629 3.37277 25.6266 3.42736 26.3764 3.56926C27.3823 3.80382 28.2043 4.38073 28.9946 5.0189C30.216 6.00504 31.4402 6.98625 32.6673 7.96253L33.0751 8.28162C33.2864 8.46758 33.335 8.83315 32.999 8.92825C32.8973 8.94097 32.7944 8.94097 32.6926 8.92825H15.9585C15.5359 8.9367 14.8597 9.06348 14.8153 8.47391Z" fill="#1C1C1C"/>
<path d="M19.8088 13.5347H16.9075C16.6706 13.5347 16.4785 13.7267 16.4785 13.9636V14.4454C16.4785 14.6824 16.6706 14.8744 16.9075 14.8744H19.8088C20.0458 14.8744 20.2378 14.6824 20.2378 14.4454V13.9636C20.2378 13.7267 20.0458 13.5347 19.8088 13.5347Z" fill="#1C1C1C"/>
</svg>
