<svg width="17" height="22" viewBox="0 0 17 22" fill="none" xmlns="http://www.w3.org/2000/svg">
<path d="M5.08292 0.685881C5.65178 0.514368 6.26222 0.542862 6.81263 0.76662C7.36303 0.990378 7.8202 1.3959 8.10802 1.91568L8.20552 2.10938L9.06482 4.02168C9.326 4.60211 9.41078 5.24652 9.30862 5.87475C9.20646 6.50298 8.92186 7.08732 8.49022 7.55508L8.31862 7.72668L6.96142 8.99158C6.71702 9.22298 6.90032 10.1187 7.78562 11.6501C8.57992 13.0281 9.22862 13.6716 9.54582 13.7067H9.60172L9.67062 13.6937L12.3356 12.8786C12.6938 12.7687 13.076 12.7644 13.4366 12.8661C13.7971 12.9677 14.1208 13.1711 14.3688 13.4519L14.4884 13.6014L16.2512 16.0454C16.5971 16.5243 16.7696 17.1067 16.7403 17.6967C16.711 18.2868 16.4817 18.8492 16.09 19.2915L15.9314 19.4553L15.2255 20.1235C14.5928 20.7227 13.8013 21.1276 12.9452 21.2901C12.0891 21.4525 11.2043 21.3657 10.396 21.04C7.88052 20.026 5.59512 17.7094 3.51902 14.1136C1.43902 10.5087 0.574524 7.36658 0.960624 4.67558C1.07757 3.86198 1.41273 3.09525 1.9305 2.45686C2.44826 1.81847 3.12929 1.33226 3.90122 1.04988L4.15212 0.966681L5.08292 0.685881Z" fill="white"/>
</svg>
