<svg width="22" height="18" viewBox="0 0 22 18" fill="none" xmlns="http://www.w3.org/2000/svg">
<path d="M21.4001 4.5851V13.8502C21.4001 14.7121 21.0577 15.5388 20.4482 16.1483C19.8387 16.7578 19.0121 17.1002 18.1501 17.1002H3.8501C2.98814 17.1002 2.16149 16.7578 1.552 16.1483C0.942507 15.5388 0.600098 14.7121 0.600098 13.8502V4.5851L10.6699 10.5105C10.7699 10.5695 10.884 10.6006 11.0001 10.6006C11.1162 10.6006 11.2303 10.5695 11.3303 10.5105L21.4001 4.5851ZM18.1501 0.200195C18.9498 0.20007 19.7215 0.494784 20.3175 1.02796C20.9135 1.56113 21.292 2.29533 21.3806 3.0901L11.0001 9.19619L0.619598 3.0901C0.708203 2.29533 1.08672 1.56113 1.68273 1.02796C2.27874 0.494784 3.05041 0.20007 3.8501 0.200195H18.1501Z" fill="white"/>
</svg>
