<svg width="48" height="48" viewBox="0 0 48 48" fill="none" xmlns="http://www.w3.org/2000/svg">
<circle cx="30.029" cy="23.1535" r="16.9411" fill="#383632"/>
<path fill-rule="evenodd" clip-rule="evenodd" d="M0 25.5C0 15.8401 7.84012 8 17.5 8C27.1599 8 35 15.8401 35 25.5C35 35.1599 27.1599 43 17.5 43C7.84012 43 0 35.1599 0 25.5ZM25.6458 22.9422L31.3861 20.5676L31.2423 20.1948C29.7501 16.3262 26.6738 13.2494 22.8036 11.775L22.4317 11.6333L20.0572 17.3735L20.457 17.5205C21.61 17.9446 22.6575 18.6132 23.5276 19.4804C24.3977 20.3476 25.0699 21.3928 25.4979 22.5443L25.6458 22.9422ZM14.9995 17.3558L12.5835 11.6153L12.2132 11.7575C10.2902 12.4962 8.54386 13.6306 7.08723 15.0872C5.6306 16.5439 4.49619 18.2902 3.75749 20.2132L3.61483 20.5846L9.35497 22.9798L9.50256 22.579C9.93168 21.4136 10.6096 20.3559 11.4892 19.4792C12.3688 18.6026 13.4288 17.9282 14.5956 17.503L14.9995 17.3558ZM9.35598 28.0391L3.61437 30.4143L3.7575 30.7868C4.49534 32.7072 5.6273 34.4518 7.08043 35.9081C8.53357 37.3644 10.2757 38.5002 12.1945 39.2422L12.5652 39.3856L14.9818 33.6436L14.5771 33.4968C13.4138 33.0747 12.3568 32.4033 11.4802 31.5297C10.6037 30.6561 9.92876 29.6014 9.50276 28.4395L9.35598 28.0391ZM20.0576 33.6454L22.4325 39.3864L22.8055 39.2422C24.7219 38.5011 26.4622 37.3678 27.915 35.915C29.3678 34.4622 30.5011 32.7219 31.2422 30.8055L31.3856 30.4348L25.6436 28.0182L25.4968 28.4229C25.0755 29.584 24.4063 30.6395 23.5358 31.5159C22.6653 32.3923 21.6144 33.0686 20.4561 33.4977L20.0576 33.6454ZM11.7178 25.5C11.7178 28.699 14.301 31.2822 17.5 31.2822C20.699 31.2822 23.2822 28.699 23.2822 25.5C23.2822 22.301 20.699 19.7178 17.5 19.7178C14.301 19.7178 11.7178 22.301 11.7178 25.5Z" fill="#FC9D17"/>
<circle cx="6.50244" cy="40.4502" r="4.73193" transform="rotate(-180 6.50244 40.4502)" fill="#383632"/>
</svg>
