<svg width="48" height="48" viewBox="0 0 48 48" fill="none" xmlns="http://www.w3.org/2000/svg">
<circle cx="30.029" cy="23.1531" r="16.9411" fill="#383632"/>
<path d="M24.7083 22.0623C24.4401 21.7972 24.0781 21.6485 23.701 21.6485C23.3238 21.6485 22.9619 21.7972 22.6936 22.0623L14.4258 30.3301L11.4038 27.3081C11.1356 27.043 10.7736 26.8943 10.3965 26.8943C10.0193 26.8943 9.65741 27.043 9.38915 27.3081C8.83797 27.8593 8.83797 28.7716 9.38915 29.3227L13.0764 33.01C13.8176 33.7512 15.015 33.7512 15.7563 33.01L24.6893 24.077C25.2595 23.5258 25.2595 22.6135 24.7083 22.0623ZM30.4102 7.7505H28.5096V5.84986C28.5096 4.80451 27.6543 3.94922 26.6089 3.94922C25.5636 3.94922 24.7083 4.80451 24.7083 5.84986V7.7505H9.50319V5.84986C9.50319 4.80451 8.64791 3.94922 7.60255 3.94922C6.5572 3.94922 5.70192 4.80451 5.70192 5.84986V7.7505H3.80128C1.69157 7.7505 0.0190064 9.46107 0.0190064 11.5518L0 38.1607C0 39.1689 0.40049 40.1357 1.11337 40.8486C1.82625 41.5615 2.79312 41.962 3.80128 41.962H30.4102C32.5009 41.962 34.2115 40.2514 34.2115 38.1607V11.5518C34.2115 9.46107 32.5009 7.7505 30.4102 7.7505ZM28.5096 38.1607H5.70192C4.65656 38.1607 3.80128 37.3054 3.80128 36.2601V17.2537H30.4102V36.2601C30.4102 37.3054 29.5549 38.1607 28.5096 38.1607Z" fill="#FC9D17"/>
<circle cx="7.50244" cy="41.4502" r="4.73193" transform="rotate(-180 7.50244 41.4502)" fill="#383632"/>
</svg>
