<svg width="48" height="48" viewBox="0 0 48 48" fill="none" xmlns="http://www.w3.org/2000/svg">
<circle cx="30.029" cy="23.1535" r="16.9411" fill="#383632"/>
<path d="M15.465 16.6963C14.8359 16.6961 14.2259 16.4797 13.7372 16.0835C13.2485 15.6872 12.9108 15.1351 12.7807 14.5195C9.99397 15.5278 7.61383 17.4204 6.00372 19.9083C4.39362 22.3962 3.64203 25.3427 3.86373 28.2979C4.08543 31.2531 5.26824 34.0545 7.23153 36.2743C9.19483 38.4942 11.8307 40.0104 14.7366 40.5916C17.6426 41.1727 20.6589 40.7868 23.3249 39.4928C25.9909 38.1988 28.1602 36.0678 29.5014 33.4252C30.8426 30.7826 31.282 27.7736 30.7526 24.8578C30.2232 21.942 28.754 19.2796 26.5694 17.2772C26.0677 16.8211 25.7546 16.194 25.6916 15.5189C25.6285 14.8438 25.8202 14.1695 26.2288 13.6285C24.4743 12.4957 22.5174 11.7126 20.4658 11.3223C20.4028 11.7835 20.2228 12.221 19.9429 12.593L17.6514 15.6112C17.3947 15.9476 17.0639 16.2205 16.6848 16.4087C16.3056 16.5968 15.8883 16.6953 15.465 16.6963ZM7.32105 28.3044C7.10384 28.2991 6.89731 28.2091 6.74555 28.0536C6.5938 27.8981 6.50885 27.6894 6.50885 27.4721C6.50885 27.2549 6.5938 27.0462 6.74555 26.8907C6.89731 26.7352 7.10384 26.6452 7.32105 26.6399H8.88615C9.10336 26.6452 9.30989 26.7352 9.46165 26.8907C9.6134 27.0462 9.69835 27.2549 9.69835 27.4721C9.69835 27.6894 9.6134 27.8981 9.46165 28.0536C9.30989 28.2091 9.10336 28.2991 8.88615 28.3044H7.32105ZM11.596 34.3594L10.4892 35.4656C10.4121 35.5441 10.3202 35.6065 10.2189 35.6493C10.1176 35.6921 10.0088 35.7143 9.89878 35.7148C9.78878 35.7153 9.67979 35.6939 9.57809 35.6521C9.47638 35.6102 9.38399 35.5485 9.30625 35.4707C9.22851 35.3929 9.16696 35.3004 9.12516 35.1987C9.08336 35.097 9.06214 34.9879 9.06272 34.8779C9.0633 34.768 9.08567 34.6592 9.12854 34.5579C9.17141 34.4566 9.23393 34.3648 9.31249 34.2878L10.4193 33.1815C10.576 33.028 10.787 32.9425 11.0064 32.9436C11.2258 32.9448 11.4358 33.0325 11.5909 33.1877C11.746 33.3429 11.8335 33.5531 11.8344 33.7725C11.8354 33.9919 11.7497 34.2028 11.596 34.3593V34.3594ZM11.9459 21.9428C11.7896 22.0988 11.5778 22.1863 11.3571 22.1862C11.1363 22.186 10.9247 22.0983 10.7686 21.9422L9.66237 20.8354C9.58389 20.7584 9.52145 20.6665 9.47868 20.5652C9.4359 20.4638 9.41363 20.355 9.41316 20.245C9.41268 20.135 9.43401 20.026 9.4759 19.9243C9.5178 19.8226 9.57943 19.7302 9.65725 19.6525C9.73506 19.5748 9.82751 19.5132 9.92925 19.4714C10.031 19.4296 10.14 19.4084 10.25 19.409C10.36 19.4096 10.4688 19.4319 10.5701 19.4748C10.6714 19.5177 10.7632 19.5802 10.8402 19.6587L11.9464 20.7656C12.1024 20.9218 12.1899 21.1336 12.1898 21.3543C12.1897 21.5751 12.102 21.7868 11.9459 21.9428ZM18.2501 38.0647C18.2528 38.1756 18.2333 38.2861 18.1927 38.3894C18.1521 38.4927 18.0912 38.5869 18.0137 38.6664C17.9361 38.7458 17.8435 38.809 17.7412 38.8521C17.6389 38.8952 17.5289 38.9174 17.4179 38.9174C17.3069 38.9174 17.197 38.8952 17.0947 38.8521C16.9924 38.809 16.8997 38.7458 16.8222 38.6664C16.7446 38.5869 16.6837 38.4927 16.6431 38.3894C16.6025 38.2861 16.583 38.1756 16.5857 38.0647V36.4996C16.583 36.3886 16.6025 36.2782 16.6431 36.1748C16.6837 36.0715 16.7446 35.9773 16.8222 35.8979C16.8997 35.8184 16.9924 35.7553 17.0947 35.7122C17.197 35.669 17.3069 35.6468 17.4179 35.6468C17.5289 35.6468 17.6389 35.669 17.7412 35.7122C17.8435 35.7553 17.9361 35.8184 18.0137 35.8979C18.0912 35.9773 18.1521 36.0715 18.1927 36.1748C18.2333 36.2782 18.2528 36.3886 18.2501 36.4996V38.0647ZM27.7105 26.6399C27.9277 26.6452 28.1343 26.7352 28.286 26.8907C28.4378 27.0462 28.5227 27.2549 28.5227 27.4721C28.5227 27.6894 28.4378 27.8981 28.286 28.0536C28.1343 28.2091 27.9277 28.2991 27.7105 28.3044H26.1455C26.0345 28.3071 25.9241 28.2875 25.8207 28.2469C25.7174 28.2063 25.6232 28.1454 25.5438 28.0679C25.4643 27.9904 25.4012 27.8977 25.3581 27.7954C25.315 27.6931 25.2927 27.5832 25.2927 27.4721C25.2927 27.3611 25.315 27.2512 25.3581 27.1489C25.4012 27.0466 25.4643 26.9539 25.5438 26.8764C25.6232 26.7988 25.7174 26.738 25.8207 26.6973C25.9241 26.6567 26.0345 26.6372 26.1455 26.6399H27.7105ZM23.2561 20.344L24.363 19.2378C24.44 19.1593 24.5319 19.0969 24.6332 19.0541C24.7345 19.0114 24.8434 18.9891 24.9533 18.9886C25.0633 18.9881 25.1723 19.0095 25.274 19.0514C25.3757 19.0933 25.4681 19.1549 25.5459 19.2327C25.6236 19.3105 25.6852 19.403 25.727 19.5047C25.7688 19.6065 25.79 19.7155 25.7894 19.8255C25.7888 19.9355 25.7664 20.0442 25.7236 20.1455C25.6807 20.2468 25.6182 20.3386 25.5396 20.4156L24.4328 21.5218C24.3558 21.6003 24.2639 21.6627 24.1626 21.7055C24.0612 21.7483 23.9524 21.7705 23.8424 21.771C23.7324 21.7715 23.6234 21.7502 23.5217 21.7083C23.42 21.6664 23.3276 21.6047 23.2499 21.5269C23.1722 21.4491 23.1106 21.3567 23.0688 21.2549C23.027 21.1532 23.0058 21.0442 23.0064 20.9342C23.007 20.8242 23.0293 20.7154 23.0722 20.6141C23.1151 20.5128 23.1776 20.421 23.2561 20.344ZM22.9731 32.9689C23.1296 32.8133 23.3413 32.726 23.562 32.726C23.7827 32.726 23.9944 32.8133 24.1509 32.9689L25.2577 34.0757C25.4104 34.2326 25.4951 34.4433 25.4936 34.6623C25.4921 34.8812 25.4045 35.0907 25.2497 35.2455C25.0949 35.4003 24.8854 35.488 24.6665 35.4895C24.4475 35.491 24.2368 35.4062 24.0799 35.2535L22.9731 34.1466C22.8173 33.9903 22.7298 33.7785 22.7298 33.5578C22.7298 33.337 22.8173 33.1253 22.9731 32.9689ZM18.2501 19.8268V26.1443L20.1483 24.3233C20.2264 24.2443 20.3196 24.1818 20.4223 24.1393C20.5251 24.0969 20.6352 24.0755 20.7464 24.0763C20.8575 24.0772 20.9673 24.1002 21.0694 24.1442C21.1715 24.1882 21.2637 24.2521 21.3407 24.3323C21.4176 24.4125 21.4777 24.5072 21.5175 24.611C21.5572 24.7148 21.5758 24.8255 21.5721 24.9366C21.5684 25.0476 21.5425 25.1568 21.4959 25.2577C21.4493 25.3586 21.383 25.4492 21.3008 25.524L17.9944 28.6976C17.8768 28.8107 17.7284 28.8867 17.5679 28.9161C17.4074 28.9455 17.2418 28.9271 17.0916 28.8631C16.9415 28.7991 16.8135 28.6924 16.7236 28.5562C16.6337 28.42 16.5858 28.2604 16.5859 28.0972V19.8268C16.5912 19.6096 16.6812 19.403 16.8367 19.2513C16.9922 19.0995 17.2008 19.0146 17.4181 19.0146C17.6354 19.0146 17.844 19.0995 17.9995 19.2513C18.155 19.403 18.245 19.6096 18.2503 19.8268H18.2501Z" fill="#FC9D17"/>
<path d="M29.1512 14.4591C28.9402 14.2657 28.6611 14.164 28.3751 14.1764C28.0892 14.1888 27.8199 14.3143 27.6265 14.5253C27.4331 14.7363 27.3314 15.0154 27.3438 15.3014C27.3562 15.5873 27.4817 15.8566 27.6927 16.05C30.2494 18.3944 31.9293 21.5412 32.4545 24.97C32.9797 28.3989 32.3187 31.9042 30.5809 34.9064C28.8432 37.9085 26.1327 40.2275 22.8978 41.4799C19.6629 42.7322 16.0975 42.8428 12.7912 41.7934C9.48497 40.7439 6.63596 38.5974 4.71545 35.7087C2.79493 32.8201 1.91799 29.3624 2.22965 25.9076C2.54131 22.4528 4.02292 19.2079 6.4294 16.7096C8.83588 14.2113 12.0231 12.6093 15.4638 12.1685L14.6048 13.2999C14.4317 13.5278 14.3561 13.8151 14.3949 14.0987C14.4336 14.3823 14.5834 14.6388 14.8113 14.812C15.0392 14.9851 15.3266 15.0606 15.6101 15.0218C15.8937 14.9831 16.1503 14.8333 16.3234 14.6054L18.6157 11.5866C18.7756 11.3759 18.8525 11.1139 18.832 10.8502C18.8115 10.5864 18.6948 10.3394 18.5042 10.156L15.7712 7.52971C15.5649 7.33135 15.2882 7.22308 15.002 7.22873C14.7158 7.23437 14.4436 7.35346 14.2453 7.5598C14.0469 7.76615 13.9386 8.04284 13.9443 8.329C13.9499 8.61517 14.069 8.88738 14.2754 9.08574L15.2473 10.0199C11.313 10.5096 7.66394 12.3286 4.9046 15.1755C2.14527 18.0225 0.44117 21.7265 0.0745569 25.6743C-0.292056 29.622 0.700811 33.5765 2.88871 36.8829C5.07662 40.1892 8.32829 42.6491 12.1052 43.8549C15.882 45.0608 19.9575 44.9404 23.6566 43.5136C27.3557 42.0868 30.4565 39.4393 32.4453 36.0095C34.4342 32.5797 35.1918 28.5735 34.5927 24.6543C33.9937 20.7351 32.0738 17.1381 29.1512 14.4591Z" fill="#FC9D17"/>
<circle cx="6.50244" cy="40.4502" r="4.73193" transform="rotate(-180 6.50244 40.4502)" fill="#383632"/>
</svg>
