<svg width="48" height="48" viewBox="0 0 48 48" fill="none" xmlns="http://www.w3.org/2000/svg">
<circle cx="30.0293" cy="23.1535" r="16.9411" fill="#383632"/>
<path d="M13.1977 16.3119V6.41357H3.29943C2.42437 6.41357 1.58515 6.76119 0.966382 7.37996C0.347618 7.99872 0 8.83794 0 9.71301V38.3081C0 39.1832 0.347618 40.0224 0.966382 40.6412C1.58515 41.2599 2.42437 41.6075 3.29943 41.6075H13.763C12.2117 39.7329 11.2646 37.4322 11.0465 35.0087H9.8983C9.60661 35.0087 9.32687 34.8928 9.12062 34.6865C8.91436 34.4803 8.79849 34.2005 8.79849 33.9089C8.79849 33.6172 8.91436 33.3374 9.12062 33.1312C9.32687 32.9249 9.60661 32.809 9.8983 32.809H11.0465C11.1137 32.0648 11.2499 31.3284 11.4534 30.6094H9.8983C9.60661 30.6094 9.32687 30.4936 9.12062 30.2873C8.91436 30.081 8.79849 29.8013 8.79849 29.5096C8.79849 29.2179 8.91436 28.9382 9.12062 28.7319C9.32687 28.5257 9.60661 28.4098 9.8983 28.4098H12.3179C12.7204 27.6223 13.2065 26.8855 13.763 26.2102H9.8983C9.60661 26.2102 9.32687 26.0943 9.12062 25.8881C8.91436 25.6818 8.79849 25.4021 8.79849 25.1104C8.79849 24.8187 8.91436 24.5389 9.12062 24.3327C9.32687 24.1264 9.60661 24.0106 9.8983 24.0106H16.1386C18.1073 22.6248 20.5071 21.8109 23.096 21.8109C24.2398 21.8109 25.3463 21.9693 26.3955 22.2663V19.6113H16.4972C15.6221 19.6113 14.7829 19.2637 14.1641 18.6449C13.5454 18.0262 13.1977 17.1869 13.1977 16.3119ZM4.39925 25.1104C4.39925 24.8187 4.51512 24.5389 4.72137 24.3327C4.92763 24.1264 5.20737 24.0106 5.49906 24.0106C5.79075 24.0106 6.07049 24.1264 6.27674 24.3327C6.483 24.5389 6.59887 24.8187 6.59887 25.1104C6.59887 25.4021 6.483 25.6818 6.27674 25.8881C6.07049 26.0943 5.79075 26.2102 5.49906 26.2102C5.20737 26.2102 4.92763 26.0943 4.72137 25.8881C4.51512 25.6818 4.39925 25.4021 4.39925 25.1104ZM4.39925 29.5096C4.39925 29.2179 4.51512 28.9382 4.72137 28.7319C4.92763 28.5257 5.20737 28.4098 5.49906 28.4098C5.79075 28.4098 6.07049 28.5257 6.27674 28.7319C6.483 28.9382 6.59887 29.2179 6.59887 29.5096C6.59887 29.8013 6.483 30.081 6.27674 30.2873C6.07049 30.4936 5.79075 30.6094 5.49906 30.6094C5.20737 30.6094 4.92763 30.4936 4.72137 30.2873C4.51512 30.081 4.39925 29.8013 4.39925 29.5096ZM5.49906 32.809C5.79075 32.809 6.07049 32.9249 6.27674 33.1312C6.483 33.3374 6.59887 33.6172 6.59887 33.9089C6.59887 34.2005 6.483 34.4803 6.27674 34.6865C6.07049 34.8928 5.79075 35.0087 5.49906 35.0087C5.20737 35.0087 4.92763 34.8928 4.72137 34.6865C4.51512 34.4803 4.39925 34.2005 4.39925 33.9089C4.39925 33.6172 4.51512 33.3374 4.72137 33.1312C4.92763 32.9249 5.20737 32.809 5.49906 32.809ZM15.3974 16.3119V6.96348L25.8456 17.4117H16.4972C16.2055 17.4117 15.9257 17.2958 15.7195 17.0896C15.5132 16.8833 15.3974 16.6036 15.3974 16.3119Z" fill="#FC9D17"/>
<circle cx="5.50244" cy="41.4502" r="4.73193" transform="rotate(-180 5.50244 41.4502)" fill="#383632"/>
<path fill-rule="evenodd" clip-rule="evenodd" d="M23.5359 43.0862C28.3921 43.0862 32.3288 39.1494 32.3288 34.2932C32.3288 29.4371 28.3921 25.5003 23.5359 25.5003C18.6797 25.5003 14.743 29.4371 14.743 34.2932C14.743 39.1494 18.6797 43.0862 23.5359 43.0862ZM23.5359 44.6324C29.2461 44.6324 33.8751 40.0034 33.8751 34.2932C33.8751 28.5831 29.2461 23.9541 23.5359 23.9541C17.8258 23.9541 13.1968 28.5831 13.1968 34.2932C13.1968 40.0034 17.8258 44.6324 23.5359 44.6324Z" fill="#FC9D17"/>
<path d="M23.6681 33.3557V33.8136H24.126H26.8735C26.9949 33.8136 27.1114 33.8618 27.1973 33.9477C27.2831 34.0336 27.3314 34.15 27.3314 34.2715C27.3314 34.3929 27.2831 34.5094 27.1973 34.5953C27.1114 34.6811 26.9949 34.7294 26.8735 34.7294H23.2102C23.0888 34.7294 22.9723 34.6811 22.8865 34.5953L22.5647 34.917L22.8865 34.5953C22.8006 34.5094 22.7523 34.3929 22.7523 34.2715V28.7766C22.7523 28.6552 22.8006 28.5387 22.8865 28.4529C22.9723 28.367 23.0888 28.3187 23.2102 28.3187C23.3317 28.3187 23.4482 28.367 23.534 28.4529C23.6199 28.5387 23.6681 28.6552 23.6681 28.7766V33.3557Z" stroke="#FC9D17" stroke-width="0.915806"/>
</svg>
