<svg width="48" height="48" viewBox="0 0 48 48" fill="none" xmlns="http://www.w3.org/2000/svg">
<circle cx="28.2585" cy="23.1531" r="16.9411" fill="#383632"/>
<path fill-rule="evenodd" clip-rule="evenodd" d="M3.31844 12.6824V30.7761L14.2549 39.7596C15.1709 40.512 16.491 40.512 17.407 39.7596L28.3435 30.7761V12.6824L16.6661 8.51193C16.126 8.31905 15.5359 8.31905 14.9958 8.51193L3.31844 12.6824ZM1.70865 9.97731C0.821615 10.2941 0.229492 11.1343 0.229492 12.0762V31.1827C0.229492 31.8496 0.528193 32.4815 1.04358 32.9049L12.2942 42.1465C14.3497 43.835 17.3122 43.835 19.3677 42.1465L30.6183 32.9049C31.1337 32.4815 31.4324 31.8496 31.4324 31.1827V12.0762C31.4324 11.1343 30.8403 10.2941 29.9532 9.97731L17.705 5.60293C16.4931 5.17012 15.1688 5.17012 13.9569 5.60293L1.70865 9.97731Z" fill="#FC9D17"/>
<path fill-rule="evenodd" clip-rule="evenodd" d="M30.6295 30.7402L19.6088 40.903C17.475 42.8706 14.188 42.8706 12.0542 40.903L1.03345 30.7402H30.6295Z" fill="#FC9D17"/>
<path fill-rule="evenodd" clip-rule="evenodd" d="M30.6295 12.7715L18.3114 6.64923C16.7493 5.87284 14.9137 5.87284 13.3516 6.64923L1.03345 12.7715H30.6295Z" fill="#FC9D17"/>
<path fill-rule="evenodd" clip-rule="evenodd" d="M22.5859 17.4493C23.1816 17.4493 23.48 18.1695 23.0588 18.5908L14.4482 27.2013C14.013 27.6365 13.3074 27.6365 12.8722 27.2013L8.6031 22.9321C8.18188 22.5109 8.48021 21.7907 9.0759 21.7907H11.271C11.5666 21.7907 11.85 21.9081 12.059 22.1171L13.5026 23.5607C13.5897 23.6478 13.7308 23.6478 13.8178 23.5608L19.603 17.7758C19.812 17.5669 20.0954 17.4495 20.3909 17.4495L22.5859 17.4493Z" fill="#FC9D17"/>
<circle cx="4.73193" cy="38.4502" r="4.73193" transform="rotate(-180 4.73193 38.4502)" fill="#383632"/>
</svg>
