<svg width="48" height="48" viewBox="0 0 48 48" fill="none" xmlns="http://www.w3.org/2000/svg">
<circle cx="30.0293" cy="23.1535" r="16.9411" fill="#383632"/>
<path d="M13.4787 33.4212C14.0078 33.7965 14.6402 33.9989 15.2889 34.0006C15.9377 34.0023 16.571 33.8032 17.1022 33.4307C17.5786 33.0918 17.9528 32.6283 18.181 32.0907L19.6351 27.6565C19.9907 26.5878 20.5905 25.6166 21.3869 24.8201C22.1834 24.0237 23.1546 23.4239 24.2233 23.0683L28.4951 21.6766C29.1081 21.4604 29.6389 21.0594 30.0144 20.5288C30.3899 19.9982 30.5915 19.3642 30.5915 18.7142C30.5915 18.0642 30.3899 17.4302 30.0144 16.8996C29.6389 16.3691 29.1081 15.968 28.4951 15.7519L24.1422 14.3483C23.0767 13.9921 22.1084 13.3936 21.3133 12.5999C20.5182 11.8062 19.918 10.839 19.5598 9.77423L18.1728 5.50482C17.9569 4.89169 17.5556 4.3609 17.0245 3.986C16.4912 3.61737 15.8582 3.41992 15.2098 3.41992C14.5615 3.41992 13.9285 3.61737 13.3951 3.986C12.8545 4.36882 12.4483 4.91217 12.2339 5.53894L10.8304 9.85305C10.474 10.8906 9.88697 11.8339 9.11345 12.6119C8.33993 13.3899 7.40007 13.9824 6.36455 14.3448L2.0975 15.7307C1.48124 15.9478 0.948015 16.3516 0.572069 16.886C0.196124 17.4204 -0.00382816 18.0587 5.55211e-05 18.7121C0.00393921 19.3654 0.211465 20.0013 0.593737 20.5312C0.976009 21.0611 1.514 21.4586 2.13279 21.6683L6.35279 23.0389C7.42207 23.3975 8.39337 23.9997 9.19004 24.798C9.98671 25.5963 10.5869 26.5689 10.9434 27.6389L12.3316 31.9012C12.5469 32.5142 12.9481 33.0459 13.4798 33.4212H13.4787ZM31.6186 44.1647C32.0057 44.4389 32.4669 44.5871 32.941 44.5871L32.9468 44.5906C33.4266 44.5905 33.8942 44.4396 34.2834 44.1592C34.6727 43.8789 34.9641 43.4832 35.1163 43.0283L35.7857 40.9695C35.9233 40.5577 36.1551 40.1836 36.461 39.8753C36.7668 39.5695 37.1398 39.3401 37.5492 39.2024L39.6551 38.5177C39.9888 38.3999 40.2906 38.2063 40.5368 37.9522C40.7831 37.698 40.967 37.3902 41.0742 37.053C41.1814 36.7157 41.2089 36.3582 41.1545 36.0085C41.1002 35.6588 40.9654 35.3265 40.761 35.0377C40.4702 34.6309 40.0553 34.3296 39.5786 34.1789L37.5115 33.5095C37.1007 33.3722 36.7275 33.1414 36.4212 32.8351C36.115 32.5288 35.8841 32.1556 35.7468 31.7448L35.0621 29.6401C34.9036 29.1905 34.6087 28.8016 34.2184 28.5278C33.8282 28.2539 33.3621 28.1088 32.8854 28.1127C32.4087 28.1166 31.9451 28.2693 31.5594 28.5494C31.1737 28.8296 30.8851 29.2232 30.7339 29.6754L30.061 31.7424C29.9276 32.1471 29.7035 32.5159 29.4058 32.8207C29.1081 33.1255 28.7447 33.3583 28.3433 33.5012L26.2375 34.1859C25.7881 34.3443 25.3994 34.639 25.1256 35.029C24.8519 35.4189 24.7067 35.8846 24.7105 36.3611C24.7142 36.8375 24.8667 37.3009 25.1466 37.6865C25.4264 38.072 25.8198 38.3606 26.2716 38.5118L28.3327 39.1824C28.7446 39.3199 29.1186 39.5517 29.425 39.8593C29.7313 40.1669 29.9616 40.5418 30.0974 40.9542L30.7821 43.0577C30.9398 43.5048 31.2316 43.8918 31.6174 44.1647H31.6186Z" fill="#FC9D17"/>
<circle cx="10.5024" cy="34.4502" r="4.73193" transform="rotate(-180 10.5024 34.4502)" fill="#383632"/>
</svg>
