<svg width="7" height="8" viewBox="0 0 7 8" fill="none" xmlns="http://www.w3.org/2000/svg">
<path d="M3.83588 1.03912C3.7468 0.950045 3.62598 0.9 3.5 0.9C3.37402 0.9 3.2532 0.950045 3.16412 1.03912C3.07504 1.1282 3.025 1.24902 3.025 1.375V3.525H0.875C0.749022 3.525 0.628204 3.57504 0.539124 3.66412C0.450045 3.7532 0.4 3.87402 0.4 4C0.4 4.12598 0.450045 4.2468 0.539124 4.33588C0.628204 4.42496 0.749022 4.475 0.875 4.475H3.025V6.625C3.025 6.75098 3.07504 6.8718 3.16412 6.96088C3.2532 7.04996 3.37402 7.1 3.5 7.1C3.62598 7.1 3.7468 7.04996 3.83588 6.96088C3.92496 6.8718 3.975 6.75098 3.975 6.625V4.475H6.125C6.25098 4.475 6.3718 4.42496 6.46088 4.33588C6.54996 4.2468 6.6 4.12598 6.6 4C6.6 3.87402 6.54996 3.7532 6.46088 3.66412C6.3718 3.57504 6.25098 3.525 6.125 3.525H3.975V1.375C3.975 1.24902 3.92496 1.1282 3.83588 1.03912Z" fill="#242424" stroke="#242424" stroke-width="0.2"/>
</svg>
