<svg width="24" height="24" viewBox="0 0 24 24" fill="none" xmlns="http://www.w3.org/2000/svg">
<path fill-rule="evenodd" clip-rule="evenodd" d="M5.41187 10.3571C5.41187 6.81813 7.20866 3.5 12.0001 3.5C17.9894 3.5 18.5883 8.64286 18.5883 10.3571C18.5883 11.5863 17.145 14.7434 13.3958 18.2651C12.6054 19.0075 11.3829 19.0231 10.6061 18.2664C7.66417 15.4005 5.41187 11.5465 5.41187 10.3571ZM12.0001 12.5C13.4473 12.5 14.6205 11.3807 14.6205 10C14.6205 8.61929 13.4473 7.5 12.0001 7.5C10.553 7.5 9.37983 8.61929 9.37983 10C9.37983 11.3807 10.553 12.5 12.0001 12.5Z" fill="#FDBA5C"/>
<path d="M17.7273 9.67857C17.7273 8.22935 17.1239 6.83949 16.0498 5.81474C14.9757 4.78999 13.519 4.21429 12 4.21429C10.481 4.21429 9.02428 4.78999 7.95021 5.81474C6.87613 6.83949 6.27273 8.22935 6.27273 9.67857C6.27273 11.9201 8.15255 14.8417 12 18.3413C15.8475 14.8417 17.7273 11.9201 17.7273 9.67857ZM12.2995 19.7383C12.1288 19.8886 11.8712 19.8886 11.7005 19.7383C7.23309 15.8042 5 12.4502 5 9.67857C5 7.9073 5.7375 6.20858 7.05025 4.95611C8.36301 3.70363 10.1435 3 12 3C13.8565 3 15.637 3.70363 16.9497 4.95611C18.2625 6.20858 19 7.9073 19 9.67857C19 12.4502 16.7669 15.8042 12.2995 19.7383Z" fill="#242424"/>
<path d="M7 20H17" stroke="#242424" stroke-width="1.3" stroke-linecap="round"/>
<path d="M11.9999 11.4997C12.5063 11.4997 12.9918 11.3078 13.3499 10.9662C13.7079 10.6247 13.909 10.1614 13.909 9.67829C13.909 9.19522 13.7079 8.73193 13.3499 8.39035C12.9918 8.04876 12.5063 7.85686 11.9999 7.85686C11.4936 7.85686 11.008 8.04876 10.65 8.39035C10.292 8.73193 10.0908 9.19522 10.0908 9.67829C10.0908 10.1614 10.292 10.6247 10.65 10.9662C11.008 11.3078 11.4936 11.4997 11.9999 11.4997ZM11.9999 12.714C11.1561 12.714 10.3468 12.3942 9.75005 11.8249C9.15334 11.2556 8.81812 10.4834 8.81812 9.67829C8.81812 8.87317 9.15334 8.10103 9.75005 7.53172C10.3468 6.96241 11.1561 6.64258 11.9999 6.64258C12.8438 6.64258 13.6531 6.96241 14.2498 7.53172C14.8465 8.10103 15.1818 8.87317 15.1818 9.67829C15.1818 10.4834 14.8465 11.2556 14.2498 11.8249C13.6531 12.3942 12.8438 12.714 11.9999 12.714Z" fill="#242424"/>
</svg>
