<svg width="24" height="24" viewBox="0 0 24 24" fill="none" xmlns="http://www.w3.org/2000/svg">
<circle cx="11.9998" cy="12.0003" r="5.01101" fill="#FDBA5C"/>
<path d="M4.5 21L19.5 21C19.8977 20.9996 20.279 20.8414 20.5602 20.5602C20.8414 20.279 20.9996 19.8977 21 19.5L21 4.5C20.9996 4.1023 20.8414 3.721 20.5602 3.43978C20.279 3.15856 19.8977 3.0004 19.5 3L4.5 3C4.1023 3.0004 3.721 3.15856 3.43978 3.43978C3.15856 3.721 3.0004 4.1023 3 4.5L3 19.5C3.0004 19.8977 3.15856 20.279 3.43978 20.5602C3.721 20.8414 4.1023 20.9996 4.5 21ZM19.5 4.5L4.5 19.5L4.5 4.5L19.5 4.5Z" fill="#1C1C1C"/>
</svg>
