<svg width="24" height="24" viewBox="0 0 24 24" fill="none" xmlns="http://www.w3.org/2000/svg">
<path d="M4.9375 21L19.9375 21C20.3352 20.9996 20.7165 20.8414 20.9977 20.5602C21.2789 20.279 21.4371 19.8977 21.4375 19.5L21.4375 4.5C21.4371 4.1023 21.2789 3.721 20.9977 3.43978C20.7165 3.15856 20.3352 3.0004 19.9375 3L4.9375 3C4.5398 3.0004 4.1585 3.15856 3.87728 3.43978C3.59606 3.721 3.4379 4.1023 3.4375 4.5L3.4375 19.5C3.4379 19.8977 3.59606 20.279 3.87728 20.5602C4.1585 20.8414 4.5398 20.9996 4.9375 21ZM19.9375 4.5L4.9375 19.5L4.9375 4.5L19.9375 4.5Z" fill="#1C1C1C"/>
<circle cx="12.4373" cy="12.0003" r="5.01101" fill="#FDBA5C"/>
</svg>
